<?xml version="1.0" encoding="UTF-8" standalone="no"?>
<svg
   version="1.1"
   preserveAspectRatio="xMidYMid"
   zoomAndPan="magnify"
   id="Electron shell Ununoctium"
   viewBox="-1000 -1000 500 500"
   width="500"
   height="500"
   xmlns="http://www.w3.org/2000/svg"
   xmlns:svg="http://www.w3.org/2000/svg"
   xmlns:rdf="http://www.w3.org/1999/02/22-rdf-syntax-ns#"
   xmlns:cc="http://creativecommons.org/ns#"
   xmlns:dc="http://purl.org/dc/elements/1.1/">
  <metadata
     id="metadata4245">
    <rdf:RDF>
      <cc:Work
         rdf:about="">
        <dc:format>image/svg+xml</dc:format>
        <dc:type
           rdf:resource="http://purl.org/dc/dcmitype/StillImage" />
      </cc:Work>
    </rdf:RDF>
  </metadata>
  <desc
     id="element_description">118 Uuo (Ununoctium) Legend_color:#e8e8e8</desc>
  <desc
     id="element_electron_configuration">2,8,18,32,32,18,8</desc>
  <defs
     id="defs4107">
    <circle
       id="electron"
       fill="#77868b"
       stroke="none"
       r="30"
       cx="0"
       cy="0" />
  </defs>
  <path
     fill="#c0ffff"
     stroke="#000000"
     stroke-width="0.709"
     stroke-miterlimit="0"
     d="m -712.5,-750 a 37.5,37.5 0 1 1 -75,0 37.5,37.5 0 1 1 75,0 z"
     id="nucleus"
     style="display:inline;fill:#db1828;fill-opacity:1;stroke:none;stroke-width:0;stroke-dasharray:none" />
  <path
     id="orbit"
     style="display:inline;fill:none;fill-opacity:1;stroke:#77868b;stroke-width:0.6375;stroke-dasharray:none;stroke-opacity:1"
     d="m 3810.1263,1603.9283 a 25.75235,25.749649 0 1 1 -51.5047,0 25.76045,25.75775 0 1 1 51.5209,0 z m 12.0029,-2e-4 a 37.753815,37.692426 0 1 1 -75.5076,0 37.76575,37.704343 0 1 1 75.5315,0 z m 11.751,0.2712 a 49.755321,49.75802 0 1 1 -99.5106,0 49.77105,49.773753 0 1 1 99.5421,0 z m 12.168,-0.065 a 61.745756,61.756646 0 1 1 -123.4915,0 61.7653,61.776197 0 1 1 123.5306,0 z m 11.9911,-0.1594 a 73.702976,73.755271 0 1 1 -147.4059,0 73.726275,73.778591 0 1 1 147.4525,0 z"
     transform="matrix(2.3529412,0,0,2.3529412,-9654.4355,-4524.035)" />
  <path
     id="37-Rb"
     style="display:inline;fill:#36a4ff;fill-opacity:1;stroke:none;stroke-width:0;stroke-dasharray:none;stroke-opacity:1"
     d="m -750.027,-914.38339 a 9.412,9.412 0 1 1 0,-18.824 9.412,9.412 0 1 1 0,18.824 z m 0.003,28.2313 a 9.412,9.412 0 1 1 0,-18.824 9.412,9.412 0 1 1 0,18.824 z m 0,291.37209 a 9.412,9.412 0 1 1 0,-18.824 9.412,9.412 0 1 1 0,18.824 z m 136.198,-155.198 a 9.412,9.412 0 1 1 18.824,0 9.412,9.412 0 1 1 -18.824,0 z m -291.472,0 a 9.412,9.412 0 1 1 18.824,0 9.412,9.412 0 1 1 -18.824,0 z m 251.84159,-96.18721 a 9.412,9.412 0 1 1 13.31092,-13.30857 9.412,9.412 0 1 1 -13.30857,13.30857 z m -206.31104,206.31575 a 9.4122453,9.4122453 0 1 1 13.31092,-13.31093 9.412,9.412 0 1 1 -13.30857,13.30857 z m 206.24986,-13.26387 a 9.412,9.412 0 1 1 13.30622,13.30857 9.4139076,9.4139076 0 1 1 -13.30857,-13.31798 z m -206.31104,-206.31809 a 9.412,9.412 0 1 1 13.30622,13.31092 9.412,9.412 0 1 1 -13.30857,-13.30857 z m 109.80763,1.51768 a 9.412,9.412 0 1 1 0,-18.824 9.412,9.412 0 1 1 0,18.824 z m 0,234.89974 a 9.412,9.412 0 1 1 0,-18.824 9.412,9.412 0 1 1 0,18.824 z m -37.54229,-228.42428 a 9.412,9.412 0 1 1 -6.43546,-17.68515 9.4146542,9.4146542 0 1 1 6.43781,17.69456 z m 80.4726,221.11141 a 9.412,9.412 0 1 1 -6.43546,-17.6875 9.412,9.412 0 1 1 6.43781,17.68514 z m -113.04753,-202.19329 a 9.4147696,9.4147696 0 1 1 -12.10384,-14.42389 9.4147696,9.4147696 0 1 1 12.10384,14.42389 z m 151.25084,180.24686 a 9.4129696,9.4129696 0 1 1 -12.10384,-14.41919 9.4129696,9.4129696 0 1 1 12.10384,14.41919 z m -175.47498,-151.5332 a 9.412,9.412 0 1 1 -16.30158,-9.412 9.412,9.412 0 1 1 16.30158,9.412 z m 203.7698,117.65 a 9.412,9.412 0 1 1 -16.30158,-9.412 9.412,9.412 0 1 1 16.30158,9.412 z m -216.52306,-82.27736 a 9.4135399,9.4135399 0 1 1 -18.54164,-3.26596 9.4135399,9.4135399 0 1 1 18.54164,3.26596 z m 231.72344,40.8575 a 9.4135404,9.4135404 0 1 1 -18.54164,-3.26597 9.412,9.412 0 1 1 18.54164,3.24714 z m -231.82462,-3.20008 a 9.4135399,9.4135399 0 1 1 -18.54164,3.26596 9.4135399,9.4135399 0 1 1 18.54164,-3.26596 z m 231.72344,-40.86455 a 9.4139484,9.4139484 0 1 1 -18.54164,3.27067 9.4139484,9.4139484 0 1 1 18.54164,-3.27067 z m -218.87606,76.07719 a 9.412,9.412 0 1 1 -16.29923,9.412 9.412,9.412 0 1 1 16.30158,-9.412 z m 203.79333,-117.6547 a 9.412,9.412 0 1 1 -16.29923,9.412 9.412,9.412 0 1 1 16.30158,-9.412 z m -179.58096,146.54484 a 9.4147671,9.4147671 0 1 1 -12.10383,14.42389 9.4147671,9.4147671 0 1 1 12.10383,-14.42389 z m 151.25084,-180.25157 a 9.4129647,9.4129647 0 1 1 -12.10383,14.41918 9.4129647,9.4129647 0 1 1 12.10383,-14.41918 z m -118.79591,198.99792 a 9.412,9.412 0 1 1 -6.43781,17.68514 9.412,9.412 0 1 1 6.43781,-17.68514 z m 80.4726,-221.11141 a 9.412,9.412 0 1 1 -6.43781,17.68279 9.412,9.412 0 1 1 6.43781,-17.68515 z m -122.7866,119.05709 a 9.412,9.412 0 1 1 -18.824,0 9.412,9.412 0 1 1 18.824,0 z m 178.828,0 a 9.412,9.412 0 1 1 -18.824,0 9.412,9.412 0 1 1 18.824,0 z m -98.826,-80.002 a 9.412,9.412 0 1 1 0,-18.824 9.412,9.412 0 1 1 0,18.824 z m 0,178.828 a 9.412,9.412 0 1 1 0,-18.824 9.412,9.412 0 1 1 0,18.824 z m -56.62965,-42.27164 a 9.412,9.412 0 1 1 -13.30857,13.30856 9.412,9.412 0 1 1 13.30857,-13.30856 z m 126.45022,-126.45022 a 9.412,9.412 0 1 1 -13.30857,13.30856 9.412,9.412 0 1 1 13.30857,-13.30856 z m -126.37257,13.26386 a 9.412,9.412 0 1 1 -13.30857,-13.30857 9.4139076,9.4139076 0 1 1 13.30857,13.31798 z m 126.45022,126.45022 a 9.412,9.412 0 1 1 -13.30857,-13.30857 9.4139076,9.4139076 0 1 1 13.30857,13.31798 z m -69.89822,-121.58422 a 9.412,9.412 0 1 1 0,-18.824 9.412,9.412 0 1 1 0,18.824 z m 0,122.356 a 9.412,9.412 0 1 1 0,-18.824 9.412,9.412 0 1 1 0,18.824 z" />
</svg>
