<?xml version="1.0" encoding="UTF-8" standalone="no"?>
<svg
   version="1.1"
   preserveAspectRatio="xMidYMid"
   zoomAndPan="magnify"
   id="Electron shell Ununoctium"
   viewBox="-1000 -1000 500 500"
   width="500"
   height="500"
   xmlns="http://www.w3.org/2000/svg"
   xmlns:svg="http://www.w3.org/2000/svg"
   xmlns:rdf="http://www.w3.org/1999/02/22-rdf-syntax-ns#"
   xmlns:cc="http://creativecommons.org/ns#"
   xmlns:dc="http://purl.org/dc/elements/1.1/">
  <metadata
     id="metadata4245">
    <rdf:RDF>
      <cc:Work
         rdf:about="">
        <dc:format>image/svg+xml</dc:format>
        <dc:type
           rdf:resource="http://purl.org/dc/dcmitype/StillImage" />
      </cc:Work>
    </rdf:RDF>
  </metadata>
  <desc
     id="element_description">118 Uuo (Ununoctium) Legend_color:#e8e8e8</desc>
  <desc
     id="element_electron_configuration">2,8,18,32,32,18,8</desc>
  <defs
     id="defs4107">
    <circle
       id="electron"
       fill="#77868b"
       stroke="none"
       r="30"
       cx="0"
       cy="0" />
  </defs>
  <path
     fill="#c0ffff"
     stroke="#000000"
     stroke-width="0.709"
     stroke-miterlimit="0"
     d="m -712.5,-750 a 37.5,37.5 0 1 1 -75,0 37.5,37.5 0 1 1 75,0 z"
     id="nucleus"
     style="display:inline;fill:#db1828;fill-opacity:1;stroke:none;stroke-width:0;stroke-dasharray:none" />
  <path
     id="orbit"
     style="display:inline;fill:none;fill-opacity:1;stroke:#77868b;stroke-width:1.5;stroke-dasharray:none;stroke-opacity:1"
     d="m -689.43235,-750.08602 a 60.593765,60.58741 0 1 1 -121.18753,0 60.612825,60.606472 0 1 1 121.22565,0 z m 28.24212,-4.7e-4 a 88.832507,88.688062 0 1 1 -177.66495,0 88.86059,88.716103 0 1 1 177.72118,0 z m 27.64941,0.63812 a 117.07134,117.0777 0 1 1 -234.14259,0 117.10836,117.11472 0 1 1 234.21671,0 z m 28.63059,-0.15295 a 145.28413,145.30976 0 1 1 -290.56824,0 145.33012,145.35576 0 1 1 290.66024,0 z m 28.21435,-0.37505 a 173.41877,173.54182 0 1 1 -346.83742,0 173.47359,173.59669 0 1 1 346.94707,0 z m 27.82353,0.47153 a 201.70977,201.69515 0 1 1 -403.41953,0 201.77353,201.75892 0 1 1 403.54706,0 z" />
  <path
     id="65-Tb"
     style="display:inline;fill:#36a4ff;fill-opacity:1;stroke:none;stroke-width:0;stroke-dasharray:none;stroke-opacity:1"
     d="m -750.02353,-914.37398 a 9.412,9.412 0 1 1 0,-18.824 9.412,9.412 0 1 1 0,18.824 z m 0,347.84398 a 9.412,9.412 0 1 1 0,-18.824 9.412,9.412 0 1 1 0,18.824 z M -585.59,-749.964 a 9.412,9.412 0 1 1 18.824,0 9.412,9.412 0 1 1 -18.824,0 z m -347.944,0 a 9.412,9.412 0 1 1 18.824,0 9.412,9.412 0 1 1 -18.824,0 z m 300.05456,-116.15465 a 9.412,9.412 0 1 1 13.31092,-13.30857 9.412,9.412 0 1 1 -13.30857,13.30857 z m -246.24145,246.25792 a 9.4122426,9.4122426 0 1 1 13.31092,-13.31092 9.412,9.412 0 1 1 -13.30857,13.30857 z m 246.15674,-13.28269 a 9.412,9.412 0 1 1 13.30622,13.30857 9.412,9.412 0 1 1 -13.30857,-13.29445 z M -879.8056,-879.38486 a 9.412,9.412 0 1 1 13.30622,13.30856 9.412,9.412 0 1 1 -13.30857,-13.29445 z m 129.8416,-6.75547 a 9.412,9.412 0 1 1 0,-18.824 9.412,9.412 0 1 1 0,18.824 z m -31.76856,3.63068 a 9.412,9.412 0 1 1 -4.34128,-18.31575 9.412,9.412 0 1 1 4.33893,18.31575 z m -29.66662,10.93204 a 9.412,9.412 0 1 1 -8.45198,-16.81925 9.412,9.412 0 1 1 8.45198,16.81925 z m -26.52302,17.43573 a 9.4120636,9.4120636 0 1 1 -12.10383,-14.41683 9.4129647,9.4129647 0 1 1 12.10383,14.41918 z m -21.76525,22.89469 a 9.412,9.412 0 1 1 -15.09685,-11.23558 9.412,9.412 0 1 1 15.09685,11.23793 z m -15.88275,27.42421 a 9.412,9.412 0 1 1 -17.28043,-7.4543 9.412,9.412 0 1 1 17.28043,7.4543 z m -8.97905,30.48547 a 9.4135399,9.4135399 0 1 1 -18.54164,-3.26596 9.4135399,9.4135399 0 1 1 18.54164,3.26596 z m -1.94357,31.69491 a 9.4137949,9.4137949 0 1 1 -18.79577,1.09415 9.4141384,9.4141384 0 1 1 18.79577,-1.10591 z m 5.57661,31.0596 a 9.4134185,9.4134185 0 1 1 -18.03575,5.40014 9.4139775,9.4139775 0 1 1 18.03339,-5.4119 z m 12.45913,29.12073 a 9.412,9.412 0 1 1 -16.30158,9.412 9.412,9.412 0 1 1 16.30158,-9.412 z m 18.864,25.52064 a 9.412,9.412 0 1 1 -13.69446,12.91326 9.412,9.412 0 1 1 13.69446,-12.91326 z m 24.33002,20.25933 a 9.4123861,9.4123861 0 1 1 -10.34143,15.7298 9.412,9.412 0 1 1 10.34378,-15.71804 z m 28.24777,14.26859 a 9.412,9.412 0 1 1 -6.43781,17.6828 9.412,9.412 0 1 1 6.42369,-17.68515 z m 30.77724,7.28959 a 9.412,9.412 0 1 1 -2.18359,18.69224 9.412,9.412 0 1 1 2.18359,-18.69224 z m 31.71373,0.0753 a 9.412,9.412 0 1 1 2.18358,18.68988 9.412,9.412 0 1 1 -2.16476,-18.69223 z m 30.84077,-7.34136 a 9.412,9.412 0 1 1 6.44016,17.6875 9.412,9.412 0 1 1 -6.43781,-17.68515 z m 28.37012,-14.25918 a 9.412,9.412 0 1 1 10.34379,15.7251 9.4120494,9.4120494 0 1 1 -10.34379,-15.72745 z m 24.33002,-20.46639 a 9.4145339,9.4145339 0 1 1 13.69446,12.92267 9.4145339,9.4145339 0 1 1 -13.69446,-12.92267 z m 18.85459,-25.29475 a 9.4138308,9.4138308 0 1 1 16.30629,9.412 9.4138308,9.4138308 0 1 1 -16.30629,-9.412 z m 12.63561,-29.13485 a 9.4137556,9.4137556 0 1 1 18.03575,5.40249 9.41263,9.41263 0 1 1 -18.0334,-5.40249 z m 5.51543,-31.2949 a 9.4139317,9.4139317 0 1 1 18.79577,1.09885 9.4140004,9.4140004 0 1 1 -18.79577,-1.1012 z m -1.90593,-31.57726 a 9.4133359,9.4133359 0 1 1 18.54164,-3.26361 9.4135399,9.4135399 0 1 1 -18.54164,3.26596 z m -9.12493,-30.36311 a 9.4141563,9.4141563 0 1 1 17.28984,-7.45431 9.4141563,9.4141563 0 1 1 -17.28984,7.45431 z m -15.71804,-27.30421 a 9.412,9.412 0 1 1 15.09685,-11.23793 9.412,9.412 0 1 1 -15.09685,11.23793 z m -21.84055,-23.14176 a 9.4129657,9.4129657 0 1 1 12.10384,-14.41918 9.412,9.412 0 1 1 -12.10384,14.40036 z m -26.42419,-17.42867 a 9.412,9.412 0 1 1 8.45198,-16.81924 9.412,9.412 0 1 1 -8.45198,16.81924 z m -29.83604,-10.88968 a 9.4129712,9.4129712 0 1 1 4.35305,-18.31576 9.4129712,9.4129712 0 1 1 -4.35305,18.31576 z m -31.18054,-60.0768 a 9.412,9.412 0 1 1 0,-18.824 9.412,9.412 0 1 1 0,18.824 z m 0,404.11574 a 9.412,9.412 0 1 1 0,-18.824 9.412,9.412 0 1 1 0,18.824 z m -0.018,-319.39833 a 9.412,9.412 0 1 1 0,-18.824 9.412,9.412 0 1 1 0,18.824 z m 0,234.90033 a 9.412,9.412 0 1 1 0,-18.824 9.412,9.412 0 1 1 0,18.824 z m -37.55141,-228.42252 a 9.412,9.412 0 1 1 -6.43781,-17.68515 9.4146542,9.4146542 0 1 1 6.43781,17.69456 z m 80.47731,221.11141 a 9.412,9.412 0 1 1 -6.43781,-17.6875 9.412,9.412 0 1 1 6.43781,17.68515 z M -820.13352,-832.5084 a 9.4147671,9.4147671 0 1 1 -12.10383,-14.42389 9.4147671,9.4147671 0 1 1 12.10383,14.42389 z m 151.25084,180.24686 a 9.4137212,9.4137212 0 1 1 -12.10618,-14.41918 9.4129647,9.4129647 0 1 1 12.10383,14.41918 z m -175.48203,-151.5332 a 9.412,9.412 0 1 1 -16.30159,-9.412 9.412,9.412 0 1 1 16.30159,9.412 z m 203.77686,117.65 a 9.412,9.412 0 1 1 -16.30159,-9.412 9.412,9.412 0 1 1 16.30159,9.412 z m -216.53483,-82.2797 a 9.4135404,9.4135404 0 1 1 -18.54164,-3.26597 9.4135404,9.4135404 0 1 1 18.54164,3.26597 z m 231.7305,40.85984 a 9.4135399,9.4135399 0 1 1 -18.54164,-3.26596 9.412,9.412 0 1 1 18.54164,3.24714 z m -231.83638,-3.20008 a 9.4135399,9.4135399 0 1 1 -18.54164,3.26596 9.4135399,9.4135399 0 1 1 18.54164,-3.26596 z m 231.72814,-40.86455 a 9.4139484,9.4139484 0 1 1 -18.54164,3.27067 9.4139484,9.4139484 0 1 1 18.54164,-3.27067 z m -218.869,76.07249 a 9.412,9.412 0 1 1 -16.29923,9.412 9.412,9.412 0 1 1 16.30158,-9.412 z m 203.77921,-117.65 a 9.412,9.412 0 1 1 -16.30158,9.412 9.412,9.412 0 1 1 16.30158,-9.412 z m -179.5739,146.54484 a 9.4147671,9.4147671 0 1 1 -12.10383,14.42389 9.4147671,9.4147671 0 1 1 12.10383,-14.42389 z m 151.25084,-180.25156 a 9.4137212,9.4137212 0 1 1 -12.10618,14.41918 9.4129647,9.4129647 0 1 1 12.10383,-14.41918 z m -118.80297,198.99791 a 9.412,9.412 0 1 1 -6.43781,17.68515 9.412,9.412 0 1 1 6.44722,-17.68515 z m 80.47966,-221.11141 a 9.412,9.412 0 1 1 -6.44016,17.6828 9.412,9.412 0 1 1 6.43781,-17.68515 z m -122.77954,119.05709 a 9.412,9.412 0 1 1 -18.824,0 9.412,9.412 0 1 1 18.824,0 z m 178.828,0 a 9.412,9.412 0 1 1 -18.824,0 9.412,9.412 0 1 1 18.824,0 z m -98.826,-80.002 a 9.412,9.412 0 1 1 0,-18.824 9.412,9.412 0 1 1 0,18.824 z m 0,178.828 a 9.412,9.412 0 1 1 0,-18.824 9.412,9.412 0 1 1 0,18.824 z m -56.632,-42.27164 a 9.412,9.412 0 1 1 -13.30857,13.30857 9.412,9.412 0 1 1 13.30857,-13.30857 z m 126.45022,-126.45022 a 9.412,9.412 0 1 1 -13.30857,13.30857 9.412,9.412 0 1 1 13.30857,-13.30857 z m -126.37493,13.26151 a 9.412,9.412 0 1 1 -13.30856,-13.30857 9.412,9.412 0 1 1 13.30856,13.30857 z m 126.45022,126.45022 a 9.412,9.412 0 1 1 -13.30856,-13.30857 9.412,9.412 0 1 1 13.30856,13.30857 z m -69.89351,-121.58187 a 9.412,9.412 0 1 1 0,-18.824 9.412,9.412 0 1 1 0,18.824 z m 0,122.356 a 9.412,9.412 0 1 1 0,-18.824 9.412,9.412 0 1 1 0,18.824 z" />
</svg>
