<?xml version="1.0" encoding="UTF-8" standalone="no"?>
<svg
   version="1.1"
   preserveAspectRatio="xMidYMid"
   zoomAndPan="magnify"
   id="Electron shell Ununoctium"
   viewBox="-1000 -1000 500 500"
   width="500"
   height="500"
   xmlns="http://www.w3.org/2000/svg"
   xmlns:svg="http://www.w3.org/2000/svg"
   xmlns:rdf="http://www.w3.org/1999/02/22-rdf-syntax-ns#"
   xmlns:cc="http://creativecommons.org/ns#"
   xmlns:dc="http://purl.org/dc/elements/1.1/">
  <metadata
     id="metadata4245">
    <rdf:RDF>
      <cc:Work
         rdf:about="">
        <dc:format>image/svg+xml</dc:format>
        <dc:type
           rdf:resource="http://purl.org/dc/dcmitype/StillImage" />
      </cc:Work>
    </rdf:RDF>
  </metadata>
  <desc
     id="element_description">118 Uuo (Ununoctium) Legend_color:#e8e8e8</desc>
  <desc
     id="element_electron_configuration">2,8,18,32,32,18,8</desc>
  <defs
     id="defs4107">
    <circle
       id="electron"
       fill="#77868b"
       stroke="none"
       r="30"
       cx="0"
       cy="0" />
  </defs>
  <path
     fill="#c0ffff"
     stroke="#000000"
     stroke-width="0.709"
     stroke-miterlimit="0"
     d="m -712.5,-750 a 37.5,37.5 0 1 1 -75,0 37.5,37.5 0 1 1 75,0 z"
     id="nucleus"
     style="display:inline;fill:#db1828;fill-opacity:1;stroke:none;stroke-width:0;stroke-dasharray:none" />
  <path
     id="orbit"
     style="display:inline;fill:none;fill-opacity:1;stroke:#77868b;stroke-width:1.5;stroke-dasharray:none;stroke-opacity:1"
     d="m -689.43235,-750.08602 a 60.593765,60.58741 0 1 1 -121.18753,0 60.612825,60.606472 0 1 1 121.22565,0 z m 28.24212,-4.7e-4 a 88.832507,88.688062 0 1 1 -177.66495,0 88.86059,88.716103 0 1 1 177.72118,0 z m 27.64941,0.63812 a 117.07134,117.0777 0 1 1 -234.14259,0 117.10836,117.11472 0 1 1 234.21671,0 z m 28.63059,-0.15295 a 145.28413,145.30976 0 1 1 -290.56824,0 145.33012,145.35576 0 1 1 290.66024,0 z m 28.21435,-0.37505 a 173.41877,173.54182 0 1 1 -346.83742,0 173.47359,173.59669 0 1 1 346.94707,0 z m 27.82353,0.47153 a 201.70977,201.69515 0 1 1 -403.41953,0 201.77353,201.75892 0 1 1 403.54706,0 z m 28.72235,-0.45789 a 229.92259,229.95351 0 1 1 -459.84518,0 229.99518,230.02612 0 1 1 459.99036,0 z" />
  <path
     id="112-Cn"
     style="display:inline;fill:#36a4ff;fill-opacity:1;stroke:none;stroke-width:0;stroke-dasharray:none;stroke-opacity:1"
     d="m -750.03412,-942.669 a 9.412,9.412 0 1 1 0,-18.824 9.412,9.412 0 1 1 0,18.824 z m 0,404.11618 a 9.412,9.412 0 1 1 0,-18.824 9.412,9.412 0 1 1 0,18.824 z m -66.33116,-392.52015 a 9.412,9.412 0 1 1 -6.43545,-17.68279 9.412,9.412 0 1 1 6.42369,17.68514 z m 138.42699,380.29186 a 9.412,9.412 0 1 1 -6.43545,-17.68279 9.412,9.412 0 1 1 6.42369,17.68514 z M -874.39967,-897.4533 a 9.4129663,9.4129663 0 1 1 -12.10383,-14.41919 9.4129663,9.4129663 0 1 1 12.10383,14.41919 z m 260.14768,310.03128 a 9.4129663,9.4129663 0 1 1 -12.10383,-14.41919 9.4129663,9.4129663 0 1 1 12.10383,14.41919 z m -303.28994,-258.77353 a 9.412,9.412 0 1 1 -16.30158,-9.412 9.412,9.412 0 1 1 16.30158,9.412 z m 350.50288,202.358 a 9.412,9.412 0 1 1 -16.30158,-9.412 9.412,9.412 0 1 1 16.30158,9.412 z M -940.3425,-783.17751 a 9.4135399,9.4135399 0 1 1 -18.54164,-3.26596 9.4135399,9.4135399 0 1 1 18.54164,3.26596 z m 398.55114,70.26058 a 9.4135399,9.4135399 0 1 1 -18.54164,-3.26596 9.4135399,9.4135399 0 1 1 18.54164,3.26596 z m -398.67584,-3.18125 a 9.4135399,9.4135399 0 1 1 -18.54164,3.26596 9.4135399,9.4135399 0 1 1 18.54164,-3.26596 z m 398.57467,-70.28411 a 9.4135399,9.4135399 0 1 1 -18.54164,3.26596 9.4135399,9.4135399 0 1 1 18.54164,-3.26596 z m -375.65645,133.13274 a 9.412,9.412 0 1 1 -16.29924,9.412 9.412,9.412 0 1 1 16.30159,-9.412 z m 350.50288,-202.358 a 9.412,9.412 0 1 1 -16.29924,9.412 9.412,9.412 0 1 1 16.30159,-9.412 z m -307.37239,253.78046 a 9.4129657,9.4129657 0 1 1 -12.10384,14.41918 9.4129657,9.4129657 0 1 1 12.10384,-14.41918 z m 260.12415,-310.03128 a 9.4129657,9.4129657 0 1 1 -12.10384,14.41918 9.4129657,9.4129657 0 1 1 12.10384,-14.41918 z m -202.20977,343.49094 a 9.412,9.412 0 1 1 -6.4378,17.6875 9.412,9.412 0 1 1 6.42369,-17.68515 z m 138.42699,-380.31539 a 9.412,9.412 0 1 1 -6.4378,17.6875 9.412,9.412 0 1 1 6.42369,-17.68515 z m -71.93098,-22.15375 a 9.412,9.412 0 1 1 0,-18.824 9.412,9.412 0 1 1 0,18.824 z m 10e-5,460.48757 a 9.412,9.412 0 1 1 0,-18.824 9.412,9.412 0 1 1 0,18.824 z m 0.017,-375.78898 a 9.412,9.412 0 1 1 0,-18.824 9.412,9.412 0 1 1 0,18.824 z m 5e-4,291.37198 a 9.412,9.412 0 1 1 0,-18.824 9.412,9.412 0 1 1 0,18.824 z m -26.73492,-288.73662 a 9.4126624,9.4126624 0 1 1 -3.67068,-18.46399 9.4138163,9.4138163 0 1 1 3.67068,18.46634 z m 56.91907,286.16715 a 9.4126624,9.4126624 0 1 1 -3.67068,-18.46399 9.4138193,9.4138193 0 1 1 3.67068,18.46635 z m -82.49147,-278.45402 a 9.4123871,9.4123871 0 1 1 -7.20018,-17.39337 9.4123871,9.4123871 0 1 1 7.20018,17.39337 z m 111.64985,269.55968 a 9.412,9.412 0 1 1 -7.20018,-17.38867 9.412,9.412 0 1 1 7.20018,17.38867 z m -135.18926,-256.92407 a 9.412849,9.412849 0 1 1 -10.45673,-15.65451 9.412,9.412 0 1 1 10.45673,15.65216 z m 162.09817,242.5943 a 9.412,9.412 0 1 1 -10.45673,-15.64745 9.412,9.412 0 1 1 10.45673,15.64745 z m -182.73398,-225.66917 a 9.412,9.412 0 1 1 -13.31092,-13.30857 9.412,9.412 0 1 1 13.29445,13.30857 z M -640.162,-639.913 a 9.412,9.412 0 1 1 -13.31092,-13.30857 9.412,9.412 0 1 1 13.29445,13.29445 z m -223.26676,-185.57641 a 9.412,9.412 0 1 1 -15.65216,-10.45673 9.412,9.412 0 1 1 15.65216,10.45673 z m 242.5943,162.09817 a 9.412,9.412 0 1 1 -15.65216,-10.45438 9.412,9.412 0 1 1 15.65216,10.45674 z m -255.15932,-138.49758 a 9.412,9.412 0 1 1 -17.38867,-7.20018 9.412,9.412 0 1 1 17.38867,7.20018 z m 269.58321,111.65691 a 9.412,9.412 0 1 1 -17.38867,-7.20018 9.412,9.412 0 1 1 17.38867,7.20018 z m -277.35282,-85.99744 a 9.4138163,9.4138163 0 1 1 -18.46634,-3.67068 9.4138163,9.4138163 0 1 1 18.46634,3.67068 z m 286.17186,56.91907 a 9.4138163,9.4138163 0 1 1 -18.46634,-3.67068 9.4138163,9.4138163 0 1 1 18.46634,3.67068 z m -288.8735,-30.65401 a 9.412,9.412 0 1 1 -18.824,0 9.412,9.412 0 1 1 18.824,0 z m 291.57203,0 a 9.412,9.412 0 1 1 -18.824,0 9.412,9.412 0 1 1 18.824,0 z m -288.93156,27.02568 a 9.4138193,9.4138193 0 1 1 -18.46635,3.67068 9.4138193,9.4138193 0 1 1 18.46635,-3.67068 z m 286.17186,-56.92377 a 9.4138193,9.4138193 0 1 1 -18.46635,3.67068 9.4138193,9.4138193 0 1 1 18.46635,-3.67068 z m -278.4705,82.51265 a 9.4123871,9.4123871 0 1 1 -17.39337,7.20018 9.4123871,9.4123871 0 1 1 17.39337,-7.20018 z m 269.55968,-111.65691 a 9.4123871,9.4123871 0 1 1 -17.39337,7.20018 9.4123871,9.4123871 0 1 1 17.39337,-7.20018 z m -256.92407,135.19161 a 9.412,9.412 0 1 1 -15.64745,10.45673 9.412,9.412 0 1 1 15.64745,-10.44732 z m 242.5943,-162.09817 a 9.412,9.412 0 1 1 -15.64745,10.45438 9.412,9.412 0 1 1 15.64745,-10.45673 z m -225.67152,182.74104 a 9.412,9.412 0 1 1 -13.30857,13.30622 9.4139076,9.4139076 0 1 1 13.31798,-13.30857 z m 206.33457,-206.3181 a 9.412,9.412 0 1 1 -13.30857,13.30857 9.4139076,9.4139076 0 1 1 13.31798,-13.30857 z m -185.58111,223.26911 a 9.412,9.412 0 1 1 -10.45438,15.65216 9.412,9.412 0 1 1 10.45673,-15.65216 z m 162.09817,-242.60371 a 9.4121961,9.4121961 0 1 1 -10.45438,15.65451 9.412,9.412 0 1 1 10.45673,-15.65215 z m -138.49758,255.15226 a 9.4123889,9.4123889 0 1 1 -7.20018,17.39338 9.4210841,9.4210841 0 1 1 7.20018,-17.4122 z m 111.64985,-269.55968 a 9.412,9.412 0 1 1 -7.20018,17.38867 9.412,9.412 0 1 1 7.20018,-17.38867 z m -85.99509,277.34105 a 9.4138193,9.4138193 0 1 1 -3.67068,18.46635 9.4138193,9.4138193 0 1 1 3.67068,-18.46635 z m 56.91907,-286.16715 a 9.4138163,9.4138163 0 1 1 -3.67068,18.46634 9.4138163,9.4138163 0 1 1 3.67068,-18.46634 z m -30.36507,44.15169 a 9.412,9.412 0 1 1 0,-18.824 9.412,9.412 0 1 1 0,18.824 z m 0,234.99969 a 9.412,9.412 0 1 1 0,-18.824 9.412,9.412 0 1 1 0,18.824 z m -37.55192,-228.51953 a 9.412,9.412 0 1 1 -6.43781,-17.68514 9.412,9.412 0 1 1 6.43781,17.68514 z m 80.4773,221.11141 a 9.412,9.412 0 1 1 -6.4378,-17.6875 9.412,9.412 0 1 1 6.4378,17.68515 z m -113.03341,-202.19329 a 9.4147671,9.4147671 0 1 1 -12.10383,-14.42389 9.4147671,9.4147671 0 1 1 12.10383,14.42389 z m 151.25084,180.24686 a 9.4137212,9.4137212 0 1 1 -12.10619,-14.41918 9.412,9.412 0 1 1 12.10384,14.40036 z m -175.48203,-151.5332 a 9.412,9.412 0 1 1 -16.30159,-9.412 9.412,9.412 0 1 1 16.30159,9.412 z m 203.77685,117.65 a 9.412,9.412 0 1 1 -16.30158,-9.412 9.412,9.412 0 1 1 16.30158,9.412 z m -216.53482,-82.27735 a 9.4139484,9.4139484 0 1 1 -18.54164,-3.27067 9.4139484,9.4139484 0 1 1 18.54164,3.27067 z m 231.7305,40.85749 a 9.4135399,9.4135399 0 1 1 -18.54164,-3.26596 9.4135399,9.4135399 0 1 1 18.54164,3.26596 z m -231.83639,-3.20008 a 9.4135404,9.4135404 0 1 1 -18.54164,3.26597 9.4135404,9.4135404 0 1 1 18.54164,-3.26597 z m 231.72815,-40.86219 a 9.4135399,9.4135399 0 1 1 -18.54164,3.26596 9.4135399,9.4135399 0 1 1 18.54164,-3.26596 z m -218.869,76.07249 a 9.412,9.412 0 1 1 -16.29923,9.412 9.412,9.412 0 1 1 16.30158,-9.412 z m 203.77921,-117.65 a 9.412,9.412 0 1 1 -16.30158,9.412 9.412,9.412 0 1 1 16.30158,-9.412 z m -179.5739,146.54484 a 9.4129647,9.4129647 0 1 1 -12.10383,14.41918 9.4129647,9.4129647 0 1 1 12.10383,-14.41918 z m 151.25084,-180.25392 a 9.4137212,9.4137212 0 1 1 -12.10618,14.41918 9.4129647,9.4129647 0 1 1 12.10383,-14.41918 z m -118.80297,198.99791 a 9.412,9.412 0 1 1 -6.43781,17.68515 9.412,9.412 0 1 1 6.44722,-17.68515 z m 80.37955,-221.11141 a 9.412,9.412 0 1 1 -6.44016,17.6828 9.4146542,9.4146542 0 1 1 6.43781,-17.69456 z m -122.6798,119.0571 a 9.412,9.412 0 1 1 -18.824,0 9.412,9.412 0 1 1 18.824,0 z m 178.828,0 a 9.412,9.412 0 1 1 -18.824,0 9.412,9.412 0 1 1 18.824,0 z m -98.826,-80.00671 a 9.412,9.412 0 1 1 0,-18.824 9.412,9.412 0 1 1 0,18.824 z m 0,178.828 a 9.412,9.412 0 1 1 0,-18.824 9.412,9.412 0 1 1 0,18.824 z m -56.63163,-42.26694 a 9.412,9.412 0 1 1 -13.30857,13.30857 9.412,9.412 0 1 1 13.30857,-13.30857 z m 126.45022,-126.45022 a 9.412,9.412 0 1 1 -13.30857,13.30857 9.412,9.412 0 1 1 13.30857,-13.30857 z m -126.37493,13.26151 a 9.412,9.412 0 1 1 -13.30857,-13.30857 9.412,9.412 0 1 1 13.30857,13.30857 z m 126.45022,126.45022 a 9.412,9.412 0 1 1 -13.30857,-13.30857 9.412,9.412 0 1 1 13.30857,13.30857 z M -749.991,-801.74058 a 9.412,9.412 0 1 1 0,-18.824 9.412,9.412 0 1 1 0,18.824 z m 0,122.356 a 9.412,9.412 0 1 1 0,-18.824 9.412,9.412 0 1 1 0,18.824 z m -0.023,-234.9894 a 9.412,9.412 0 1 1 0,-18.824 9.412,9.412 0 1 1 0,18.824 z m 0,347.83927 a 9.412,9.412 0 1 1 0,-18.824 9.412,9.412 0 1 1 0,18.824 z M -585.48097,-749.969 a 9.412,9.412 0 1 1 18.824,0 9.412,9.412 0 1 1 -18.824,0 z m -348.04403,0 a 9.412,9.412 0 1 1 18.824,0 9.412,9.412 0 1 1 -18.824,0 z m 151.2983,-161.22608 a 9.4138163,9.4138163 0 1 1 -3.67068,-18.46634 9.4138163,9.4138163 0 1 1 3.67068,18.46634 z m 67.93111,341.56148 a 9.4138163,9.4138163 0 1 1 -3.67068,-18.46634 9.4138163,9.4138163 0 1 1 3.67068,18.46634 z m 125.83138,-212.27119 a 9.4138163,9.4138163 0 1 1 18.46634,-3.67068 9.4138163,9.4138163 0 1 1 -18.46634,3.67068 z m -341.56148,67.95464 a 9.4138163,9.4138163 0 1 1 18.46634,-3.67068 9.4138163,9.4138163 0 1 1 -18.46634,3.67068 z m 116.9041,-187.9294 a 9.4123889,9.4123889 0 1 1 -7.20018,-17.39338 9.4123889,9.4123889 0 1 1 7.20018,17.39338 z m 133.27392,321.7351 a 9.4123889,9.4123889 0 1 1 -7.20018,-17.39338 9.4123889,9.4123889 0 1 1 7.20018,17.39338 z m 82.05852,-232.6317 a 9.4123889,9.4123889 0 1 1 17.39338,-7.20018 9.4123889,9.4123889 0 1 1 -17.39338,7.20018 z m -321.72569,133.25039 a 9.4123889,9.4123889 0 1 1 17.39338,-7.20018 9.4123889,9.4123889 0 1 1 -17.39338,7.20018 z m 77.98548,-207.11106 a 9.412,9.412 0 1 1 -10.45673,-15.65215 9.412,9.412 0 1 1 10.45673,15.65215 z m 193.46366,289.55312 a 9.412,9.412 0 1 1 -10.45673,-15.65215 9.412,9.412 0 1 1 10.45673,15.65215 z m 35.02676,-244.12375 a 9.412,9.412 0 1 1 15.65215,-10.45673 9.412,9.412 0 1 1 -15.65215,10.45673 z m -289.53665,193.48719 a 9.412,9.412 0 1 1 15.65215,-10.45673 9.412,9.412 0 1 1 -15.65215,10.45673 z m 36.12561,-218.47605 a 9.412,9.412 0 1 1 -13.30857,-13.30856 9.4139076,9.4139076 0 1 1 13.30857,13.31798 z m 246.24145,246.24145 a 9.412,9.412 0 1 1 -13.30857,-13.30621 9.412,9.412 0 1 1 13.30857,13.30857 z m -13.2568,-246.17086 a 9.412,9.412 0 1 1 13.30856,-13.31092 9.412,9.412 0 1 1 -13.30856,13.30857 z m -246.24145,246.26498 a 9.412,9.412 0 1 1 13.30856,-13.31092 9.412,9.412 0 1 1 -13.30856,13.30857 z m -7.20489,-221.31612 a 9.412,9.412 0 1 1 -15.64745,-10.45908 9.412,9.412 0 1 1 15.64745,10.45673 z m 289.53665,193.46366 a 9.412,9.412 0 1 1 -15.64745,-10.45908 9.412,9.412 0 1 1 15.64745,10.45673 z m -61.10741,-238.87656 a 9.412,9.412 0 1 1 10.45908,-15.64745 9.412,9.412 0 1 1 -10.45673,15.64745 z m -193.48719,289.56018 a 9.412,9.412 0 1 1 10.45908,-15.64745 9.412,9.412 0 1 1 -10.45673,15.64745 z m -50.11419,-215.66421 a 9.4123889,9.4123889 0 1 1 -17.39338,-7.20018 9.4123889,9.4123889 0 1 1 17.39338,7.20018 z m 321.74922,133.26215 a 9.4123889,9.4123889 0 1 1 -17.39338,-7.20018 9.4123889,9.4123889 0 1 1 17.39338,7.20018 z m -106.64265,-222.30673 a 9.4123889,9.4123889 0 1 1 7.20018,-17.39338 9.4123889,9.4123889 0 1 1 -7.20018,17.39338 z m -133.27392,321.72569 a 9.4123889,9.4123889 0 1 1 7.20018,-17.39338 9.4123889,9.4123889 0 1 1 -7.20018,17.39338 z m -91.20228,-201.7274 a 9.4161242,9.4161242 0 1 1 -18.47105,-3.67068 9.4161242,9.4161242 0 1 1 18.47105,3.67068 z m 341.53795,67.93111 a 9.4161242,9.4161242 0 1 1 -18.47105,-3.67068 9.4161242,9.4161242 0 1 1 18.47105,3.67068 z m -148.0037,-197.32258 a 9.4161242,9.4161242 0 1 1 3.67068,-18.47105 9.4161242,9.4161242 0 1 1 -3.67068,18.47105 z m -67.95464,341.56148 a 9.4161242,9.4161242 0 1 1 3.67068,-18.47105 9.4161242,9.4161242 0 1 1 -3.67068,18.47105 z" />
</svg>
