<?xml version="1.0" encoding="UTF-8" standalone="no"?>
<svg
   version="1.1"
   preserveAspectRatio="xMidYMid"
   zoomAndPan="magnify"
   id="Electron shell Ununoctium"
   viewBox="-1000 -1000 500 500"
   width="500"
   height="500"
   xmlns="http://www.w3.org/2000/svg"
   xmlns:svg="http://www.w3.org/2000/svg"
   xmlns:rdf="http://www.w3.org/1999/02/22-rdf-syntax-ns#"
   xmlns:cc="http://creativecommons.org/ns#"
   xmlns:dc="http://purl.org/dc/elements/1.1/">
  <metadata
     id="metadata4245">
    <rdf:RDF>
      <cc:Work
         rdf:about="">
        <dc:format>image/svg+xml</dc:format>
        <dc:type
           rdf:resource="http://purl.org/dc/dcmitype/StillImage" />
      </cc:Work>
    </rdf:RDF>
  </metadata>
  <desc
     id="element_description">118 Uuo (Ununoctium) Legend_color:#e8e8e8</desc>
  <desc
     id="element_electron_configuration">2,8,18,32,32,18,8</desc>
  <defs
     id="defs4107">
    <circle
       id="electron"
       fill="#77868b"
       stroke="none"
       r="30"
       cx="0"
       cy="0" />
  </defs>
  <path
     fill="#c0ffff"
     stroke="#000000"
     stroke-width="0.709"
     stroke-miterlimit="0"
     d="m -712.5,-750 a 37.5,37.5 0 1 1 -75,0 37.5,37.5 0 1 1 75,0 z"
     id="nucleus"
     style="display:inline;fill:#db1828;fill-opacity:1;stroke:none;stroke-width:0;stroke-dasharray:none" />
  <path
     id="orbit"
     style="display:inline;fill:none;fill-opacity:1;stroke:#77868b;stroke-width:1.5;stroke-dasharray:none;stroke-opacity:1"
     d="m -689.43235,-750.08602 a 60.593765,60.58741 0 1 1 -121.18753,0 60.612825,60.606472 0 1 1 121.22565,0 z m 28.24212,-4.7e-4 a 88.832507,88.688062 0 1 1 -177.66495,0 88.86059,88.716103 0 1 1 177.72118,0 z m 27.64941,0.63812 a 117.07134,117.0777 0 1 1 -234.14259,0 117.10836,117.11472 0 1 1 234.21671,0 z m 28.63059,-0.15295 a 145.28413,145.30976 0 1 1 -290.56824,0 145.33012,145.35576 0 1 1 290.66024,0 z m 28.21435,-0.37505 a 173.41877,173.54182 0 1 1 -346.83742,0 173.47359,173.59669 0 1 1 346.94707,0 z m 27.82353,0.47153 a 201.70977,201.69515 0 1 1 -403.41953,0 201.77353,201.75892 0 1 1 403.54706,0 z" />
  <path
     id="61-Pm"
     style="display:inline;fill:#36a4ff;fill-opacity:1;stroke:none;stroke-width:0;stroke-dasharray:none;stroke-opacity:1"
     d="m -749.985,-886.14033 a 9.412,9.412 0 1 1 0,-18.824 9.412,9.412 0 1 1 0,18.824 z m -36.49356,5.15307 a 9.4121335,9.4121335 0 1 1 -5.08248,-18.12516 9.420063,9.420063 0 1 1 5.08248,18.14163 z m -34.14909,14.70625 a 9.4138542,9.4138542 0 1 1 -9.78142,-16.08746 9.412239,9.412239 0 1 1 9.77907,16.08511 z m -28.72542,23.51118 a 9.4127892,9.4127892 0 1 1 -13.76035,-12.84738 9.4127892,9.4127892 0 1 1 13.76035,12.84738 z m -21.44054,30.34429 a 9.4126777,9.4126777 0 1 1 -16.71571,-8.65904 9.4126777,9.4126777 0 1 1 16.71571,8.65904 z m -12.52972,34.96558 a 9.412,9.412 0 1 1 -18.4287,-3.82834 9.412,9.412 0 1 1 18.4287,3.83069 z m -2.6283,37.09269 a 9.412,9.412 0 1 1 -18.77694,1.28003 9.412,9.412 0 1 1 18.77694,-1.28003 z m 7.78372,36.45738 a 9.4144998,9.4144998 0 1 1 -17.74162,6.30604 9.4144998,9.4144998 0 1 1 17.74162,-6.30604 z m 16.9416,32.98435 a 9.4122149,9.4122149 0 1 1 -15.38156,10.85204 9.412,9.412 0 1 1 15.36509,-10.85204 z m 25.32769,27.12539 a 9.412,9.412 0 1 1 -11.88265,14.59801 9.412,9.412 0 1 1 11.88265,-14.59801 z m 31.78903,19.37931 a 9.412,9.412 0 1 1 -7.50136,17.2616 9.412,9.412 0 1 1 7.50136,-17.2616 z m 35.73266,9.92495 a 9.412,9.412 0 1 1 -2.56006,18.64517 9.412,9.412 0 1 1 2.56006,-18.64517 z m 37.23858,0.12471 a 9.412,9.412 0 1 1 2.56006,18.64517 9.412,9.412 0 1 1 -2.56006,-18.64517 z m 35.71383,-10.10143 a 9.412,9.412 0 1 1 7.50137,17.26161 9.412,9.412 0 1 1 -7.50137,-17.26161 z m 31.79609,-19.24754 a 9.412,9.412 0 1 1 11.87795,14.59801 9.412,9.412 0 1 1 -11.85912,-14.59801 z m 25.35122,-27.21715 a 9.412,9.412 0 1 1 15.37921,10.85203 9.412,9.412 0 1 1 -15.37921,-10.85203 z m 17.27808,-32.942 a 9.412,9.412 0 1 1 17.72986,6.30604 9.412,9.412 0 1 1 -17.73221,-6.30604 z m 7.60019,-36.44797 a 9.412,9.412 0 1 1 18.77694,1.28709 9.412,9.412 0 1 1 -18.77694,-1.28944 z m -2.67771,-37.03622 a 9.412,9.412 0 1 1 18.42869,-3.83539 9.412,9.412 0 1 1 -18.42869,3.83539 z m -12.44031,-35.11382 a 9.4126777,9.4126777 0 1 1 16.71571,-8.65904 9.4189461,9.4189461 0 1 1 -16.72983,8.65904 z m -21.43583,-30.37723 a 9.4127871,9.4127871 0 1 1 13.76034,-12.84738 9.4127871,9.4127871 0 1 1 -13.76034,12.84738 z m -28.80072,-23.3347 a 9.4122377,9.4122377 0 1 1 9.77906,-16.08511 9.412,9.412 0 1 1 -9.76495,16.08511 z m -34.1538,-14.91802 a 9.4121335,9.4121335 0 1 1 5.08248,-18.12516 9.4132659,9.4132659 0 1 1 -5.08248,18.12751 z m -37.11622,-33.26672 a 9.412,9.412 0 1 1 0,-18.824 9.412,9.412 0 1 1 0,18.824 z m 0,347.84398 a 9.412,9.412 0 1 1 0,-18.824 9.412,9.412 0 1 1 0,18.824 z M -585.59,-749.964 a 9.412,9.412 0 1 1 18.824,0 9.412,9.412 0 1 1 -18.824,0 z m -347.944,0 a 9.412,9.412 0 1 1 18.824,0 9.412,9.412 0 1 1 -18.824,0 z m 300.05456,-116.15465 a 9.412,9.412 0 1 1 13.31092,-13.30857 9.412,9.412 0 1 1 -13.30857,13.30857 z m -246.24145,246.25792 a 9.4122426,9.4122426 0 1 1 13.31092,-13.31092 9.412,9.412 0 1 1 -13.30857,13.30857 z m 246.15674,-13.28269 a 9.412,9.412 0 1 1 13.30622,13.30857 9.412,9.412 0 1 1 -13.30857,-13.29445 z M -879.8056,-879.38487 a 9.412,9.412 0 1 1 13.30622,13.30857 9.412,9.412 0 1 1 -13.30857,-13.29445 z m 129.7976,-63.23687 a 9.412,9.412 0 1 1 0,-18.824 9.412,9.412 0 1 1 0,18.824 z m 0,404.01574 a 9.412,9.412 0 1 1 0,-18.824 9.412,9.412 0 1 1 0,18.824 z m -0.018,-319.29833 a 9.412,9.412 0 1 1 0,-18.824 9.412,9.412 0 1 1 0,18.824 z m 0,234.90033 a 9.412,9.412 0 1 1 0,-18.824 9.412,9.412 0 1 1 0,18.824 z m -37.55141,-228.42252 a 9.412,9.412 0 1 1 -6.43781,-17.68515 9.4146542,9.4146542 0 1 1 6.43781,17.69456 z m 80.47731,221.11141 a 9.412,9.412 0 1 1 -6.43781,-17.6875 9.412,9.412 0 1 1 6.43781,17.68515 z M -820.13352,-832.5084 a 9.4147671,9.4147671 0 1 1 -12.10383,-14.42389 9.4147671,9.4147671 0 1 1 12.10383,14.42389 z m 151.25084,180.24686 a 9.4137212,9.4137212 0 1 1 -12.10618,-14.41918 9.4129647,9.4129647 0 1 1 12.10383,14.41918 z m -175.48203,-151.5332 a 9.412,9.412 0 1 1 -16.30159,-9.412 9.412,9.412 0 1 1 16.30159,9.412 z m 203.77686,117.65 a 9.412,9.412 0 1 1 -16.30159,-9.412 9.412,9.412 0 1 1 16.30159,9.412 z m -216.53483,-82.2797 a 9.4135404,9.4135404 0 1 1 -18.54164,-3.26597 9.4135404,9.4135404 0 1 1 18.54164,3.26597 z m 231.7305,40.85984 a 9.4135399,9.4135399 0 1 1 -18.54164,-3.26596 9.412,9.412 0 1 1 18.54164,3.24714 z m -231.83638,-3.20008 a 9.4135404,9.4135404 0 1 1 -18.54164,3.26597 9.4135404,9.4135404 0 1 1 18.54164,-3.26597 z m 231.72814,-40.86455 a 9.4139484,9.4139484 0 1 1 -18.54164,3.27067 9.4139484,9.4139484 0 1 1 18.54164,-3.27067 z m -218.869,76.07249 a 9.412,9.412 0 1 1 -16.29923,9.412 9.412,9.412 0 1 1 16.30158,-9.412 z m 203.77921,-117.65 a 9.412,9.412 0 1 1 -16.30158,9.412 9.412,9.412 0 1 1 16.30158,-9.412 z m -179.5739,146.54484 a 9.4147671,9.4147671 0 1 1 -12.10383,14.42389 9.4147671,9.4147671 0 1 1 12.10383,-14.42389 z m 151.25084,-180.25156 a 9.4137212,9.4137212 0 1 1 -12.10618,14.41918 9.4129647,9.4129647 0 1 1 12.10383,-14.41918 z m -118.80297,198.99791 a 9.412,9.412 0 1 1 -6.43781,17.68515 9.412,9.412 0 1 1 6.44722,-17.68515 z m 80.47966,-221.11141 a 9.412,9.412 0 1 1 -6.44016,17.6828 9.412,9.412 0 1 1 6.43781,-17.68515 z m -122.77954,119.0571 a 9.412,9.412 0 1 1 -18.824,0 9.412,9.412 0 1 1 18.824,0 z m 178.828,0 a 9.412,9.412 0 1 1 -18.824,0 9.412,9.412 0 1 1 18.824,0 z m -98.826,-80.00201 a 9.412,9.412 0 1 1 0,-18.82399 9.412,9.412 0 1 1 0,18.82399 z m 0,178.828 a 9.412,9.412 0 1 1 0,-18.82399 9.412,9.412 0 1 1 0,18.82399 z m -56.632,-42.27164 a 9.412,9.412 0 1 1 -13.30857,13.30857 9.412,9.412 0 1 1 13.30857,-13.30857 z m 126.45022,-126.45022 a 9.412,9.412 0 1 1 -13.30857,13.30857 9.412,9.412 0 1 1 13.30857,-13.30857 z m -126.37493,13.26151 a 9.412,9.412 0 1 1 -13.30856,-13.30857 9.412,9.412 0 1 1 13.30856,13.30857 z m 126.45022,126.45022 a 9.412,9.412 0 1 1 -13.30856,-13.30857 9.412,9.412 0 1 1 13.30856,13.30857 z m -69.89351,-121.58187 a 9.412,9.412 0 1 1 0,-18.824 9.412,9.412 0 1 1 0,18.824 z m 0,122.356 a 9.412,9.412 0 1 1 0,-18.824 9.412,9.412 0 1 1 0,18.824 z" />
</svg>
