<?xml version="1.0" encoding="UTF-8" standalone="no"?>
<svg
   version="1.1"
   preserveAspectRatio="xMidYMid"
   zoomAndPan="magnify"
   id="Electron shell Ununoctium"
   viewBox="-1000 -1000 500 500"
   width="500"
   height="500"
   xmlns="http://www.w3.org/2000/svg"
   xmlns:svg="http://www.w3.org/2000/svg"
   xmlns:rdf="http://www.w3.org/1999/02/22-rdf-syntax-ns#"
   xmlns:cc="http://creativecommons.org/ns#"
   xmlns:dc="http://purl.org/dc/elements/1.1/">
  <metadata
     id="metadata4245">
    <rdf:RDF>
      <cc:Work
         rdf:about="">
        <dc:format>image/svg+xml</dc:format>
        <dc:type
           rdf:resource="http://purl.org/dc/dcmitype/StillImage" />
      </cc:Work>
    </rdf:RDF>
  </metadata>
  <desc
     id="element_description">118 Uuo (Ununoctium) Legend_color:#e8e8e8</desc>
  <desc
     id="element_electron_configuration">2,8,18,32,32,18,8</desc>
  <defs
     id="defs4107">
    <circle
       id="electron"
       fill="#77868b"
       stroke="none"
       r="30"
       cx="0"
       cy="0" />
  </defs>
  <path
     fill="#c0ffff"
     stroke="#000000"
     stroke-width="0.709"
     stroke-miterlimit="0"
     d="m -712.5,-750 a 37.5,37.5 0 1 1 -75,0 37.5,37.5 0 1 1 75,0 z"
     id="nucleus"
     style="display:inline;fill:#db1828;fill-opacity:1;stroke:none;stroke-width:0;stroke-dasharray:none" />
  <path
     id="orbit"
     style="display:inline;fill:none;fill-opacity:1;stroke:#77868b;stroke-width:1.5;stroke-dasharray:none;stroke-opacity:1"
     d="m -689.43235,-750.08602 a 60.593765,60.58741 0 1 1 -121.18753,0 60.612825,60.606472 0 1 1 121.22565,0 z m 28.24212,-4.7e-4 a 88.832507,88.688062 0 1 1 -177.66495,0 88.86059,88.716103 0 1 1 177.72118,0 z m 27.64941,0.63812 a 117.07134,117.0777 0 1 1 -234.14259,0 117.10836,117.11472 0 1 1 234.21671,0 z m 28.63059,-0.15295 a 145.28413,145.30976 0 1 1 -290.56824,0 145.33012,145.35576 0 1 1 290.66024,0 z" />
  <path
     id="26-Fe"
     style="display:inline;fill:#36a4ff;fill-opacity:1;stroke:none;stroke-width:0;stroke-dasharray:none;stroke-opacity:1"
     d="m -750.011,-857.909 a 9.412,9.412 0 1 1 0,-18.824 9.412,9.412 0 1 1 0,18.824 z m 0,235 a 9.412,9.412 0 1 1 0,-18.824 9.412,9.412 0 1 1 0,18.824 z m -47.57279,-224.2515 a 9.4127388,9.4127388 0 1 1 -8.16961,-16.96042 9.4127388,9.4127388 0 1 1 8.16961,16.96042 z m 102.09667,211.98883 a 9.4127388,9.4127388 0 1 1 -8.16961,-16.96042 9.4127388,9.4127388 0 1 1 8.16961,16.96042 z M -835.27885,-817.0868 a 9.4133026,9.4133026 0 1 1 -14.72037,-11.73677 9.4133026,9.4133026 0 1 1 14.72037,11.73677 z m 183.98107,146.66955 a 9.4133026,9.4133026 0 1 1 -14.72037,-11.73677 9.412,9.412 0 1 1 14.72037,11.71794 z m -204.73923,-103.36024 a 9.412,9.412 0 1 1 -18.3534,-4.17657 9.412,9.412 0 1 1 18.3534,4.17893 z m 229.4175,52.29072 a 9.412,9.412 0 1 1 -18.3534,-4.17892 9.412,9.412 0 1 1 18.3534,4.17892 z m -229.43162,-4.01892 a 9.4136658,9.4136658 0 1 1 -18.3534,4.19775 9.4152422,9.4152422 0 1 1 18.3534,-4.21187 z m 229.39397,-52.45308 a 9.4136667,9.4136667 0 1 1 -18.3534,4.19776 9.4136667,9.4136667 0 1 1 18.3534,-4.19776 z m -208.48521,95.78357 a 9.412,9.412 0 1 1 -14.71096,11.74147 9.412,9.412 0 1 1 14.71096,-11.74147 z m 183.88695,-146.80367 a 9.4125593,9.4125593 0 1 1 -14.71096,11.74618 9.4125593,9.4125593 0 1 1 14.71096,-11.74618 z m -146.29543,176.96208 a 9.412,9.412 0 1 1 -8.1602,16.96042 9.412,9.412 0 1 1 8.1602,-16.96042 z m 101.95549,-212.05942 a 9.412,9.412 0 1 1 -8.1602,16.96042 9.412,9.412 0 1 1 8.1602,-16.96042 z m -54.41547,-22.06879 a 9.412,9.412 0 1 1 0,-18.824 9.412,9.412 0 1 1 0,18.824 z m 0,291.372 a 9.412,9.412 0 1 1 0,-18.824 9.412,9.412 0 1 1 0,18.824 z m -80.002,-155.20389 a 9.412,9.412 0 1 1 -18.824,0 9.412,9.412 0 1 1 18.824,0 z m 178.828,0 a 9.412,9.412 0 1 1 -18.824,0 9.412,9.412 0 1 1 18.824,0 z m -98.826,-80.002 a 9.412,9.412 0 1 1 0,-18.824 9.412,9.412 0 1 1 0,18.824 z m 0,178.828 a 9.412,9.412 0 1 1 0,-18.824 9.412,9.412 0 1 1 0,18.824 z m -56.63201,-42.27165 a 9.412,9.412 0 1 1 -13.30857,13.30857 9.412,9.412 0 1 1 13.30857,-13.30857 z m 126.45022,-126.45022 a 9.412,9.412 0 1 1 -13.30857,13.30857 9.412,9.412 0 1 1 13.30857,-13.30857 z m -126.37257,13.26387 a 9.412,9.412 0 1 1 -13.30857,-13.30857 9.412,9.412 0 1 1 13.29445,13.31798 z m 126.45022,126.45022 a 9.412,9.412 0 1 1 -13.30857,-13.30857 9.412,9.412 0 1 1 13.29445,13.31798 z m -69.89586,-121.58422 a 9.412,9.412 0 1 1 0,-18.824 9.412,9.412 0 1 1 0,18.824 z m 0,122.356 a 9.412,9.412 0 1 1 0,-18.824 9.412,9.412 0 1 1 0,18.824 z" />
</svg>
