<?xml version="1.0" encoding="UTF-8" standalone="no"?>
<svg
   version="1.1"
   preserveAspectRatio="xMidYMid"
   zoomAndPan="magnify"
   id="Electron shell Ununoctium"
   viewBox="-1000 -1000 500 500"
   width="500"
   height="500"
   xmlns="http://www.w3.org/2000/svg"
   xmlns:svg="http://www.w3.org/2000/svg"
   xmlns:rdf="http://www.w3.org/1999/02/22-rdf-syntax-ns#"
   xmlns:cc="http://creativecommons.org/ns#"
   xmlns:dc="http://purl.org/dc/elements/1.1/">
  <metadata
     id="metadata4245">
    <rdf:RDF>
      <cc:Work
         rdf:about="">
        <dc:format>image/svg+xml</dc:format>
        <dc:type
           rdf:resource="http://purl.org/dc/dcmitype/StillImage" />
      </cc:Work>
    </rdf:RDF>
  </metadata>
  <desc
     id="element_description">118 Uuo (Ununoctium) Legend_color:#e8e8e8</desc>
  <desc
     id="element_electron_configuration">2,8,18,32,32,18,8</desc>
  <defs
     id="defs4107">
    <circle
       id="electron"
       fill="#77868b"
       stroke="none"
       r="30"
       cx="0"
       cy="0" />
  </defs>
  <path
     fill="#c0ffff"
     stroke="#000000"
     stroke-width="0.709"
     stroke-miterlimit="0"
     d="m -712.5,-750 a 37.5,37.5 0 1 1 -75,0 37.5,37.5 0 1 1 75,0 z"
     id="nucleus"
     style="display:inline;fill:#db1828;fill-opacity:1;stroke:none;stroke-width:0;stroke-dasharray:none" />
  <path
     id="orbit"
     style="display:inline;fill:none;fill-opacity:1;stroke:#77868b;stroke-width:1.5;stroke-dasharray:none;stroke-opacity:1"
     d="m -689.43235,-750.08602 a 60.593765,60.58741 0 1 1 -121.18753,0 60.612825,60.606472 0 1 1 121.22565,0 z m 28.24212,-4.7e-4 a 88.832507,88.688062 0 1 1 -177.66495,0 88.86059,88.716103 0 1 1 177.72118,0 z m 27.64941,0.63812 a 117.07134,117.0777 0 1 1 -234.14259,0 117.10836,117.11472 0 1 1 234.21671,0 z m 28.63059,-0.15295 a 145.28413,145.30976 0 1 1 -290.56824,0 145.33012,145.35576 0 1 1 290.66024,0 z m 28.21435,-0.37505 a 173.41877,173.54182 0 1 1 -346.83742,0 173.47359,173.59669 0 1 1 346.94707,0 z m 27.82353,0.47153 a 201.70977,201.69515 0 1 1 -403.41953,0 201.77353,201.75892 0 1 1 403.54706,0 z m 28.72235,-0.45789 a 229.92259,229.95351 0 1 1 -459.84518,0 229.99518,230.02612 0 1 1 459.99036,0 z" />
  <path
     id="97-Bk"
     style="display:inline;fill:#36a4ff;fill-opacity:1;stroke:none;stroke-width:0;stroke-dasharray:none;stroke-opacity:1"
     d="m -750,-942.6241 a 9.412,9.412 0 1 1 0,-18.824 9.412,9.412 0 1 1 0,18.824 z m 0,404.0161 a 9.412,9.412 0 1 1 0,-18.824 9.412,9.412 0 1 1 0,18.824 z m 192.646,-211.37 a 9.412,9.412 0 1 1 18.824,0 9.412,9.412 0 1 1 -18.824,0 z m -404.116,0 a 9.412,9.412 0 1 1 18.824,0 9.412,9.412 0 1 1 -18.824,0 z m 347.96753,-136.11292 a 9.412,9.412 0 1 1 13.31092,-13.30857 9.412,9.412 0 1 1 -13.30857,13.30857 z m -286.17186,286.17186 a 9.412,9.412 0 1 1 13.31092,-13.30857 9.412,9.412 0 1 1 -13.30857,13.30857 z m 286.11068,-13.2568 a 9.412,9.412 0 1 1 13.30622,13.30856 9.412,9.412 0 1 1 -13.30857,-13.30856 z m -286.17186,-286.17186 a 9.412,9.412 0 1 1 13.30622,13.30856 9.412,9.412 0 1 1 -13.30857,-13.30856 z m 149.73951,-15.03567 a 9.412,9.412 0 1 1 0,-18.824 9.412,9.412 0 1 1 0,18.824 z m -38.28731,4.38834 a 9.412,9.412 0 1 1 -4.33893,-18.31575 9.412,9.412 0 1 1 4.33893,18.31575 z m -35.82678,13.1768 a 9.4122613,9.4122613 0 1 1 -8.45433,-16.81924 9.412,9.412 0 1 1 8.45198,16.80042 z m -31.98433,21.03582 a 9.4120636,9.4120636 0 1 1 -12.10383,-14.41683 9.4129647,9.4129647 0 1 1 12.10383,14.41918 z m -26.28301,27.66658 a 9.412,9.412 0 1 1 -15.09685,-11.23793 9.412,9.412 0 1 1 15.10626,11.22381 z m -19.15342,33.09494 a 9.412,9.412 0 1 1 -17.28043,-7.45195 9.412,9.412 0 1 1 17.28043,7.4543 z m -10.8638,36.76798 a 9.4135404,9.4135404 0 1 1 -18.54164,-3.26597 9.4135404,9.4135404 0 1 1 18.54164,3.26597 z m -2.3177,38.23625 a 9.4137946,9.4137946 0 1 1 -18.79577,1.09414 9.4134547,9.4134547 0 1 1 18.79577,-1.08238 z m 6.72958,37.50682 a 9.4140928,9.4140928 0 1 1 -18.03575,5.40484 9.4126259,9.4126259 0 1 1 18.03339,-5.40249 z m 15.04743,35.16323 a 9.412,9.412 0 1 1 -16.30158,9.412 9.412,9.412 0 1 1 16.30158,-9.412 z m 22.79116,30.75371 a 9.4129191,9.4129191 0 1 1 -13.69446,12.91797 9.4129191,9.4129191 0 1 1 13.69446,-12.91797 z m 29.34662,24.49002 a 9.4120533,9.4120533 0 1 1 -10.34379,15.72746 9.4120533,9.4120533 0 1 1 10.34379,-15.72746 z m 34.08085,17.19338 a 9.412,9.412 0 1 1 -6.43781,17.68514 9.412,9.412 0 1 1 6.43781,-17.67103 z m 37.1774,8.81198 a 9.412,9.412 0 1 1 -2.18359,18.69223 9.412,9.412 0 1 1 2.18359,-18.69223 z m 38.25507,0.08 a 9.412,9.412 0 1 1 2.18359,18.69223 9.412,9.412 0 1 1 -2.18359,-18.69223 z m 37.21976,-8.85669 a 9.412,9.412 0 1 1 6.4378,17.6875 9.412,9.412 0 1 1 -6.4378,-17.68515 z m 34.22673,-17.20984 a 9.4120494,9.4120494 0 1 1 10.34379,15.72745 9.4120494,9.4120494 0 1 1 -10.34379,-15.72745 z m 29.36544,-24.67356 a 9.4129191,9.4129191 0 1 1 13.69446,12.91797 9.4129191,9.4129191 0 1 1 -13.69446,-12.91797 z m 22.76293,-30.54194 a 9.412,9.412 0 1 1 16.30158,9.412 9.412,9.412 0 1 1 -16.30158,-9.412 z m 15.22391,-35.15382 a 9.4122883,9.4122883 0 1 1 18.03339,5.40014 9.4126259,9.4126259 0 1 1 -18.03339,-5.40249 z m 6.66369,-37.74212 a 9.4162778,9.4162778 0 1 1 18.80047,1.09885 9.4163465,9.4163465 0 1 1 -18.80047,-1.1012 z m -2.30594,-38.1186 a 9.4135399,9.4135399 0 1 1 18.54164,-3.26596 9.4135399,9.4135399 0 1 1 -18.54164,3.26596 z m -10.98145,-36.66915 a 9.4141563,9.4141563 0 1 1 17.28984,-7.45431 9.412,9.412 0 1 1 -17.27102,7.45431 z m -18.98871,-32.96083 a 9.412,9.412 0 1 1 15.09685,-11.23792 9.413954,9.413954 0 1 1 -15.10626,11.23792 z m -26.36066,-27.91128 a 9.413725,9.413725 0 1 1 12.10619,-14.41919 9.4129696,9.4129696 0 1 1 -12.10384,14.41919 z m -31.88315,-21.03582 a 9.412,9.412 0 1 1 8.45433,-16.81689 9.412,9.412 0 1 1 -8.45198,16.80042 z m -35.99619,-13.14857 a 9.4124235,9.4124235 0 1 1 4.34834,-18.31575 9.4124235,9.4124235 0 1 1 -4.34834,18.31575 z m -37.64712,-60.79681 a 9.412,9.412 0 1 1 0,-18.824 9.412,9.412 0 1 1 0,18.824 z m 0,460.48757 a 9.412,9.412 0 1 1 0,-18.824 9.412,9.412 0 1 1 0,18.824 z m -0.006,-375.79369 a 9.412,9.412 0 1 1 0,-18.824 9.412,9.412 0 1 1 0,18.824 z m 0,291.37169 a 9.412,9.412 0 1 1 0,-18.824 9.412,9.412 0 1 1 0,18.824 z m -26.73008,-288.73633 a 9.4126624,9.4126624 0 1 1 -3.67068,-18.46399 9.4138163,9.4138163 0 1 1 3.67068,18.46634 z m 56.91907,286.17186 a 9.4161242,9.4161242 0 1 1 -3.67068,-18.47105 9.4161242,9.4161242 0 1 1 3.67068,18.47105 z m -82.49618,-278.45872 a 9.4123889,9.4123889 0 1 1 -7.20018,-17.39338 9.4123889,9.4123889 0 1 1 7.20018,17.39338 z m 111.64985,269.55968 a 9.412,9.412 0 1 1 -7.20018,-17.38867 9.4134742,9.4134742 0 1 1 7.20018,17.39572 z m -135.18691,-256.92878 a 9.412,9.412 0 1 1 -10.45673,-15.64745 9.412,9.412 0 1 1 10.45673,15.64745 z m 162.09817,242.60136 a 9.412,9.412 0 1 1 -10.45673,-15.65216 9.4196983,9.4196983 0 1 1 10.45673,15.67098 z m -182.73398,-225.67153 a 9.412,9.412 0 1 1 -13.31092,-13.30856 9.412,9.412 0 1 1 13.30857,13.29445 z m 206.31104,206.31575 a 9.412,9.412 0 1 1 -13.31092,-13.30857 9.4139076,9.4139076 0 1 1 13.30857,13.31798 z m -223.26911,-185.57405 a 9.412,9.412 0 1 1 -15.64745,-10.45909 9.412,9.412 0 1 1 15.64745,10.45674 z m 242.5943,162.09817 a 9.412,9.412 0 1 1 -15.64745,-10.45673 9.412,9.412 0 1 1 15.64745,10.45673 z m -255.15461,-138.49758 a 9.4123889,9.4123889 0 1 1 -17.39338,-7.20018 9.4123889,9.4123889 0 1 1 17.39338,7.20018 z m 269.58321,111.65691 a 9.4123889,9.4123889 0 1 1 -17.39338,-7.20018 9.4123889,9.4123889 0 1 1 17.39338,7.20018 z m -277.35282,-86.00215 a 9.4161242,9.4161242 0 1 1 -18.47105,-3.67068 9.4161242,9.4161242 0 1 1 18.47105,3.67068 z m 286.17186,56.92377 a 9.4161242,9.4161242 0 1 1 -18.47105,-3.67068 9.4161242,9.4161242 0 1 1 18.47105,3.67068 z m -288.8774,-30.65336 a 9.412,9.412 0 1 1 -18.824,0 9.412,9.412 0 1 1 18.824,0 z m 291.47159,0 a 9.412,9.412 0 1 1 -18.824,0 9.412,9.412 0 1 1 18.824,0 z m -288.82917,27.01798 a 9.4138163,9.4138163 0 1 1 -18.46634,3.67068 9.4138163,9.4138163 0 1 1 18.46634,-3.67068 z m 286.17186,-56.91907 a 9.4138163,9.4138163 0 1 1 -18.46634,3.67068 9.4138163,9.4138163 0 1 1 18.46634,-3.67068 z m -278.47049,82.51265 a 9.4123889,9.4123889 0 1 1 -17.39338,7.20018 9.4123889,9.4123889 0 1 1 17.39338,-7.20018 z m 269.55968,-111.65691 a 9.4123889,9.4123889 0 1 1 -17.39338,7.20018 9.4123889,9.4123889 0 1 1 17.39338,-7.20018 z m -256.92407,135.19397 a 9.412,9.412 0 1 1 -15.64745,10.45438 9.412,9.412 0 1 1 15.64745,-10.45673 z m 242.5943,-162.10288 a 9.412,9.412 0 1 1 -15.64745,10.45674 9.412,9.412 0 1 1 15.64745,-10.45674 z m -225.67152,182.73869 a 9.412,9.412 0 1 1 -13.30857,13.31092 9.412,9.412 0 1 1 13.30857,-13.30857 z m 206.33457,-206.31104 a 9.412,9.412 0 1 1 -13.30857,13.30621 9.412,9.412 0 1 1 13.30857,-13.30856 z m -185.57641,223.26676 a 9.4125242,9.4125242 0 1 1 -10.45908,15.65215 9.412,9.412 0 1 1 10.45673,-15.65215 z m 162.09817,-242.60136 a 9.4125242,9.4125242 0 1 1 -10.45908,15.65215 9.412,9.412 0 1 1 10.45673,-15.65215 z m -138.49758,255.15226 a 9.412,9.412 0 1 1 -7.20018,17.38867 9.412,9.412 0 1 1 7.20018,-17.38867 z m 111.64985,-269.56439 a 9.4123889,9.4123889 0 1 1 -7.20018,17.39338 9.4123889,9.4123889 0 1 1 7.20018,-17.39338 z m -86.00215,277.34341 a 9.4138163,9.4138163 0 1 1 -3.67068,18.46634 9.4138163,9.4138163 0 1 1 3.67068,-18.46634 z m 56.91907,-286.16716 a 9.4138193,9.4138193 0 1 1 -3.67068,18.46635 9.4138193,9.4138193 0 1 1 3.67068,-18.46635 z m -30.36511,44.1564 a 9.412,9.412 0 1 1 0,-18.824 9.412,9.412 0 1 1 0,18.824 z m 0,234.89969 a 9.412,9.412 0 1 1 0,-18.824 9.412,9.412 0 1 1 0,18.824 z m -37.55188,-228.42188 a 9.412,9.412 0 1 1 -6.43781,-17.68515 9.4146542,9.4146542 0 1 1 6.43781,17.69456 z m 80.47731,221.11141 a 9.412,9.412 0 1 1 -6.43781,-17.6875 9.412,9.412 0 1 1 6.43781,17.68515 z m -113.03342,-202.19329 a 9.4147671,9.4147671 0 1 1 -12.10383,-14.42389 9.4147671,9.4147671 0 1 1 12.10383,14.42389 z m 151.25084,180.24686 a 9.4137212,9.4137212 0 1 1 -12.10618,-14.41918 9.4129647,9.4129647 0 1 1 12.10383,14.41918 z m -175.48203,-151.5332 a 9.412,9.412 0 1 1 -16.30159,-9.412 9.412,9.412 0 1 1 16.30159,9.412 z m 203.77686,117.65 a 9.412,9.412 0 1 1 -16.30159,-9.412 9.412,9.412 0 1 1 16.30159,9.412 z m -216.53483,-82.2797 a 9.4135404,9.4135404 0 1 1 -18.54164,-3.26597 9.4135404,9.4135404 0 1 1 18.54164,3.26597 z m 231.7305,40.85984 a 9.4135399,9.4135399 0 1 1 -18.54164,-3.26596 9.412,9.412 0 1 1 18.54164,3.24714 z m -231.83638,-3.20008 a 9.4135404,9.4135404 0 1 1 -18.54164,3.26597 9.4135404,9.4135404 0 1 1 18.54164,-3.26597 z m 231.72814,-40.86455 a 9.4139484,9.4139484 0 1 1 -18.54164,3.27067 9.4139484,9.4139484 0 1 1 18.54164,-3.27067 z m -218.869,76.07249 a 9.412,9.412 0 1 1 -16.29923,9.412 9.412,9.412 0 1 1 16.30159,-9.412 z m 203.77921,-117.65 a 9.412,9.412 0 1 1 -16.30158,9.412 9.412,9.412 0 1 1 16.30158,-9.412 z m -179.5739,146.54484 a 9.4147671,9.4147671 0 1 1 -12.10383,14.42389 9.4147671,9.4147671 0 1 1 12.10383,-14.42389 z m 151.25084,-180.25156 a 9.4137212,9.4137212 0 1 1 -12.10618,14.41918 9.4129647,9.4129647 0 1 1 12.10383,-14.41918 z m -118.80297,198.99791 a 9.412,9.412 0 1 1 -6.4378,17.68515 9.412,9.412 0 1 1 6.44722,-17.68515 z m 80.47966,-221.11141 a 9.412,9.412 0 1 1 -6.44016,17.6828 9.412,9.412 0 1 1 6.43781,-17.68515 z m -122.77954,119.05709 a 9.412,9.412 0 1 1 -18.824,0 9.412,9.412 0 1 1 18.824,0 z m 178.828,0 a 9.412,9.412 0 1 1 -18.824,0 9.412,9.412 0 1 1 18.824,0 z m -98.826,-80.002 a 9.412,9.412 0 1 1 0,-18.824 9.412,9.412 0 1 1 0,18.824 z m 0,178.828 a 9.412,9.412 0 1 1 0,-18.824 9.412,9.412 0 1 1 0,18.824 z m -56.632,-42.27164 a 9.412,9.412 0 1 1 -13.30857,13.30857 9.412,9.412 0 1 1 13.30857,-13.30857 z m 126.45022,-126.45022 a 9.412,9.412 0 1 1 -13.30857,13.30857 9.412,9.412 0 1 1 13.30857,-13.30857 z m -126.37493,13.26151 a 9.412,9.412 0 1 1 -13.30856,-13.30857 9.412,9.412 0 1 1 13.30856,13.30857 z m 126.45022,126.45022 a 9.412,9.412 0 1 1 -13.30856,-13.30857 9.412,9.412 0 1 1 13.30856,13.30857 z m -69.89351,-121.58187 a 9.412,9.412 0 1 1 0,-18.824 9.412,9.412 0 1 1 0,18.824 z m 0,122.356 a 9.412,9.412 0 1 1 0,-18.824 9.412,9.412 0 1 1 0,18.824 z" />
</svg>
