<?xml version="1.0" encoding="UTF-8" standalone="no"?>
<svg
   version="1.1"
   preserveAspectRatio="xMidYMid"
   zoomAndPan="magnify"
   id="Electron shell Ununoctium"
   viewBox="-1000 -1000 500 500"
   width="500"
   height="500"
   xmlns="http://www.w3.org/2000/svg"
   xmlns:svg="http://www.w3.org/2000/svg"
   xmlns:rdf="http://www.w3.org/1999/02/22-rdf-syntax-ns#"
   xmlns:cc="http://creativecommons.org/ns#"
   xmlns:dc="http://purl.org/dc/elements/1.1/">
  <metadata
     id="metadata4245">
    <rdf:RDF>
      <cc:Work
         rdf:about="">
        <dc:format>image/svg+xml</dc:format>
        <dc:type
           rdf:resource="http://purl.org/dc/dcmitype/StillImage" />
      </cc:Work>
    </rdf:RDF>
  </metadata>
  <desc
     id="element_description">118 Uuo (Ununoctium) Legend_color:#e8e8e8</desc>
  <desc
     id="element_electron_configuration">2,8,18,32,32,18,8</desc>
  <defs
     id="defs4107">
    <circle
       id="electron"
       fill="#77868b"
       stroke="none"
       r="30"
       cx="0"
       cy="0" />
  </defs>
  <path
     fill="#c0ffff"
     stroke="#000000"
     stroke-width="0.709"
     stroke-miterlimit="0"
     d="m -712.5,-750 a 37.5,37.5 0 1 1 -75,0 37.5,37.5 0 1 1 75,0 z"
     id="nucleus"
     style="display:inline;fill:#db1828;fill-opacity:1;stroke:none;stroke-width:0;stroke-dasharray:none" />
  <path
     id="orbit"
     style="display:inline;fill:none;fill-opacity:1;stroke:#77868b;stroke-width:1.5;stroke-dasharray:none;stroke-opacity:1"
     d="m -689.43235,-750.08602 a 60.593765,60.58741 0 1 1 -121.18753,0 60.612825,60.606472 0 1 1 121.22565,0 z m 28.24212,-4.7e-4 a 88.832507,88.688062 0 1 1 -177.66495,0 88.86059,88.716103 0 1 1 177.72118,0 z m 27.64941,0.63812 a 117.07134,117.0777 0 1 1 -234.14259,0 117.10836,117.11472 0 1 1 234.21671,0 z m 28.63059,-0.15295 a 145.28413,145.30976 0 1 1 -290.56824,0 145.33012,145.35576 0 1 1 290.66024,0 z m 28.21435,-0.37505 a 173.41877,173.54182 0 1 1 -346.83742,0 173.47359,173.59669 0 1 1 346.94707,0 z" />
  <path
     id="51-Sb"
     style="display:inline;fill:#36a4ff;fill-opacity:1;stroke:none;stroke-width:0;stroke-dasharray:none;stroke-opacity:1"
     d="m -750.033,-886.15261 a 9.412,9.412 0 1 1 0,-18.824 9.412,9.412 0 1 1 0,18.824 z m 0,291.472 a 9.412,9.412 0 1 1 0,-18.824 9.412,9.412 0 1 1 0,18.824 z m -46.37578,-283.29331 a 9.412,9.412 0 1 1 -6.4378,-17.68279 9.412,9.412 0 1 1 6.4378,17.68515 z m 99.79073,274.17862 a 9.412,9.412 0 1 1 -6.4378,-17.68515 9.412,9.412 0 1 1 6.4378,17.68515 z m -140.84116,-250.3592 a 9.4129657,9.4129657 0 1 1 -12.10384,-14.41918 9.4129657,9.4129657 0 1 1 12.10384,14.41918 z m 187.54821,223.51147 a 9.4129647,9.4129647 0 1 1 -12.10383,-14.41918 9.4129647,9.4129647 0 1 1 12.10383,14.41918 z m -218.08074,-187.28233 a 9.412,9.412 0 1 1 -16.30159,-9.412 9.412,9.412 0 1 1 16.30159,9.412 z m 252.68161,145.886 a 9.412,9.412 0 1 1 -16.30159,-9.412 9.412,9.412 0 1 1 16.30159,9.412 z m -268.79496,-101.30135 a 9.4135404,9.4135404 0 1 1 -18.54164,-3.26597 9.4135404,9.4135404 0 1 1 18.54164,3.26597 z m 287.34366,50.66479 a 9.4133359,9.4133359 0 1 1 -18.54164,-3.26361 9.4135404,9.4135404 0 1 1 18.54164,3.26597 z m -287.44719,-3.20008 a 9.4135404,9.4135404 0 1 1 -18.54164,3.26597 9.4135404,9.4135404 0 1 1 18.54164,-3.26597 z m 287.33895,-50.66479 a 9.4135399,9.4135399 0 1 1 -18.54164,3.26596 9.4135399,9.4135399 0 1 1 18.54164,-3.26596 z m -271.12678,95.08943 a 9.412,9.412 0 1 1 -16.30158,9.412 9.412,9.412 0 1 1 16.30158,-9.412 z m 252.68397,-145.886 a 9.412,9.412 0 1 1 -16.30159,9.412 9.412,9.412 0 1 1 16.30159,-9.412 z m -222.17968,182.29397 a 9.4122109,9.4122109 0 1 1 -12.10148,14.41919 9.412,9.412 0 1 1 12.10384,-14.40036 z m 187.55057,-223.51147 a 9.4129663,9.4129663 0 1 1 -12.10383,14.41919 9.412,9.412 0 1 1 12.10383,-14.40036 z m -146.60837,247.15912 a 9.412,9.412 0 1 1 -6.4378,17.6828 9.412,9.412 0 1 1 6.4378,-17.68515 z m 99.79073,-274.17862 a 9.412,9.412 0 1 1 -6.43545,17.6875 9.412,9.412 0 1 1 6.43781,-17.68514 z m -53.22677,37.65775 a 9.412,9.412 0 1 1 0,-18.824 9.412,9.412 0 1 1 0,18.824 z m 0,234.99967 a 9.412,9.412 0 1 1 0,-18.824 9.412,9.412 0 1 1 0,18.824 z m -37.51432,-228.5222 a 9.412,9.412 0 1 1 -6.43781,-17.68514 9.4146542,9.4146542 0 1 1 6.43781,17.69456 z m 80.47731,221.11141 a 9.412,9.412 0 1 1 -6.43781,-17.6875 9.412,9.412 0 1 1 6.43781,17.68515 z m -113.03342,-202.19329 a 9.4147671,9.4147671 0 1 1 -12.10383,-14.42389 9.4147671,9.4147671 0 1 1 12.10383,14.42389 z m 151.25084,180.24686 a 9.4137212,9.4137212 0 1 1 -12.10618,-14.41918 9.4129647,9.4129647 0 1 1 12.10383,14.41918 z m -175.48203,-151.5332 a 9.412,9.412 0 1 1 -16.30158,-9.412 9.412,9.412 0 1 1 16.30158,9.412 z m 203.77686,117.65 a 9.412,9.412 0 1 1 -16.30159,-9.412 9.412,9.412 0 1 1 16.30159,9.412 z m -216.53483,-82.2797 a 9.4135399,9.4135399 0 1 1 -18.54164,-3.26596 9.4135399,9.4135399 0 1 1 18.54164,3.26596 z m 231.7305,40.85984 a 9.4135399,9.4135399 0 1 1 -18.54164,-3.26596 9.412,9.412 0 1 1 18.54164,3.24714 z m -231.83638,-3.20008 a 9.4135404,9.4135404 0 1 1 -18.54164,3.26597 9.4135404,9.4135404 0 1 1 18.54164,-3.26597 z m 231.72814,-40.86455 a 9.4139484,9.4139484 0 1 1 -18.54164,3.27067 9.4139484,9.4139484 0 1 1 18.54164,-3.27067 z m -218.869,76.07249 a 9.412,9.412 0 1 1 -16.29923,9.412 9.412,9.412 0 1 1 16.30159,-9.412 z m 203.77922,-117.65 a 9.412,9.412 0 1 1 -16.30159,9.412 9.412,9.412 0 1 1 16.30159,-9.412 z m -179.57391,146.54484 a 9.4147671,9.4147671 0 1 1 -12.10383,14.42389 9.4147671,9.4147671 0 1 1 12.10383,-14.42389 z m 151.25084,-180.25156 a 9.4137212,9.4137212 0 1 1 -12.10618,14.41918 9.4129647,9.4129647 0 1 1 12.10383,-14.41918 z m -118.80297,198.99791 a 9.412,9.412 0 1 1 -6.4378,17.68515 9.412,9.412 0 1 1 6.44722,-17.68515 z m 80.47966,-221.11141 a 9.412,9.412 0 1 1 -6.44016,17.6828 9.412,9.412 0 1 1 6.43781,-17.68515 z M -829.976,-749.98261 a 9.412,9.412 0 1 1 -18.824,0 9.412,9.412 0 1 1 18.824,0 z m 178.828,0 a 9.412,9.412 0 1 1 -18.824,0 9.412,9.412 0 1 1 18.824,0 z m -98.826,-80.002 a 9.412,9.412 0 1 1 0,-18.824 9.412,9.412 0 1 1 0,18.824 z m 0,178.82835 a 9.412,9.412 0 1 1 0,-18.824 9.412,9.412 0 1 1 0,18.824 z m -56.59503,-42.27187 a 9.412,9.412 0 1 1 -13.30857,13.30857 9.412,9.412 0 1 1 13.30857,-13.30857 z m 126.45022,-126.45022 a 9.412,9.412 0 1 1 -13.30857,13.30857 9.412,9.412 0 1 1 13.30857,-13.30857 z m -126.37492,13.26151 a 9.412,9.412 0 1 1 -13.30857,-13.30857 9.412,9.412 0 1 1 13.30857,13.30857 z m 126.45022,126.45022 a 9.412,9.412 0 1 1 -13.30857,-13.30857 9.412,9.412 0 1 1 13.30857,13.30857 z M -749.974,-801.75061 a 9.412,9.412 0 1 1 0,-18.824 9.412,9.412 0 1 1 0,18.824 z m 0,122.356 a 9.412,9.412 0 1 1 0,-18.824 9.412,9.412 0 1 1 0,18.824 z m -0.0228,-234.98139 a 9.412,9.412 0 1 1 0,-18.824 9.412,9.412 0 1 1 0,18.824 z m -156.30889,114.08638 a 9.412,9.412 0 1 1 -17.90163,-5.81662 9.412,9.412 0 1 1 17.90163,5.81662 z m 59.88385,184.25166 a 9.4137536,9.4137536 0 1 1 -11.07087,15.22862 9.4130628,9.4130628 0 1 1 11.06852,-15.22862 z m 193.52954,-0.16 a 9.4130598,9.4130598 0 1 1 11.06851,15.22862 9.4130598,9.4130598 0 1 1 -11.06851,-15.22862 z m 59.92385,-184.05166 a 9.412,9.412 0 1 1 17.89927,-5.81191 9.412,9.412 0 1 1 -17.90162,5.81897 z" />
</svg>
