<?xml version="1.0" encoding="UTF-8" standalone="no"?>
<svg
   version="1.1"
   preserveAspectRatio="xMidYMid"
   zoomAndPan="magnify"
   id="Electron shell Ununoctium"
   viewBox="-1000 -1000 500 500"
   width="500"
   height="500"
   xmlns="http://www.w3.org/2000/svg"
   xmlns:svg="http://www.w3.org/2000/svg"
   xmlns:rdf="http://www.w3.org/1999/02/22-rdf-syntax-ns#"
   xmlns:cc="http://creativecommons.org/ns#"
   xmlns:dc="http://purl.org/dc/elements/1.1/">
  <metadata
     id="metadata4245">
    <rdf:RDF>
      <cc:Work
         rdf:about="">
        <dc:format>image/svg+xml</dc:format>
        <dc:type
           rdf:resource="http://purl.org/dc/dcmitype/StillImage" />
      </cc:Work>
    </rdf:RDF>
  </metadata>
  <desc
     id="element_description">118 Uuo (Ununoctium) Legend_color:#e8e8e8</desc>
  <desc
     id="element_electron_configuration">2,8,18,32,32,18,8</desc>
  <defs
     id="defs4107">
    <circle
       id="electron"
       fill="#77868b"
       stroke="none"
       r="30"
       cx="0"
       cy="0" />
  </defs>
  <path
     fill="#c0ffff"
     stroke="#000000"
     stroke-width="0.709"
     stroke-miterlimit="0"
     d="m -712.5,-750 a 37.5,37.5 0 1 1 -75,0 37.5,37.5 0 1 1 75,0 z"
     id="nucleus"
     style="display:inline;fill:#db1828;fill-opacity:1;stroke:none;stroke-width:0;stroke-dasharray:none" />
  <path
     id="orbit"
     style="display:inline;fill:none;fill-opacity:1;stroke:#77868b;stroke-width:1.5;stroke-dasharray:none;stroke-opacity:1"
     d="m -689.43235,-750.08602 a 60.593765,60.58741 0 1 1 -121.18753,0 60.612825,60.606472 0 1 1 121.22565,0 z m 28.24212,-4.7e-4 a 88.832507,88.688062 0 1 1 -177.66495,0 88.86059,88.716103 0 1 1 177.72118,0 z m 27.64941,0.63812 a 117.07134,117.0777 0 1 1 -234.14259,0 117.10836,117.11472 0 1 1 234.21671,0 z m 28.63059,-0.15295 a 145.28413,145.30976 0 1 1 -290.56824,0 145.33012,145.35576 0 1 1 290.66024,0 z m 28.21435,-0.37505 a 173.41877,173.54182 0 1 1 -346.83742,0 173.47359,173.59669 0 1 1 346.94707,0 z m 27.82353,0.47153 a 201.70977,201.69515 0 1 1 -403.41953,0 201.77353,201.75892 0 1 1 403.54706,0 z m 28.72235,-0.45789 a 229.92259,229.95351 0 1 1 -459.84518,0 229.99518,230.02612 0 1 1 459.99036,0 z" />
  <path
     id="106-Sg"
     style="display:inline;fill:#36a4ff;fill-opacity:1;stroke:none;stroke-width:0;stroke-dasharray:none;stroke-opacity:1"
     d="m -750.00235,-942.6241 a 9.412,9.412 0 1 1 0,-18.824 9.412,9.412 0 1 1 0,18.824 z m 0,404.0161 a 9.412,9.412 0 1 1 0,-18.824 9.412,9.412 0 1 1 0,18.824 z m 96.48476,-378.17545 a 9.412,9.412 0 1 1 9.412,-16.30159 9.412,9.412 0 1 1 -9.412,16.30159 z m -202.358,350.50288 a 9.412,9.412 0 1 1 9.412,-16.30159 9.412,9.412 0 1 1 -9.412,16.30159 z m 272.97859,-279.847 a 9.412,9.412 0 1 1 16.30158,-9.412 9.412,9.412 0 1 1 -16.30158,9.412 z m -350.49347,202.33447 a 9.412,9.412 0 1 1 16.30159,-9.412 9.412,9.412 0 1 1 -16.30159,9.412 z M -557.356,-749.978 a 9.412,9.412 0 1 1 18.824,0 9.412,9.412 0 1 1 -18.824,0 z m -404.112,0 a 9.412,9.412 0 1 1 18.824,0 9.412,9.412 0 1 1 -18.824,0 z m 378.56865,96.7729 a 9.412,9.412 0 1 1 16.30158,9.412 9.412,9.412 0 1 1 -16.30158,-9.412 z m -350.49112,-202.358 a 9.412,9.412 0 1 1 16.30159,9.412 9.412,9.412 0 1 1 -16.30159,-9.412 z m 279.85406,272.99506 a 9.412,9.412 0 1 1 9.412,16.30158 9.412,9.412 0 1 1 -9.412,-16.30158 z m -202.358,-350.50288 a 9.412,9.412 0 1 1 9.412,16.30158 9.412,9.412 0 1 1 -9.412,-16.30158 z m 105.87641,-37.76565 a 9.412,9.412 0 1 1 0,-18.824 9.412,9.412 0 1 1 0,18.824 z m 0.10035,460.4881 a 9.412,9.412 0 1 1 0,-18.824 9.412,9.412 0 1 1 0,18.824 z m -0.08,-375.79422 a 9.412,9.412 0 1 1 0,-18.824 9.412,9.412 0 1 1 0,18.824 z m 0,291.37169 a 9.412,9.412 0 1 1 0,-18.824 9.412,9.412 0 1 1 0,18.824 z m -26.73478,-288.73633 a 9.4126624,9.4126624 0 1 1 -3.67068,-18.46399 9.4138163,9.4138163 0 1 1 3.67068,18.46634 z m 56.91907,286.17186 a 9.4161242,9.4161242 0 1 1 -3.67068,-18.47105 9.4161242,9.4161242 0 1 1 3.67068,18.47105 z m -82.49148,-278.45872 a 9.4123889,9.4123889 0 1 1 -7.20018,-17.39338 9.4123889,9.4123889 0 1 1 7.20018,17.39338 z m 111.64985,269.55968 a 9.412,9.412 0 1 1 -7.20018,-17.38867 9.4134742,9.4134742 0 1 1 7.20018,17.39572 z m -135.18926,-256.92878 a 9.412,9.412 0 1 1 -10.45673,-15.64745 9.412,9.412 0 1 1 10.45673,15.64745 z m 162.09817,242.60136 a 9.412,9.412 0 1 1 -10.45673,-15.65216 9.4196983,9.4196983 0 1 1 10.45673,15.67098 z m -182.73398,-225.67153 a 9.412,9.412 0 1 1 -13.31092,-13.30856 9.412,9.412 0 1 1 13.31798,13.29445 z m 206.31104,206.31575 a 9.412,9.412 0 1 1 -13.31092,-13.30857 9.417234,9.417234 0 1 1 13.31798,13.31798 z m -223.26676,-185.57405 a 9.4125242,9.4125242 0 1 1 -15.65215,-10.45909 9.412,9.412 0 1 1 15.65215,10.45674 z m 242.5943,162.09817 a 9.412,9.412 0 1 1 -15.65215,-10.45673 9.412,9.412 0 1 1 15.65215,10.45673 z M -876.0008,-801.89117 a 9.412,9.412 0 1 1 -17.38867,-7.20018 9.4134746,9.4134746 0 1 1 17.39573,7.20018 z m 269.58321,111.65691 a 9.412,9.412 0 1 1 -17.38867,-7.20018 9.4134746,9.4134746 0 1 1 17.39573,7.20018 z m -277.35281,-86.00215 a 9.4138193,9.4138193 0 1 1 -18.46635,-3.67068 9.4138193,9.4138193 0 1 1 18.46635,3.67068 z m 286.17186,56.92377 a 9.4138193,9.4138193 0 1 1 -18.46635,-3.67068 9.4138193,9.4138193 0 1 1 18.46635,3.67068 z m -288.87778,-30.6536 a 9.412,9.412 0 1 1 -18.824,0 9.412,9.412 0 1 1 18.824,0 z m 291.47232,0 a 9.412,9.412 0 1 1 -18.824,0 9.412,9.412 0 1 1 18.824,0 z m -288.82758,27.01822 a 9.4138163,9.4138163 0 1 1 -18.46634,3.67068 9.4138163,9.4138163 0 1 1 18.46634,-3.67068 z m 286.17186,-56.91907 a 9.4138163,9.4138163 0 1 1 -18.46634,3.67068 9.4138163,9.4138163 0 1 1 18.46634,-3.67068 z m -278.47049,82.51265 a 9.4123889,9.4123889 0 1 1 -17.39338,7.20018 9.4123889,9.4123889 0 1 1 17.39338,-7.20018 z m 269.55968,-111.65691 a 9.4123889,9.4123889 0 1 1 -17.39338,7.20018 9.4123889,9.4123889 0 1 1 17.39338,-7.20018 z m -256.92407,135.19397 a 9.412,9.412 0 1 1 -15.64745,10.45438 9.412,9.412 0 1 1 15.64745,-10.45673 z m 242.5943,-162.10288 a 9.412,9.412 0 1 1 -15.64745,10.45674 9.412,9.412 0 1 1 15.64745,-10.45674 z m -225.66917,182.73869 a 9.4122426,9.4122426 0 1 1 -13.31092,13.31092 9.412,9.412 0 1 1 13.30856,-13.30857 z m 206.33457,-206.31104 a 9.412,9.412 0 1 1 -13.31092,13.30621 9.412,9.412 0 1 1 13.30856,-13.30856 z m -185.58111,223.26676 a 9.412,9.412 0 1 1 -10.45674,15.65215 9.412,9.412 0 1 1 10.45674,-15.65215 z m 162.09817,-242.60136 a 9.412,9.412 0 1 1 -10.45674,15.65215 9.412,9.412 0 1 1 10.45674,-15.65215 z m -138.49758,255.15226 a 9.412,9.412 0 1 1 -7.20018,17.38867 9.412,9.412 0 1 1 7.20018,-17.38867 z m 111.64985,-269.56439 a 9.4123889,9.4123889 0 1 1 -7.20018,17.39338 9.4123889,9.4123889 0 1 1 7.20018,-17.39338 z m -85.99745,277.34341 a 9.4138163,9.4138163 0 1 1 -3.67068,18.46634 9.4138163,9.4138163 0 1 1 3.67068,-18.46634 z m 56.91907,-286.16716 a 9.4138193,9.4138193 0 1 1 -3.67068,18.46635 9.4138193,9.4138193 0 1 1 3.67068,-18.46635 z m -30.36505,44.1564 a 9.412,9.412 0 1 1 0,-18.824 9.412,9.412 0 1 1 0,18.824 z m 0.009,234.84324 a 9.412,9.412 0 1 1 0,-18.824 9.412,9.412 0 1 1 0,18.824 z m -37.56287,-228.36543 a 9.412,9.412 0 1 1 -6.43781,-17.68515 9.4162639,9.4162639 0 1 1 6.44722,17.69456 z m 80.47966,221.11141 a 9.412,9.412 0 1 1 -6.44016,-17.6875 9.412,9.412 0 1 1 6.4378,17.68515 z m -113.03812,-202.19329 a 9.4140111,9.4140111 0 1 1 -12.10148,-14.42389 9.4147671,9.4147671 0 1 1 12.10383,14.42389 z m 151.25084,180.24686 a 9.4129657,9.4129657 0 1 1 -12.10384,-14.41918 9.4129657,9.4129657 0 1 1 12.10384,14.41918 z m -175.47968,-151.5332 a 9.412,9.412 0 1 1 -16.30159,-9.412 9.412,9.412 0 1 1 16.30159,9.412 z m 203.77685,117.65 a 9.412,9.412 0 1 1 -16.30158,-9.412 9.412,9.412 0 1 1 16.30158,9.412 z m -216.53247,-82.2797 a 9.4135404,9.4135404 0 1 1 -18.54164,-3.26597 9.4135404,9.4135404 0 1 1 18.54164,3.26597 z m 231.72815,40.85984 a 9.4135399,9.4135399 0 1 1 -18.54164,-3.26596 9.412,9.412 0 1 1 18.54164,3.24714 z m -231.83639,-3.20008 a 9.4135404,9.4135404 0 1 1 -18.54164,3.26597 9.4135404,9.4135404 0 1 1 18.54164,-3.26597 z m 231.72815,-40.86455 a 9.4139484,9.4139484 0 1 1 -18.54164,3.27067 9.4139484,9.4139484 0 1 1 18.54164,-3.27067 z m -218.86665,76.07249 a 9.412,9.412 0 1 1 -16.30158,9.412 9.412,9.412 0 1 1 16.30158,-9.412 z m 203.77686,-117.65 a 9.412,9.412 0 1 1 -16.30158,9.412 9.412,9.412 0 1 1 16.30158,-9.412 z m -179.5739,146.54484 a 9.4147671,9.4147671 0 1 1 -12.10383,14.42389 9.4147671,9.4147671 0 1 1 12.10383,-14.42389 z m 151.25084,-180.25156 a 9.4137212,9.4137212 0 1 1 -12.10618,14.41918 9.4129647,9.4129647 0 1 1 12.10383,-14.41918 z m -118.80297,198.99791 a 9.412,9.412 0 1 1 -6.43781,17.68515 9.412,9.412 0 1 1 6.43781,-17.68515 z m 80.47731,-221.11141 a 9.412,9.412 0 1 1 -6.43781,17.6828 9.412,9.412 0 1 1 6.43781,-17.68515 z m -122.77954,119.05709 a 9.412,9.412 0 1 1 -18.824,0 9.412,9.412 0 1 1 18.824,0 z m 178.828,0 a 9.412,9.412 0 1 1 -18.824,0 9.412,9.412 0 1 1 18.824,0 z m -98.826,-80.00199 a 9.412005,9.412005 0 1 1 0,-18.82401 9.412005,9.412005 0 1 1 0,18.82401 z m 0,178.82799 a 9.412,9.412 0 1 1 0,-18.824 9.412,9.412 0 1 1 0,18.824 z m -56.62965,-42.27164 a 9.412,9.412 0 1 1 -13.30857,13.30857 9.412,9.412 0 1 1 13.30857,-13.30857 z m 126.45022,-126.45022 a 9.412,9.412 0 1 1 -13.30857,13.30857 9.412,9.412 0 1 1 13.30857,-13.30857 z m -126.37493,13.26151 a 9.412,9.412 0 1 1 -13.30857,-13.30857 9.412,9.412 0 1 1 13.29445,13.30857 z m 126.45022,126.45022 a 9.412,9.412 0 1 1 -13.30857,-13.30857 9.412,9.412 0 1 1 13.29445,13.30857 z m -69.89586,-121.58422 a 9.412,9.412 0 1 1 0,-18.824 9.412,9.412 0 1 1 0,18.824 z m 0,122.356 a 9.412,9.412 0 1 1 0,-18.824 9.412,9.412 0 1 1 0,18.824 z m -0.0235,-234.99881 a 9.412,9.412 0 1 1 0,-18.824 9.412,9.412 0 1 1 0,18.824 z m 0,347.83939 a 9.412,9.412 0 1 1 0,-18.824 9.412,9.412 0 1 1 0,18.824 z m 164.42917,-183.434 a 9.412,9.412 0 1 1 18.824,0 9.412,9.412 0 1 1 -18.824,0 z m -347.94432,0 a 9.412,9.412 0 1 1 18.824,0 9.412,9.412 0 1 1 -18.824,0 z m 151.29787,-161.22649 a 9.4138193,9.4138193 0 1 1 -3.67068,-18.46635 9.4138193,9.4138193 0 1 1 3.67068,18.46635 z m 67.93111,341.56148 a 9.4138193,9.4138193 0 1 1 -3.67068,-18.46635 9.4138193,9.4138193 0 1 1 3.67068,18.46635 z m 125.83373,-212.27119 a 9.4138193,9.4138193 0 1 1 18.46635,-3.67068 9.4138193,9.4138193 0 1 1 -18.46635,3.67068 z m -341.56148,67.95464 a 9.4138193,9.4138193 0 1 1 18.46635,-3.67068 9.4138193,9.4138193 0 1 1 -18.46635,3.67068 z m 116.90646,-187.9294 a 9.4123889,9.4123889 0 1 1 -7.20018,-17.39338 9.4123889,9.4123889 0 1 1 7.20018,17.39338 z m 133.27392,321.7351 a 9.4123889,9.4123889 0 1 1 -7.20018,-17.39338 9.4123889,9.4123889 0 1 1 7.20018,17.39338 z m 82.05617,-232.6317 a 9.4123871,9.4123871 0 1 1 17.39337,-7.20018 9.4123871,9.4123871 0 1 1 -17.39337,7.20018 z m -321.72569,133.25039 a 9.4123871,9.4123871 0 1 1 17.39337,-7.20018 9.4123871,9.4123871 0 1 1 -17.39337,7.20018 z m 77.98547,-207.11106 a 9.412,9.412 0 1 1 -10.45673,-15.65216 9.412,9.412 0 1 1 10.45673,15.65216 z m 193.46366,289.55312 a 9.412,9.412 0 1 1 -10.45673,-15.65216 9.412,9.412 0 1 1 10.45673,15.65216 z m 35.02676,-244.12375 a 9.412,9.412 0 1 1 15.65216,-10.45673 9.412,9.412 0 1 1 -15.65216,10.45673 z m -289.53668,193.48719 a 9.412,9.412 0 1 1 15.65216,-10.45673 9.412,9.412 0 1 1 -15.65216,10.45673 z m 36.12561,-218.47605 a 9.412,9.412 0 1 1 -13.30857,-13.30857 9.417234,9.417234 0 1 1 13.31798,13.31798 z m 246.24145,246.24145 a 9.412,9.412 0 1 1 -13.30857,-13.30621 9.4139069,9.4139069 0 1 1 13.31798,13.30856 z m -13.2568,-246.17086 a 9.412,9.412 0 1 1 13.30857,-13.31092 9.4139076,9.4139076 0 1 1 -13.31798,13.30857 z m -246.24145,246.26498 a 9.412,9.412 0 1 1 13.30857,-13.31092 9.4139076,9.4139076 0 1 1 -13.31798,13.30857 z m -7.20018,-221.31612 a 9.4135042,9.4135042 0 1 1 -15.65451,-10.45909 9.412,9.412 0 1 1 15.65216,10.45674 z m 289.53665,193.46366 a 9.4135042,9.4135042 0 1 1 -15.65451,-10.45909 9.412,9.412 0 1 1 15.65216,10.45674 z m -61.10741,-238.87656 a 9.412,9.412 0 1 1 10.45438,-15.64745 9.412,9.412 0 1 1 -10.45673,15.64745 z m -193.48719,289.56018 a 9.412,9.412 0 1 1 10.45438,-15.64745 9.412,9.412 0 1 1 -10.45673,15.64745 z m -50.1189,-215.66422 a 9.4123889,9.4123889 0 1 1 -17.39338,-7.20018 9.4210841,9.4210841 0 1 1 17.4122,7.20018 z m 321.74922,133.26216 a 9.4123889,9.4123889 0 1 1 -17.39338,-7.20018 9.4210841,9.4210841 0 1 1 17.4122,7.20018 z m -106.63796,-222.30673 a 9.4123889,9.4123889 0 1 1 7.20018,-17.39338 9.4123889,9.4123889 0 1 1 -7.20018,17.39338 z m -133.27392,321.72569 a 9.4123889,9.4123889 0 1 1 7.20018,-17.39338 9.4123889,9.4123889 0 1 1 -7.20018,17.39338 z m -91.20934,-201.7274 a 9.4138163,9.4138163 0 1 1 -18.46634,-3.67068 9.4138163,9.4138163 0 1 1 18.46634,3.67068 z m 341.53795,67.93111 a 9.4138163,9.4138163 0 1 1 -18.46634,-3.67068 9.4138163,9.4138163 0 1 1 18.46634,3.67068 z m -148.0037,-197.32258 a 9.4161242,9.4161242 0 1 1 3.67068,-18.47105 9.4161242,9.4161242 0 1 1 -3.67068,18.47105 z m -67.95464,341.56148 a 9.4161242,9.4161242 0 1 1 3.67068,-18.47105 9.4161242,9.4161242 0 1 1 -3.67068,18.47105 z" />
</svg>
