<?xml version="1.0" encoding="UTF-8" standalone="no"?>
<svg
   version="1.1"
   preserveAspectRatio="xMidYMid"
   zoomAndPan="magnify"
   id="Electron shell Ununoctium"
   viewBox="-1000 -1000 500 500"
   width="500"
   height="500"
   xmlns="http://www.w3.org/2000/svg"
   xmlns:svg="http://www.w3.org/2000/svg"
   xmlns:rdf="http://www.w3.org/1999/02/22-rdf-syntax-ns#"
   xmlns:cc="http://creativecommons.org/ns#"
   xmlns:dc="http://purl.org/dc/elements/1.1/">
  <metadata
     id="metadata4245">
    <rdf:RDF>
      <cc:Work
         rdf:about="">
        <dc:format>image/svg+xml</dc:format>
        <dc:type
           rdf:resource="http://purl.org/dc/dcmitype/StillImage" />
      </cc:Work>
    </rdf:RDF>
  </metadata>
  <desc
     id="element_description">118 Uuo (Ununoctium) Legend_color:#e8e8e8</desc>
  <desc
     id="element_electron_configuration">2,8,18,32,32,18,8</desc>
  <defs
     id="defs4107">
    <circle
       id="electron"
       fill="#77868b"
       stroke="none"
       r="30"
       cx="0"
       cy="0" />
  </defs>
  <path
     fill="#c0ffff"
     stroke="#000000"
     stroke-width="0.709"
     stroke-miterlimit="0"
     d="m -712.5,-750 a 37.5,37.5 0 1 1 -75,0 37.5,37.5 0 1 1 75,0 z"
     id="nucleus"
     style="display:inline;fill:#db1828;fill-opacity:1;stroke:none;stroke-width:0;stroke-dasharray:none" />
  <path
     id="orbit"
     style="display:inline;fill:none;fill-opacity:1;stroke:#77868b;stroke-width:1.5;stroke-dasharray:none;stroke-opacity:1"
     d="m -689.43235,-750.08602 a 60.593765,60.58741 0 1 1 -121.18753,0 60.612825,60.606472 0 1 1 121.22565,0 z m 28.24212,-4.7e-4 a 88.832507,88.688062 0 1 1 -177.66495,0 88.86059,88.716103 0 1 1 177.72118,0 z m 27.64941,0.63812 a 117.07134,117.0777 0 1 1 -234.14259,0 117.10836,117.11472 0 1 1 234.21671,0 z m 28.63059,-0.15295 a 145.28413,145.30976 0 1 1 -290.56824,0 145.33012,145.35576 0 1 1 290.66024,0 z m 28.21435,-0.37505 a 173.41877,173.54182 0 1 1 -346.83742,0 173.47359,173.59669 0 1 1 346.94707,0 z m 27.82353,0.47153 a 201.70977,201.69515 0 1 1 -403.41953,0 201.77353,201.75892 0 1 1 403.54706,0 z" />
  <path
     id="59-Pr"
     style="display:inline;fill:#36a4ff;fill-opacity:1;stroke:none;stroke-width:0;stroke-dasharray:none;stroke-opacity:1"
     d="m -750.02353,-914.37394 a 9.412,9.412 0 1 1 0,-18.824 9.412,9.412 0 1 1 0,18.824 z m 0,347.84394 a 9.412,9.412 0 1 1 0,-18.824 9.412,9.412 0 1 1 0,18.824 z M -585.59,-749.964 a 9.412,9.412 0 1 1 18.824,0 9.412,9.412 0 1 1 -18.824,0 z m -347.944,0 a 9.412,9.412 0 1 1 18.824,0 9.412,9.412 0 1 1 -18.824,0 z m 300.05456,-116.15461 a 9.412,9.412 0 1 1 13.31092,-13.30857 9.412,9.412 0 1 1 -13.30857,13.30857 z m -246.24145,246.25792 a 9.4122426,9.4122426 0 1 1 13.31092,-13.31092 9.412,9.412 0 1 1 -13.30857,13.30857 z m 246.15674,-13.28269 a 9.412,9.412 0 1 1 13.30622,13.30857 9.412,9.412 0 1 1 -13.30857,-13.29445 z M -879.8056,-879.38482 a 9.412,9.412 0 1 1 13.30622,13.30856 9.412,9.412 0 1 1 -13.30857,-13.29445 z m 129.7846,-6.75547 a 9.412,9.412 0 1 1 0,-18.824 9.412,9.412 0 1 1 0,18.824 z m -40.54707,6.13663 a 9.4120285,9.4120285 0 1 1 -5.55308,-17.98634 9.4120285,9.4120285 0 1 1 5.55308,17.98634 z m -36.60562,17.58867 a 9.412,9.412 0 1 1 -10.60733,-15.54862 9.412,9.412 0 1 1 10.60733,15.5298 z m -29.91605,27.7254 a 9.4133,9.4133 0 1 1 -14.72036,-11.73676 9.4133,9.4133 0 1 1 14.72036,11.73676 z m -20.40521,35.24794 a 9.4136553,9.4136553 0 1 1 -17.52515,-6.88017 9.4136553,9.4136553 0 1 1 17.52515,6.88017 z m -8.98376,39.45275 a 9.412,9.412 0 1 1 -18.76752,-1.40239 9.412,9.412 0 1 1 18.76752,1.4118 z m 3.01184,40.73043 a 9.4126177,9.4126177 0 1 1 -18.3534,4.18834 9.4126177,9.4126177 0 1 1 18.3534,-4.18834 z m 14.84743,37.82918 a 9.412,9.412 0 1 1 -16.30158,9.412 9.412,9.412 0 1 1 16.30158,-9.412 z m 25.31828,31.7655 a 9.412,9.412 0 1 1 -12.80032,13.79564 9.412,9.412 0 1 1 12.80032,-13.79799 z m 33.70908,23.00293 a 9.4132494,9.4132494 0 1 1 -8.17197,16.96042 9.4127388,9.4127388 0 1 1 8.16962,-16.96042 z m 38.89039,11.90147 a 9.4135175,9.4135175 0 1 1 -2.80478,18.61694 9.4135175,9.4135175 0 1 1 2.80478,-18.61694 z m 40.7069,0.0282 a 9.4143289,9.4143289 0 1 1 2.80007,18.61929 9.4136926,9.4136926 0 1 1 -2.80713,-18.61694 z m 38.78685,-12.02383 a 9.4148588,9.4148588 0 1 1 8.16961,16.96513 9.4148588,9.4148588 0 1 1 -8.16961,-16.96513 z m 33.6479,-22.7841 a 9.412,9.412 0 1 1 12.80032,13.79799 9.412,9.412 0 1 1 -12.80032,-13.78858 z m 25.35122,-31.89256 a 9.412,9.412 0 1 1 16.30158,9.412 9.412,9.412 0 1 1 -16.30158,-9.412 z m 14.83331,-37.89507 a 9.4126177,9.4126177 0 1 1 18.3534,4.18834 9.4126177,9.4126177 0 1 1 -18.3534,-4.18834 z m 3.01184,-40.41512 a 9.412,9.412 0 1 1 18.76518,-1.4118 9.412,9.412 0 1 1 -18.76753,1.4118 z m -9.09434,-39.81276 a 9.4136528,9.4136528 0 1 1 17.52514,-6.88018 9.4136528,9.4136528 0 1 1 -17.52514,6.88018 z m -20.30169,-35.28324 a 9.4133,9.4133 0 1 1 14.72037,-11.73676 9.412,9.412 0 1 1 -14.72037,11.71794 z m -29.9231,-27.61716 a 9.4149888,9.4149888 0 1 1 10.60733,-15.55804 9.4149888,9.4149888 0 1 1 -10.60733,15.55804 z m -36.43856,-17.5675 a 9.412,9.412 0 1 1 5.54367,-17.98633 9.412,9.412 0 1 1 -5.54367,17.98633 z m -39.88664,-62.59921 a 9.412,9.412 0 1 1 0,-18.824 9.412,9.412 0 1 1 0,18.824 z m -0.10024,404.01574 a 9.412,9.412 0 1 1 0,-18.824 9.412,9.412 0 1 1 0,18.824 z m 0.0822,-319.29833 a 9.412,9.412 0 1 1 0,-18.824 9.412,9.412 0 1 1 0,18.824 z m 0,234.90033 a 9.412,9.412 0 1 1 0,-18.824 9.412,9.412 0 1 1 0,18.824 z m -37.55141,-228.42252 a 9.412,9.412 0 1 1 -6.43781,-17.68515 9.4146542,9.4146542 0 1 1 6.43781,17.69456 z m 80.47731,221.11141 a 9.412,9.412 0 1 1 -6.43781,-17.6875 9.412,9.412 0 1 1 6.43781,17.68515 z M -820.13352,-832.5084 a 9.4147671,9.4147671 0 1 1 -12.10383,-14.42389 9.4147671,9.4147671 0 1 1 12.10383,14.42389 z m 151.25084,180.24686 a 9.4137212,9.4137212 0 1 1 -12.10618,-14.41918 9.4129647,9.4129647 0 1 1 12.10383,14.41918 z M -844.36471,-803.7947 a 9.412,9.412 0 1 1 -16.30159,-9.412 9.412,9.412 0 1 1 16.30159,9.412 z m 203.77686,117.65 a 9.412,9.412 0 1 1 -16.30159,-9.412 9.412,9.412 0 1 1 16.30159,9.412 z m -216.53483,-82.2797 a 9.4135404,9.4135404 0 1 1 -18.54164,-3.26597 9.4135404,9.4135404 0 1 1 18.54164,3.26597 z m 231.7305,40.85984 a 9.4135399,9.4135399 0 1 1 -18.54164,-3.26596 9.412,9.412 0 1 1 18.54164,3.24714 z m -231.83638,-3.20008 a 9.4135399,9.4135399 0 1 1 -18.54164,3.26596 9.4135399,9.4135399 0 1 1 18.54164,-3.26596 z m 231.72814,-40.86455 a 9.4139484,9.4139484 0 1 1 -18.54164,3.27067 9.4139484,9.4139484 0 1 1 18.54164,-3.27067 z m -218.869,76.07249 a 9.412,9.412 0 1 1 -16.29923,9.412 9.412,9.412 0 1 1 16.30158,-9.412 z m 203.77921,-117.65 a 9.412,9.412 0 1 1 -16.30158,9.412 9.412,9.412 0 1 1 16.30158,-9.412 z m -179.5739,146.54484 a 9.4147671,9.4147671 0 1 1 -12.10383,14.42389 9.4147671,9.4147671 0 1 1 12.10383,-14.42389 z m 151.25084,-180.25157 a 9.4137218,9.4137218 0 1 1 -12.10618,14.41919 9.4129663,9.4129663 0 1 1 12.10383,-14.41919 z m -118.80297,198.99792 a 9.412,9.412 0 1 1 -6.43781,17.68515 9.412,9.412 0 1 1 6.44722,-17.68515 z m 80.47966,-221.11141 a 9.412,9.412 0 1 1 -6.44016,17.6828 9.412,9.412 0 1 1 6.43781,-17.68515 z m -122.77954,119.05709 a 9.412,9.412 0 1 1 -18.824,0 9.412,9.412 0 1 1 18.824,0 z m 178.828,0 a 9.412,9.412 0 1 1 -18.824,0 9.412,9.412 0 1 1 18.824,0 z m -98.826,-80.002 a 9.412,9.412 0 1 1 0,-18.824 9.412,9.412 0 1 1 0,18.824 z m 0,178.828 a 9.412,9.412 0 1 1 0,-18.824 9.412,9.412 0 1 1 0,18.824 z m -56.632,-42.27164 a 9.412,9.412 0 1 1 -13.30857,13.30857 9.412,9.412 0 1 1 13.30857,-13.30857 z m 126.45022,-126.45022 a 9.412,9.412 0 1 1 -13.30857,13.30857 9.412,9.412 0 1 1 13.30857,-13.30857 z m -126.37493,13.26151 a 9.412,9.412 0 1 1 -13.30856,-13.30857 9.412,9.412 0 1 1 13.30856,13.30857 z m 126.45022,126.45022 a 9.412,9.412 0 1 1 -13.30856,-13.30857 9.412,9.412 0 1 1 13.30856,13.30857 z m -69.89351,-121.58187 a 9.412,9.412 0 1 1 0,-18.824 9.412,9.412 0 1 1 0,18.824 z m 0,122.356 a 9.412,9.412 0 1 1 0,-18.824 9.412,9.412 0 1 1 0,18.824 z" />
</svg>
