<?xml version="1.0" encoding="UTF-8" standalone="no"?>
<svg
   version="1.1"
   preserveAspectRatio="xMidYMid"
   zoomAndPan="magnify"
   id="Electron shell Ununoctium"
   viewBox="-1000 -1000 500 500"
   width="500"
   height="500"
   xmlns="http://www.w3.org/2000/svg"
   xmlns:svg="http://www.w3.org/2000/svg"
   xmlns:rdf="http://www.w3.org/1999/02/22-rdf-syntax-ns#"
   xmlns:cc="http://creativecommons.org/ns#"
   xmlns:dc="http://purl.org/dc/elements/1.1/">
  <metadata
     id="metadata4245">
    <rdf:RDF>
      <cc:Work
         rdf:about="">
        <dc:format>image/svg+xml</dc:format>
        <dc:type
           rdf:resource="http://purl.org/dc/dcmitype/StillImage" />
      </cc:Work>
    </rdf:RDF>
  </metadata>
  <desc
     id="element_description">118 Uuo (Ununoctium) Legend_color:#e8e8e8</desc>
  <desc
     id="element_electron_configuration">2,8,18,32,32,18,8</desc>
  <defs
     id="defs4107">
    <circle
       id="electron"
       fill="#77868b"
       stroke="none"
       r="30"
       cx="0"
       cy="0" />
  </defs>
  <path
     fill="#c0ffff"
     stroke="#000000"
     stroke-width="0.709"
     stroke-miterlimit="0"
     d="m -712.5,-750 a 37.5,37.5 0 1 1 -75,0 37.5,37.5 0 1 1 75,0 z"
     id="nucleus"
     style="display:inline;fill:#db1828;fill-opacity:1;stroke:none;stroke-width:0;stroke-dasharray:none" />
  <path
     id="orbit"
     style="display:inline;fill:none;fill-opacity:1;stroke:#77868b;stroke-width:1.5;stroke-dasharray:none;stroke-opacity:1"
     d="m -689.43235,-750.08602 a 60.593765,60.58741 0 1 1 -121.18753,0 60.612825,60.606472 0 1 1 121.22565,0 z m 28.24212,-4.7e-4 a 88.832507,88.688062 0 1 1 -177.66495,0 88.86059,88.716103 0 1 1 177.72118,0 z m 27.64941,0.63812 a 117.07134,117.0777 0 1 1 -234.14259,0 117.10836,117.11472 0 1 1 234.21671,0 z m 28.63059,-0.15295 a 145.28413,145.30976 0 1 1 -290.56824,0 145.33012,145.35576 0 1 1 290.66024,0 z m 28.21435,-0.37505 a 173.41877,173.54182 0 1 1 -346.83742,0 173.47359,173.59669 0 1 1 346.94707,0 z m 27.82353,0.47153 a 201.70977,201.69515 0 1 1 -403.41953,0 201.77353,201.75892 0 1 1 403.54706,0 z m 28.72235,-0.45789 a 229.92259,229.95351 0 1 1 -459.84518,0 229.99518,230.02612 0 1 1 459.99036,0 z" />
  <path
     id="95-Am"
     style="display:inline;fill:#36a4ff;fill-opacity:1;stroke:none;stroke-width:0;stroke-dasharray:none;stroke-opacity:1"
     d="m -749.969,-914.395 a 9.412,9.412 0 1 1 0,-18.824 9.412,9.412 0 1 1 0,18.824 z m -40.152,5.28233 a 9.412,9.412 0 1 1 -4.67777,-18.2287 9.412,9.412 0 1 1 4.67777,18.23105 z m -38.41508,15.42391 a 9.4141475,9.4141475 0 1 1 -9.07082,-16.49924 9.4147137,9.4147137 0 1 1 9.07317,16.49924 z m -33.38907,24.12531 a 9.4135749,9.4135749 0 1 1 -12.88738,-13.72505 9.412,9.412 0 1 1 12.88503,13.7227 z m -26.32066,31.92315 a 9.414241,9.414241 0 1 1 -15.89687,-10.08966 9.412,9.412 0 1 1 15.89687,10.07084 z m -17.55338,37.23152 a 9.4136832,9.4136832 0 1 1 -17.90633,-5.81662 9.4136832,9.4136832 0 1 1 17.90633,5.81662 z m -7.82843,40.61749 a 9.412,9.412 0 1 1 -18.78635,-1.18592 9.412,9.412 0 1 1 18.78635,1.18592 z m 2.76948,41.21044 a 9.4141763,9.4141763 0 1 1 -18.49458,3.5295 9.4141763,9.4141763 0 1 1 18.49458,-3.5295 z m 12.77679,39.24804 a 9.4138565,9.4138565 0 1 1 -17.03572,8.01667 9.4143587,9.4143587 0 1 1 17.03572,-8.01903 z m 22.03114,34.81969 a 9.41236,9.41236 0 1 1 -14.50389,12.0003 9.41236,9.41236 0 1 1 14.50389,-12.0003 z m 30.11134,28.35365 a 9.4140105,9.4140105 0 1 1 -11.06851,15.23097 9.4130598,9.4130599 0 1 1 11.06851,-15.22862 z m 36.21267,19.72755 a 9.4139576,9.4139576 0 1 1 -6.92958,17.50632 9.412,9.412 0 1 1 6.91782,-17.50632 z m 39.91159,10.45203 a 9.412,9.412 0 1 1 -2.36242,18.67341 9.412,9.412 0 1 1 2.36242,-18.67341 z m 41.21044,-0.12706 a 9.412,9.412 0 1 1 2.36241,18.67341 9.412,9.412 0 1 1 -2.36241,-18.67341 z m 40.18218,-10.24496 a 9.4135246,9.4135246 0 1 1 6.92723,17.50632 9.412,9.412 0 1 1 -6.91782,-17.50632 z m 36.02443,-19.96521 a 9.4137507,9.4137507 0 1 1 11.07086,15.22862 9.4206739,9.4206739 0 1 1 -11.06851,-15.24744 z m 30.17252,-28.18894 a 9.4132665,9.4132665 0 1 1 14.50624,12.0003 9.41236,9.41236 0 1 1 -14.50389,-12.0003 z m 22.12996,-34.97499 a 9.4143575,9.4143575 0 1 1 17.03572,8.01902 9.412,9.412 0 1 1 -17.03572,-8.0002 z m 12.72973,-39.24804 a 9.4141763,9.4141763 0 1 1 18.49458,3.5295 9.4141763,9.4141763 0 1 1 -18.49458,-3.5295 z m 2.50595,-41.04338 a 9.4129731,9.4129731 0 1 1 18.7887,-1.18356 9.412,9.412 0 1 1 -18.78635,1.18591 z m -7.62372,-40.59396 a 9.4136826,9.4136826 0 1 1 17.90633,-5.81661 9.4136826,9.4136826 0 1 1 -17.90633,5.81661 z m -17.71809,-37.39858 a 9.414241,9.414241 0 1 1 15.89687,-10.08966 9.414241,9.414241 0 1 1 -15.89687,10.08966 z m -26.20066,-31.7655 a 9.4127705,9.4127705 0 1 1 12.88503,-13.72505 9.4139484,9.4139484 0 1 1 -12.87091,13.74152 z m -33.52554,-24.33943 a 9.4126502,9.4126502 0 1 1 9.07317,-16.49453 9.4126502,9.4126502 0 1 1 -9.07317,16.49453 z m -38.19625,-15.0992 a 9.412,9.412 0 1 1 4.67776,-18.23105 9.412,9.412 0 1 1 -4.67776,18.23105 z M -749.976,-942.5895 a 9.412,9.412 0 1 1 0,-18.824 9.412,9.412 0 1 1 0,18.824 z M -750,-538.55864 a 9.412,9.412 0 1 1 0,-18.824 9.412,9.412 0 1 1 0,18.824 z m 192.67956,-211.42743 a 9.412,9.412 0 1 1 18.824,0 9.412,9.412 0 1 1 -18.824,0 z m -404.14505,0 a 9.412,9.412 0 1 1 18.824,0 9.412,9.412 0 1 1 -18.824,0 z m 347.96302,-136.12818 a 9.412,9.412 0 1 1 13.31092,-13.30857 9.412,9.412 0 1 1 -13.30857,13.30857 z m -286.17186,286.17186 a 9.412,9.412 0 1 1 13.31092,-13.30857 9.412,9.412 0 1 1 -13.30857,13.30857 z m 286.10833,-13.2568 a 9.412,9.412 0 1 1 13.30857,13.30856 9.412,9.412 0 1 1 -13.30857,-13.30856 z m -286.17154,-286.17186 a 9.412,9.412 0 1 1 13.30857,13.30856 9.412,9.412 0 1 1 -13.30857,-13.30856 z m 149.72954,-71.46552 a 9.412,9.412 0 1 1 0,-18.824 9.412,9.412 0 1 1 0,18.824 z m -0.008,460.4954 a 9.412,9.412 0 1 1 0,-18.824 9.412,9.412 0 1 1 0,18.824 z m 0,-375.80583 a 9.412,9.412 0 1 1 0,-18.824 9.412,9.412 0 1 1 0,18.824 z m 0.0577,291.39098 a 9.412,9.412 0 1 1 0,-18.824 9.412,9.412 0 1 1 0,18.824 z m -26.68806,-288.75601 a 9.4126668,9.4126668 0 1 1 -3.67068,-18.464 9.4138193,9.4138193 0 1 1 3.67068,18.46635 z m 56.91907,286.16715 a 9.4126624,9.4126624 0 1 1 -3.67068,-18.46399 9.4138163,9.4138163 0 1 1 3.67068,18.46634 z m -82.49618,-278.45402 a 9.4123889,9.4123889 0 1 1 -7.20018,-17.39338 9.4123889,9.4123889 0 1 1 7.20018,17.39338 z m 111.64985,269.55968 a 9.412,9.412 0 1 1 -7.20018,-17.38867 9.412,9.412 0 1 1 7.20018,17.38867 z m -135.18691,-256.92407 a 9.412849,9.412849 0 1 1 -10.45673,-15.65451 9.412,9.412 0 1 1 10.45673,15.65216 z m 162.09817,242.5943 a 9.412,9.412 0 1 1 -10.45673,-15.64745 9.412,9.412 0 1 1 10.45673,15.64745 z m -182.73402,-225.66917 a 9.412,9.412 0 1 1 -13.31092,-13.30857 9.412,9.412 0 1 1 13.30857,13.30857 z m 206.31104,206.31574 a 9.412,9.412 0 1 1 -13.31092,-13.30856 9.412,9.412 0 1 1 13.30857,13.29445 z m -223.26911,-185.5764 a 9.412,9.412 0 1 1 -15.64745,-10.45673 9.412,9.412 0 1 1 15.64745,10.45673 z m 242.5943,162.09817 a 9.412,9.412 0 1 1 -15.64745,-10.45438 9.412,9.412 0 1 1 15.64745,10.45673 z m -255.15461,-138.49758 a 9.4123889,9.4123889 0 1 1 -17.39338,-7.20018 9.4123889,9.4123889 0 1 1 17.39338,7.20018 z m 269.58321,111.65691 a 9.4123889,9.4123889 0 1 1 -17.39338,-7.20018 9.4123889,9.4123889 0 1 1 17.39338,7.20018 z m -277.35282,-85.99744 a 9.4161242,9.4161242 0 1 1 -18.47105,-3.67068 9.4161242,9.4161242 0 1 1 18.47105,3.67068 z m 286.17186,56.91907 a 9.4161242,9.4161242 0 1 1 -18.47105,-3.67068 9.4161242,9.4161242 0 1 1 18.47105,3.67068 z M -886.476,-750.01596 a 9.412,9.412 0 1 1 -18.824,0 9.412,9.412 0 1 1 18.824,0 z m 291.5,0.028 a 9.412,9.412 0 1 1 -18.824,0 9.412,9.412 0 1 1 18.824,0 z m -288.7719,27.03998 a 9.4138193,9.4138193 0 1 1 -18.46635,3.67068 9.4138193,9.4138193 0 1 1 18.46635,-3.67068 z m 286.17186,-56.92378 a 9.4138193,9.4138193 0 1 1 -18.46635,3.67068 9.4138193,9.4138193 0 1 1 18.46635,-3.67068 z m -278.47049,82.51265 a 9.4123889,9.4123889 0 1 1 -17.39338,7.20018 9.4123889,9.4123889 0 1 1 17.39338,-7.20018 z m 269.55968,-111.6569 a 9.4123889,9.4123889 0 1 1 -17.39338,7.20018 9.4123889,9.4123889 0 1 1 17.39338,-7.20018 z m -256.92407,135.19161 a 9.412,9.412 0 1 1 -15.64745,10.45673 9.412,9.412 0 1 1 15.64745,-10.44732 z m 242.5943,-162.09817 a 9.412,9.412 0 1 1 -15.64745,10.45438 9.412,9.412 0 1 1 15.64745,-10.45673 z m -225.66682,182.74104 a 9.412,9.412 0 1 1 -13.30857,13.30621 9.412,9.412 0 1 1 13.30857,-13.30856 z m 206.33457,-206.3181 a 9.412,9.412 0 1 1 -13.30857,13.30857 9.412,9.412 0 1 1 13.30857,-13.30857 z m -185.57641,223.26911 a 9.4125245,9.4125245 0 1 1 -10.45908,15.65216 9.412,9.412 0 1 1 10.45673,-15.65216 z m 162.09817,-242.60371 a 9.4135024,9.4135024 0 1 1 -10.45908,15.65451 9.412,9.412 0 1 1 10.45673,-15.65216 z m -138.49758,255.15226 a 9.4123889,9.4123889 0 1 1 -7.20018,17.39338 9.4210841,9.4210841 0 1 1 7.20018,-17.4122 z m 111.64986,-269.55968 a 9.412,9.412 0 1 1 -7.20018,17.38867 9.412,9.412 0 1 1 7.20018,-17.38867 z m -86.00215,277.34105 a 9.4138193,9.4138193 0 1 1 -3.67068,18.46635 9.4138193,9.4138193 0 1 1 3.67068,-18.46635 z m 56.91907,-286.16715 a 9.4138163,9.4138163 0 1 1 -3.67068,18.46634 9.4138163,9.4138163 0 1 1 3.67068,-18.46634 z m -30.4178,44.12355 a 9.412,9.412 0 1 1 0,-18.824 9.412,9.412 0 1 1 0,18.824 z m -0.0568,234.94751 a 9.412,9.412 0 1 1 0,-18.824 9.412,9.412 0 1 1 0,18.824 z m -37.44474,-228.43921 a 9.412,9.412 0 1 1 -6.43781,-17.68515 9.412,9.412 0 1 1 6.44722,17.68515 z m 80.47966,221.11141 a 9.412,9.412 0 1 1 -6.44016,-17.6875 9.412,9.412 0 1 1 6.43781,17.68515 z m -113.03812,-202.19329 a 9.4140111,9.4140111 0 1 1 -12.10148,-14.42389 9.4147671,9.4147671 0 1 1 12.10383,14.42389 z m 151.25084,180.24686 a 9.4129647,9.4129647 0 1 1 -12.10383,-14.41918 9.412,9.412 0 1 1 12.10383,14.40036 z m -175.47968,-151.5332 a 9.412,9.412 0 1 1 -16.30159,-9.412 9.412,9.412 0 1 1 16.30159,9.412 z m 203.77686,117.65 a 9.412,9.412 0 1 1 -16.30159,-9.412 9.412,9.412 0 1 1 16.30159,9.412 z m -216.53247,-82.27735 a 9.4139484,9.4139484 0 1 1 -18.54164,-3.27067 9.4139484,9.4139484 0 1 1 18.54164,3.27067 z m 231.72814,40.85749 a 9.4135399,9.4135399 0 1 1 -18.54164,-3.26596 9.4135399,9.4135399 0 1 1 18.54164,3.26596 z m -231.83638,-3.20008 a 9.4135404,9.4135404 0 1 1 -18.54164,3.26597 9.4135404,9.4135404 0 1 1 18.54164,-3.26597 z m 231.72814,-40.8622 a 9.4135404,9.4135404 0 1 1 -18.54164,3.26597 9.4135404,9.4135404 0 1 1 18.54164,-3.26597 z m -218.86664,76.07249 a 9.412,9.412 0 1 1 -16.30159,9.412 9.412,9.412 0 1 1 16.30159,-9.412 z m 203.77685,-117.65 a 9.412,9.412 0 1 1 -16.30158,9.412 9.412,9.412 0 1 1 16.30158,-9.412 z m -179.5739,146.54484 a 9.4129663,9.4129663 0 1 1 -12.10383,14.41919 9.4129663,9.4129663 0 1 1 12.10383,-14.41919 z m 151.25084,-180.25391 a 9.4137212,9.4137212 0 1 1 -12.10618,14.41918 9.4129647,9.4129647 0 1 1 12.10383,-14.41918 z m -118.80297,198.99791 a 9.412,9.412 0 1 1 -6.43781,17.68515 9.412,9.412 0 1 1 6.43781,-17.68515 z m 80.47731,-221.11141 a 9.412,9.412 0 1 1 -6.43781,17.6828 9.4146542,9.4146542 0 1 1 6.43781,-17.69456 z m -122.87922,119.05239 a 9.412,9.412 0 1 1 -18.824,0 9.412,9.412 0 1 1 18.824,0 z m 178.842,0 a 9.412,9.412 0 1 1 -18.824,0 9.412,9.412 0 1 1 18.824,0 z m -98.85847,-79.99729 a 9.412,9.412 0 1 1 0,-18.824 9.412,9.412 0 1 1 0,18.824 z m -0.0235,178.75187 a 9.412,9.412 0 1 1 0,-18.824 9.412,9.412 0 1 1 0,18.824 z m -56.48797,-42.19552 a 9.412,9.412 0 1 1 -13.30857,13.30857 9.412,9.412 0 1 1 13.30857,-13.30857 z m 126.45022,-126.45022 a 9.412,9.412 0 1 1 -13.30857,13.30857 9.412,9.412 0 1 1 13.30857,-13.30857 z m -126.37493,13.26151 a 9.412,9.412 0 1 1 -13.30856,-13.30857 9.412,9.412 0 1 1 13.29445,13.30857 z m 126.45022,126.45022 a 9.412,9.412 0 1 1 -13.30856,-13.30857 9.412,9.412 0 1 1 13.29445,13.30857 z m -70.01401,-121.58186 a 9.412,9.412 0 1 1 0,-18.824 9.412,9.412 0 1 1 0,18.824 z m -0.0235,122.27987 a 9.412,9.412 0 1 1 0,-18.824 9.412,9.412 0 1 1 0,18.824 z" />
</svg>
