<?xml version="1.0" encoding="UTF-8" standalone="no"?>
<svg
   version="1.1"
   preserveAspectRatio="xMidYMid"
   zoomAndPan="magnify"
   id="Electron shell Ununoctium"
   viewBox="-1000 -1000 500 500"
   width="500"
   height="500"
   xmlns="http://www.w3.org/2000/svg"
   xmlns:svg="http://www.w3.org/2000/svg"
   xmlns:rdf="http://www.w3.org/1999/02/22-rdf-syntax-ns#"
   xmlns:cc="http://creativecommons.org/ns#"
   xmlns:dc="http://purl.org/dc/elements/1.1/">
  <metadata
     id="metadata4245">
    <rdf:RDF>
      <cc:Work
         rdf:about="">
        <dc:format>image/svg+xml</dc:format>
        <dc:type
           rdf:resource="http://purl.org/dc/dcmitype/StillImage" />
      </cc:Work>
    </rdf:RDF>
  </metadata>
  <desc
     id="element_description">118 Uuo (Ununoctium) Legend_color:#e8e8e8</desc>
  <desc
     id="element_electron_configuration">2,8,18,32,32,18,8</desc>
  <defs
     id="defs4107">
    <circle
       id="electron"
       fill="#77868b"
       stroke="none"
       r="30"
       cx="0"
       cy="0" />
  </defs>
  <path
     fill="#c0ffff"
     stroke="#000000"
     stroke-width="0.709"
     stroke-miterlimit="0"
     d="m -712.5,-750 a 37.5,37.5 0 1 1 -75,0 37.5,37.5 0 1 1 75,0 z"
     id="nucleus"
     style="display:inline;fill:#db1828;fill-opacity:1;stroke:none;stroke-width:0;stroke-dasharray:none" />
  <path
     id="orbit"
     style="display:inline;fill:none;fill-opacity:1;stroke:#77868b;stroke-width:0.6375;stroke-dasharray:none;stroke-opacity:1"
     d="m 3810.1263,1603.9283 a 25.75235,25.749649 0 1 1 -51.5047,0 25.76045,25.75775 0 1 1 51.5209,0 z m 12.0029,-2e-4 a 37.753815,37.692426 0 1 1 -75.5076,0 37.76575,37.704343 0 1 1 75.5315,0 z m 11.751,0.2712 a 49.755321,49.75802 0 1 1 -99.5106,0 49.77105,49.773753 0 1 1 99.5421,0 z m 12.168,-0.065 a 61.745756,61.756646 0 1 1 -123.4915,0 61.7653,61.776197 0 1 1 123.5306,0 z m 11.9911,-0.1594 a 73.702976,73.755271 0 1 1 -147.4059,0 73.726275,73.778591 0 1 1 147.4525,0 z m 11.825,0.2004 a 85.72665,85.720438 0 1 1 -171.4533,0 85.75375,85.74754 0 1 1 171.5075,0 z m 12.207,-0.1946 a 97.7171,97.73024 0 1 1 -195.4342,0 97.74795,97.761099 0 1 1 195.4959,0 z"
     transform="matrix(2.3529412,0,0,2.3529412,-9654.4355,-4524.035)" />
  <path
     id="118-Og"
     style="display:inline;fill:#36a4ff;fill-opacity:1;stroke:none;stroke-width:0;stroke-dasharray:none;stroke-opacity:1"
     d="m -750,-970.83657 a 9.412,9.412 0 1 1 0,-18.824 9.412,9.412 0 1 1 0,18.824 z m 0,460.48757 a 9.412,9.412 0 1 1 0,-18.824 9.412,9.412 0 1 1 0,18.824 z m 220.882,-239.629 a 9.412,9.412 0 1 1 18.824,0 9.412,9.412 0 1 1 -18.824,0 z m -460.588,0 a 9.412,9.412 0 1 1 18.824,0 9.412,9.412 0 1 1 -18.824,0 z m 396.09579,156.77911 a 9.412,9.412 0 1 1 13.30857,13.30856 9.412,9.412 0 1 1 -13.30857,-13.30856 z m -326.10227,-326.10227 a 9.412,9.412 0 1 1 13.30857,13.30856 9.412,9.412 0 1 1 -13.30857,-13.30856 z m 13.2568,326.01285 a 9.412,9.412 0 1 1 -13.30856,13.30857 9.412,9.412 0 1 1 13.30856,-13.30857 z m 326.1258,-326.10227 a 9.412,9.412 0 1 1 -13.30856,13.30857 9.412,9.412 0 1 1 13.30856,-13.30857 z M -750,-886.14504 a 9.412,9.412 0 1 1 0,-18.824 9.412,9.412 0 1 1 0,18.824 z m 0,291.37204 a 9.412,9.412 0 1 1 0,-18.824 9.412,9.412 0 1 1 0,18.824 z m -26.73008,-288.73668 a 9.4126624,9.4126624 0 1 1 -3.67068,-18.46399 9.4138163,9.4138163 0 1 1 3.67068,18.46634 z m 56.91907,286.17186 a 9.4161242,9.4161242 0 1 1 -3.67068,-18.47105 9.4161242,9.4161242 0 1 1 3.67068,18.47105 z m -82.49618,-278.45873 a 9.4123871,9.4123871 0 1 1 -7.20018,-17.39337 9.4210841,9.4210841 0 1 1 7.20018,17.4122 z m 111.64985,269.55968 a 9.412,9.412 0 1 1 -7.20018,-17.38867 9.412,9.412 0 1 1 7.20018,17.38867 z m -135.18691,-256.92407 a 9.412849,9.412849 0 1 1 -10.45673,-15.65451 9.412,9.412 0 1 1 10.45673,15.65216 z m 162.09817,242.5943 a 9.412,9.412 0 1 1 -10.45673,-15.64745 9.412,9.412 0 1 1 10.45673,15.64745 z m -182.73398,-225.66917 a 9.412,9.412 0 1 1 -13.31092,-13.30857 9.412,9.412 0 1 1 13.30857,13.30857 z m 206.31104,206.31575 a 9.412,9.412 0 1 1 -13.31092,-13.30857 9.412,9.412 0 1 1 13.30857,13.30857 z m -223.26911,-185.57641 a 9.412,9.412 0 1 1 -15.64745,-10.45673 9.412,9.412 0 1 1 15.64745,10.45673 z m 242.5943,162.09817 a 9.412,9.412 0 1 1 -15.64745,-10.45438 9.412,9.412 0 1 1 15.64745,10.45674 z m -255.15461,-138.49758 a 9.4123889,9.4123889 0 1 1 -17.39338,-7.20018 9.4123889,9.4123889 0 1 1 17.39338,7.20018 z m 269.58321,111.65927 a 9.4123889,9.4123889 0 1 1 -17.39338,-7.20018 9.4123889,9.4123889 0 1 1 17.39338,7.20018 z m -277.35282,-86.00215 a 9.4161242,9.4161242 0 1 1 -18.47105,-3.67068 9.4161242,9.4161242 0 1 1 18.47105,3.67068 z m 286.17186,56.92377 a 9.4161242,9.4161242 0 1 1 -18.47105,-3.67068 9.4161242,9.4161242 0 1 1 18.47105,3.67068 z m -288.87784,-30.6536 a 9.412,9.412 0 1 1 -18.824,0 9.412,9.412 0 1 1 18.824,0 z m 291.47203,0 a 9.412,9.412 0 1 1 -18.824,0 9.412,9.412 0 1 1 18.824,0 z m -288.82958,27.02057 a 9.4138163,9.4138163 0 1 1 -18.46634,3.67068 9.4138163,9.4138163 0 1 1 18.46634,-3.67068 z m 286.17186,-56.92378 a 9.4138163,9.4138163 0 1 1 -18.46634,3.67068 9.4138163,9.4138163 0 1 1 18.46634,-3.67068 z m -278.47049,82.51501 a 9.4123889,9.4123889 0 1 1 -17.39338,7.20018 9.4123889,9.4123889 0 1 1 17.39338,-7.20018 z m 269.55968,-111.65691 a 9.4123889,9.4123889 0 1 1 -17.39338,7.20018 9.4123889,9.4123889 0 1 1 17.39338,-7.20018 z m -256.92407,135.19161 a 9.412,9.412 0 1 1 -15.64745,10.45674 9.412,9.412 0 1 1 15.64745,-10.45674 z m 242.5943,-162.09817 a 9.412,9.412 0 1 1 -15.64745,10.45438 9.412,9.412 0 1 1 15.64745,-10.45673 z m -225.67153,182.73869 a 9.412,9.412 0 1 1 -13.30856,13.30857 9.412,9.412 0 1 1 13.30856,-13.30857 z m 206.33457,-206.31575 a 9.412,9.412 0 1 1 -13.30856,13.30857 9.412,9.412 0 1 1 13.30856,-13.30857 z m -185.5764,223.26911 a 9.4125272,9.4125272 0 1 1 -10.45909,15.65216 9.4197004,9.4197004 0 1 1 10.45674,-15.67098 z m 162.09817,-242.60135 a 9.4125242,9.4125242 0 1 1 -10.45909,15.65215 9.412,9.412 0 1 1 10.45674,-15.65215 z m -138.49758,255.1499 a 9.4123889,9.4123889 0 1 1 -7.20018,17.39338 9.4123889,9.4123889 0 1 1 7.20018,-17.39338 z m 111.64985,-269.55968 a 9.412,9.412 0 1 1 -7.20018,17.38867 9.412,9.412 0 1 1 7.20018,-17.38867 z m -86.00215,277.34105 a 9.4138193,9.4138193 0 1 1 -3.67068,18.46635 9.4138193,9.4138193 0 1 1 3.67068,-18.46635 z m 56.91907,-286.1648 a 9.4126624,9.4126624 0 1 1 -3.67068,18.46399 9.4138163,9.4138163 0 1 1 3.67068,-18.46634 z M -750.012,-623.011 a 9.412,9.412 0 1 1 0,-18.824 9.412,9.412 0 1 1 0,18.824 z m -37.55129,-228.42258 a 9.412,9.412 0 1 1 -6.43781,-17.68515 9.4146542,9.4146542 0 1 1 6.43781,17.69456 z m 80.4773,221.11141 a 9.412,9.412 0 1 1 -6.4378,-17.68751 9.412,9.412 0 1 1 6.4378,17.68515 z m -113.03341,-202.1933 a 9.4147671,9.4147671 0 1 1 -12.10383,-14.42389 9.4147671,9.4147671 0 1 1 12.10383,14.42389 z m 151.25084,180.24686 a 9.4137212,9.4137212 0 1 1 -12.10618,-14.41918 9.4129647,9.4129647 0 1 1 12.10383,14.41918 z m -175.48203,-151.5332 a 9.412,9.412 0 1 1 -16.30159,-9.412 9.412,9.412 0 1 1 16.30159,9.412 z m 203.77686,117.65 a 9.412,9.412 0 1 1 -16.30159,-9.412 9.412,9.412 0 1 1 16.30159,9.412 z m -216.53483,-82.2797 a 9.4135399,9.4135399 0 1 1 -18.54164,-3.26596 9.4135399,9.4135399 0 1 1 18.54164,3.26596 z m 231.7305,40.85984 a 9.4135399,9.4135399 0 1 1 -18.54164,-3.26596 9.412,9.412 0 1 1 18.54164,3.24714 z m -231.83638,-3.20007 a 9.4135399,9.4135399 0 1 1 -18.54164,3.26596 9.4135399,9.4135399 0 1 1 18.54164,-3.26596 z m 231.72814,-40.86456 a 9.4139484,9.4139484 0 1 1 -18.54164,3.27067 9.4139484,9.4139484 0 1 1 18.54164,-3.27067 z m -218.869,76.07249 a 9.412,9.412 0 1 1 -16.29923,9.412 9.412,9.412 0 1 1 16.30158,-9.412 z m 203.77921,-117.65 a 9.412,9.412 0 1 1 -16.30158,9.412 9.412,9.412 0 1 1 16.30158,-9.412 z m -179.5739,146.54484 a 9.4147671,9.4147671 0 1 1 -12.10383,14.42389 9.4147671,9.4147671 0 1 1 12.10383,-14.42389 z m 151.25084,-180.25156 a 9.4137212,9.4137212 0 1 1 -12.10618,14.41918 9.4129647,9.4129647 0 1 1 12.10383,-14.41918 z m -118.80297,198.99792 a 9.412,9.412 0 1 1 -6.43781,17.68514 9.412,9.412 0 1 1 6.44722,-17.68514 z m 80.47966,-221.11141 a 9.412,9.412 0 1 1 -6.44016,17.68279 9.412,9.412 0 1 1 6.43781,-17.68515 z M -830.002,-749.97693 a 9.412,9.412 0 1 1 -18.824,0 9.412,9.412 0 1 1 18.824,0 z m 178.828,0 a 9.412,9.412 0 1 1 -18.824,0 9.412,9.412 0 1 1 18.824,0 z m -98.826,-80.002 a 9.412,9.412 0 1 1 0,-18.824 9.412,9.412 0 1 1 0,18.824 z m 0,178.828 a 9.412,9.412 0 1 1 0,-18.824 9.412,9.412 0 1 1 0,18.824 z m -56.632,-42.27165 a 9.412,9.412 0 1 1 -13.30857,13.30857 9.412,9.412 0 1 1 13.30857,-13.30857 z m 126.45022,-126.45022 a 9.412,9.412 0 1 1 -13.30857,13.30857 9.412,9.412 0 1 1 13.30857,-13.30857 z m -126.37493,13.26151 a 9.412,9.412 0 1 1 -13.30857,-13.30857 9.412,9.412 0 1 1 13.30857,13.30857 z m 126.45022,126.45022 a 9.412,9.412 0 1 1 -13.30857,-13.30857 9.412,9.412 0 1 1 13.30857,13.30857 z M -750,-801.74528 a 9.412,9.412 0 1 1 0,-18.824 9.412,9.412 0 1 1 0,18.824 z m 0,122.356 a 9.412,9.412 0 1 1 0,-18.824 9.412,9.412 0 1 1 0,18.824 z m -0.0235,-234.99411 a 9.412,9.412 0 1 1 0,-18.824 9.412,9.412 0 1 1 0,18.824 z m 0,347.93939 a 9.412,9.412 0 1 1 0,-18.824 9.412,9.412 0 1 1 0,18.824 z m 164.43353,-183.534 a 9.412,9.412 0 1 1 18.824,0 9.412,9.412 0 1 1 -18.824,0 z m -347.94403,0 a 9.412,9.412 0 1 1 18.824,0 9.412,9.412 0 1 1 -18.824,0 z m 151.29793,-161.22649 a 9.4138193,9.4138193 0 1 1 -3.67068,-18.46635 9.4138193,9.4138193 0 1 1 3.67068,18.46635 z m 67.93111,341.56148 a 9.4138193,9.4138193 0 1 1 -3.67068,-18.46635 9.4138193,9.4138193 0 1 1 3.67068,18.46635 z m 125.83138,-212.2759 a 9.4138163,9.4138163 0 1 1 18.46634,-3.67068 9.4138163,9.4138163 0 1 1 -18.46634,3.67068 z m -341.56148,67.95464 a 9.4138163,9.4138163 0 1 1 18.46634,-3.67068 9.4138163,9.4138163 0 1 1 -18.46634,3.67068 z m 116.9041,-187.92469 a 9.4123889,9.4123889 0 1 1 -7.20018,-17.39338 9.4123889,9.4123889 0 1 1 7.20018,17.39338 z m 133.27392,321.7351 a 9.4123889,9.4123889 0 1 1 -7.20018,-17.39338 9.4123889,9.4123889 0 1 1 7.20018,17.39338 z m 82.05852,-232.62935 a 9.4123889,9.4123889 0 1 1 17.39338,-7.20018 9.4123889,9.4123889 0 1 1 -17.39338,7.20018 z m -321.72569,133.25039 a 9.4123889,9.4123889 0 1 1 17.39338,-7.20018 9.4123889,9.4123889 0 1 1 -17.39338,7.20018 z m 77.98548,-207.11106 a 9.412849,9.412849 0 1 1 -10.45673,-15.65451 9.412,9.412 0 1 1 10.45673,15.65216 z m 193.46366,289.55312 a 9.412849,9.412849 0 1 1 -10.45673,-15.65451 9.412,9.412 0 1 1 10.45673,15.65216 z m 35.02676,-244.12375 a 9.4125242,9.4125242 0 1 1 15.65215,-10.45908 9.412,9.412 0 1 1 -15.65215,10.45673 z m -289.53665,193.48719 a 9.4125242,9.4125242 0 1 1 15.65215,-10.45908 9.412,9.412 0 1 1 -15.65215,10.45673 z m 36.12561,-218.47605 a 9.412,9.412 0 1 1 -13.30857,-13.31092 9.412,9.412 0 1 1 13.30857,13.30857 z m 246.24145,246.24145 a 9.412,9.412 0 1 1 -13.30857,-13.30856 9.412,9.412 0 1 1 13.30857,13.30856 z m -13.2568,-246.17556 a 9.412,9.412 0 1 1 13.30856,-13.30857 9.412,9.412 0 1 1 -13.30856,13.30857 z m -246.24145,246.26498 a 9.412,9.412 0 1 1 13.30856,-13.30857 9.412,9.412 0 1 1 -13.30856,13.30857 z m -7.20489,-221.31848 a 9.412,9.412 0 1 1 -15.64745,-10.45438 9.412,9.412 0 1 1 15.64745,10.45674 z m 289.53665,193.46366 a 9.412,9.412 0 1 1 -15.64745,-10.45438 9.412,9.412 0 1 1 15.64745,10.45674 z m -61.10741,-238.8695 a 9.4125242,9.4125242 0 1 1 10.45908,-15.65215 9.4196983,9.4196983 0 1 1 -10.45673,15.67098 z m -193.48719,289.56018 a 9.4125242,9.4125242 0 1 1 10.45908,-15.65215 9.4196983,9.4196983 0 1 1 -10.45673,15.67098 z m -50.11419,-215.66657 a 9.4123889,9.4123889 0 1 1 -17.39338,-7.20018 9.4123889,9.4123889 0 1 1 17.39338,7.20018 z m 321.74922,133.25745 a 9.4123889,9.4123889 0 1 1 -17.39338,-7.20018 9.4123889,9.4123889 0 1 1 17.39338,7.20018 z m -106.64267,-222.30202 a 9.4123889,9.4123889 0 1 1 7.20018,-17.39338 9.4123889,9.4123889 0 1 1 -7.20018,17.39338 z m -133.27392,321.72569 a 9.4123889,9.4123889 0 1 1 7.20018,-17.39338 9.4123889,9.4123889 0 1 1 -7.20018,17.39338 z m -91.20228,-201.73211 a 9.4161242,9.4161242 0 1 1 -18.47105,-3.67068 9.4161242,9.4161242 0 1 1 18.47105,3.67068 z m 341.53795,67.93817 a 9.4161242,9.4161242 0 1 1 -18.47105,-3.67068 9.4161242,9.4161242 0 1 1 18.47105,3.67068 z m -148.0037,-197.32964 a 9.4126624,9.4126624 0 1 1 3.67068,-18.46399 9.4138193,9.4138193 0 1 1 -3.67068,18.46635 z m -67.95464,341.56148 a 9.4126624,9.4126624 0 1 1 3.67068,-18.46399 9.4138193,9.4138193 0 1 1 -3.67068,18.46635 z m 35.93622,-373.03756 a 9.412,9.412 0 1 1 0,-18.824 9.412,9.412 0 1 1 0,18.824 z m -0.1,404.01575 a 9.412,9.412 0 1 1 0,-18.824 9.412,9.412 0 1 1 0,18.824 z m -66.32639,-392.41546 a 9.412,9.412 0 1 1 -6.43781,-17.6875 9.412,9.412 0 1 1 6.43781,17.68515 z m 138.42699,380.29186 a 9.412,9.412 0 1 1 -6.43781,-17.6875 9.412,9.412 0 1 1 6.43781,17.68515 z m -196.46374,-346.67455 a 9.4147671,9.4147671 0 1 1 -12.10383,-14.42389 9.4147671,9.4147671 0 1 1 12.10383,14.42389 z m 260.14768,310.03128 a 9.4147671,9.4147671 0 1 1 -12.10383,-14.42389 9.4147671,9.4147671 0 1 1 12.10383,14.42389 z m -303.28993,-258.77588 a 9.412,9.412 0 1 1 -16.30159,-9.412 9.412,9.412 0 1 1 16.30159,9.412 z m 350.50288,202.358 a 9.412,9.412 0 1 1 -16.30159,-9.412 9.412,9.412 0 1 1 16.30159,9.412 z M -940.3577,-783.1307 a 9.4135404,9.4135404 0 1 1 -18.54164,-3.26597 9.4135404,9.4135404 0 1 1 18.54164,3.26597 z m 398.55114,70.26058 a 9.4135404,9.4135404 0 1 1 -18.54164,-3.26597 9.4135404,9.4135404 0 1 1 18.54164,3.26597 z m -398.66879,-3.18126 a 9.4135404,9.4135404 0 1 1 -18.54164,3.26597 9.412,9.412 0 1 1 18.54164,-3.24714 z m 398.57467,-70.28411 a 9.4135404,9.4135404 0 1 1 -18.54164,3.26597 9.412,9.412 0 1 1 18.54164,-3.24714 z m -375.65645,133.13274 a 9.412,9.412 0 1 1 -16.30158,9.412 9.412,9.412 0 1 1 16.30158,-9.412 z m 350.50288,-202.358 a 9.412,9.412 0 1 1 -16.30158,9.412 9.412,9.412 0 1 1 16.30158,-9.412 z m -307.37239,253.78047 a 9.4137212,9.4137212 0 1 1 -12.10619,14.41918 9.4129657,9.4129657 0 1 1 12.10384,-14.41918 z m 260.12415,-310.03128 a 9.4137212,9.4137212 0 1 1 -12.10619,14.41918 9.4129657,9.4129657 0 1 1 12.10384,-14.41918 z m -202.21211,343.49094 a 9.412,9.412 0 1 1 -6.43781,17.6875 9.412,9.412 0 1 1 6.43781,-17.68515 z m 138.42699,-380.31539 a 9.412,9.412 0 1 1 -6.43781,17.6875 9.412,9.412 0 1 1 6.43781,-17.68515 z m -71.92439,90.72462 a 9.412,9.412 0 1 1 0,-18.824 9.412,9.412 0 1 1 0,18.824 z" />
</svg>
