<?xml version="1.0" encoding="UTF-8" standalone="no"?>
<svg
   version="1.1"
   preserveAspectRatio="xMidYMid"
   zoomAndPan="magnify"
   id="Electron shell Ununoctium"
   viewBox="-1000 -1000 500 500"
   width="500"
   height="500"
   xmlns="http://www.w3.org/2000/svg"
   xmlns:svg="http://www.w3.org/2000/svg"
   xmlns:rdf="http://www.w3.org/1999/02/22-rdf-syntax-ns#"
   xmlns:cc="http://creativecommons.org/ns#"
   xmlns:dc="http://purl.org/dc/elements/1.1/">
  <metadata
     id="metadata4245">
    <rdf:RDF>
      <cc:Work
         rdf:about="">
        <dc:format>image/svg+xml</dc:format>
        <dc:type
           rdf:resource="http://purl.org/dc/dcmitype/StillImage" />
      </cc:Work>
    </rdf:RDF>
  </metadata>
  <desc
     id="element_description">118 Uuo (Ununoctium) Legend_color:#e8e8e8</desc>
  <desc
     id="element_electron_configuration">2,8,18,32,32,18,8</desc>
  <defs
     id="defs4107">
    <circle
       id="electron"
       fill="#77868b"
       stroke="none"
       r="30"
       cx="0"
       cy="0" />
  </defs>
  <path
     fill="#c0ffff"
     stroke="#000000"
     stroke-width="0.709"
     stroke-miterlimit="0"
     d="m -712.5,-750 a 37.5,37.5 0 1 1 -75,0 37.5,37.5 0 1 1 75,0 z"
     id="nucleus"
     style="display:inline;fill:#db1828;fill-opacity:1;stroke:none;stroke-width:0;stroke-dasharray:none" />
  <path
     id="orbit"
     style="display:inline;fill:none;fill-opacity:1;stroke:#77868b;stroke-width:1.5;stroke-dasharray:none;stroke-opacity:1"
     d="m -689.43235,-750.08602 a 60.593765,60.58741 0 1 1 -121.18753,0 60.612825,60.606472 0 1 1 121.22565,0 z m 28.24212,-4.7e-4 a 88.832507,88.688062 0 1 1 -177.66495,0 88.86059,88.716103 0 1 1 177.72118,0 z m 27.64941,0.63812 a 117.07134,117.0777 0 1 1 -234.14259,0 117.10836,117.11472 0 1 1 234.21671,0 z m 28.63059,-0.15295 a 145.28413,145.30976 0 1 1 -290.56824,0 145.33012,145.35576 0 1 1 290.66024,0 z m 28.21435,-0.37505 a 173.41877,173.54182 0 1 1 -346.83742,0 173.47359,173.59669 0 1 1 346.94707,0 z m 27.82353,0.47153 a 201.70977,201.69515 0 1 1 -403.41953,0 201.77353,201.75892 0 1 1 403.54706,0 z m 28.72235,-0.45789 a 229.92259,229.95351 0 1 1 -459.84518,0 229.99518,230.02612 0 1 1 459.99036,0 z" />
  <path
     id="100-Fm"
     style="display:inline;fill:#36a4ff;fill-opacity:1;stroke:none;stroke-width:0;stroke-dasharray:none;stroke-opacity:1"
     d="m -750.026,-914.38339 a 9.412,9.412 0 1 1 0,-18.824 9.412,9.412 0 1 1 0,18.824 z m 0,347.83939 a 9.412,9.412 0 1 1 0,-18.824 9.412,9.412 0 1 1 0,18.824 z m -34.35368,-344.24401 a 9.412,9.412 0 1 1 -3.9154,-18.40752 9.412285,9.412285 0 1 1 3.92951,18.40987 z m 72.40181,340.63204 a 9.412,9.412 0 1 1 -3.9154,-18.40987 9.4191887,9.4191887 0 1 1 3.92951,18.42399 z m -105.27322,-330.08589 a 9.412,9.412 0 1 1 -7.65196,-17.19573 9.412,9.412 0 1 1 7.65196,17.19573 z m 141.6506,318.13736 a 9.412,9.412 0 1 1 -7.65196,-17.19572 9.412,9.412 0 1 1 7.65196,17.1769 z m -171.38076,-300.74869 a 9.412369,9.412369 0 1 1 -11.06616,-15.22862 9.4130598,9.4130599 0 1 1 11.06851,15.22862 z m 204.68747,281.72469 a 9.412,9.412 0 1 1 -11.06616,-15.22391 9.4140105,9.4140105 0 1 1 11.06851,15.23096 z m -230.31634,-258.84412 a 9.412,9.412 0 1 1 -13.98624,-12.59326 9.412,9.412 0 1 1 13.98624,12.59326 z m 258.80647,233.03171 a 9.412,9.412 0 1 1 -13.98624,-12.59326 9.412,9.412 0 1 1 13.98624,12.59326 z m -279.05639,-205.09925 a 9.412,9.412 0 1 1 -16.30159,-9.412 9.412,9.412 0 1 1 16.30159,9.412 z m 301.58401,174.12906 a 9.412,9.412 0 1 1 -16.30159,-9.412 9.412,9.412 0 1 1 16.30159,9.412 z m -315.60319,-142.68592 a 9.412,9.412 0 1 1 -17.90162,-5.81662 9.412,9.412 0 1 1 17.90162,5.81662 z m 331.20828,107.62622 a 9.412,9.412 0 1 1 -17.90162,-5.81662 9.412,9.412 0 1 1 17.90162,5.81662 z m -338.34728,-73.93597 a 9.412,9.412 0 1 1 -18.72047,-1.9671 9.412,9.412 0 1 1 18.72047,1.9671 z m 346.33807,36.41033 a 9.412,9.412 0 1 1 -18.72047,-1.96711 9.412,9.412 0 1 1 18.72047,1.96711 z m -346.35219,-1.96241 a 9.412,9.412 0 1 1 -18.72046,1.96711 9.412,9.412 0 1 1 18.72046,-1.96711 z m 346.33807,-36.40091 a 9.412,9.412 0 1 1 -18.72046,1.96711 9.412,9.412 0 1 1 18.72046,-1.96711 z m -339.19906,70.05823 a 9.412,9.412 0 1 1 -17.90163,5.81661 9.412,9.412 0 1 1 17.90163,-5.81661 z m 331.20828,-107.60269 a 9.412,9.412 0 1 1 -17.90163,5.81661 9.412,9.412 0 1 1 17.90163,-5.81661 z m -317.1797,139.08112 a 9.412,9.412 0 1 1 -16.30158,9.412 9.412,9.412 0 1 1 16.30158,-9.412 z m 301.58401,-174.122 a 9.412,9.412 0 1 1 -16.30158,9.412 9.412,9.412 0 1 1 16.30158,-9.412 z m -281.4235,201.9674 a 9.412,9.412 0 1 1 -13.98624,12.59326 9.412,9.412 0 1 1 13.98624,-12.59326 z m 258.80647,-233.01759 a 9.412,9.412 0 1 1 -13.98624,12.59326 9.412,9.412 0 1 1 13.98624,-12.59326 z m -233.09524,256.14758 a 9.4140133,9.4140133 0 1 1 -11.06852,15.23097 9.4172107,9.4172107 0 1 1 11.08263,-15.22861 z m 204.68747,-281.72469 a 9.4140133,9.4140133 0 1 1 -11.06852,15.23097 9.4172124,9.4172124 0 1 1 11.08263,-15.22862 z m -174.97379,298.78394 a 9.412854,9.412854 0 1 1 -7.65196,17.20043 9.4166828,9.4166828 0 1 1 7.67078,-17.20043 z m 141.6506,-318.1256 a 9.412854,9.412854 0 1 1 -7.65196,17.20043 9.4166828,9.4166828 0 1 1 7.67078,-17.20043 z M -784.5091,-588.4976 a 9.412,9.412 0 1 1 -3.91304,18.40752 9.412,9.412 0 1 1 3.91539,-18.40987 z m 72.42534,-340.64381 a 9.412,9.412 0 1 1 -3.91304,18.40752 9.412,9.412 0 1 1 3.91539,-18.40987 z M -750,-942.6241 a 9.412,9.412 0 1 1 0,-18.824 9.412,9.412 0 1 1 0,18.824 z m 0,404.0161 a 9.412,9.412 0 1 1 0,-18.824 9.412,9.412 0 1 1 0,18.824 z m 192.646,-211.37 a 9.412,9.412 0 1 1 18.824,0 9.412,9.412 0 1 1 -18.824,0 z m -404.116,0 a 9.412,9.412 0 1 1 18.824,0 9.412,9.412 0 1 1 -18.824,0 z m 347.96753,-136.11292 a 9.412,9.412 0 1 1 13.31092,-13.30857 9.412,9.412 0 1 1 -13.30857,13.30857 z m -286.17186,286.17186 a 9.412,9.412 0 1 1 13.31092,-13.30857 9.412,9.412 0 1 1 -13.30857,13.30857 z m 286.11068,-13.2568 a 9.412,9.412 0 1 1 13.30622,13.30856 9.412,9.412 0 1 1 -13.30857,-13.30856 z m -286.17186,-286.17186 a 9.412,9.412 0 1 1 13.30622,13.30856 9.412,9.412 0 1 1 -13.30857,-13.30856 z m 149.72737,-71.48885 a 9.412,9.412 0 1 1 0,-18.824 9.412,9.412 0 1 1 0,18.824 z M -750,-510.302 a 9.412,9.412 0 1 1 0,-18.824 9.412,9.412 0 1 1 0,18.824 z m 0.009,-375.84069 a 9.412,9.412 0 1 1 0,-18.824 9.412,9.412 0 1 1 0,18.824 z m 0,291.37169 a 9.412,9.412 0 1 1 0,-18.824 9.412,9.412 0 1 1 0,18.824 z m -26.73008,-288.73633 a 9.4126624,9.4126624 0 1 1 -3.67068,-18.46399 9.4138163,9.4138163 0 1 1 3.67068,18.46634 z m 56.91907,286.17186 a 9.4161242,9.4161242 0 1 1 -3.67068,-18.47105 9.4161242,9.4161242 0 1 1 3.67068,18.47105 z m -82.49618,-278.45872 a 9.4123889,9.4123889 0 1 1 -7.20018,-17.39338 9.4123889,9.4123889 0 1 1 7.20018,17.39338 z m 111.64985,269.55968 a 9.412,9.412 0 1 1 -7.20018,-17.38867 9.4134742,9.4134742 0 1 1 7.20018,17.39572 z m -135.18691,-256.92878 a 9.412,9.412 0 1 1 -10.45673,-15.64745 9.412,9.412 0 1 1 10.45673,15.64745 z m 162.09817,242.60136 a 9.412,9.412 0 1 1 -10.45673,-15.65216 9.4196983,9.4196983 0 1 1 10.45673,15.67098 z m -182.73398,-225.67153 a 9.412,9.412 0 1 1 -13.31092,-13.30856 9.412,9.412 0 1 1 13.30857,13.29445 z m 206.31104,206.31575 a 9.412,9.412 0 1 1 -13.31092,-13.30857 9.4139076,9.4139076 0 1 1 13.30857,13.31798 z m -223.26911,-185.57405 a 9.412,9.412 0 1 1 -15.64745,-10.45909 9.412,9.412 0 1 1 15.64745,10.45674 z m 242.5943,162.09817 a 9.412,9.412 0 1 1 -15.64745,-10.45673 9.412,9.412 0 1 1 15.64745,10.45673 z m -255.15461,-138.49758 a 9.4123889,9.4123889 0 1 1 -17.39338,-7.20018 9.4123889,9.4123889 0 1 1 17.39338,7.20018 z m 269.58321,111.65691 a 9.4123889,9.4123889 0 1 1 -17.39338,-7.20018 9.4123889,9.4123889 0 1 1 17.39338,7.20018 z m -277.35282,-86.00215 a 9.4161242,9.4161242 0 1 1 -18.47105,-3.67068 9.4161242,9.4161242 0 1 1 18.47105,3.67068 z m 286.17186,56.92377 a 9.4161242,9.4161242 0 1 1 -18.47105,-3.67068 9.4161242,9.4161242 0 1 1 18.47105,3.67068 z M -886.465,-749.966 a 9.412,9.412 0 1 1 -18.824,0 9.412,9.412 0 1 1 18.824,0 z m 291.472,0 a 9.412,9.412 0 1 1 -18.824,0 9.412,9.412 0 1 1 18.824,0 z m -288.82917,27.01798 a 9.4138163,9.4138163 0 1 1 -18.46634,3.67068 9.4138163,9.4138163 0 1 1 18.46634,-3.67068 z m 286.17186,-56.91907 a 9.4138163,9.4138163 0 1 1 -18.46634,3.67068 9.4138163,9.4138163 0 1 1 18.46634,-3.67068 z m -278.47049,82.51265 a 9.4123889,9.4123889 0 1 1 -17.39338,7.20018 9.4123889,9.4123889 0 1 1 17.39338,-7.20018 z m 269.55968,-111.65691 a 9.4123889,9.4123889 0 1 1 -17.39338,7.20018 9.4123889,9.4123889 0 1 1 17.39338,-7.20018 z m -256.92407,135.19397 a 9.412,9.412 0 1 1 -15.64745,10.45438 9.412,9.412 0 1 1 15.64745,-10.45673 z m 242.5943,-162.10288 a 9.412,9.412 0 1 1 -15.64745,10.45674 9.412,9.412 0 1 1 15.64745,-10.45674 z m -225.66682,182.73869 a 9.412,9.412 0 1 1 -13.30857,13.31092 9.412,9.412 0 1 1 13.30857,-13.30857 z m 206.33457,-206.31104 a 9.412,9.412 0 1 1 -13.30857,13.30621 9.412,9.412 0 1 1 13.30857,-13.30856 z m -185.5764,223.26676 a 9.4125242,9.4125242 0 1 1 -10.45909,15.65215 9.412,9.412 0 1 1 10.45673,-15.65215 z m 162.09817,-242.60136 a 9.4125242,9.4125242 0 1 1 -10.45909,15.65215 9.412,9.412 0 1 1 10.45673,-15.65215 z m -138.49758,255.15226 a 9.412,9.412 0 1 1 -7.20018,17.38867 9.412,9.412 0 1 1 7.20018,-17.38867 z m 111.64985,-269.56439 a 9.4123889,9.4123889 0 1 1 -7.20018,17.39338 9.4123889,9.4123889 0 1 1 7.20018,-17.39338 z m -86.00215,277.34341 a 9.4138163,9.4138163 0 1 1 -3.67068,18.46634 9.4138163,9.4138163 0 1 1 3.67068,-18.46634 z m 56.91907,-286.16716 a 9.4138193,9.4138193 0 1 1 -3.67068,18.46635 9.4138193,9.4138193 0 1 1 3.67068,-18.46635 z m -30.36982,44.1564 a 9.412,9.412 0 1 1 0,-18.824 9.412,9.412 0 1 1 0,18.824 z m 0.0456,234.97702 a 9.412,9.412 0 1 1 0,-18.824 9.412,9.412 0 1 1 0,18.824 z m -37.59747,-228.49921 a 9.412,9.412 0 1 1 -6.43781,-17.68515 9.4146542,9.4146542 0 1 1 6.43781,17.69456 z m 80.47731,221.11141 a 9.412,9.412 0 1 1 -6.43781,-17.6875 9.412,9.412 0 1 1 6.43781,17.68515 z m -113.03342,-202.19329 a 9.4147671,9.4147671 0 1 1 -12.10383,-14.42389 9.4147671,9.4147671 0 1 1 12.10383,14.42389 z m 151.25084,180.24686 a 9.4137212,9.4137212 0 1 1 -12.10618,-14.41918 9.4129647,9.4129647 0 1 1 12.10383,14.41918 z m -175.48203,-151.5332 a 9.412,9.412 0 1 1 -16.30159,-9.412 9.412,9.412 0 1 1 16.30159,9.412 z m 203.77686,117.65 a 9.412,9.412 0 1 1 -16.30159,-9.412 9.412,9.412 0 1 1 16.30159,9.412 z m -216.53483,-82.2797 a 9.4135404,9.4135404 0 1 1 -18.54164,-3.26597 9.4135404,9.4135404 0 1 1 18.54164,3.26597 z m 231.7305,40.85984 a 9.4135399,9.4135399 0 1 1 -18.54164,-3.26596 9.412,9.412 0 1 1 18.54164,3.24714 z m -231.83638,-3.20008 a 9.4135404,9.4135404 0 1 1 -18.54164,3.26597 9.4135404,9.4135404 0 1 1 18.54164,-3.26597 z m 231.72814,-40.86455 a 9.4139484,9.4139484 0 1 1 -18.54164,3.27067 9.4139484,9.4139484 0 1 1 18.54164,-3.27067 z m -218.869,76.07249 a 9.412,9.412 0 1 1 -16.29923,9.412 9.412,9.412 0 1 1 16.30158,-9.412 z m 203.77921,-117.65 a 9.412,9.412 0 1 1 -16.30158,9.412 9.412,9.412 0 1 1 16.30158,-9.412 z m -179.5739,146.54484 a 9.4147671,9.4147671 0 1 1 -12.10383,14.42389 9.4147671,9.4147671 0 1 1 12.10383,-14.42389 z m 151.25084,-180.25157 a 9.4137218,9.4137218 0 1 1 -12.10618,14.41919 9.4129663,9.4129663 0 1 1 12.10383,-14.41919 z m -118.80297,198.99792 a 9.412,9.412 0 1 1 -6.43781,17.68515 9.412,9.412 0 1 1 6.44722,-17.68515 z m 80.47966,-221.11141 a 9.412,9.412 0 1 1 -6.44016,17.6828 9.412,9.412 0 1 1 6.43781,-17.68515 z m -122.77954,119.05709 a 9.412,9.412 0 1 1 -18.824,0 9.412,9.412 0 1 1 18.824,0 z m 178.828,0 a 9.412,9.412 0 1 1 -18.824,0 9.412,9.412 0 1 1 18.824,0 z m -98.826,-80.002 a 9.412,9.412 0 1 1 0,-18.824 9.412,9.412 0 1 1 0,18.824 z m 0,178.828 a 9.412,9.412 0 1 1 0,-18.824 9.412,9.412 0 1 1 0,18.824 z m -56.632,-42.27164 a 9.412,9.412 0 1 1 -13.30857,13.30857 9.412,9.412 0 1 1 13.30857,-13.30857 z m 126.45022,-126.45022 a 9.412,9.412 0 1 1 -13.30857,13.30857 9.412,9.412 0 1 1 13.30857,-13.30857 z m -126.37493,13.26151 a 9.412,9.412 0 1 1 -13.30856,-13.30857 9.412,9.412 0 1 1 13.30856,13.30857 z m 126.45022,126.45022 a 9.412,9.412 0 1 1 -13.30856,-13.30857 9.412,9.412 0 1 1 13.30856,13.30857 z m -69.89351,-121.58187 a 9.412,9.412 0 1 1 0,-18.824 9.412,9.412 0 1 1 0,18.824 z m 0,122.356 a 9.412,9.412 0 1 1 0,-18.824 9.412,9.412 0 1 1 0,18.824 z" />
</svg>
