<?xml version="1.0" encoding="UTF-8" standalone="no"?>
<svg
   version="1.1"
   preserveAspectRatio="xMidYMid"
   zoomAndPan="magnify"
   id="Electron shell Ununoctium"
   viewBox="-1000 -1000 500 500"
   width="500"
   height="500"
   xmlns="http://www.w3.org/2000/svg"
   xmlns:svg="http://www.w3.org/2000/svg"
   xmlns:rdf="http://www.w3.org/1999/02/22-rdf-syntax-ns#"
   xmlns:cc="http://creativecommons.org/ns#"
   xmlns:dc="http://purl.org/dc/elements/1.1/">
  <metadata
     id="metadata4245">
    <rdf:RDF>
      <cc:Work
         rdf:about="">
        <dc:format>image/svg+xml</dc:format>
        <dc:type
           rdf:resource="http://purl.org/dc/dcmitype/StillImage" />
      </cc:Work>
    </rdf:RDF>
  </metadata>
  <desc
     id="element_description">118 Uuo (Ununoctium) Legend_color:#e8e8e8</desc>
  <desc
     id="element_electron_configuration">2,8,18,32,32,18,8</desc>
  <defs
     id="defs4107">
    <circle
       id="electron"
       fill="#77868b"
       stroke="none"
       r="30"
       cx="0"
       cy="0" />
  </defs>
  <path
     fill="#c0ffff"
     stroke="#000000"
     stroke-width="0.709"
     stroke-miterlimit="0"
     d="m -712.5,-750 a 37.5,37.5 0 1 1 -75,0 37.5,37.5 0 1 1 75,0 z"
     id="nucleus"
     style="display:inline;fill:#db1828;fill-opacity:1;stroke:none;stroke-width:0;stroke-dasharray:none" />
  <path
     id="orbit"
     style="display:inline;fill:none;fill-opacity:1;stroke:#77868b;stroke-width:1.5;stroke-dasharray:none;stroke-opacity:1"
     d="m -689.43235,-750.08602 a 60.593765,60.58741 0 1 1 -121.18753,0 60.612825,60.606472 0 1 1 121.22565,0 z m 28.24212,-4.7e-4 a 88.832507,88.688062 0 1 1 -177.66495,0 88.86059,88.716103 0 1 1 177.72118,0 z m 27.64941,0.63812 a 117.07134,117.0777 0 1 1 -234.14259,0 117.10836,117.11472 0 1 1 234.21671,0 z m 28.63059,-0.15295 a 145.28413,145.30976 0 1 1 -290.56824,0 145.33012,145.35576 0 1 1 290.66024,0 z m 28.21435,-0.37505 a 173.41877,173.54182 0 1 1 -346.83742,0 173.47359,173.59669 0 1 1 346.94707,0 z m 27.82353,0.47153 a 201.70977,201.69515 0 1 1 -403.41953,0 201.77353,201.75892 0 1 1 403.54706,0 z" />
  <path
     id="69-Tm"
     style="display:inline;fill:#36a4ff;fill-opacity:1;stroke:none;stroke-width:0;stroke-dasharray:none;stroke-opacity:1"
     d="m -750.002,-886.14033 a 9.412,9.412 0 1 1 0,-18.824 9.412,9.412 0 1 1 0,18.824 z m -27.61987,2.86125 a 9.4121063,9.4121063 0 1 1 -3.79303,-18.43811 9.4121063,9.4121063 0 1 1 3.79303,18.43811 z m -26.38419,8.26374 a 9.4129002,9.4129002 0 1 1 -7.42606,-17.29926 9.4129002,9.4129002 0 1 1 7.42606,17.29926 z m -24.18884,13.47798 a 9.4176771,9.4176771 0 1 1 -10.76026,-15.45921 9.4223843,9.4223843 0 1 1 10.77674,15.45921 z m -20.88993,17.92986 a 9.4136295,9.4136295 0 1 1 -13.6474,-12.96974 9.4136295,9.4136295 0 1 1 13.6474,12.96974 z m -16.97454,21.70642 a 9.412,9.412 0 1 1 -15.97217,-9.95789 9.412,9.412 0 1 1 15.97217,9.95789 z m -12.14148,24.97239 a 9.4148244,9.4148244 0 1 1 -17.65691,-6.54134 9.4148244,9.4148244 0 1 1 17.65691,6.54134 z m -6.91782,26.6289 a 9.412,9.412 0 1 1 -18.60517,-2.85183 9.4123977,9.4123977 0 1 1 18.60752,2.85183 z m -1.47769,27.50657 a 9.412,9.412 0 1 1 -18.79576,0.94826 9.412,9.412 0 1 1 18.79576,-0.95061 z m 4.21187,27.34657 a 9.4120765,9.4120765 0 1 1 -18.22398,4.71541 9.412,9.412 0 1 1 18.21222,-4.706 z m 9.73201,25.93712 a 9.4151467,9.4151467 0 1 1 -16.9063,8.29197 9.4140904,9.4140904 0 1 1 16.90395,-8.29197 z m 14.55095,23.49235 a 9.4130588,9.4130588 0 1 1 -14.88978,11.52029 9.4130588,9.4130588 0 1 1 14.88978,-11.52029 z m 19.12048,19.90168 a 9.4129767,9.4129767 0 1 1 -12.25913,14.28741 9.4129767,9.4129767 0 1 1 12.25913,-14.28741 z m 22.64763,15.82157 a 9.4141697,9.4141697 0 1 1 -9.13906,16.46159 9.4175961,9.4175961 0 1 1 9.15317,-16.46159 z m 25.24769,10.93439 a 9.412,9.412 0 1 1 -5.63544,17.95809 9.412,9.412 0 1 1 5.63779,-17.95809 z m 27.10656,5.38131 a 9.4133014,9.4133014 0 1 1 -1.90593,18.72988 9.4133014,9.4133014 0 1 1 1.90593,-18.72988 z m 27.68775,0.12471 a 9.4130636,9.4130636 0 1 1 1.90122,18.72988 9.4130636,9.4130636 0 1 1 -1.90122,-18.72988 z m 26.87126,-5.61191 a 9.412,9.412 0 1 1 5.63779,17.9581 9.412,9.412 0 1 1 -5.63779,-17.9581 z m 25.47828,-10.9838 a 9.4146246,9.4146246 0 1 1 9.1367,16.46394 9.4141673,9.4141673 0 1 1 -9.13905,-16.46159 z m 22.52998,-15.64745 a 9.412,9.412 0 1 1 12.26383,14.278 9.412,9.412 0 1 1 -12.26383,-14.278 z m 19.05224,-20.0805 a 9.4130588,9.4130588 0 1 1 14.88978,11.52029 9.4130588,9.4130588 0 1 1 -14.88978,-11.52029 z m 14.68272,-23.48294 a 9.4156648,9.4156648 0 1 1 16.9063,8.29432 9.4120188,9.4120188 0 1 1 -16.90395,-8.28256 z m 9.56494,-25.74182 a 9.412,9.412 0 1 1 18.22164,4.71541 9.412,9.412 0 1 1 -18.21223,-4.71541 z m 4.22364,-27.24774 a 9.412,9.412 0 1 1 18.79576,0.95061 9.412,9.412 0 1 1 -18.79576,-0.95061 z m -1.44004,-27.69011 a 9.4147236,9.4147236 0 1 1 18.61223,-2.85183 9.4147236,9.4147236 0 1 1 -18.61223,2.85183 z m -6.90841,-26.60301 a 9.412,9.412 0 1 1 17.6475,-6.54134 9.412,9.412 0 1 1 -17.6475,6.54134 z m -12.12736,-24.86651 a 9.412,9.412 0 1 1 15.97217,-9.95789 9.412,9.412 0 1 1 -15.97217,9.95789 z m -16.97454,-21.96761 a 9.4136281,9.4136281 0 1 1 13.6474,-12.96973 9.4136281,9.4136281 0 1 1 -13.6474,12.96973 z m -20.92523,-17.76515 a 9.4143177,9.4143177 0 1 1 10.7485,-15.45921 9.412,9.412 0 1 1 -10.72968,15.45215 z m -24.17237,-13.60034 a 9.4129,9.4129 0 1 1 7.42607,-17.29925 9.4129,9.4129 0 1 1 -7.42607,17.29925 z m -26.33007,-8.30138 a 9.412,9.412 0 1 1 3.78833,-18.43811 9.412,9.412 0 1 1 -3.78833,18.43811 z m -27.25715,-30.93019 a 9.412,9.412 0 1 1 0,-18.824 9.412,9.412 0 1 1 0,18.824 z m 0,347.84398 a 9.412,9.412 0 1 1 0,-18.824 9.412,9.412 0 1 1 0,18.824 z M -585.59,-749.964 a 9.412,9.412 0 1 1 18.824,0 9.412,9.412 0 1 1 -18.824,0 z m -347.944,0 a 9.412,9.412 0 1 1 18.824,0 9.412,9.412 0 1 1 -18.824,0 z m 300.05456,-116.15465 a 9.412,9.412 0 1 1 13.31092,-13.30857 9.412,9.412 0 1 1 -13.30857,13.30857 z m -246.24145,246.25792 a 9.4122426,9.4122426 0 1 1 13.31092,-13.31092 9.412,9.412 0 1 1 -13.30857,13.30857 z m 246.15674,-13.28269 a 9.412,9.412 0 1 1 13.30622,13.30857 9.412,9.412 0 1 1 -13.30857,-13.29445 z M -879.8056,-879.38487 a 9.412,9.412 0 1 1 13.30622,13.30857 9.412,9.412 0 1 1 -13.30857,-13.29445 z m 129.7976,-63.23687 a 9.412,9.412 0 1 1 0,-18.824 9.412,9.412 0 1 1 0,18.824 z m 0,404.01574 a 9.412,9.412 0 1 1 0,-18.824 9.412,9.412 0 1 1 0,18.824 z m -0.018,-319.29833 a 9.412,9.412 0 1 1 0,-18.824 9.412,9.412 0 1 1 0,18.824 z m 0,234.90033 a 9.412,9.412 0 1 1 0,-18.824 9.412,9.412 0 1 1 0,18.824 z m -37.55141,-228.42252 a 9.412,9.412 0 1 1 -6.43781,-17.68515 9.4146542,9.4146542 0 1 1 6.43781,17.69456 z m 80.47731,221.11141 a 9.412,9.412 0 1 1 -6.43781,-17.6875 9.412,9.412 0 1 1 6.43781,17.68515 z M -820.13352,-832.5084 a 9.4147671,9.4147671 0 1 1 -12.10383,-14.42389 9.4147671,9.4147671 0 1 1 12.10383,14.42389 z m 151.25084,180.24686 a 9.4137212,9.4137212 0 1 1 -12.10618,-14.41918 9.4129647,9.4129647 0 1 1 12.10383,14.41918 z m -175.48203,-151.5332 a 9.412,9.412 0 1 1 -16.30159,-9.412 9.412,9.412 0 1 1 16.30159,9.412 z m 203.77686,117.65 a 9.412,9.412 0 1 1 -16.30159,-9.412 9.412,9.412 0 1 1 16.30159,9.412 z m -216.53483,-82.2797 a 9.4135404,9.4135404 0 1 1 -18.54164,-3.26597 9.4135404,9.4135404 0 1 1 18.54164,3.26597 z m 231.7305,40.85984 a 9.4135399,9.4135399 0 1 1 -18.54164,-3.26596 9.412,9.412 0 1 1 18.54164,3.24714 z m -231.83638,-3.20008 a 9.4135404,9.4135404 0 1 1 -18.54164,3.26597 9.4135404,9.4135404 0 1 1 18.54164,-3.26597 z m 231.72814,-40.86455 a 9.4139484,9.4139484 0 1 1 -18.54164,3.27067 9.4139484,9.4139484 0 1 1 18.54164,-3.27067 z m -218.869,76.07249 a 9.412,9.412 0 1 1 -16.29923,9.412 9.412,9.412 0 1 1 16.30158,-9.412 z m 203.77921,-117.65 a 9.412,9.412 0 1 1 -16.30158,9.412 9.412,9.412 0 1 1 16.30158,-9.412 z m -179.5739,146.54484 a 9.4147671,9.4147671 0 1 1 -12.10383,14.42389 9.4147671,9.4147671 0 1 1 12.10383,-14.42389 z m 151.25084,-180.25156 a 9.4137212,9.4137212 0 1 1 -12.10618,14.41918 9.4129647,9.4129647 0 1 1 12.10383,-14.41918 z m -118.80297,198.99791 a 9.412,9.412 0 1 1 -6.43781,17.68515 9.412,9.412 0 1 1 6.44722,-17.68515 z m 80.47966,-221.11141 a 9.412,9.412 0 1 1 -6.44016,17.6828 9.412,9.412 0 1 1 6.43781,-17.68515 z m -122.77954,119.0571 a 9.412,9.412 0 1 1 -18.824,0 9.412,9.412 0 1 1 18.824,0 z m 178.828,0 a 9.412,9.412 0 1 1 -18.824,0 9.412,9.412 0 1 1 18.824,0 z m -98.826,-80.002 a 9.412,9.412 0 1 1 0,-18.824 9.412,9.412 0 1 1 0,18.824 z m 0,178.828 a 9.412,9.412 0 1 1 0,-18.824 9.412,9.412 0 1 1 0,18.824 z m -56.632,-42.27165 a 9.412,9.412 0 1 1 -13.30857,13.30857 9.412,9.412 0 1 1 13.30857,-13.30857 z m 126.45022,-126.45022 a 9.412,9.412 0 1 1 -13.30857,13.30857 9.412,9.412 0 1 1 13.30857,-13.30857 z m -126.37493,13.26151 a 9.412,9.412 0 1 1 -13.30856,-13.30857 9.412,9.412 0 1 1 13.30856,13.30857 z m 126.45022,126.45022 a 9.412,9.412 0 1 1 -13.30856,-13.30857 9.412,9.412 0 1 1 13.30856,13.30857 z m -69.89351,-121.58186 a 9.412005,9.412005 0 1 1 0,-18.82401 9.412005,9.412005 0 1 1 0,18.82401 z m 0,122.356 a 9.412005,9.412005 0 1 1 0,-18.82401 9.412005,9.412005 0 1 1 0,18.82401 z" />
</svg>
