<?xml version="1.0" encoding="UTF-8" standalone="no"?>
<svg
   version="1.1"
   preserveAspectRatio="xMidYMid"
   zoomAndPan="magnify"
   id="Electron shell Ununoctium"
   viewBox="-1000 -1000 500 500"
   width="500"
   height="500"
   xmlns="http://www.w3.org/2000/svg"
   xmlns:svg="http://www.w3.org/2000/svg"
   xmlns:rdf="http://www.w3.org/1999/02/22-rdf-syntax-ns#"
   xmlns:cc="http://creativecommons.org/ns#"
   xmlns:dc="http://purl.org/dc/elements/1.1/">
  <metadata
     id="metadata4245">
    <rdf:RDF>
      <cc:Work
         rdf:about="">
        <dc:format>image/svg+xml</dc:format>
        <dc:type
           rdf:resource="http://purl.org/dc/dcmitype/StillImage" />
      </cc:Work>
    </rdf:RDF>
  </metadata>
  <desc
     id="element_description">118 Uuo (Ununoctium) Legend_color:#e8e8e8</desc>
  <desc
     id="element_electron_configuration">2,8,18,32,32,18,8</desc>
  <defs
     id="defs4107">
    <circle
       id="electron"
       fill="#77868b"
       stroke="none"
       r="30"
       cx="0"
       cy="0" />
  </defs>
  <path
     fill="#c0ffff"
     stroke="#000000"
     stroke-width="0.709"
     stroke-miterlimit="0"
     d="m -712.5,-750 a 37.5,37.5 0 1 1 -75,0 37.5,37.5 0 1 1 75,0 z"
     id="nucleus"
     style="display:inline;fill:#db1828;fill-opacity:1;stroke:none;stroke-width:0;stroke-dasharray:none" />
  <path
     id="orbit"
     style="display:inline;fill:none;fill-opacity:1;stroke:#77868b;stroke-width:0.6375;stroke-dasharray:none;stroke-opacity:1"
     d="m 3810.1263,1603.9283 a 25.75235,25.749649 0 1 1 -51.5047,0 25.76045,25.75775 0 1 1 51.5209,0 z m 12.0029,-2e-4 a 37.753815,37.692426 0 1 1 -75.5076,0 37.76575,37.704343 0 1 1 75.5315,0 z m 11.751,0.2712 a 49.755321,49.75802 0 1 1 -99.5106,0 49.77105,49.773753 0 1 1 99.5421,0 z m 12.168,-0.065 a 61.745756,61.756646 0 1 1 -123.4915,0 61.7653,61.776197 0 1 1 123.5306,0 z"
     transform="matrix(2.3529412,0,0,2.3529412,-9654.4355,-4524.035)" />
  <path
     id="19-K"
     style="display:inline;fill:#36a4ff;fill-opacity:1;stroke:none;stroke-width:0;stroke-dasharray:none;stroke-opacity:1"
     d="m -750.008,-886.14505 a 9.412,9.412 0 1 1 0,-18.824 9.412,9.412 0 1 1 0,18.824 z m 0,28.236 a 9.412,9.412 0 1 1 0,-18.824 9.412,9.412 0 1 1 0,18.824 z m 0,234.9 a 9.412,9.412 0 1 1 0,-18.824 9.412,9.412 0 1 1 0,18.824 z m -108.238,-126.962 a 9.412,9.412 0 1 1 -18.824,0 9.412,9.412 0 1 1 18.824,0 z m 235.1,0 a 9.412,9.412 0 1 1 -18.824,0 9.412,9.412 0 1 1 18.824,0 z m -50.26714,-76.21956 a 9.412,9.412 0 1 1 13.30856,-13.31092 9.412,9.412 0 1 1 -13.30856,13.30857 z m -166.38063,166.38063 a 9.412,9.412 0 1 1 13.30856,-13.30857 9.412,9.412 0 1 1 -13.30856,13.30857 z m 13.26621,-166.46063 a 9.412,9.412 0 1 1 -13.31092,-13.30857 9.412,9.412 0 1 1 13.30857,13.30857 z m 166.38063,166.38063 a 9.412,9.412 0 1 1 -13.30857,-13.30622 9.4139076,9.4139076 0 1 1 13.30857,13.31798 z M -830.01,-749.97105 a 9.412,9.412 0 1 1 -18.824,0 9.412,9.412 0 1 1 18.824,0 z m 178.828,0 a 9.412,9.412 0 1 1 -18.824,0 9.412,9.412 0 1 1 18.824,0 z m -98.826,-80.00195 a 9.412,9.412 0 1 1 0,-18.824 9.412,9.412 0 1 1 0,18.824 z m 0,178.72795 a 9.412,9.412 0 1 1 0,-18.824 9.412,9.412 0 1 1 0,18.824 z m -56.68025,-42.05689 a 9.412,9.412 0 1 1 -13.30857,13.30856 9.412,9.412 0 1 1 13.30857,-13.29445 z m 126.55,-126.45022 a 9.412,9.412 0 1 1 -13.30857,13.30856 9.412,9.412 0 1 1 13.30857,-13.29445 z m -126.47235,13.26386 a 9.412,9.412 0 1 1 -13.30857,-13.30857 9.412,9.412 0 1 1 13.29445,13.30857 z m 126.45022,126.45022 a 9.412,9.412 0 1 1 -13.30857,-13.30857 9.412,9.412 0 1 1 13.29445,13.30857 z M -750.008,-801.73705 a 9.412,9.412 0 1 1 0,-18.824 9.412,9.412 0 1 1 0,18.824 z m 0,122.256 a 9.412,9.412 0 1 1 0,-18.824 9.412,9.412 0 1 1 0,18.824 z" />
</svg>
