<?xml version="1.0" encoding="UTF-8" standalone="no"?>
<svg
   version="1.1"
   preserveAspectRatio="xMidYMid"
   zoomAndPan="magnify"
   id="Electron shell Ununoctium"
   viewBox="-1000 -1000 500 500"
   width="500"
   height="500"
   xmlns="http://www.w3.org/2000/svg"
   xmlns:svg="http://www.w3.org/2000/svg"
   xmlns:rdf="http://www.w3.org/1999/02/22-rdf-syntax-ns#"
   xmlns:cc="http://creativecommons.org/ns#"
   xmlns:dc="http://purl.org/dc/elements/1.1/">
  <metadata
     id="metadata4245">
    <rdf:RDF>
      <cc:Work
         rdf:about="">
        <dc:format>image/svg+xml</dc:format>
        <dc:type
           rdf:resource="http://purl.org/dc/dcmitype/StillImage" />
      </cc:Work>
    </rdf:RDF>
  </metadata>
  <desc
     id="element_description">118 Uuo (Ununoctium) Legend_color:#e8e8e8</desc>
  <desc
     id="element_electron_configuration">2,8,18,32,32,18,8</desc>
  <defs
     id="defs4107">
    <circle
       id="electron"
       fill="#77868b"
       stroke="none"
       r="30"
       cx="0"
       cy="0" />
  </defs>
  <path
     fill="#c0ffff"
     stroke="#000000"
     stroke-width="0.709"
     stroke-miterlimit="0"
     d="m -712.5,-750 a 37.5,37.5 0 1 1 -75,0 37.5,37.5 0 1 1 75,0 z"
     id="nucleus"
     style="display:inline;fill:#db1828;fill-opacity:1;stroke:none;stroke-width:0;stroke-dasharray:none" />
  <path
     id="orbit"
     style="display:inline;fill:none;fill-opacity:1;stroke:#77868b;stroke-width:1.5;stroke-dasharray:none;stroke-opacity:1"
     d="m -689.43235,-750.08602 a 60.593765,60.58741 0 1 1 -121.18753,0 60.612825,60.606472 0 1 1 121.22565,0 z m 28.24212,-4.7e-4 a 88.832507,88.688062 0 1 1 -177.66495,0 88.86059,88.716103 0 1 1 177.72118,0 z m 27.64941,0.63812 a 117.07134,117.0777 0 1 1 -234.14259,0 117.10836,117.11472 0 1 1 234.21671,0 z m 28.63059,-0.15295 a 145.28413,145.30976 0 1 1 -290.56824,0 145.33012,145.35576 0 1 1 290.66024,0 z m 28.21435,-0.37505 a 173.41877,173.54182 0 1 1 -346.83742,0 173.47359,173.59669 0 1 1 346.94707,0 z m 27.82353,0.47153 a 201.70977,201.69515 0 1 1 -403.41953,0 201.77353,201.75892 0 1 1 403.54706,0 z m 28.72235,-0.45789 a 229.92259,229.95351 0 1 1 -459.84518,0 229.99518,230.02612 0 1 1 459.99036,0 z" />
  <path
     id="113-Nh"
     style="display:inline;fill:#36a4ff;fill-opacity:1;stroke:none;stroke-width:0;stroke-dasharray:none;stroke-opacity:1"
     d="m -750.00471,-970.83657 a 9.412,9.412 0 1 1 0,-18.824 9.412,9.412 0 1 1 0,18.824 z m -207.84519,341.185 a 9.412,9.412 0 1 1 16.30158,-9.412 9.412,9.412 0 1 1 -16.28276,9.412 z m 399.39822,-9.412 a 9.412,9.412 0 1 1 16.30158,9.412 9.412,9.412 0 1 1 -16.28276,-9.412 z m -191.47067,-247.07911 a 9.412,9.412 0 1 1 0,-18.824 9.412,9.412 0 1 1 0,18.824 z m 0,291.37168 a 9.412,9.412 0 1 1 0,-18.824 9.412,9.412 0 1 1 0,18.824 z m -26.73008,-288.73632 a 9.4126624,9.4126624 0 1 1 -3.67068,-18.46399 9.4138163,9.4138163 0 1 1 3.67068,18.46634 z m 56.91907,286.17186 a 9.4161242,9.4161242 0 1 1 -3.67068,-18.47105 9.4161242,9.4161242 0 1 1 3.67068,18.47105 z m -82.49618,-278.45873 a 9.4123889,9.4123889 0 1 1 -7.20018,-17.39338 9.4123889,9.4123889 0 1 1 7.20018,17.39338 z m 111.64985,269.55968 a 9.412,9.412 0 1 1 -7.20018,-17.38867 9.4134746,9.4134746 0 1 1 7.20018,17.39573 z M -825.7666,-863.16329 a 9.412,9.412 0 1 1 -10.45673,-15.64745 9.412,9.412 0 1 1 10.45673,15.64745 z m 162.09817,242.60136 a 9.412,9.412 0 1 1 -10.45673,-15.65215 9.4196983,9.4196983 0 1 1 10.45673,15.67098 z m -182.73398,-225.67152 a 9.412,9.412 0 1 1 -13.31092,-13.30857 9.412,9.412 0 1 1 13.30857,13.29445 z m 206.31104,206.31575 a 9.412,9.412 0 1 1 -13.31092,-13.30857 9.4139076,9.4139076 0 1 1 13.30857,13.31798 z m -223.26911,-185.57406 a 9.412,9.412 0 1 1 -15.64745,-10.45908 9.412,9.412 0 1 1 15.64745,10.45673 z m 242.5943,162.09817 a 9.412,9.412 0 1 1 -15.64745,-10.45673 9.412,9.412 0 1 1 15.64745,10.45673 z m -255.15461,-138.49758 a 9.4123889,9.4123889 0 1 1 -17.39338,-7.20018 9.4123889,9.4123889 0 1 1 17.39338,7.20018 z m 269.58321,111.65691 a 9.4123889,9.4123889 0 1 1 -17.39338,-7.20018 9.4123889,9.4123889 0 1 1 17.39338,7.20018 z m -277.35282,-86.00215 a 9.4161242,9.4161242 0 1 1 -18.47105,-3.67068 9.4161242,9.4161242 0 1 1 18.47105,3.67068 z m 286.17186,56.92378 a 9.4161242,9.4161242 0 1 1 -18.47105,-3.67068 9.4161242,9.4161242 0 1 1 18.47105,3.67068 z m -288.97749,-30.6536 a 9.412,9.412 0 1 1 -18.824,0 9.412,9.412 0 1 1 18.824,0 z m 291.57203,0 a 9.412,9.412 0 1 1 -18.824,0 9.412,9.412 0 1 1 18.824,0 z m -288.82993,27.01821 a 9.4138193,9.4138193 0 1 1 -18.46635,3.67068 9.4138193,9.4138193 0 1 1 18.46635,-3.67068 z m 286.17186,-56.91907 a 9.4138193,9.4138193 0 1 1 -18.46635,3.67068 9.4138193,9.4138193 0 1 1 18.46635,-3.67068 z m -278.47049,82.51266 a 9.4123889,9.4123889 0 1 1 -17.39338,7.20018 9.4123889,9.4123889 0 1 1 17.39338,-7.20018 z m 269.55968,-111.65691 a 9.4123889,9.4123889 0 1 1 -17.39338,7.20018 9.4123889,9.4123889 0 1 1 17.39338,-7.20018 z m -256.92407,135.19396 a 9.412,9.412 0 1 1 -15.64745,10.45438 9.412,9.412 0 1 1 15.64745,-10.45673 z m 242.5943,-162.10287 a 9.412,9.412 0 1 1 -15.64745,10.45673 9.412,9.412 0 1 1 15.64745,-10.45673 z m -225.67153,182.73868 a 9.412,9.412 0 1 1 -13.30856,13.31093 9.412,9.412 0 1 1 13.30856,-13.30857 z m 206.33457,-206.31104 a 9.412,9.412 0 1 1 -13.30856,13.30622 9.412,9.412 0 1 1 13.30856,-13.30857 z m -185.5764,223.26676 a 9.4125272,9.4125272 0 1 1 -10.45909,15.65216 9.412,9.412 0 1 1 10.45674,-15.65216 z m 162.09817,-242.60136 a 9.4125272,9.4125272 0 1 1 -10.45909,15.65216 9.412,9.412 0 1 1 10.45674,-15.65216 z m -138.49758,255.15226 a 9.412,9.412 0 1 1 -7.20018,17.38867 9.412,9.412 0 1 1 7.20018,-17.38867 z m 111.64985,-269.56438 a 9.4123871,9.4123871 0 1 1 -7.20018,17.39337 9.4123871,9.4123871 0 1 1 7.20018,-17.39337 z m -86.00215,277.3434 a 9.4138193,9.4138193 0 1 1 -3.67068,18.46635 9.4138193,9.4138193 0 1 1 3.67068,-18.46635 z m 56.91907,-286.16715 a 9.4138163,9.4138163 0 1 1 -3.67068,18.46634 9.4138163,9.4138163 0 1 1 3.67068,-18.46634 z m -30.46535,44.1564 a 9.412,9.412 0 1 1 0,-18.824 9.412,9.412 0 1 1 0,18.824 z m 0,234.89968 a 9.412,9.412 0 1 1 0,-18.824 9.412,9.412 0 1 1 0,18.824 z m -37.45164,-228.42187 a 9.412,9.412 0 1 1 -6.43781,-17.68515 9.4146542,9.4146542 0 1 1 6.43781,17.69456 z m 80.4773,221.11141 a 9.412,9.412 0 1 1 -6.4378,-17.6875 9.412,9.412 0 1 1 6.4378,17.68514 z m -113.03341,-202.19329 a 9.4147671,9.4147671 0 1 1 -12.10383,-14.42389 9.4147671,9.4147671 0 1 1 12.10383,14.42389 z m 151.25084,180.24685 a 9.4137212,9.4137212 0 1 1 -12.10619,-14.41918 9.4129657,9.4129657 0 1 1 12.10384,14.41918 z m -175.48203,-151.5332 a 9.412,9.412 0 1 1 -16.30159,-9.412 9.412,9.412 0 1 1 16.30159,9.412 z m 203.77685,117.65 a 9.412,9.412 0 1 1 -16.30158,-9.412 9.412,9.412 0 1 1 16.30158,9.412 z m -216.53482,-82.2797 a 9.4135399,9.4135399 0 1 1 -18.54164,-3.26596 9.4135399,9.4135399 0 1 1 18.54164,3.26596 z m 231.7305,40.85985 a 9.4135404,9.4135404 0 1 1 -18.54164,-3.26597 9.412,9.412 0 1 1 18.54164,3.24714 z m -231.83639,-3.20008 a 9.4135399,9.4135399 0 1 1 -18.54164,3.26596 9.4135399,9.4135399 0 1 1 18.54164,-3.26596 z m 231.72815,-40.86456 a 9.4139484,9.4139484 0 1 1 -18.54164,3.27067 9.4139484,9.4139484 0 1 1 18.54164,-3.27067 z m -218.869,76.0725 a 9.412,9.412 0 1 1 -16.29923,9.412 9.412,9.412 0 1 1 16.30158,-9.412 z m 203.77921,-117.65 a 9.412,9.412 0 1 1 -16.30158,9.41199 9.412,9.412 0 1 1 16.30158,-9.41199 z m -179.5739,146.54483 a 9.4147671,9.4147671 0 1 1 -12.10383,14.42389 9.4147671,9.4147671 0 1 1 12.10383,-14.42389 z m 151.25084,-180.25156 a 9.4137212,9.4137212 0 1 1 -12.10618,14.41918 9.4129647,9.4129647 0 1 1 12.10383,-14.41918 z m -118.80297,198.99792 a 9.412,9.412 0 1 1 -6.43781,17.68514 9.412,9.412 0 1 1 6.44722,-17.68514 z m 80.47966,-221.11141 a 9.412,9.412 0 1 1 -6.44016,17.68279 9.412,9.412 0 1 1 6.43781,-17.68515 z m -122.77954,119.05709 a 9.412,9.412 0 1 1 -18.824,0 9.412,9.412 0 1 1 18.824,0 z m 178.828,0 a 9.412,9.412 0 1 1 -18.824,0 9.412,9.412 0 1 1 18.824,0 z m -98.826,-80.002 a 9.412,9.412 0 1 1 0,-18.824 9.412,9.412 0 1 1 0,18.824 z m 0,178.828 a 9.412,9.412 0 1 1 0,-18.824 9.412,9.412 0 1 1 0,18.824 z m -56.632,-42.27165 a 9.412,9.412 0 1 1 -13.30857,13.30857 9.412,9.412 0 1 1 13.30857,-13.30857 z m 126.45022,-126.45022 a 9.412,9.412 0 1 1 -13.30857,13.30857 9.412,9.412 0 1 1 13.30857,-13.30857 z m -126.37493,13.26151 a 9.412,9.412 0 1 1 -13.30857,-13.30857 9.412,9.412 0 1 1 13.30857,13.30857 z m 126.45022,126.45022 a 9.412,9.412 0 1 1 -13.30857,-13.30857 9.412,9.412 0 1 1 13.30857,13.30857 z m -69.89351,-121.58421 a 9.412,9.412 0 1 1 0,-18.824 9.412,9.412 0 1 1 0,18.824 z m 0,122.356 a 9.412,9.412 0 1 1 0,-18.824 9.412,9.412 0 1 1 0,18.824 z m -0.0235,-234.99882 a 9.412,9.412 0 1 1 0,-18.824 9.412,9.412 0 1 1 0,18.824 z m 0,347.83897 a 9.412,9.412 0 1 1 0,-18.824 9.412,9.412 0 1 1 0,18.824 z M -585.51197,-749.978 a 9.412,9.412 0 1 1 18.824,0 9.412,9.412 0 1 1 -18.824,0 z m -348.04403,0 a 9.412,9.412 0 1 1 18.824,0 9.412,9.412 0 1 1 -18.824,0 z m 151.39758,-161.22649 a 9.4138163,9.4138163 0 1 1 -3.67068,-18.46634 9.4138163,9.4138163 0 1 1 3.67068,18.46634 z m 67.93111,341.56148 a 9.4138163,9.4138163 0 1 1 -3.67068,-18.46634 9.4138163,9.4138163 0 1 1 3.67068,18.46634 z m 125.83138,-212.27119 a 9.4138163,9.4138163 0 1 1 18.46634,-3.67068 9.4138163,9.4138163 0 1 1 -18.46634,3.67068 z m -341.56148,67.95464 a 9.4138163,9.4138163 0 1 1 18.46634,-3.67068 9.4138163,9.4138163 0 1 1 -18.46634,3.67068 z m 116.9041,-187.9294 a 9.4123889,9.4123889 0 1 1 -7.20018,-17.39338 9.4123889,9.4123889 0 1 1 7.20018,17.39338 z m 133.27392,321.7351 a 9.4123871,9.4123871 0 1 1 -7.20018,-17.39337 9.4123871,9.4123871 0 1 1 7.20018,17.39337 z m 82.05852,-232.6317 a 9.4123889,9.4123889 0 1 1 17.39338,-7.20018 9.4123889,9.4123889 0 1 1 -17.39338,7.20018 z m -321.72569,133.25039 a 9.4123889,9.4123889 0 1 1 17.39338,-7.20018 9.4123889,9.4123889 0 1 1 -17.39338,7.20018 z m 77.98548,-207.11106 a 9.412,9.412 0 1 1 -10.45673,-15.65215 9.412,9.412 0 1 1 10.45673,15.65215 z m 193.46366,289.55313 a 9.412,9.412 0 1 1 -10.45673,-15.65216 9.412,9.412 0 1 1 10.45673,15.65216 z m 35.02676,-244.12375 a 9.412,9.412 0 1 1 15.65215,-10.45674 9.412,9.412 0 1 1 -15.65215,10.45674 z m -289.53665,193.48719 a 9.412,9.412 0 1 1 15.65215,-10.45674 9.412,9.412 0 1 1 -15.65215,10.45674 z m 36.12561,-218.47605 a 9.412,9.412 0 1 1 -13.30857,-13.30857 9.4139076,9.4139076 0 1 1 13.30857,13.31798 z m 246.24145,246.24145 a 9.412,9.412 0 1 1 -13.30857,-13.30622 9.412,9.412 0 1 1 13.30857,13.30857 z m -13.2568,-246.17086 a 9.412,9.412 0 1 1 13.30856,-13.31093 9.412,9.412 0 1 1 -13.30856,13.30857 z m -246.24145,246.26498 a 9.412,9.412 0 1 1 13.30856,-13.31093 9.412,9.412 0 1 1 -13.30856,13.30857 z m -7.20489,-221.31613 a 9.412,9.412 0 1 1 -15.64745,-10.45908 9.412,9.412 0 1 1 15.64745,10.45673 z m 289.53665,193.46366 a 9.412,9.412 0 1 1 -15.64745,-10.45908 9.412,9.412 0 1 1 15.64745,10.45673 z m -61.10741,-238.87656 a 9.412,9.412 0 1 1 10.45908,-15.64745 9.412,9.412 0 1 1 -10.45673,15.64745 z m -193.48719,289.56018 a 9.412,9.412 0 1 1 10.45908,-15.64745 9.412,9.412 0 1 1 -10.45673,15.64745 z m -50.11419,-215.66421 a 9.4123889,9.4123889 0 1 1 -17.39338,-7.20018 9.4123889,9.4123889 0 1 1 17.39338,7.20018 z m 321.74922,133.26215 a 9.4123889,9.4123889 0 1 1 -17.39338,-7.20018 9.4123889,9.4123889 0 1 1 17.39338,7.20018 z m -106.64267,-222.30673 a 9.4123889,9.4123889 0 1 1 7.20018,-17.39338 9.4123889,9.4123889 0 1 1 -7.20018,17.39338 z m -133.27392,321.72569 a 9.4123889,9.4123889 0 1 1 7.20018,-17.39338 9.4123889,9.4123889 0 1 1 -7.20018,17.39338 z m -91.20228,-201.7274 a 9.4161242,9.4161242 0 1 1 -18.47105,-3.67068 9.4161242,9.4161242 0 1 1 18.47105,3.67068 z m 341.53795,67.93111 a 9.4161242,9.4161242 0 1 1 -18.47105,-3.67067 9.4161242,9.4161242 0 1 1 18.47105,3.67067 z m -148.0037,-197.32258 a 9.4161242,9.4161242 0 1 1 3.67068,-18.47105 9.4161242,9.4161242 0 1 1 -3.67068,18.47105 z m -67.95464,341.56148 a 9.4161242,9.4161242 0 1 1 3.67068,-18.47105 9.4161242,9.4161242 0 1 1 -3.67068,18.47105 z m 35.83631,-373.04462 a 9.412,9.412 0 1 1 0,-18.824 9.412,9.412 0 1 1 0,18.824 z m 2.6e-4,404.1161 a 9.412,9.412 0 1 1 0,-18.824 9.412,9.412 0 1 1 0,18.824 z m -66.32674,-392.51581 a 9.412,9.412 0 1 1 -6.43781,-17.6875 9.412,9.412 0 1 1 6.43781,17.68515 z m 138.42699,380.29187 a 9.412,9.412 0 1 1 -6.43781,-17.68751 9.412,9.412 0 1 1 6.43781,17.68515 z m -196.46374,-346.67691 a 9.4129647,9.4129647 0 1 1 -12.10383,-14.41918 9.4129647,9.4129647 0 1 1 12.10383,14.41918 z m 260.14768,310.03128 a 9.4129647,9.4129647 0 1 1 -12.10383,-14.41918 9.4129647,9.4129647 0 1 1 12.10383,14.41918 z m -303.28993,-258.77352 a 9.412,9.412 0 1 1 -16.30159,-9.412 9.412,9.412 0 1 1 16.30159,9.412 z m 350.50288,202.358 a 9.412,9.412 0 1 1 -16.30159,-9.412 9.412,9.412 0 1 1 16.30159,9.412 z m -373.30816,-139.33996 a 9.4135399,9.4135399 0 1 1 -18.54164,-3.26596 9.4135399,9.4135399 0 1 1 18.54164,3.26596 z m 398.55114,70.26058 a 9.4135399,9.4135399 0 1 1 -18.54164,-3.26596 9.4135399,9.4135399 0 1 1 18.54164,3.26596 z m -398.66879,-3.18125 a 9.4135399,9.4135399 0 1 1 -18.54164,3.26596 9.4135399,9.4135399 0 1 1 18.54164,-3.26596 z m 398.57467,-70.28411 a 9.4135399,9.4135399 0 1 1 -18.54164,3.26596 9.4135399,9.4135399 0 1 1 18.54164,-3.26596 z m -375.65645,133.13274 a 9.412,9.412 0 1 1 -16.30158,9.412 9.412,9.412 0 1 1 16.30158,-9.412 z m 350.50288,-202.358 a 9.412,9.412 0 1 1 -16.30158,9.412 9.412,9.412 0 1 1 16.30158,-9.412 z m -307.37239,253.78046 a 9.4137212,9.4137212 0 1 1 -12.10619,14.41918 9.4129657,9.4129657 0 1 1 12.10384,-14.41918 z m 260.12415,-310.03128 a 9.4137212,9.4137212 0 1 1 -12.10619,14.41918 9.4129657,9.4129657 0 1 1 12.10384,-14.41918 z m -202.21211,343.49094 a 9.412,9.412 0 1 1 -6.43781,17.6875 9.412,9.412 0 1 1 6.43781,-17.67103 z m 138.42699,-380.31539 a 9.412,9.412 0 1 1 -6.43781,17.6875 9.412,9.412 0 1 1 6.43781,-17.67103 z" />
</svg>
