<?xml version="1.0" encoding="UTF-8" standalone="no"?>
<svg
   version="1.1"
   preserveAspectRatio="xMidYMid"
   zoomAndPan="magnify"
   id="Electron shell Ununoctium"
   viewBox="-1000 -1000 500 500"
   width="500"
   height="500"
   xmlns="http://www.w3.org/2000/svg"
   xmlns:svg="http://www.w3.org/2000/svg"
   xmlns:rdf="http://www.w3.org/1999/02/22-rdf-syntax-ns#"
   xmlns:cc="http://creativecommons.org/ns#"
   xmlns:dc="http://purl.org/dc/elements/1.1/">
  <metadata
     id="metadata4245">
    <rdf:RDF>
      <cc:Work
         rdf:about="">
        <dc:format>image/svg+xml</dc:format>
        <dc:type
           rdf:resource="http://purl.org/dc/dcmitype/StillImage" />
      </cc:Work>
    </rdf:RDF>
  </metadata>
  <desc
     id="element_description">118 Uuo (Ununoctium) Legend_color:#e8e8e8</desc>
  <desc
     id="element_electron_configuration">2,8,18,32,32,18,8</desc>
  <defs
     id="defs4107">
    <circle
       id="electron"
       fill="#77868b"
       stroke="none"
       r="30"
       cx="0"
       cy="0" />
  </defs>
  <path
     fill="#c0ffff"
     stroke="#000000"
     stroke-width="0.709"
     stroke-miterlimit="0"
     d="m -712.5,-750 a 37.5,37.5 0 1 1 -75,0 37.5,37.5 0 1 1 75,0 z"
     id="nucleus"
     style="display:inline;fill:#db1828;fill-opacity:1;stroke:none;stroke-width:0;stroke-dasharray:none" />
  <path
     id="orbit"
     style="display:inline;fill:none;fill-opacity:1;stroke:#77868b;stroke-width:1.5;stroke-dasharray:none;stroke-opacity:1"
     d="m -689.43235,-750.08602 a 60.593765,60.58741 0 1 1 -121.18753,0 60.612825,60.606472 0 1 1 121.22565,0 z m 28.24212,-4.7e-4 a 88.832507,88.688062 0 1 1 -177.66495,0 88.86059,88.716103 0 1 1 177.72118,0 z m 27.64941,0.63812 a 117.07134,117.0777 0 1 1 -234.14259,0 117.10836,117.11472 0 1 1 234.21671,0 z m 28.63059,-0.15295 a 145.28413,145.30976 0 1 1 -290.56824,0 145.33012,145.35576 0 1 1 290.66024,0 z m 28.21435,-0.37505 a 173.41877,173.54182 0 1 1 -346.83742,0 173.47359,173.59669 0 1 1 346.94707,0 z" />
  <path
     id="43-Tc"
     style="display:inline;fill:#36a4ff;fill-opacity:1;stroke:none;stroke-width:0;stroke-dasharray:none;stroke-opacity:1"
     d="m -750.0235,-566.444 a 9.412,9.412 0 1 1 0,-18.824 9.412,9.412 0 1 1 0,18.824 z m 0.0415,-347.93939 a 9.412,9.412 0 1 1 0,-18.824 9.412,9.412 0 1 1 0,18.824 z m -0.094,56.46965 a 9.412,9.412 0 1 1 0,-18.824 9.412,9.412 0 1 1 0,18.824 z m 0.1,234.89974 a 9.412,9.412 0 1 1 0,-18.824 9.412,9.412 0 1 1 0,18.824 z m -37.73788,-228.42428 a 9.412,9.412 0 1 1 -6.43781,-17.68515 9.4146542,9.4146542 0 1 1 6.43781,17.69456 z m 80.4726,221.11141 a 9.412,9.412 0 1 1 -6.43781,-17.68751 9.412,9.412 0 1 1 6.43781,17.68515 z m -113.04989,-202.19329 a 9.4147671,9.4147671 0 1 1 -12.10383,-14.42389 9.4147671,9.4147671 0 1 1 12.10383,14.42389 z m 151.25084,180.24685 a 9.4129647,9.4129647 0 1 1 -12.10383,-14.41918 9.4129647,9.4129647 0 1 1 12.10383,14.41918 z M -844.5153,-803.8065 a 9.412,9.412 0 1 1 -16.30159,-9.412 9.412,9.412 0 1 1 16.30159,9.412 z m 203.7698,117.65 a 9.412,9.412 0 1 1 -16.30159,-9.412 9.412,9.412 0 1 1 16.30159,9.412 z m -216.52777,-82.27736 a 9.4135399,9.4135399 0 1 1 -18.54164,-3.26596 9.4135399,9.4135399 0 1 1 18.54164,3.26596 z m 231.72344,40.8575 a 9.4135404,9.4135404 0 1 1 -18.54164,-3.26597 9.412,9.412 0 1 1 18.54164,3.24714 z m -231.81756,-3.20008 a 9.4135399,9.4135399 0 1 1 -18.54164,3.26596 9.4135399,9.4135399 0 1 1 18.54164,-3.26596 z m 231.72344,-40.86455 a 9.4139484,9.4139484 0 1 1 -18.54164,3.27067 9.4139484,9.4139484 0 1 1 18.54164,-3.27067 z m -218.87606,76.07719 a 9.412,9.412 0 1 1 -16.30158,9.412 9.412,9.412 0 1 1 16.30158,-9.412 z m 203.79333,-117.6547 a 9.412,9.412 0 1 1 -16.30158,9.412 9.412,9.412 0 1 1 16.30158,-9.412 z m -179.58096,146.54484 a 9.4155234,9.4155234 0 1 1 -12.10618,14.42389 9.4147671,9.4147671 0 1 1 12.10383,-14.42389 z m 151.25084,-180.25157 a 9.4137212,9.4137212 0 1 1 -12.10618,14.41918 9.4129647,9.4129647 0 1 1 12.10383,-14.41918 z m -118.79826,198.99792 a 9.412,9.412 0 1 1 -6.43781,17.68514 9.412,9.412 0 1 1 6.43781,-17.68514 z m 80.4726,-221.11141 a 9.412,9.412 0 1 1 -6.43781,17.68279 9.412,9.412 0 1 1 6.43781,-17.68515 z M -829.967,-749.98163 a 9.412,9.412 0 1 1 -18.824,0 9.412,9.412 0 1 1 18.824,0 z m 178.828,0 a 9.412,9.412 0 1 1 -18.824,0 9.412,9.412 0 1 1 18.824,0 z m -98.826,-80.002 a 9.412,9.412 0 1 1 0,-18.824 9.412,9.412 0 1 1 0,18.824 z m 0,178.828 a 9.412,9.412 0 1 1 0,-18.824 9.412,9.412 0 1 1 0,18.824 z m -56.83171,-42.27164 a 9.412,9.412 0 1 1 -13.30857,13.30856 9.412,9.412 0 1 1 13.30857,-13.30856 z m 126.45022,-126.45023 a 9.412,9.412 0 1 1 -13.30857,13.30857 9.412,9.412 0 1 1 13.30857,-13.30857 z m -126.37257,13.26387 a 9.412,9.412 0 1 1 -13.30857,-13.30857 9.412,9.412 0 1 1 13.29445,13.31798 z m 126.45021,126.45022 a 9.412,9.412 0 1 1 -13.30856,-13.30857 9.412,9.412 0 1 1 13.29445,13.31798 z M -749.965,-801.74763 a 9.412,9.412 0 1 1 0,-18.824 9.412,9.412 0 1 1 0,18.824 z m -0.0538,-84.40447 a 9.412,9.412 0 1 1 0,-18.824 9.412,9.412 0 1 1 0,18.824 z m -63.49336,15.56274 a 9.412,9.412 0 1 1 -8.74374,-16.66865 9.412,9.412 0 1 1 8.74374,16.66865 z m -48.7871,43.37756 a 9.412,9.412 0 1 1 -15.49215,-10.69203 9.412,9.412 0 1 1 15.49215,10.68262 z m -23.20999,60.99447 a 9.412,9.412 0 1 1 -18.68282,-2.2683 9.412,9.412 0 1 1 18.68282,2.28241 z m 7.85902,64.9428 a 9.412,9.412 0 1 1 -17.60044,6.67075 9.412,9.412 0 1 1 17.60044,-6.67311 z m 37.0974,53.69075 a 9.412,9.412 0 1 1 -12.48031,14.08976 9.412,9.412 0 1 1 12.48031,-14.07094 z m 57.92145,30.45253 a 9.4129471,9.4129471 0 1 1 -4.50835,18.2781 9.4129471,9.4129471 0 1 1 4.50835,-18.2781 z m 65.23927,-0.12942 a 9.4129471,9.4129471 0 1 1 4.50835,18.2781 9.4129471,9.4129471 0 1 1 -4.50835,-18.2781 z m 57.86498,-30.21958 a 9.412,9.412 0 1 1 12.48031,14.08977 9.412,9.412 0 1 1 -12.48031,-14.08977 z m 37.05975,-53.76605 a 9.412,9.412 0 1 1 17.60044,6.67311 9.412,9.412 0 1 1 -17.60044,-6.67311 z m 7.97667,-64.79456 a 9.412,9.412 0 1 1 18.68282,-2.26594 9.412,9.412 0 1 1 -18.68282,2.26829 z m -23.20529,-61.15447 a 9.412,9.412 0 1 1 15.49216,-10.69203 9.412,9.412 0 1 1 -15.49216,10.69203 z m -48.97063,-43.38461 a 9.4135811,9.4135811 0 1 1 8.75316,-16.66866 9.4135811,9.4135811 0 1 1 -8.75316,16.66866 z m -63.29835,191.18831 a 9.412,9.412 0 1 1 0,-18.824 9.412,9.412 0 1 1 0,18.824 z" />
</svg>
