<?xml version="1.0" encoding="UTF-8" standalone="no"?>
<svg
   version="1.1"
   preserveAspectRatio="xMidYMid"
   zoomAndPan="magnify"
   id="Electron shell Ununoctium"
   viewBox="-1000 -1000 500 500"
   width="500"
   height="500"
   xmlns="http://www.w3.org/2000/svg"
   xmlns:svg="http://www.w3.org/2000/svg"
   xmlns:rdf="http://www.w3.org/1999/02/22-rdf-syntax-ns#"
   xmlns:cc="http://creativecommons.org/ns#"
   xmlns:dc="http://purl.org/dc/elements/1.1/">
  <metadata
     id="metadata4245">
    <rdf:RDF>
      <cc:Work
         rdf:about="">
        <dc:format>image/svg+xml</dc:format>
        <dc:type
           rdf:resource="http://purl.org/dc/dcmitype/StillImage" />
      </cc:Work>
    </rdf:RDF>
  </metadata>
  <desc
     id="element_description">118 Uuo (Ununoctium) Legend_color:#e8e8e8</desc>
  <desc
     id="element_electron_configuration">2,8,18,32,32,18,8</desc>
  <defs
     id="defs4107">
    <circle
       id="electron"
       fill="#77868b"
       stroke="none"
       r="30"
       cx="0"
       cy="0" />
  </defs>
  <path
     fill="#c0ffff"
     stroke="#000000"
     stroke-width="0.709"
     stroke-miterlimit="0"
     d="m -712.5,-750 a 37.5,37.5 0 1 1 -75,0 37.5,37.5 0 1 1 75,0 z"
     id="nucleus"
     style="display:inline;fill:#db1828;fill-opacity:1;stroke:none;stroke-width:0;stroke-dasharray:none" />
  <path
     id="orbit"
     style="display:inline;fill:none;fill-opacity:1;stroke:#77868b;stroke-width:1.5;stroke-dasharray:none;stroke-opacity:1"
     d="m -689.43235,-750.08602 a 60.593765,60.58741 0 1 1 -121.18753,0 60.612825,60.606472 0 1 1 121.22565,0 z m 28.24212,-4.7e-4 a 88.832507,88.688062 0 1 1 -177.66495,0 88.86059,88.716103 0 1 1 177.72118,0 z m 27.64941,0.63812 a 117.07134,117.0777 0 1 1 -234.14259,0 117.10836,117.11472 0 1 1 234.21671,0 z m 28.63059,-0.15295 a 145.28413,145.30976 0 1 1 -290.56824,0 145.33012,145.35576 0 1 1 290.66024,0 z" />
  <path
     id="23-V"
     style="display:inline;fill:#36a4ff;fill-opacity:1;stroke:none;stroke-width:0;stroke-dasharray:none;stroke-opacity:1"
     d="m -750.02663,-857.90311 a 9.412,9.412 0 1 1 0,-18.824 9.412,9.412 0 1 1 0,18.824 z m -58.58029,17.20043 a 9.4132364,9.4132364 0 1 1 -10.17437,-15.8404 9.4132364,9.4132364 0 1 1 10.17437,15.8404 z m -39.83629,46.00586 a 9.412,9.412 0 1 1 -17.12043,-7.82138 9.412,9.412 0 1 1 17.12043,7.82138 z m -8.67316,60.42504 a 9.4132424,9.4132424 0 1 1 -18.63576,2.673 9.4132424,9.4132424 0 1 1 18.63576,-2.673 z m 25.22887,55.41315 a 9.412,9.412 0 1 1 -14.22859,12.31795 9.412,9.412 0 1 1 14.23094,-12.32031 z m 51.39422,33.04317 a 9.414102,9.414102 0 1 1 -5.31778,18.06163 9.414102,9.414102 0 1 1 5.31778,-18.06163 z m 88.91046,-194.86134 a 9.4132353,9.4132353 0 1 1 10.17437,-15.84039 9.4132353,9.4132353 0 1 1 -10.17437,15.84039 z m 40.05277,46.00115 a 9.412,9.412 0 1 1 17.12042,-7.82372 9.4141378,9.4141378 0 1 1 -17.12042,7.83549 z m 8.6308,60.3121 a 9.4132424,9.4132424 0 1 1 18.63576,2.67301 9.4132424,9.4132424 0 1 1 -18.63576,-2.67301 z m -25.26651,55.55903 a 9.412,9.412 0 1 1 14.22859,12.32031 9.412,9.412 0 1 1 -14.23095,-12.32031 z m -51.26717,32.87141 a 9.414102,9.414102 0 1 1 5.31778,18.06163 9.414102,9.414102 0 1 1 -5.31778,-18.06163 z M -750.05016,-886.145 a 9.412,9.412 0 1 1 0,-18.824 9.412,9.412 0 1 1 0,18.824 z m 0,291.472 a 9.412,9.412 0 1 1 0,-18.824 9.412,9.412 0 1 1 0,18.824 z m -80.002,-155.298 a 9.412,9.412 0 1 1 -18.824,0 9.412,9.412 0 1 1 18.824,0 z m 178.828,0 a 9.412,9.412 0 1 1 -18.824,0 9.412,9.412 0 1 1 18.824,0 z m -98.826,-80.002 a 9.412,9.412 0 1 1 0,-18.824 9.412,9.412 0 1 1 0,18.824 z m 0,178.828 a 9.412,9.412 0 1 1 0,-18.824 9.412,9.412 0 1 1 0,18.824 z m -56.62965,-42.27165 a 9.412,9.412 0 1 1 -13.30857,13.30857 9.412,9.412 0 1 1 13.30857,-13.30857 z m 126.45022,-126.45022 a 9.412,9.412 0 1 1 -13.30857,13.30857 9.412,9.412 0 1 1 13.30857,-13.30857 z m -126.37258,13.26387 a 9.412,9.412 0 1 1 -13.30856,-13.30857 9.4139069,9.4139069 0 1 1 13.30856,13.31798 z m 126.45022,126.45022 a 9.412,9.412 0 1 1 -13.30856,-13.30857 9.4139069,9.4139069 0 1 1 13.30856,13.31798 z M -750.05016,-801.737 a 9.412,9.412 0 1 1 0,-18.824 9.412,9.412 0 1 1 0,18.824 z m 0,122.356 a 9.412,9.412 0 1 1 0,-18.824 9.412,9.412 0 1 1 0,18.824 z" />
</svg>
