<?xml version="1.0" encoding="UTF-8" standalone="no"?>
<svg
   version="1.1"
   preserveAspectRatio="xMidYMid"
   zoomAndPan="magnify"
   id="Electron shell Ununoctium"
   viewBox="-1000 -1000 500 500"
   width="500"
   height="500"
   xmlns="http://www.w3.org/2000/svg"
   xmlns:svg="http://www.w3.org/2000/svg"
   xmlns:rdf="http://www.w3.org/1999/02/22-rdf-syntax-ns#"
   xmlns:cc="http://creativecommons.org/ns#"
   xmlns:dc="http://purl.org/dc/elements/1.1/">
  <metadata
     id="metadata4245">
    <rdf:RDF>
      <cc:Work
         rdf:about="">
        <dc:format>image/svg+xml</dc:format>
        <dc:type
           rdf:resource="http://purl.org/dc/dcmitype/StillImage" />
      </cc:Work>
    </rdf:RDF>
  </metadata>
  <desc
     id="element_description">118 Uuo (Ununoctium) Legend_color:#e8e8e8</desc>
  <desc
     id="element_electron_configuration">2,8,18,32,32,18,8</desc>
  <defs
     id="defs4107">
    <circle
       id="electron"
       fill="#77868b"
       stroke="none"
       r="30"
       cx="0"
       cy="0" />
  </defs>
  <path
     fill="#c0ffff"
     stroke="#000000"
     stroke-width="0.709"
     stroke-miterlimit="0"
     d="m -712.5,-750 a 37.5,37.5 0 1 1 -75,0 37.5,37.5 0 1 1 75,0 z"
     id="nucleus"
     style="display:inline;fill:#db1828;fill-opacity:1;stroke:none;stroke-width:0;stroke-dasharray:none" />
  <path
     id="orbit"
     style="display:inline;fill:none;fill-opacity:1;stroke:#77868b;stroke-width:1.5;stroke-dasharray:none;stroke-opacity:1"
     d="m -689.43235,-750.08602 a 60.593765,60.58741 0 1 1 -121.18753,0 60.612825,60.606472 0 1 1 121.22565,0 z m 28.24212,-4.7e-4 a 88.832507,88.688062 0 1 1 -177.66495,0 88.86059,88.716103 0 1 1 177.72118,0 z m 27.64941,0.63812 a 117.07134,117.0777 0 1 1 -234.14259,0 117.10836,117.11472 0 1 1 234.21671,0 z m 28.63059,-0.15295 a 145.28413,145.30976 0 1 1 -290.56824,0 145.33012,145.35576 0 1 1 290.66024,0 z" />
  <path
     id="25-Mn"
     style="display:inline;fill:#36a4ff;fill-opacity:1;stroke:none;stroke-width:0;stroke-dasharray:none;stroke-opacity:1"
     d="m -749.98174,-886.145 a 9.412,9.412 0 1 1 0,-18.824 9.412,9.412 0 1 1 0,18.824 z m 0,291.372 a 9.412,9.412 0 1 1 0,-18.824 9.412,9.412 0 1 1 0,18.824 z m 0.0367,-263.136 a 9.412,9.412 0 1 1 0,-18.824 9.412,9.412 0 1 1 0,18.824 z m -50.02152,12.48266 a 9.412536,9.412536 0 1 1 -8.75316,-16.66629 9.4135776,9.4135776 0 1 1 8.75316,16.66865 z m -38.87626,34.27851 a 9.412,9.412 0 1 1 -15.49215,-10.69203 9.4175894,9.4175894 0 1 1 15.50627,10.69203 z m -18.16046,48.53062 a 9.4141128,9.4141128 0 1 1 -18.69223,-2.25888 9.4141128,9.4141128 0 1 1 18.69223,2.25888 z m 6.17192,51.46953 a 9.4131765,9.4131765 0 1 1 -17.60044,6.68252 9.4131765,9.4131765 0 1 1 17.60044,-6.68252 z m 29.45486,42.48576 a 9.412,9.412 0 1 1 -12.4709,14.09918 9.412,9.412 0 1 1 12.4709,-14.09918 z m 45.83644,24.11825 a 9.413544,9.413544 0 1 1 -4.49423,18.28281 9.4127021,9.4127021 0 1 1 4.48717,-18.28281 z m 76.11955,-200.99326 a 9.4146192,9.4146192 0 1 1 8.75316,-16.671 9.4135776,9.4135776 0 1 1 -8.75316,16.66865 z m 38.8292,34.48793 a 9.412,9.412 0 1 1 15.4898,-10.69439 9.412,9.412 0 1 1 -15.49215,10.69203 z m 18.37693,48.25061 a 9.4152832,9.4152832 0 1 1 18.69459,-2.25888 9.4141128,9.4141128 0 1 1 -18.69223,2.25888 z m -6.32957,51.52129 a 9.4131765,9.4131765 0 1 1 17.60044,6.68252 9.4131765,9.4131765 0 1 1 -17.60044,-6.68252 z m -29.34661,42.70224 a 9.4124452,9.4124452 0 1 1 12.4709,14.10153 9.412,9.412 0 1 1 -12.4709,-14.09917 z m -45.98468,24.05708 a 9.412,9.412 0 1 1 4.48952,18.2781 9.412,9.412 0 1 1 -4.48952,-18.2781 z m -106.10854,-105.45911 a 9.412,9.412 0 1 1 -18.824,0 9.412,9.412 0 1 1 18.824,0 z m 178.828,0 a 9.412,9.412 0 1 1 -18.824,0 9.412,9.412 0 1 1 18.824,0 z m -98.826,-80.002 a 9.412,9.412 0 1 1 0,-18.824 9.412,9.412 0 1 1 0,18.824 z m 0,178.828 a 9.412,9.412 0 1 1 0,-18.824 9.412,9.412 0 1 1 0,18.824 z m -56.632,-42.27164 a 9.412,9.412 0 1 1 -13.30857,13.30856 9.412,9.412 0 1 1 13.30857,-13.30856 z m 126.45022,-126.45022 a 9.412,9.412 0 1 1 -13.30857,13.30856 9.412,9.412 0 1 1 13.30857,-13.30856 z m -126.37257,13.26386 a 9.412,9.412 0 1 1 -13.30857,-13.30857 9.412,9.412 0 1 1 13.29445,13.31798 z m 126.45022,126.45022 a 9.412,9.412 0 1 1 -13.30857,-13.30857 9.412,9.412 0 1 1 13.29445,13.31798 z m -69.89587,-121.58422 a 9.412,9.412 0 1 1 0,-18.824 9.412,9.412 0 1 1 0,18.824 z m 0,122.356 a 9.412,9.412 0 1 1 0,-18.824 9.412,9.412 0 1 1 0,18.824 z" />
</svg>
