<?xml version="1.0" encoding="UTF-8" standalone="no"?>
<svg
   version="1.1"
   preserveAspectRatio="xMidYMid"
   zoomAndPan="magnify"
   id="Electron shell Ununoctium"
   viewBox="-1000 -1000 500 500"
   width="500"
   height="500"
   xmlns="http://www.w3.org/2000/svg"
   xmlns:svg="http://www.w3.org/2000/svg"
   xmlns:rdf="http://www.w3.org/1999/02/22-rdf-syntax-ns#"
   xmlns:cc="http://creativecommons.org/ns#"
   xmlns:dc="http://purl.org/dc/elements/1.1/">
  <metadata
     id="metadata4245">
    <rdf:RDF>
      <cc:Work
         rdf:about="">
        <dc:format>image/svg+xml</dc:format>
        <dc:type
           rdf:resource="http://purl.org/dc/dcmitype/StillImage" />
      </cc:Work>
    </rdf:RDF>
  </metadata>
  <desc
     id="element_description">118 Uuo (Ununoctium) Legend_color:#e8e8e8</desc>
  <desc
     id="element_electron_configuration">2,8,18,32,32,18,8</desc>
  <defs
     id="defs4107">
    <circle
       id="electron"
       fill="#77868b"
       stroke="none"
       r="30"
       cx="0"
       cy="0" />
  </defs>
  <path
     fill="#c0ffff"
     stroke="#000000"
     stroke-width="0.709"
     stroke-miterlimit="0"
     d="m -712.5,-750 a 37.5,37.5 0 1 1 -75,0 37.5,37.5 0 1 1 75,0 z"
     id="nucleus"
     style="display:inline;fill:#db1828;fill-opacity:1;stroke:none;stroke-width:0;stroke-dasharray:none" />
  <path
     id="orbit"
     style="display:inline;fill:none;fill-opacity:1;stroke:#77868b;stroke-width:1.5;stroke-dasharray:none;stroke-opacity:1"
     d="m -689.43235,-750.08602 a 60.593765,60.58741 0 1 1 -121.18753,0 60.612825,60.606472 0 1 1 121.22565,0 z m 28.24212,-4.7e-4 a 88.832507,88.688062 0 1 1 -177.66495,0 88.86059,88.716103 0 1 1 177.72118,0 z m 27.64941,0.63812 a 117.07134,117.0777 0 1 1 -234.14259,0 117.10836,117.11472 0 1 1 234.21671,0 z m 28.63059,-0.15295 a 145.28413,145.30976 0 1 1 -290.56824,0 145.33012,145.35576 0 1 1 290.66024,0 z m 28.21435,-0.37505 a 173.41877,173.54182 0 1 1 -346.83742,0 173.47359,173.59669 0 1 1 346.94707,0 z" />
  <path
     id="39-Y"
     style="display:inline;fill:#36a4ff;fill-opacity:1;stroke:none;stroke-width:0;stroke-dasharray:none;stroke-opacity:1"
     d="m -750.03782,-886.14739 a 9.412,9.412 0 1 1 0,-18.824 9.412,9.412 0 1 1 0,18.824 z m -87.42715,32.0008 a 9.4147696,9.4147696 0 1 1 -12.10384,-14.42389 9.4147696,9.4147696 0 1 1 12.10384,14.42389 z m -46.65058,80.81143 a 9.4135445,9.4135445 0 1 1 -18.54165,-3.26596 9.4135445,9.4135445 0 1 1 18.54165,3.26596 z m 16.11805,91.88936 a 9.4138308,9.4138308 0 1 1 -16.30629,9.412 9.412,9.412 0 1 1 16.29924,-9.412 z m 71.44179,60.05326 a 9.412,9.412 0 1 1 -6.44016,17.68515 9.412,9.412 0 1 1 6.43781,-17.68515 z m 93.35528,0.0235 a 9.412,9.412 0 1 1 6.4378,17.68515 9.412,9.412 0 1 1 -6.42369,-17.68515 z m 71.60178,-60.04856 a 9.412,9.412 0 1 1 16.30159,9.412 9.412,9.412 0 1 1 -16.30159,-9.412 z m 16.21923,-92.04936 a 9.4135399,9.4135399 0 1 1 18.54164,-3.26596 9.4135399,9.4135399 0 1 1 -18.54164,3.26596 z m -46.73059,-80.8326 a 9.4129696,9.4129696 0 1 1 12.10384,-14.41919 9.4129696,9.4129696 0 1 1 -12.10384,14.41919 z m -87.87699,-60.08383 a 9.412,9.412 0 1 1 0,-18.824 9.412,9.412 0 1 1 0,18.824 z m 0,347.84439 a 9.412,9.412 0 1 1 0,-18.824 9.412,9.412 0 1 1 0,18.824 z m 0.006,-291.37004 a 9.412,9.412 0 1 1 0,-18.824 9.412,9.412 0 1 1 0,18.824 z m 0,234.90004 a 9.412,9.412 0 1 1 0,-18.824 9.412,9.412 0 1 1 0,18.824 z m -37.51095,-228.42458 a 9.412,9.412 0 1 1 -6.43547,-17.68515 9.4146559,9.4146559 0 1 1 6.43782,17.69456 z m 80.47259,221.11141 a 9.412,9.412 0 1 1 -6.43546,-17.6875 9.412,9.412 0 1 1 6.43781,17.68515 z M -820.0669,-832.51546 a 9.4147671,9.4147671 0 1 1 -12.10383,-14.42389 9.4147671,9.4147671 0 1 1 12.10383,14.42389 z m 151.25084,180.24686 a 9.4129663,9.4129663 0 1 1 -12.10383,-14.41919 9.4129663,9.4129663 0 1 1 12.10383,14.41919 z m -175.47497,-151.5332 a 9.412,9.412 0 1 1 -16.30157,-9.412 9.412,9.412 0 1 1 16.30157,9.412 z m 203.76981,117.65 a 9.412,9.412 0 1 1 -16.30159,-9.412 9.412,9.412 0 1 1 16.30159,9.412 z m -216.52306,-82.27735 a 9.4135404,9.4135404 0 1 1 -18.54164,-3.26597 9.4135404,9.4135404 0 1 1 18.54164,3.26597 z m 231.72344,40.85749 a 9.4135454,9.4135454 0 1 1 -18.54165,-3.26597 9.412,9.412 0 1 1 18.54165,3.24714 z m -231.82462,-3.20008 a 9.4135399,9.4135399 0 1 1 -18.54164,3.26596 9.4135399,9.4135399 0 1 1 18.54164,-3.26596 z m 231.72344,-40.86455 a 9.4139533,9.4139533 0 1 1 -18.54165,3.27067 9.4139533,9.4139533 0 1 1 18.54165,-3.27067 z m -218.87607,76.07719 a 9.412,9.412 0 1 1 -16.29922,9.412 9.412,9.412 0 1 1 16.30157,-9.412 z m 203.79333,-117.6547 a 9.412,9.412 0 1 1 -16.29923,9.412 9.412,9.412 0 1 1 16.30158,-9.412 z m -179.58096,146.54484 a 9.4147671,9.4147671 0 1 1 -12.10383,14.42389 9.4147671,9.4147671 0 1 1 12.10383,-14.42389 z m 151.25084,-180.25157 a 9.4129663,9.4129663 0 1 1 -12.10383,14.41919 9.4129663,9.4129663 0 1 1 12.10383,-14.41919 z m -118.79591,198.99792 a 9.412,9.412 0 1 1 -6.43781,17.68515 9.412,9.412 0 1 1 6.43781,-17.68515 z m 80.4726,-221.11141 a 9.412,9.412 0 1 1 -6.43781,17.68279 9.412,9.412 0 1 1 6.43781,-17.68514 z M -829.976,-749.97693 a 9.412,9.412 0 1 1 -18.824,0 9.412,9.412 0 1 1 18.824,0 z m 178.828,0 a 9.412,9.412 0 1 1 -18.824,0 9.412,9.412 0 1 1 18.824,0 z m -98.826,-80.002 a 9.412,9.412 0 1 1 0,-18.824 9.412,9.412 0 1 1 0,18.824 z m 0,178.72793 a 9.412,9.412 0 1 1 0,-18.824 9.412,9.412 0 1 1 0,18.824 z m -56.59844,-42.17157 a 9.412,9.412 0 1 1 -13.30857,13.30857 9.412,9.412 0 1 1 13.30857,-13.30857 z m 126.45022,-126.45022 a 9.412,9.412 0 1 1 -13.30857,13.30857 9.412,9.412 0 1 1 13.30857,-13.30857 z m -126.37257,13.16428 a 9.412,9.412 0 1 1 -13.30857,-13.30857 9.4139076,9.4139076 0 1 1 13.30857,13.31798 z m 126.45022,126.5498 a 9.412,9.412 0 1 1 -13.30857,-13.30857 9.4139076,9.4139076 0 1 1 13.30857,13.31798 z M -749.974,-801.74293 a 9.412,9.412 0 1 1 0,-18.824 9.412,9.412 0 1 1 0,18.824 z m 0,122.35593 a 9.412,9.412 0 1 1 0,-18.824 9.412,9.412 0 1 1 0,18.824 z" />
</svg>
