<?xml version="1.0" encoding="UTF-8" standalone="no"?>
<svg
   version="1.1"
   preserveAspectRatio="xMidYMid"
   zoomAndPan="magnify"
   id="Electron shell Ununoctium"
   viewBox="-1000 -1000 500 500"
   width="500"
   height="500"
   xmlns="http://www.w3.org/2000/svg"
   xmlns:svg="http://www.w3.org/2000/svg"
   xmlns:rdf="http://www.w3.org/1999/02/22-rdf-syntax-ns#"
   xmlns:cc="http://creativecommons.org/ns#"
   xmlns:dc="http://purl.org/dc/elements/1.1/">
  <metadata
     id="metadata4245">
    <rdf:RDF>
      <cc:Work
         rdf:about="">
        <dc:format>image/svg+xml</dc:format>
        <dc:type
           rdf:resource="http://purl.org/dc/dcmitype/StillImage" />
      </cc:Work>
    </rdf:RDF>
  </metadata>
  <desc
     id="element_description">118 Uuo (Ununoctium) Legend_color:#e8e8e8</desc>
  <desc
     id="element_electron_configuration">2,8,18,32,32,18,8</desc>
  <defs
     id="defs4107">
    <circle
       id="electron"
       fill="#77868b"
       stroke="none"
       r="30"
       cx="0"
       cy="0" />
  </defs>
  <path
     fill="#c0ffff"
     stroke="#000000"
     stroke-width="0.709"
     stroke-miterlimit="0"
     d="m -712.5,-750 a 37.5,37.5 0 1 1 -75,0 37.5,37.5 0 1 1 75,0 z"
     id="nucleus"
     style="display:inline;fill:#db1828;fill-opacity:1;stroke:none;stroke-width:0;stroke-dasharray:none" />
  <path
     id="orbit"
     style="display:inline;fill:none;fill-opacity:1;stroke:#77868b;stroke-width:0.6375;stroke-dasharray:none;stroke-opacity:1"
     d="m 3810.1263,1603.9283 a 25.75235,25.749649 0 1 1 -51.5047,0 25.76045,25.75775 0 1 1 51.5209,0 z m 12.0029,-2e-4 a 37.753815,37.692426 0 1 1 -75.5076,0 37.76575,37.704343 0 1 1 75.5315,0 z m 11.751,0.2712 a 49.755321,49.75802 0 1 1 -99.5106,0 49.77105,49.773753 0 1 1 99.5421,0 z m 12.168,-0.065 a 61.745756,61.756646 0 1 1 -123.4915,0 61.7653,61.776197 0 1 1 123.5306,0 z m 11.9911,-0.1594 a 73.702976,73.755271 0 1 1 -147.4059,0 73.726275,73.778591 0 1 1 147.4525,0 z m 11.825,0.2004 a 85.72665,85.720438 0 1 1 -171.4533,0 85.75375,85.74754 0 1 1 171.5075,0 z"
     transform="matrix(2.3529412,0,0,2.3529412,-9654.4355,-4524.035)" />
  <path
     id="56-Ba"
     style="display:inline;fill:#36a4ff;fill-opacity:1;stroke:none;stroke-width:0;stroke-dasharray:none;stroke-opacity:1"
     d="m -750.10865,-942.62174 a 9.412,9.412 0 1 1 0,-18.824 9.412,9.412 0 1 1 0,18.824 z m 0.0996,404.01574 a 9.412,9.412 0 1 1 0,-18.824 9.412,9.412 0 1 1 0,18.824 z m 0.036,-347.53433 a 9.412,9.412 0 1 1 0,-18.824 9.412,9.412 0 1 1 0,18.824 z m 0,291.37233 a 9.412,9.412 0 1 1 0,-18.824 9.412,9.412 0 1 1 0,18.824 z m -46.51328,-283.1933 a 9.412,9.412 0 1 1 -6.43781,-17.6828 9.412,9.412 0 1 1 6.43781,17.68515 z m 99.79073,274.17862 a 9.412,9.412 0 1 1 -6.43781,-17.68515 9.412,9.412 0 1 1 6.43781,17.68515 z m -140.84117,-250.3592 a 9.4129663,9.4129663 0 1 1 -12.10383,-14.41919 9.4129663,9.4129663 0 1 1 12.10383,14.41919 z m 187.54822,223.51147 a 9.4129663,9.4129663 0 1 1 -12.10383,-14.41919 9.4129663,9.4129663 0 1 1 12.10383,14.41919 z m -218.08074,-187.28233 a 9.412,9.412 0 1 1 -16.30159,-9.412 9.412,9.412 0 1 1 16.30159,9.412 z m 252.68161,145.886 a 9.412,9.412 0 1 1 -16.30159,-9.412 9.412,9.412 0 1 1 16.30159,9.412 z M -884.18259,-773.3281 a 9.4135399,9.4135399 0 1 1 -18.54164,-3.26596 9.4135399,9.4135399 0 1 1 18.54164,3.26596 z m 287.34366,50.6648 a 9.4133359,9.4133359 0 1 1 -18.54164,-3.26361 9.4135399,9.4135399 0 1 1 18.54164,3.26596 z m -287.44719,-3.20008 a 9.4135399,9.4135399 0 1 1 -18.54164,3.26596 9.4135399,9.4135399 0 1 1 18.54164,-3.26596 z m 287.33895,-50.6648 a 9.4135404,9.4135404 0 1 1 -18.54164,3.26597 9.4135404,9.4135404 0 1 1 18.54164,-3.26597 z m -271.12678,95.08944 a 9.412,9.412 0 1 1 -16.30158,9.412 9.412,9.412 0 1 1 16.30158,-9.412 z m 252.68396,-145.886 a 9.412,9.412 0 1 1 -16.30158,9.412 9.412,9.412 0 1 1 16.30158,-9.412 z m -222.17967,182.29397 a 9.4122083,9.4122083 0 1 1 -12.10148,14.41918 9.412,9.412 0 1 1 12.10383,-14.40036 z m 187.55057,-223.51147 a 9.4129647,9.4129647 0 1 1 -12.10383,14.41918 9.412,9.412 0 1 1 12.10383,-14.40036 z m -146.60837,247.15912 a 9.412,9.412 0 1 1 -6.43781,17.68279 9.412,9.412 0 1 1 6.43781,-17.68514 z m 99.79073,-274.17862 a 9.412,9.412 0 1 1 -6.43545,17.6875 9.412,9.412 0 1 1 6.4378,-17.68515 z m -53.18927,37.65741 a 9.412,9.412 0 1 1 0,-18.824 9.412,9.412 0 1 1 0,18.824 z m 0,234.90033 a 9.412,9.412 0 1 1 0,-18.824 9.412,9.412 0 1 1 0,18.824 z m -37.55182,-228.42252 a 9.412,9.412 0 1 1 -6.43781,-17.68515 9.4146542,9.4146542 0 1 1 6.43781,17.69456 z m 80.47731,221.11141 a 9.412,9.412 0 1 1 -6.43781,-17.6875 9.412,9.412 0 1 1 6.43781,17.68515 z M -820.13393,-832.5084 a 9.4147671,9.4147671 0 1 1 -12.10383,-14.42389 9.4147671,9.4147671 0 1 1 12.10383,14.42389 z m 151.25084,180.24686 a 9.4137212,9.4137212 0 1 1 -12.10618,-14.41918 9.4129647,9.4129647 0 1 1 12.10383,14.41918 z m -175.48203,-151.5332 a 9.412,9.412 0 1 1 -16.30159,-9.412 9.412,9.412 0 1 1 16.30159,9.412 z m 203.77686,117.65 a 9.412,9.412 0 1 1 -16.30159,-9.412 9.412,9.412 0 1 1 16.30159,9.412 z m -216.53483,-82.2797 a 9.4135404,9.4135404 0 1 1 -18.54164,-3.26597 9.4135404,9.4135404 0 1 1 18.54164,3.26597 z m 231.7305,40.85984 a 9.4135399,9.4135399 0 1 1 -18.54164,-3.26596 9.412,9.412 0 1 1 18.54164,3.24714 z m -231.83638,-3.20008 a 9.4135399,9.4135399 0 1 1 -18.54164,3.26596 9.4135399,9.4135399 0 1 1 18.54164,-3.26596 z m 231.72814,-40.86455 a 9.4139484,9.4139484 0 1 1 -18.54164,3.27067 9.4139484,9.4139484 0 1 1 18.54164,-3.27067 z m -218.869,76.07249 a 9.412,9.412 0 1 1 -16.29923,9.412 9.412,9.412 0 1 1 16.30158,-9.412 z m 203.77921,-117.65 a 9.412,9.412 0 1 1 -16.30158,9.412 9.412,9.412 0 1 1 16.30158,-9.412 z m -179.5739,146.54484 a 9.4147671,9.4147671 0 1 1 -12.10383,14.42389 9.4147671,9.4147671 0 1 1 12.10383,-14.42389 z m 151.25084,-180.25157 a 9.4137218,9.4137218 0 1 1 -12.10618,14.41919 9.4129663,9.4129663 0 1 1 12.10383,-14.41919 z m -118.80297,198.99792 a 9.412,9.412 0 1 1 -6.43781,17.68515 9.412,9.412 0 1 1 6.44722,-17.68515 z m 80.47966,-221.11141 a 9.412,9.412 0 1 1 -6.44016,17.6828 9.412,9.412 0 1 1 6.43781,-17.68515 z m -122.77954,119.05709 a 9.412,9.412 0 1 1 -18.824,0 9.412,9.412 0 1 1 18.824,0 z m 178.828,0 a 9.412,9.412 0 1 1 -18.824,0 9.412,9.412 0 1 1 18.824,0 z m -98.826,-80.002 a 9.412,9.412 0 1 1 0,-18.824 9.412,9.412 0 1 1 0,18.824 z m 0,178.828 a 9.412,9.412 0 1 1 0,-18.824 9.412,9.412 0 1 1 0,18.824 z m -56.632,-42.27164 a 9.412,9.412 0 1 1 -13.30857,13.30857 9.412,9.412 0 1 1 13.30857,-13.30857 z m 126.45022,-126.45022 a 9.412,9.412 0 1 1 -13.30857,13.30857 9.412,9.412 0 1 1 13.30857,-13.30857 z m -126.37493,13.26151 a 9.412,9.412 0 1 1 -13.30856,-13.30857 9.412,9.412 0 1 1 13.30856,13.30857 z m 126.45022,126.45022 a 9.412,9.412 0 1 1 -13.30856,-13.30857 9.412,9.412 0 1 1 13.30856,13.30857 z m -69.89351,-121.58422 a 9.412,9.412 0 1 1 0,-18.824 9.412,9.412 0 1 1 0,18.824 z m 0,122.356 a 9.412,9.412 0 1 1 0,-18.824 9.412,9.412 0 1 1 0,18.824 z m -0.009,-234.99176 a 9.412,9.412 0 1 1 0,-18.824 9.412,9.412 0 1 1 0,18.824 z M -750.024,-566.53 a 9.412,9.412 0 1 1 0,-18.824 9.412,9.412 0 1 1 0,18.824 z m 164.434,-183.434 a 9.412,9.412 0 1 1 18.824,0 9.412,9.412 0 1 1 -18.824,0 z m -347.944,0 a 9.412,9.412 0 1 1 18.824,0 9.412,9.412 0 1 1 -18.824,0 z m 300.05456,-116.15465 a 9.412,9.412 0 1 1 13.31092,-13.30857 9.412,9.412 0 1 1 -13.30857,13.30857 z m -246.24145,246.25792 a 9.4122426,9.4122426 0 1 1 13.31092,-13.31092 9.412,9.412 0 1 1 -13.30857,13.30857 z m 246.15674,-13.28269 a 9.412,9.412 0 1 1 13.30622,13.30857 9.412,9.412 0 1 1 -13.30857,-13.29445 z m -246.24186,-246.24145 a 9.412,9.412 0 1 1 13.30622,13.30857 9.412,9.412 0 1 1 -13.30857,-13.29445 z" />
</svg>
