<?xml version="1.0" encoding="UTF-8" standalone="no"?>
<svg
   version="1.1"
   preserveAspectRatio="xMidYMid"
   zoomAndPan="magnify"
   id="Electron shell Ununoctium"
   viewBox="-1000 -1000 500 500"
   width="500"
   height="500"
   xmlns="http://www.w3.org/2000/svg"
   xmlns:svg="http://www.w3.org/2000/svg"
   xmlns:rdf="http://www.w3.org/1999/02/22-rdf-syntax-ns#"
   xmlns:cc="http://creativecommons.org/ns#"
   xmlns:dc="http://purl.org/dc/elements/1.1/">
  <metadata
     id="metadata4245">
    <rdf:RDF>
      <cc:Work
         rdf:about="">
        <dc:format>image/svg+xml</dc:format>
        <dc:type
           rdf:resource="http://purl.org/dc/dcmitype/StillImage" />
      </cc:Work>
    </rdf:RDF>
  </metadata>
  <desc
     id="element_description">118 Uuo (Ununoctium) Legend_color:#e8e8e8</desc>
  <desc
     id="element_electron_configuration">2,8,18,32,32,18,8</desc>
  <defs
     id="defs4107">
    <circle
       id="electron"
       fill="#77868b"
       stroke="none"
       r="30"
       cx="0"
       cy="0" />
  </defs>
  <path
     fill="#c0ffff"
     stroke="#000000"
     stroke-width="0.709"
     stroke-miterlimit="0"
     d="m -712.5,-750 a 37.5,37.5 0 1 1 -75,0 37.5,37.5 0 1 1 75,0 z"
     id="nucleus"
     style="display:inline;fill:#db1828;fill-opacity:1;stroke:none;stroke-width:0;stroke-dasharray:none" />
  <path
     id="orbit"
     style="display:inline;fill:none;fill-opacity:1;stroke:#77868b;stroke-width:1.5;stroke-dasharray:none;stroke-opacity:1"
     d="m -689.43235,-750.08602 a 60.593765,60.58741 0 1 1 -121.18753,0 60.612825,60.606472 0 1 1 121.22565,0 z m 28.24212,-4.7e-4 a 88.832507,88.688062 0 1 1 -177.66495,0 88.86059,88.716103 0 1 1 177.72118,0 z m 27.64941,0.63812 a 117.07134,117.0777 0 1 1 -234.14259,0 117.10836,117.11472 0 1 1 234.21671,0 z m 28.63059,-0.15295 a 145.28413,145.30976 0 1 1 -290.56824,0 145.33012,145.35576 0 1 1 290.66024,0 z m 28.21435,-0.37505 a 173.41877,173.54182 0 1 1 -346.83742,0 173.47359,173.59669 0 1 1 346.94707,0 z m 27.82353,0.47153 a 201.70977,201.69515 0 1 1 -403.41953,0 201.77353,201.75892 0 1 1 403.54706,0 z" />
  <path
     id="67-Ho"
     style="display:inline;fill:#36a4ff;fill-opacity:1;stroke:none;stroke-width:0;stroke-dasharray:none;stroke-opacity:1"
     d="m -750.019,-886.14033 a 9.412,9.412 0 1 1 0,-18.824 9.412,9.412 0 1 1 0,18.824 z m -29.49468,3.17655 a 9.4121012,9.4121012 0 1 1 -4.04716,-18.38399 9.4201437,9.4201437 0 1 1 4.04716,18.40046 z m -27.9607,9.45906 a 9.412,9.412 0 1 1 -7.90608,-17.08278 9.412,9.412 0 1 1 7.90608,17.08278 z m -25.35122,15.10626 a 9.412,9.412 0 1 1 -11.38852,-14.9839 9.412,9.412 0 1 1 11.38852,14.9839 z m -21.4923,20.34875 a 9.412,9.412 0 1 1 -14.34389,-12.18854 9.412,9.412 0 1 1 14.34389,12.18854 z m -16.54159,24.47825 a 9.412,9.412 0 1 1 -16.62865,-8.81904 9.4123035,9.4123035 0 1 1 16.631,8.81904 z m -10.88263,27.37716 a 9.412,9.412 0 1 1 -18.13692,-5.03542 9.412,9.412 0 1 1 18.1181,5.03542 z m -4.73659,29.10661 a 9.412,9.412 0 1 1 -18.79576,-1.0165 9.412,9.412 0 1 1 18.79576,1.0165 z m 1.67769,29.53015 a 9.4137535,9.4137535 0 1 1 -18.57929,3.04713 9.4185873,9.4185873 0 1 1 18.5887,-3.04948 z m 7.74137,28.46189 a 9.4128158,9.4128158 0 1 1 -17.48985,6.96488 9.412,9.412 0 1 1 17.4875,-6.96488 z m 13.75799,26.01006 a 9.412,9.412 0 1 1 -15.57686,10.55791 9.412,9.412 0 1 1 15.57686,-10.56026 z m 19.17695,22.44762 a 9.412,9.412 0 1 1 -12.9415,13.66387 9.412,9.412 0 1 1 12.9415,-13.66622 z m 23.57706,17.87809 a 9.4128909,9.4128909 0 1 1 -9.70377,16.13217 9.4128909,9.4128909 0 1 1 9.70377,-16.13217 z m 26.75361,12.55091 a 9.412,9.412 0 1 1 -6.01662,17.83574 9.412,9.412 0 1 1 6.01427,-17.83574 z m 28.74896,6.22133 a 9.412,9.412 0 1 1 -2.03299,18.71105 9.412,9.412 0 1 1 2.03299,-18.71105 z m 29.56309,0.0871 a 9.412,9.412 0 1 1 2.03299,18.71105 9.412,9.412 0 1 1 -2.03299,-18.71105 z m 28.76307,-6.46134 a 9.412,9.412 0 1 1 6.01192,17.83574 9.412,9.412 0 1 1 -6.01427,-17.83574 z m 26.93715,-12.37678 a 9.412,9.412 0 1 1 9.70377,16.12982 9.4128909,9.4128909 0 1 1 -9.70377,-16.13217 z m 23.47588,-17.76515 a 9.412,9.412 0 1 1 12.9415,13.66622 9.412,9.412 0 1 1 -12.9415,-13.66622 z m 19.03577,-22.46409 a 9.412,9.412 0 1 1 15.57686,10.56497 9.412,9.412 0 1 1 -15.57686,-10.56497 z m 13.79564,-26.18183 a 9.412,9.412 0 1 1 17.48749,6.96488 9.412,9.412 0 1 1 -17.48749,-6.96488 z m 7.8049,-28.46189 a 9.4131824,9.4131824 0 1 1 18.57928,3.04008 9.412,9.412 0 1 1 -18.56517,-3.0589 z m 1.80475,-29.4925 a 9.412,9.412 0 1 1 18.79576,-1.0165 9.4121282,9.4121282 0 1 1 -18.79576,1.03532 z m -4.81659,-29.0972 a 9.412,9.412 0 1 1 18.13692,-5.03542 9.412,9.412 0 1 1 -18.13692,5.03542 z m -11.00028,-27.40539 a 9.4154848,9.4154848 0 1 1 16.63571,-8.82375 9.4154848,9.4154848 0 1 1 -16.63571,8.82375 z m -16.52276,-24.37002 a 9.412,9.412 0 1 1 14.34388,-12.18854 9.412,9.412 0 1 1 -14.34388,12.18854 z m -21.36995,-20.33698 a 9.412,9.412 0 1 1 11.38852,-14.9839 9.412,9.412 0 1 1 -11.38852,14.9839 z m -25.35593,-15.31803 a 9.412,9.412 0 1 1 7.90608,-17.08278 9.412,9.412 0 1 1 -7.90608,17.08278 z m -27.94658,-9.39788 a 9.412,9.412 0 1 1 4.04716,-18.38164 9.412,9.412 0 1 1 -4.04716,18.38164 z m -29.14661,-31.34432 a 9.412,9.412 0 1 1 0,-18.824 9.412,9.412 0 1 1 0,18.824 z m 0,347.84394 a 9.412,9.412 0 1 1 0,-18.824 9.412,9.412 0 1 1 0,18.824 z M -585.59,-749.964 a 9.412,9.412 0 1 1 18.824,0 9.412,9.412 0 1 1 -18.824,0 z m -347.944,0 a 9.412,9.412 0 1 1 18.824,0 9.412,9.412 0 1 1 -18.824,0 z m 300.05456,-116.15461 a 9.412,9.412 0 1 1 13.31092,-13.30857 9.412,9.412 0 1 1 -13.30857,13.30857 z m -246.24145,246.25792 a 9.4122426,9.4122426 0 1 1 13.31092,-13.31092 9.412,9.412 0 1 1 -13.30857,13.30857 z m 246.15674,-13.28269 a 9.412,9.412 0 1 1 13.30622,13.30857 9.412,9.412 0 1 1 -13.30857,-13.29445 z M -879.8056,-879.38487 a 9.412,9.412 0 1 1 13.30622,13.30857 9.412,9.412 0 1 1 -13.30857,-13.29445 z m 129.7976,-63.23687 a 9.412,9.412 0 1 1 0,-18.824 9.412,9.412 0 1 1 0,18.824 z m 0,404.01574 a 9.412,9.412 0 1 1 0,-18.824 9.412,9.412 0 1 1 0,18.824 z m -0.018,-319.29833 a 9.412,9.412 0 1 1 0,-18.824 9.412,9.412 0 1 1 0,18.824 z m 0,234.90033 a 9.412,9.412 0 1 1 0,-18.824 9.412,9.412 0 1 1 0,18.824 z m -37.55141,-228.42252 a 9.412,9.412 0 1 1 -6.43781,-17.68515 9.4146542,9.4146542 0 1 1 6.43781,17.69456 z m 80.47731,221.11141 a 9.412,9.412 0 1 1 -6.43781,-17.6875 9.412,9.412 0 1 1 6.43781,17.68515 z M -820.13352,-832.5084 a 9.4147671,9.4147671 0 1 1 -12.10383,-14.42389 9.4147671,9.4147671 0 1 1 12.10383,14.42389 z m 151.25084,180.24686 a 9.4137212,9.4137212 0 1 1 -12.10618,-14.41918 9.4129647,9.4129647 0 1 1 12.10383,14.41918 z m -175.48203,-151.5332 a 9.412,9.412 0 1 1 -16.30159,-9.412 9.412,9.412 0 1 1 16.30159,9.412 z m 203.77686,117.65 a 9.412,9.412 0 1 1 -16.30159,-9.412 9.412,9.412 0 1 1 16.30159,9.412 z m -216.53483,-82.2797 a 9.4135404,9.4135404 0 1 1 -18.54164,-3.26597 9.4135404,9.4135404 0 1 1 18.54164,3.26597 z m 231.7305,40.85984 a 9.4135399,9.4135399 0 1 1 -18.54164,-3.26596 9.412,9.412 0 1 1 18.54164,3.24714 z m -231.83638,-3.20008 a 9.4135399,9.4135399 0 1 1 -18.54164,3.26596 9.4135399,9.4135399 0 1 1 18.54164,-3.26596 z m 231.72814,-40.86455 a 9.4139484,9.4139484 0 1 1 -18.54164,3.27067 9.4139484,9.4139484 0 1 1 18.54164,-3.27067 z m -218.869,76.07249 a 9.412,9.412 0 1 1 -16.29923,9.412 9.412,9.412 0 1 1 16.30158,-9.412 z m 203.77921,-117.65 a 9.412,9.412 0 1 1 -16.30158,9.412 9.412,9.412 0 1 1 16.30158,-9.412 z m -179.5739,146.54484 a 9.4147671,9.4147671 0 1 1 -12.10383,14.42389 9.4147671,9.4147671 0 1 1 12.10383,-14.42389 z m 151.25084,-180.25156 a 9.4137212,9.4137212 0 1 1 -12.10618,14.41918 9.4129647,9.4129647 0 1 1 12.10383,-14.41918 z m -118.80297,198.99791 a 9.412,9.412 0 1 1 -6.43781,17.68515 9.412,9.412 0 1 1 6.44722,-17.68515 z m 80.47966,-221.11141 a 9.412,9.412 0 1 1 -6.44016,17.6828 9.412,9.412 0 1 1 6.43781,-17.68515 z m -122.77954,119.05709 a 9.412,9.412 0 1 1 -18.824,0 9.412,9.412 0 1 1 18.824,0 z m 178.828,0 a 9.412,9.412 0 1 1 -18.824,0 9.412,9.412 0 1 1 18.824,0 z m -98.826,-80.002 a 9.412,9.412 0 1 1 0,-18.824 9.412,9.412 0 1 1 0,18.824 z m 0,178.828 a 9.412,9.412 0 1 1 0,-18.824 9.412,9.412 0 1 1 0,18.824 z m -56.632,-42.27164 a 9.412,9.412 0 1 1 -13.30857,13.30857 9.412,9.412 0 1 1 13.30857,-13.30857 z m 126.45022,-126.45022 a 9.412,9.412 0 1 1 -13.30857,13.30857 9.412,9.412 0 1 1 13.30857,-13.30857 z m -126.37493,13.26151 a 9.412,9.412 0 1 1 -13.30856,-13.30857 9.412,9.412 0 1 1 13.30856,13.30857 z m 126.45022,126.45022 a 9.412,9.412 0 1 1 -13.30856,-13.30857 9.412,9.412 0 1 1 13.30856,13.30857 z m -69.89351,-121.58187 a 9.412,9.412 0 1 1 0,-18.824 9.412,9.412 0 1 1 0,18.824 z m 0,122.356 a 9.412,9.412 0 1 1 0,-18.824 9.412,9.412 0 1 1 0,18.824 z" />
</svg>
