<?xml version="1.0" encoding="UTF-8" standalone="no"?>
<svg
   version="1.1"
   preserveAspectRatio="xMidYMid"
   zoomAndPan="magnify"
   id="Electron shell Ununoctium"
   viewBox="-1000 -1000 500 500"
   width="500"
   height="500"
   xmlns="http://www.w3.org/2000/svg"
   xmlns:svg="http://www.w3.org/2000/svg"
   xmlns:rdf="http://www.w3.org/1999/02/22-rdf-syntax-ns#"
   xmlns:cc="http://creativecommons.org/ns#"
   xmlns:dc="http://purl.org/dc/elements/1.1/">
  <metadata
     id="metadata4245">
    <rdf:RDF>
      <cc:Work
         rdf:about="">
        <dc:format>image/svg+xml</dc:format>
        <dc:type
           rdf:resource="http://purl.org/dc/dcmitype/StillImage" />
      </cc:Work>
    </rdf:RDF>
  </metadata>
  <desc
     id="element_description">118 Uuo (Ununoctium) Legend_color:#e8e8e8</desc>
  <desc
     id="element_electron_configuration">2,8,18,32,32,18,8</desc>
  <defs
     id="defs4107">
    <circle
       id="electron"
       fill="#77868b"
       stroke="none"
       r="30"
       cx="0"
       cy="0" />
  </defs>
  <path
     fill="#c0ffff"
     stroke="#000000"
     stroke-width="0.709"
     stroke-miterlimit="0"
     d="m -712.5,-750 a 37.5,37.5 0 1 1 -75,0 37.5,37.5 0 1 1 75,0 z"
     id="nucleus"
     style="display:inline;fill:#db1828;fill-opacity:1;stroke:none;stroke-width:0;stroke-dasharray:none" />
  <path
     id="orbit"
     style="display:inline;fill:none;fill-opacity:1;stroke:#77868b;stroke-width:1.5;stroke-dasharray:none;stroke-opacity:1"
     d="m -689.43235,-750.08602 a 60.593765,60.58741 0 1 1 -121.18753,0 60.612825,60.606472 0 1 1 121.22565,0 z m 28.24212,-4.7e-4 a 88.832507,88.688062 0 1 1 -177.66495,0 88.86059,88.716103 0 1 1 177.72118,0 z m 27.64941,0.63812 a 117.07134,117.0777 0 1 1 -234.14259,0 117.10836,117.11472 0 1 1 234.21671,0 z m 28.63059,-0.15295 a 145.28413,145.30976 0 1 1 -290.56824,0 145.33012,145.35576 0 1 1 290.66024,0 z m 28.21435,-0.37505 a 173.41877,173.54182 0 1 1 -346.83742,0 173.47359,173.59669 0 1 1 346.94707,0 z" />
  <path
     id="40-Zr"
     style="display:inline;fill:#36a4ff;fill-opacity:1;stroke:none;stroke-width:0;stroke-dasharray:none;stroke-opacity:1"
     d="m -750.00939,-914.38339 a 9.412,9.412 0 1 1 0,-18.824 9.412,9.412 0 1 1 0,18.824 z m 0,347.84439 a 9.412,9.412 0 1 1 0,-18.824 9.412,9.412 0 1 1 0,18.824 z m 0.005,-291.37004 a 9.412,9.412 0 1 1 0,-18.824 9.412,9.412 0 1 1 0,18.824 z m 0,234.90004 a 9.412,9.412 0 1 1 0,-18.824 9.412,9.412 0 1 1 0,18.824 z m -37.43692,-228.42458 a 9.412,9.412 0 1 1 -6.4378,-17.68515 9.4146538,9.4146538 0 1 1 6.4378,17.69456 z m 80.4726,221.11141 a 9.412,9.412 0 1 1 -6.4378,-17.6875 9.412,9.412 0 1 1 6.4378,17.68515 z M -820.0182,-832.51546 a 9.4147671,9.4147671 0 1 1 -12.10383,-14.42389 9.4147671,9.4147671 0 1 1 12.10383,14.42389 z m 151.25084,180.24686 a 9.4129663,9.4129663 0 1 1 -12.10383,-14.41919 9.4129663,9.4129663 0 1 1 12.10383,14.41919 z m -175.47498,-151.5332 a 9.412,9.412 0 1 1 -16.30158,-9.412 9.412,9.412 0 1 1 16.30158,9.412 z m 203.7698,117.65 a 9.412,9.412 0 1 1 -16.30158,-9.412 9.412,9.412 0 1 1 16.30158,9.412 z m -216.52776,-82.27735 a 9.4135404,9.4135404 0 1 1 -18.54164,-3.26597 9.4135404,9.4135404 0 1 1 18.54164,3.26597 z m 231.72344,40.85749 a 9.4135404,9.4135404 0 1 1 -18.54164,-3.26597 9.412,9.412 0 1 1 18.54164,3.24714 z m -231.81756,-3.20008 a 9.4135399,9.4135399 0 1 1 -18.54164,3.26596 9.4135399,9.4135399 0 1 1 18.54164,-3.26596 z m 231.72344,-40.86455 a 9.4139484,9.4139484 0 1 1 -18.54164,3.27067 9.4139484,9.4139484 0 1 1 18.54164,-3.27067 z m -218.87606,76.07719 a 9.412,9.412 0 1 1 -16.30159,9.412 9.412,9.412 0 1 1 16.30159,-9.412 z m 203.79333,-117.6547 a 9.412,9.412 0 1 1 -16.30159,9.412 9.412,9.412 0 1 1 16.30159,-9.412 z m -179.58096,146.54484 a 9.4155249,9.4155249 0 1 1 -12.10619,14.42389 9.4147671,9.4147671 0 1 1 12.10383,-14.42389 z m 151.25084,-180.25157 a 9.413725,9.413725 0 1 1 -12.10619,14.41919 9.4129663,9.4129663 0 1 1 12.10383,-14.41919 z m -118.79827,198.99792 a 9.412,9.412 0 1 1 -6.4378,17.68515 9.412,9.412 0 1 1 6.4378,-17.68515 z m 80.4726,-221.11141 a 9.412,9.412 0 1 1 -6.4378,17.68279 9.412,9.412 0 1 1 6.4378,-17.68514 z m -122.8845,119.05709 a 9.412,9.412 0 1 1 -18.824,0 9.412,9.412 0 1 1 18.824,0 z m 178.828,0 a 9.412,9.412 0 1 1 -18.824,0 9.412,9.412 0 1 1 18.824,0 z m -98.826,-80.002 a 9.412,9.412 0 1 1 0,-18.824 9.412,9.412 0 1 1 0,18.824 z m 0,178.72793 a 9.412,9.412 0 1 1 0,-18.824 9.412,9.412 0 1 1 0,18.824 z m -56.53175,-42.17157 a 9.412,9.412 0 1 1 -13.30856,13.30857 9.412,9.412 0 1 1 13.30856,-13.30857 z m 126.45022,-126.45022 a 9.412,9.412 0 1 1 -13.30856,13.30857 9.412,9.412 0 1 1 13.30856,-13.30857 z m -126.37257,13.26386 a 9.412,9.412 0 1 1 -13.30856,-13.30857 9.412,9.412 0 1 1 13.29444,13.31798 z m 126.45022,126.45022 a 9.412,9.412 0 1 1 -13.30856,-13.30857 9.412,9.412 0 1 1 13.29444,13.31798 z M -749.992,-801.74293 a 9.412,9.412 0 1 1 0,-18.824 9.412,9.412 0 1 1 0,18.824 z m 0,122.25593 a 9.412,9.412 0 1 1 0,-18.824 9.412,9.412 0 1 1 0,18.824 z m 0.004,-206.66039 a 9.412,9.412 0 1 1 0,-18.824 9.412,9.412 0 1 1 0,18.824 z m 0.0163,291.37239 a 9.412,9.412 0 1 1 0,-18.824 9.412,9.412 0 1 1 0,18.824 z m -80.16671,-265.23056 a 9.4140133,9.4140133 0 1 1 -11.06852,-15.23097 9.4206762,9.4206762 0 1 1 11.06852,15.24744 z m 171.51017,236.04355 a 9.412,9.412 0 1 1 -11.06852,-15.22391 9.412,9.412 0 1 1 11.06852,15.22391 z M -879.7773,-791.87209 a 9.4129559,9.4129559 0 1 1 -17.90633,-5.81191 9.4129559,9.4129559 0 1 1 17.90633,5.81191 z m 277.48929,90.16696 a 9.4140462,9.4140462 0 1 1 -17.90633,-5.81897 9.4136826,9.4136826 0 1 1 17.90633,5.81661 z m -277.50576,-5.81191 a 9.412,9.412 0 1 1 -17.90163,5.81661 9.412,9.412 0 1 1 17.90163,-5.81661 z m 277.48929,-90.16226 a 9.412,9.412 0 1 1 -17.90163,5.81662 9.412,9.412 0 1 1 17.90163,-5.81662 z m -227.84805,158.49338 a 9.4140105,9.4140105 0 1 1 -11.06851,15.23097 9.4130599,9.4130598 0 1 1 11.06851,-15.22862 z m 171.51017,-236.0412 a 9.4130599,9.4130598 0 1 1 -11.06851,15.22862 9.4130599,9.4130598 0 1 1 11.06851,-15.22862 z" />
</svg>
