<?xml version="1.0" encoding="UTF-8" standalone="no"?>
<svg
   version="1.1"
   preserveAspectRatio="xMidYMid"
   zoomAndPan="magnify"
   id="Electron shell Ununoctium"
   viewBox="-1000 -1000 500 500"
   width="500"
   height="500"
   xmlns="http://www.w3.org/2000/svg"
   xmlns:svg="http://www.w3.org/2000/svg"
   xmlns:rdf="http://www.w3.org/1999/02/22-rdf-syntax-ns#"
   xmlns:cc="http://creativecommons.org/ns#"
   xmlns:dc="http://purl.org/dc/elements/1.1/">
  <metadata
     id="metadata4245">
    <rdf:RDF>
      <cc:Work
         rdf:about="">
        <dc:format>image/svg+xml</dc:format>
        <dc:type
           rdf:resource="http://purl.org/dc/dcmitype/StillImage" />
      </cc:Work>
    </rdf:RDF>
  </metadata>
  <desc
     id="element_description">118 Uuo (Ununoctium) Legend_color:#e8e8e8</desc>
  <desc
     id="element_electron_configuration">2,8,18,32,32,18,8</desc>
  <defs
     id="defs4107">
    <circle
       id="electron"
       fill="#77868b"
       stroke="none"
       r="30"
       cx="0"
       cy="0" />
  </defs>
  <path
     fill="#c0ffff"
     stroke="#000000"
     stroke-width="0.709"
     stroke-miterlimit="0"
     d="m -712.5,-750 a 37.5,37.5 0 1 1 -75,0 37.5,37.5 0 1 1 75,0 z"
     id="nucleus"
     style="display:inline;fill:#db1828;fill-opacity:1;stroke:none;stroke-width:0;stroke-dasharray:none" />
  <path
     id="orbit"
     style="display:inline;fill:none;fill-opacity:1;stroke:#77868b;stroke-width:1.5;stroke-dasharray:none;stroke-opacity:1"
     d="m -689.43235,-750.08602 a 60.593765,60.58741 0 1 1 -121.18753,0 60.612825,60.606472 0 1 1 121.22565,0 z m 28.24212,-4.7e-4 a 88.832507,88.688062 0 1 1 -177.66495,0 88.86059,88.716103 0 1 1 177.72118,0 z m 27.64941,0.63812 a 117.07134,117.0777 0 1 1 -234.14259,0 117.10836,117.11472 0 1 1 234.21671,0 z m 28.63059,-0.15295 a 145.28413,145.30976 0 1 1 -290.56824,0 145.33012,145.35576 0 1 1 290.66024,0 z m 28.21435,-0.37505 a 173.41877,173.54182 0 1 1 -346.83742,0 173.47359,173.59669 0 1 1 346.94707,0 z m 27.82353,0.47153 a 201.70977,201.69515 0 1 1 -403.41953,0 201.77353,201.75892 0 1 1 403.54706,0 z m 28.72235,-0.45789 a 229.92259,229.95351 0 1 1 -459.84518,0 229.99518,230.02612 0 1 1 459.99036,0 z" />
  <path
     id="98-Cf"
     style="display:inline;fill:#36a4ff;fill-opacity:1;stroke:none;stroke-width:0;stroke-dasharray:none;stroke-opacity:1"
     d="m -749.99059,-914.37633 a 9.412005,9.412005 0 1 1 0,-18.82401 9.412005,9.412005 0 1 1 0,18.82401 z m 0,347.84433 a 9.412,9.412 0 1 1 0,-18.824 9.412,9.412 0 1 1 0,18.824 z m -36.68327,-343.70306 a 9.4126177,9.4126177 0 1 1 -4.18834,-18.35339 9.4126177,9.4126177 0 1 1 4.18834,18.35339 z m 77.4937,339.50967 a 9.4126177,9.4126177 0 1 1 -4.18834,-18.3534 9.4126177,9.4126177 0 1 1 4.18834,18.3534 z m -112.25692,-327.28583 a 9.4148596,9.4148596 0 1 1 -8.16962,-16.96513 9.4148596,9.4148596 0 1 1 8.16962,16.96513 z m 151.09554,313.75373 a 9.4127402,9.4127402 0 1 1 -8.16961,-16.96043 9.4127402,9.4127402 0 1 1 8.16961,16.96043 z m -182.39985,-294.14147 a 9.4133026,9.4133026 0 1 1 -11.73677,-14.72037 9.412,9.412 0 1 1 11.73677,14.70625 z m 217.12307,272.26563 a 9.4123808,9.4123808 0 1 1 -11.73676,-14.71802 9.412,9.412 0 1 1 11.71794,14.72037 z m -243.1049,-246.1591 a 9.4142199,9.4142199 0 1 1 -14.72272,-11.73676 9.4133,9.4133 0 1 1 14.72037,11.73676 z m 272.26093,217.12778 a 9.4133,9.4133 0 1 1 -14.72037,-11.73676 9.412,9.412 0 1 1 14.72037,11.71794 z m -291.95554,-185.927 a 9.4127388,9.4127388 0 1 1 -16.96042,-8.16962 9.4127388,9.4127388 0 1 1 16.96042,8.16962 z m 313.75373,151.10025 a 9.4127424,9.4127424 0 1 1 -16.96043,-8.16962 9.4127424,9.4127424 0 1 1 16.96043,8.16962 z m -325.87638,-116.30409 a 9.4126177,9.4126177 0 1 1 -18.3534,-4.18834 9.4126177,9.4126177 0 1 1 18.3534,4.18834 z m 339.51437,77.49371 a 9.4126177,9.4126177 0 1 1 -18.3534,-4.18834 9.4126177,9.4126177 0 1 1 18.3534,4.18834 z m -339.5332,-4.18834 a 9.4126177,9.4126177 0 1 1 -18.3534,4.18834 9.4126177,9.4126177 0 1 1 18.3534,-4.18834 z m 339.51437,-77.48429 a 9.4126177,9.4126177 0 1 1 -18.3534,4.18834 9.4126177,9.4126177 0 1 1 18.3534,-4.18834 z m -327.29053,112.24986 a 9.4127424,9.4127424 0 1 1 -16.96043,8.16962 9.4168298,9.4168298 0 1 1 16.96043,-8.18844 z m 313.76078,-151.08613 a 9.412,9.412 0 1 1 -16.96042,8.16491 9.412,9.412 0 1 1 16.96042,-8.16491 z m -294.14853,182.3928 a 9.412567,9.412567 0 1 1 -14.72037,11.73441 9.4147678,9.4147678 0 1 1 14.72037,-11.74147 z m 272.27504,-217.12073 a 9.4133,9.4133 0 1 1 -14.72036,11.73677 9.4133,9.4133 0 1 1 14.72036,-11.73677 z m -246.17556,243.10491 a 9.4133,9.4133 0 1 1 -11.73677,14.72036 9.4169819,9.4169819 0 1 1 11.73677,-14.72978 z m 217.13484,-272.26563 a 9.4134866,9.4134866 0 1 1 -11.73441,14.72272 9.4133,9.4133 0 1 1 11.73676,-14.72037 z m -185.93877,291.96024 a 9.412,9.412 0 1 1 -8.16491,16.95807 9.412,9.412 0 1 1 8.16491,-16.96043 z m 151.10966,-313.75608 a 9.412,9.412 0 1 1 -8.16491,16.96042 9.412,9.412 0 1 1 8.16491,-16.96042 z m -116.31349,325.87638 a 9.4126177,9.4126177 0 1 1 -4.18834,18.3534 9.4126177,9.4126177 0 1 1 4.18834,-18.3534 z m 77.50782,-339.51437 a 9.4126177,9.4126177 0 1 1 -4.18834,18.3534 9.4126177,9.4126177 0 1 1 4.18834,-18.3534 z m 123.54268,178.66928 a 9.412,9.412 0 1 1 18.824,0 9.412,9.412 0 1 1 -18.824,0 z m -347.94359,0 a 9.412,9.412 0 1 1 18.824,0 9.412,9.412 0 1 1 -18.824,0 z M -750,-942.6241 a 9.412,9.412 0 1 1 0,-18.824 9.412,9.412 0 1 1 0,18.824 z m 0,404.0161 a 9.412,9.412 0 1 1 0,-18.824 9.412,9.412 0 1 1 0,18.824 z m 192.64559,-211.37 a 9.412,9.412 0 1 1 18.824,0 9.412,9.412 0 1 1 -18.824,0 z m -404.11559,0 a 9.412,9.412 0 1 1 18.824,0 9.412,9.412 0 1 1 -18.824,0 z m 347.96753,-136.11292 a 9.412,9.412 0 1 1 13.31092,-13.30857 9.412,9.412 0 1 1 -13.30857,13.30857 z m -286.17186,286.17186 a 9.412,9.412 0 1 1 13.31092,-13.30857 9.412,9.412 0 1 1 -13.30857,13.30857 z m 286.11068,-13.2568 a 9.412,9.412 0 1 1 13.30622,13.30856 9.412,9.412 0 1 1 -13.30857,-13.30856 z m -286.17186,-286.17186 a 9.412,9.412 0 1 1 13.30622,13.30856 9.412,9.412 0 1 1 -13.30857,-13.30856 z m 149.75051,-71.48885 a 9.412,9.412 0 1 1 0,-18.824 9.412,9.412 0 1 1 0,18.824 z m 0,460.48757 a 9.412,9.412 0 1 1 0,-18.824 9.412,9.412 0 1 1 0,18.824 z m -0.006,-375.79369 a 9.412,9.412 0 1 1 0,-18.824 9.412,9.412 0 1 1 0,18.824 z m 0,291.37169 a 9.412,9.412 0 1 1 0,-18.824 9.412,9.412 0 1 1 0,18.824 z m -26.73008,-288.73633 a 9.4126624,9.4126624 0 1 1 -3.67068,-18.46399 9.4138163,9.4138163 0 1 1 3.67068,18.46634 z m 56.91907,286.17186 a 9.4161242,9.4161242 0 1 1 -3.67068,-18.47105 9.4161242,9.4161242 0 1 1 3.67068,18.47105 z m -82.49618,-278.45872 a 9.4123889,9.4123889 0 1 1 -7.20018,-17.39338 9.4123889,9.4123889 0 1 1 7.20018,17.39338 z m 111.64985,269.55968 a 9.412,9.412 0 1 1 -7.20018,-17.38867 9.4134742,9.4134742 0 1 1 7.20018,17.39572 z m -135.18691,-256.92878 a 9.412,9.412 0 1 1 -10.45673,-15.64745 9.412,9.412 0 1 1 10.45673,15.64745 z m 162.09817,242.60136 a 9.412,9.412 0 1 1 -10.45673,-15.65216 9.4196983,9.4196983 0 1 1 10.45673,15.67098 z m -182.73398,-225.67153 a 9.412,9.412 0 1 1 -13.31092,-13.30856 9.412,9.412 0 1 1 13.30857,13.29445 z m 206.31104,206.31575 a 9.412,9.412 0 1 1 -13.31092,-13.30857 9.4139076,9.4139076 0 1 1 13.30857,13.31798 z m -223.26911,-185.57405 a 9.412,9.412 0 1 1 -15.64745,-10.45909 9.412,9.412 0 1 1 15.64745,10.45674 z m 242.5943,162.09817 a 9.412,9.412 0 1 1 -15.64745,-10.45673 9.412,9.412 0 1 1 15.64745,10.45673 z m -255.15461,-138.49758 a 9.4123889,9.4123889 0 1 1 -17.39338,-7.20018 9.4123889,9.4123889 0 1 1 17.39338,7.20018 z m 269.58321,111.65691 a 9.4123889,9.4123889 0 1 1 -17.39338,-7.20018 9.4123889,9.4123889 0 1 1 17.39338,7.20018 z m -277.35282,-86.00215 a 9.4161242,9.4161242 0 1 1 -18.47105,-3.67068 9.4161242,9.4161242 0 1 1 18.47105,3.67068 z m 286.17186,56.92377 a 9.4161242,9.4161242 0 1 1 -18.47105,-3.67068 9.4161242,9.4161242 0 1 1 18.47105,3.67068 z M -886.465,-749.96623 a 9.412,9.412 0 1 1 -18.824,0 9.412,9.412 0 1 1 18.824,0 z m 291.47159,0 a 9.412,9.412 0 1 1 -18.824,0 9.412,9.412 0 1 1 18.824,0 z m -288.82917,27.01821 a 9.4138163,9.4138163 0 1 1 -18.46634,3.67068 9.4138163,9.4138163 0 1 1 18.46634,-3.67068 z m 286.17186,-56.91907 a 9.4138163,9.4138163 0 1 1 -18.46634,3.67068 9.4138163,9.4138163 0 1 1 18.46634,-3.67068 z m -278.47049,82.51265 a 9.4123889,9.4123889 0 1 1 -17.39338,7.20018 9.4123889,9.4123889 0 1 1 17.39338,-7.20018 z m 269.55968,-111.65691 a 9.4123889,9.4123889 0 1 1 -17.39338,7.20018 9.4123889,9.4123889 0 1 1 17.39338,-7.20018 z m -256.92407,135.19397 a 9.412,9.412 0 1 1 -15.64745,10.45438 9.412,9.412 0 1 1 15.64745,-10.45673 z m 242.5943,-162.10288 a 9.412,9.412 0 1 1 -15.64745,10.45674 9.412,9.412 0 1 1 15.64745,-10.45674 z m -225.67152,182.73869 a 9.412,9.412 0 1 1 -13.30857,13.31092 9.412,9.412 0 1 1 13.30857,-13.30857 z m 206.33457,-206.31104 a 9.412,9.412 0 1 1 -13.30857,13.30621 9.412,9.412 0 1 1 13.30857,-13.30856 z m -185.57641,223.26676 a 9.4125242,9.4125242 0 1 1 -10.45908,15.65215 9.412,9.412 0 1 1 10.45673,-15.65215 z m 162.09817,-242.60136 a 9.4125245,9.4125245 0 1 1 -10.45908,15.65216 9.412,9.412 0 1 1 10.45673,-15.65216 z m -138.49758,255.15226 a 9.412,9.412 0 1 1 -7.20018,17.38867 9.412,9.412 0 1 1 7.20018,-17.38867 z m 111.64985,-269.56439 a 9.4123889,9.4123889 0 1 1 -7.20018,17.39338 9.4123889,9.4123889 0 1 1 7.20018,-17.39338 z m -86.00215,277.34341 a 9.4138163,9.4138163 0 1 1 -3.67068,18.46634 9.4138163,9.4138163 0 1 1 3.67068,-18.46634 z m 56.91907,-286.16716 a 9.4138193,9.4138193 0 1 1 -3.67068,18.46635 9.4138193,9.4138193 0 1 1 3.67068,-18.46635 z m -30.36511,44.1564 a 9.412,9.412 0 1 1 0,-18.824 9.412,9.412 0 1 1 0,18.824 z m 0,234.89969 a 9.412,9.412 0 1 1 0,-18.824 9.412,9.412 0 1 1 0,18.824 z m -37.55188,-228.42188 a 9.412,9.412 0 1 1 -6.43781,-17.68515 9.4146542,9.4146542 0 1 1 6.43781,17.69456 z m 80.47731,221.11141 a 9.412,9.412 0 1 1 -6.43781,-17.6875 9.412,9.412 0 1 1 6.43781,17.68515 z M -820.1104,-832.51076 a 9.4147671,9.4147671 0 1 1 -12.10383,-14.42389 9.4147671,9.4147671 0 1 1 12.10383,14.42389 z m 151.25084,180.24686 a 9.4137212,9.4137212 0 1 1 -12.10618,-14.41918 9.4129647,9.4129647 0 1 1 12.10383,14.41918 z m -175.48203,-151.5332 a 9.412,9.412 0 1 1 -16.30159,-9.412 9.412,9.412 0 1 1 16.30159,9.412 z m 203.77686,117.65 a 9.412,9.412 0 1 1 -16.30159,-9.412 9.412,9.412 0 1 1 16.30159,9.412 z m -216.53483,-82.2797 a 9.4135404,9.4135404 0 1 1 -18.54164,-3.26597 9.4135404,9.4135404 0 1 1 18.54164,3.26597 z m 231.7305,40.85984 a 9.4135399,9.4135399 0 1 1 -18.54164,-3.26596 9.412,9.412 0 1 1 18.54164,3.24714 z m -231.83638,-3.20008 a 9.4135404,9.4135404 0 1 1 -18.54164,3.26597 9.4135404,9.4135404 0 1 1 18.54164,-3.26597 z m 231.72814,-40.86455 a 9.4139484,9.4139484 0 1 1 -18.54164,3.27067 9.4139484,9.4139484 0 1 1 18.54164,-3.27067 z m -218.869,76.07249 a 9.412,9.412 0 1 1 -16.29923,9.412 9.412,9.412 0 1 1 16.30159,-9.412 z m 203.77921,-117.65 a 9.412,9.412 0 1 1 -16.30158,9.412 9.412,9.412 0 1 1 16.30158,-9.412 z m -179.5739,146.54484 a 9.4147671,9.4147671 0 1 1 -12.10383,14.42389 9.4147671,9.4147671 0 1 1 12.10383,-14.42389 z m 151.25084,-180.25156 a 9.4137212,9.4137212 0 1 1 -12.10618,14.41918 9.4129647,9.4129647 0 1 1 12.10383,-14.41918 z m -118.80297,198.99791 a 9.412,9.412 0 1 1 -6.4378,17.68515 9.412,9.412 0 1 1 6.44722,-17.68515 z m 80.47966,-221.11141 a 9.412,9.412 0 1 1 -6.44016,17.6828 9.412,9.412 0 1 1 6.43781,-17.68515 z M -829.993,-749.97223 a 9.412,9.412 0 1 1 -18.824,0 9.412,9.412 0 1 1 18.824,0 z m 178.828,0 a 9.412,9.412 0 1 1 -18.824,0 9.412,9.412 0 1 1 18.824,0 z m -98.826,-80.00199 a 9.412005,9.412005 0 1 1 0,-18.82401 9.412005,9.412005 0 1 1 0,18.82401 z m 0,178.82799 a 9.412,9.412 0 1 1 0,-18.824 9.412,9.412 0 1 1 0,18.824 z m -56.632,-42.27164 a 9.412,9.412 0 1 1 -13.30857,13.30857 9.412,9.412 0 1 1 13.30857,-13.30857 z m 126.45022,-126.45022 a 9.412,9.412 0 1 1 -13.30857,13.30857 9.412,9.412 0 1 1 13.30857,-13.30857 z m -126.37493,13.26151 a 9.412,9.412 0 1 1 -13.30856,-13.30857 9.412,9.412 0 1 1 13.30856,13.30857 z m 126.45022,126.45022 a 9.412,9.412 0 1 1 -13.30856,-13.30857 9.412,9.412 0 1 1 13.30856,13.30857 z M -749.991,-801.73823 a 9.412,9.412 0 1 1 0,-18.824 9.412,9.412 0 1 1 0,18.824 z m 0,122.356 a 9.412,9.412 0 1 1 0,-18.824 9.412,9.412 0 1 1 0,18.824 z" />
</svg>
