<?xml version="1.0" encoding="UTF-8" standalone="no"?>
<svg
   version="1.1"
   preserveAspectRatio="xMidYMid"
   zoomAndPan="magnify"
   id="Electron shell Ununoctium"
   viewBox="-1000 -1000 500 500"
   width="500"
   height="500"
   xmlns="http://www.w3.org/2000/svg"
   xmlns:svg="http://www.w3.org/2000/svg"
   xmlns:rdf="http://www.w3.org/1999/02/22-rdf-syntax-ns#"
   xmlns:cc="http://creativecommons.org/ns#"
   xmlns:dc="http://purl.org/dc/elements/1.1/">
  <metadata
     id="metadata4245">
    <rdf:RDF>
      <cc:Work
         rdf:about="">
        <dc:format>image/svg+xml</dc:format>
        <dc:type
           rdf:resource="http://purl.org/dc/dcmitype/StillImage" />
      </cc:Work>
    </rdf:RDF>
  </metadata>
  <desc
     id="element_description">118 Uuo (Ununoctium) Legend_color:#e8e8e8</desc>
  <desc
     id="element_electron_configuration">2,8,18,32,32,18,8</desc>
  <defs
     id="defs4107">
    <circle
       id="electron"
       fill="#77868b"
       stroke="none"
       r="30"
       cx="0"
       cy="0" />
  </defs>
  <path
     fill="#c0ffff"
     stroke="#000000"
     stroke-width="0.709"
     stroke-miterlimit="0"
     d="m -712.5,-750 a 37.5,37.5 0 1 1 -75,0 37.5,37.5 0 1 1 75,0 z"
     id="nucleus"
     style="display:inline;fill:#db1828;fill-opacity:1;stroke:none;stroke-width:0;stroke-dasharray:none" />
  <path
     id="orbit"
     style="display:inline;fill:none;fill-opacity:1;stroke:#77868b;stroke-width:1.5;stroke-dasharray:none;stroke-opacity:1"
     d="m -689.43235,-750.08602 a 60.593765,60.58741 0 1 1 -121.18753,0 60.612825,60.606472 0 1 1 121.22565,0 z m 28.24212,-4.7e-4 a 88.832507,88.688062 0 1 1 -177.66495,0 88.86059,88.716103 0 1 1 177.72118,0 z m 27.64941,0.63812 a 117.07134,117.0777 0 1 1 -234.14259,0 117.10836,117.11472 0 1 1 234.21671,0 z m 28.63059,-0.15295 a 145.28413,145.30976 0 1 1 -290.56824,0 145.33012,145.35576 0 1 1 290.66024,0 z m 28.21435,-0.37505 a 173.41877,173.54182 0 1 1 -346.83742,0 173.47359,173.59669 0 1 1 346.94707,0 z m 27.82353,0.47153 a 201.70977,201.69515 0 1 1 -403.41953,0 201.77353,201.75892 0 1 1 403.54706,0 z m 28.72235,-0.45789 a 229.92259,229.95351 0 1 1 -459.84518,0 229.99518,230.02612 0 1 1 459.99036,0 z" />
  <path
     id="90-Th"
     style="display:inline;fill:#36a4ff;fill-opacity:1;stroke:none;stroke-width:0;stroke-dasharray:none;stroke-opacity:1"
     d="m -750.018,-970.83657 a 9.412,9.412 0 1 1 0,-18.824 9.412,9.412 0 1 1 0,18.824 z m 0,460.48757 a 9.412,9.412 0 1 1 0,-18.824 9.412,9.412 0 1 1 0,18.824 z m 0.01,-432.2751 a 9.412,9.412 0 1 1 0,-18.824 9.412,9.412 0 1 1 0,18.824 z m 0,404.1161 a 9.412,9.412 0 1 1 0,-18.824 9.412,9.412 0 1 1 0,18.824 z m -112.8208,-367.19047 a 9.4130598,9.4130598 0 1 1 -11.06851,-15.22862 9.4248225,9.4248225 0 1 1 11.08263,15.24744 z m 237.8883,327.41995 a 9.4137536,9.4137536 0 1 1 -11.07087,-15.22862 9.4206762,9.4206762 0 1 1 11.06852,15.24744 z m -308.043,-231.04813 a 9.412,9.412 0 1 1 -17.89927,-5.81662 9.412,9.412 0 1 1 17.90163,5.81662 z m 384.9108,125.06195 a 9.412,9.412 0 1 1 -17.90162,-5.81662 9.412,9.412 0 1 1 17.90162,5.81662 z m -384.92256,-5.8072 a 9.412,9.412 0 1 1 -17.90162,5.81661 9.412,9.412 0 1 1 17.90162,-5.81661 z m 384.90845,-125.06195 a 9.412,9.412 0 1 1 -17.90163,5.81661 9.412,9.412 0 1 1 17.8828,-5.81661 z m -314.75376,221.63612 a 9.4130598,9.4130598 0 1 1 -11.06851,15.22862 9.4130598,9.4130598 0 1 1 11.06851,-15.22862 z m 237.8883,-327.41995 a 9.4137507,9.4137507 0 1 1 -11.07086,15.22862 9.4130598,9.4130598 0 1 1 11.06851,-15.22862 z m -182.16455,16.41689 a 9.412,9.412 0 1 1 -6.43781,-17.68515 9.412,9.412 0 1 1 6.43781,17.68515 z m 119.10415,327.25053 a 9.412,9.412 0 1 1 -6.43545,-17.6875 9.412,9.412 0 1 1 6.43781,17.68515 z m -168.64656,-298.52982 a 9.4129657,9.4129657 0 1 1 -12.10384,-14.41918 9.4129657,9.4129657 0 1 1 12.10384,14.41918 z m 223.84794,266.77844 a 9.4129663,9.4129663 0 1 1 -12.10383,-14.41919 9.4129663,9.4129663 0 1 1 12.10383,14.41919 z m -260.68416,-223.03617 a 9.412,9.412 0 1 1 -16.30158,-9.412 9.412,9.412 0 1 1 16.30158,9.412 z m 301.58401,174.12671 a 9.412,9.412 0 1 1 -16.29923,-9.412 9.412,9.412 0 1 1 16.30158,9.412 z m -321.04803,-120.32771 a 9.4135404,9.4135404 0 1 1 -18.54164,-3.26597 9.4135404,9.4135404 0 1 1 18.54164,3.26597 z m 342.95446,60.4721 a 9.4135404,9.4135404 0 1 1 -18.54164,-3.26597 9.4135404,9.4135404 0 1 1 18.54164,3.26597 z m -343.06269,-3.20479 a 9.4135399,9.4135399 0 1 1 -18.54164,3.26596 9.4135399,9.4135399 0 1 1 18.54164,-3.26596 z m 342.95445,-60.4721 a 9.4135399,9.4135399 0 1 1 -18.54164,3.26596 9.4135399,9.4135399 0 1 1 18.54164,-3.26596 z m -323.38691,114.1205 a 9.412,9.412 0 1 1 -16.29923,9.412 9.412,9.412 0 1 1 16.30159,-9.412 z m 301.58872,-174.122 a 9.412,9.412 0 1 1 -16.30158,9.412 9.412,9.412 0 1 1 16.30158,-9.412 z m -264.77838,218.03839 a 9.4129696,9.4129696 0 1 1 -12.10384,14.41919 9.4129696,9.4129696 0 1 1 12.10384,-14.41919 z m 223.84559,-266.78314 a 9.4129663,9.4129663 0 1 1 -12.10383,14.41919 9.4129663,9.4129663 0 1 1 12.10383,-14.41919 z m -174.41142,295.32503 a 9.412,9.412 0 1 1 -6.4378,17.6875 9.412,9.412 0 1 1 6.4378,-17.67103 z m 119.1018,-327.23171 a 9.412,9.412 0 1 1 -6.43545,17.6875 9.412,9.412 0 1 1 6.43781,-17.67103 z m -61.84406,35.95384 a 9.412,9.412 0 1 1 0,-18.824 9.412,9.412 0 1 1 0,18.824 z m 0,291.37169 a 9.412,9.412 0 1 1 0,-18.824 9.412,9.412 0 1 1 0,18.824 z m -26.69933,-288.73633 a 9.4126624,9.4126624 0 1 1 -3.67068,-18.46399 9.4138163,9.4138163 0 1 1 3.67068,18.46634 z m 56.91907,286.17186 a 9.4161242,9.4161242 0 1 1 -3.67068,-18.47105 9.4161242,9.4161242 0 1 1 3.67068,18.47105 z m -82.49147,-278.45872 a 9.4123889,9.4123889 0 1 1 -7.20018,-17.39338 9.4123889,9.4123889 0 1 1 7.20018,17.39338 z m 111.64985,269.55968 a 9.412,9.412 0 1 1 -7.20018,-17.38867 9.4134742,9.4134742 0 1 1 7.20018,17.39572 z m -135.18926,-256.92878 a 9.412,9.412 0 1 1 -10.45673,-15.64745 9.412,9.412 0 1 1 10.45673,15.64745 z m 162.09817,242.60136 a 9.412,9.412 0 1 1 -10.45673,-15.65216 9.4196983,9.4196983 0 1 1 10.45673,15.67098 z m -182.73398,-225.67153 a 9.412,9.412 0 1 1 -13.31092,-13.30856 9.412,9.412 0 1 1 13.31798,13.29445 z m 206.31104,206.31575 a 9.412,9.412 0 1 1 -13.31092,-13.30857 9.417234,9.417234 0 1 1 13.31798,13.31798 z m -223.26676,-185.57405 a 9.4125272,9.4125272 0 1 1 -15.65216,-10.45909 9.412,9.412 0 1 1 15.65216,10.45674 z m 242.5943,162.09817 a 9.412,9.412 0 1 1 -15.65216,-10.45673 9.412,9.412 0 1 1 15.65216,10.45673 z M -875.9656,-801.89117 a 9.412,9.412 0 1 1 -17.38867,-7.20018 9.4134746,9.4134746 0 1 1 17.39573,7.20018 z m 269.58321,111.65691 a 9.412,9.412 0 1 1 -17.38867,-7.20018 9.4134746,9.4134746 0 1 1 17.39573,7.20018 z m -277.35282,-86.00215 a 9.4138163,9.4138163 0 1 1 -18.46634,-3.67068 9.4138163,9.4138163 0 1 1 18.46634,3.67068 z m 286.17186,56.92377 a 9.4138163,9.4138163 0 1 1 -18.46634,-3.67068 9.4138163,9.4138163 0 1 1 18.46634,3.67068 z M -886.476,-749.966 a 9.412,9.412 0 1 1 -18.824,0 9.412,9.412 0 1 1 18.824,0 z m 291.472,0 a 9.412,9.412 0 1 1 -18.824,0 9.412,9.412 0 1 1 18.824,0 z m -288.79247,27.01798 a 9.4138193,9.4138193 0 1 1 -18.46635,3.67068 9.4138193,9.4138193 0 1 1 18.46635,-3.67068 z m 286.17186,-56.91907 a 9.4138193,9.4138193 0 1 1 -18.46635,3.67068 9.4138193,9.4138193 0 1 1 18.46635,-3.67068 z m -278.47049,82.51265 a 9.4123889,9.4123889 0 1 1 -17.39338,7.20018 9.4123889,9.4123889 0 1 1 17.39338,-7.20018 z m 269.55968,-111.65691 a 9.4123889,9.4123889 0 1 1 -17.39338,7.20018 9.4123889,9.4123889 0 1 1 17.39338,-7.20018 z m -256.92407,135.19397 a 9.412,9.412 0 1 1 -15.64745,10.45438 9.412,9.412 0 1 1 15.64745,-10.45673 z m 242.5943,-162.10288 a 9.412,9.412 0 1 1 -15.64745,10.45674 9.412,9.412 0 1 1 15.64745,-10.45674 z m -225.66918,182.73869 a 9.4122426,9.4122426 0 1 1 -13.31092,13.31092 9.412,9.412 0 1 1 13.30857,-13.30857 z m 206.33457,-206.31104 a 9.412,9.412 0 1 1 -13.31092,13.30621 9.412,9.412 0 1 1 13.30857,-13.30856 z m -185.58111,223.26676 a 9.412,9.412 0 1 1 -10.45673,15.65215 9.412,9.412 0 1 1 10.45673,-15.65215 z m 162.09817,-242.60136 a 9.412,9.412 0 1 1 -10.45673,15.65215 9.412,9.412 0 1 1 10.45673,-15.65215 z m -138.49758,255.15226 a 9.412,9.412 0 1 1 -7.20018,17.38867 9.412,9.412 0 1 1 7.20018,-17.38867 z m 111.64985,-269.56439 a 9.4123889,9.4123889 0 1 1 -7.20018,17.39338 9.4123889,9.4123889 0 1 1 7.20018,-17.39338 z m -85.99744,277.34341 a 9.4138163,9.4138163 0 1 1 -3.67068,18.46634 9.4138163,9.4138163 0 1 1 3.67068,-18.46634 z m 56.91907,-286.16716 a 9.4138193,9.4138193 0 1 1 -3.67068,18.46635 9.4138193,9.4138193 0 1 1 3.67068,-18.46635 z m -30.40016,44.1564 a 9.412,9.412 0 1 1 0,-18.824 9.412,9.412 0 1 1 0,18.824 z m 0,234.89969 a 9.412,9.412 0 1 1 0,-18.824 9.412,9.412 0 1 1 0,18.824 z m -37.51918,-228.42188 a 9.412,9.412 0 1 1 -6.43781,-17.68515 9.4162639,9.4162639 0 1 1 6.44722,17.69456 z m 80.47965,221.11141 a 9.412,9.412 0 1 1 -6.44016,-17.6875 9.412,9.412 0 1 1 6.43781,17.68515 z m -113.03812,-202.19329 a 9.4140109,9.4140109 0 1 1 -12.10147,-14.42389 9.4147671,9.4147671 0 1 1 12.10383,14.42389 z m 151.25084,180.24686 a 9.4129647,9.4129647 0 1 1 -12.10383,-14.41918 9.4129647,9.4129647 0 1 1 12.10383,14.41918 z m -175.47968,-151.5332 a 9.412,9.412 0 1 1 -16.30158,-9.412 9.412,9.412 0 1 1 16.30158,9.412 z m 203.77686,117.65 a 9.412,9.412 0 1 1 -16.30158,-9.412 9.412,9.412 0 1 1 16.30158,9.412 z m -216.53247,-82.2797 a 9.4135404,9.4135404 0 1 1 -18.54164,-3.26597 9.4135404,9.4135404 0 1 1 18.54164,3.26597 z m 231.72815,40.85984 a 9.4135399,9.4135399 0 1 1 -18.54164,-3.26596 9.412,9.412 0 1 1 18.54164,3.24714 z m -231.83639,-3.20008 a 9.4135404,9.4135404 0 1 1 -18.54164,3.26597 9.4135404,9.4135404 0 1 1 18.54164,-3.26597 z m 231.72815,-40.86455 a 9.4139484,9.4139484 0 1 1 -18.54164,3.27067 9.4139484,9.4139484 0 1 1 18.54164,-3.27067 z m -218.86665,76.07249 a 9.412,9.412 0 1 1 -16.30158,9.412 9.412,9.412 0 1 1 16.30158,-9.412 z m 203.77686,-117.65 a 9.412,9.412 0 1 1 -16.30158,9.412 9.412,9.412 0 1 1 16.30158,-9.412 z m -179.5739,146.54484 a 9.4147671,9.4147671 0 1 1 -12.10383,14.42389 9.4147671,9.4147671 0 1 1 12.10383,-14.42389 z m 151.25084,-180.25157 a 9.413725,9.413725 0 1 1 -12.10619,14.41919 9.4129696,9.4129696 0 1 1 12.10384,-14.41919 z m -118.80297,198.99792 a 9.412,9.412 0 1 1 -6.43781,17.68515 9.412,9.412 0 1 1 6.43781,-17.68515 z m 80.4773,-221.11141 a 9.412,9.412 0 1 1 -6.4378,17.6828 9.412,9.412 0 1 1 6.4378,-17.68515 z M -830.004,-749.97223 a 9.412,9.412 0 1 1 -18.824,0 9.412,9.412 0 1 1 18.824,0 z m 178.828,0 a 9.412,9.412 0 1 1 -18.824,0 9.412,9.412 0 1 1 18.824,0 z m -98.826,-80.002 a 9.412,9.412 0 1 1 0,-18.824 9.412,9.412 0 1 1 0,18.824 z m -56.5949,136.55636 a 9.412,9.412 0 1 1 -13.30856,13.30857 9.412,9.412 0 1 1 13.30856,-13.30857 z m 126.45022,-126.45022 a 9.412,9.412 0 1 1 -13.30856,13.30857 9.412,9.412 0 1 1 13.30856,-13.30857 z m -126.37492,13.26151 a 9.412,9.412 0 1 1 -13.30857,-13.30857 9.412,9.412 0 1 1 13.29445,13.30857 z m 126.45022,126.45022 a 9.412,9.412 0 1 1 -13.30857,-13.30857 9.412,9.412 0 1 1 13.29445,13.30857 z M -750.002,-801.73823 a 9.412,9.412 0 1 1 0,-18.824 9.412,9.412 0 1 1 0,18.824 z m 0.017,-112.64516 a 9.412,9.412 0 1 1 0,-18.824 9.412,9.412 0 1 1 0,18.824 z m -0.017,263.23739 a 9.412,9.412 0 1 1 0,-18.824 9.412,9.412 0 1 1 0,18.824 z m 0,-28.23623 a 9.412,9.412 0 1 1 0,-18.824 9.412,9.412 0 1 1 0,18.824 z m 0.017,112.93823 a 9.412,9.412 0 1 1 0,-18.824 9.412,9.412 0 1 1 0,18.824 z" />
</svg>
