<?xml version="1.0" encoding="UTF-8" standalone="no"?>
<svg
   version="1.1"
   preserveAspectRatio="xMidYMid"
   zoomAndPan="magnify"
   id="Electron shell Ununoctium"
   viewBox="-1000 -1000 500 500"
   width="500"
   height="500"
   xmlns="http://www.w3.org/2000/svg"
   xmlns:svg="http://www.w3.org/2000/svg"
   xmlns:rdf="http://www.w3.org/1999/02/22-rdf-syntax-ns#"
   xmlns:cc="http://creativecommons.org/ns#"
   xmlns:dc="http://purl.org/dc/elements/1.1/">
  <metadata
     id="metadata4245">
    <rdf:RDF>
      <cc:Work
         rdf:about="">
        <dc:format>image/svg+xml</dc:format>
        <dc:type
           rdf:resource="http://purl.org/dc/dcmitype/StillImage" />
      </cc:Work>
    </rdf:RDF>
  </metadata>
  <desc
     id="element_description">118 Uuo (Ununoctium) Legend_color:#e8e8e8</desc>
  <desc
     id="element_electron_configuration">2,8,18,32,32,18,8</desc>
  <defs
     id="defs4107">
    <circle
       id="electron"
       fill="#77868b"
       stroke="none"
       r="30"
       cx="0"
       cy="0" />
  </defs>
  <path
     fill="#c0ffff"
     stroke="#000000"
     stroke-width="0.709"
     stroke-miterlimit="0"
     d="m -712.5,-750 a 37.5,37.5 0 1 1 -75,0 37.5,37.5 0 1 1 75,0 z"
     id="nucleus"
     style="display:inline;fill:#db1828;fill-opacity:1;stroke:none;stroke-width:0;stroke-dasharray:none" />
  <path
     id="orbit"
     style="display:inline;fill:none;fill-opacity:1;stroke:#77868b;stroke-width:1.5;stroke-dasharray:none;stroke-opacity:1"
     d="m -689.43235,-750.08602 a 60.593765,60.58741 0 1 1 -121.18753,0 60.612825,60.606472 0 1 1 121.22565,0 z m 28.24212,-4.7e-4 a 88.832507,88.688062 0 1 1 -177.66495,0 88.86059,88.716103 0 1 1 177.72118,0 z m 27.64941,0.63812 a 117.07134,117.0777 0 1 1 -234.14259,0 117.10836,117.11472 0 1 1 234.21671,0 z m 28.63059,-0.15295 a 145.28413,145.30976 0 1 1 -290.56824,0 145.33012,145.35576 0 1 1 290.66024,0 z" />
  <path
     id="24-Cr"
     style="display:inline;fill:#36a4ff;fill-opacity:1;stroke:none;stroke-width:0;stroke-dasharray:none;stroke-opacity:1"
     d="m -749.93233,-886.14497 a 9.412015,9.412015 0 1 1 0,-18.82403 9.412015,9.412015 0 1 1 0,18.82403 z m -0.11267,28.236 a 9.412,9.412 0 1 1 0,-18.824 9.412,9.412 0 1 1 0,18.824 z m -50.52389,12.48502 a 9.4135811,9.4135811 0 1 1 -8.75316,-16.66866 9.4135811,9.4135811 0 1 1 8.75316,16.66866 z m -38.87156,34.27615 a 9.4127515,9.4127515 0 1 1 -15.49451,-10.69204 9.412,9.412 0 1 1 15.49216,10.68262 z m -18.16516,48.53062 a 9.4129453,9.4129453 0 1 1 -18.68988,-2.25888 9.4141128,9.4141128 0 1 1 18.69223,2.25888 z m 6.17192,51.46952 a 9.4131765,9.4131765 0 1 1 -17.60044,6.68252 9.4131765,9.4131765 0 1 1 17.60044,-6.68252 z m 29.45956,42.48577 a 9.412,9.412 0 1 1 -12.4709,14.09918 9.412,9.412 0 1 1 12.4709,-14.09918 z m 45.82938,24.12296 a 9.412,9.412 0 1 1 -4.48717,18.27575 9.412,9.412 0 1 1 4.48952,-18.27811 z m 76.11955,-201.00032 a 9.4135776,9.4135776 0 1 1 8.75316,-16.66865 9.4135776,9.4135776 0 1 1 -8.75316,16.66865 z m 38.83156,34.48792 a 9.412,9.412 0 1 1 15.49215,-10.69203 9.412,9.412 0 1 1 -15.49215,10.69203 z m 18.38163,48.25062 a 9.4141167,9.4141167 0 1 1 18.69224,-2.25888 9.4211208,9.4211208 0 1 1 -18.70635,2.25888 z m -6.33427,51.52364 a 9.4131765,9.4131765 0 1 1 17.60044,6.68252 9.4131765,9.4131765 0 1 1 -17.60044,-6.68252 z m -29.34191,42.70695 a 9.412,9.412 0 1 1 12.4709,14.09447 9.412,9.412 0 1 1 -12.4709,-14.09447 z m -45.98468,24.05472 a 9.412,9.412 0 1 1 4.48717,18.27575 9.412,9.412 0 1 1 -4.48952,-18.27811 z m -105.46146,-105.46146 a 9.412,9.412 0 1 1 -18.824,0 9.412,9.412 0 1 1 18.824,0 z m 178.828,0 a 9.412,9.412 0 1 1 -18.824,0 9.412,9.412 0 1 1 18.824,0 z m -98.826,-80.002 a 9.412,9.412 0 1 1 0,-18.824 9.412,9.412 0 1 1 0,18.824 z m 0,178.828 a 9.412,9.412 0 1 1 0,-18.824 9.412,9.412 0 1 1 0,18.824 z m -56.63201,-42.27165 a 9.412,9.412 0 1 1 -13.30856,13.30857 9.412,9.412 0 1 1 13.30856,-13.29445 z m 126.45022,-126.45022 a 9.412,9.412 0 1 1 -13.30856,13.30857 9.412,9.412 0 1 1 13.30856,-13.29445 z m -126.37257,13.26386 a 9.412,9.412 0 1 1 -13.30856,-13.30856 9.412,9.412 0 1 1 13.29445,13.30856 z m 126.45022,126.45022 a 9.412,9.412 0 1 1 -13.30856,-13.30856 9.412,9.412 0 1 1 13.29445,13.30856 z m -69.89586,-121.58421 a 9.412,9.412 0 1 1 0,-18.824 9.412,9.412 0 1 1 0,18.824 z m 0,122.356 a 9.412,9.412 0 1 1 0,-18.824 9.412,9.412 0 1 1 0,18.824 z" />
</svg>
