<?xml version="1.0" encoding="UTF-8" standalone="no"?>
<svg
   version="1.1"
   preserveAspectRatio="xMidYMid"
   zoomAndPan="magnify"
   id="Electron shell Ununoctium"
   viewBox="-1000 -1000 500 500"
   width="500"
   height="500"
   xmlns="http://www.w3.org/2000/svg"
   xmlns:svg="http://www.w3.org/2000/svg"
   xmlns:rdf="http://www.w3.org/1999/02/22-rdf-syntax-ns#"
   xmlns:cc="http://creativecommons.org/ns#"
   xmlns:dc="http://purl.org/dc/elements/1.1/">
  <metadata
     id="metadata4245">
    <rdf:RDF>
      <cc:Work
         rdf:about="">
        <dc:format>image/svg+xml</dc:format>
        <dc:type
           rdf:resource="http://purl.org/dc/dcmitype/StillImage" />
      </cc:Work>
    </rdf:RDF>
  </metadata>
  <desc
     id="element_description">118 Uuo (Ununoctium) Legend_color:#e8e8e8</desc>
  <desc
     id="element_electron_configuration">2,8,18,32,32,18,8</desc>
  <defs
     id="defs4107">
    <circle
       id="electron"
       fill="#77868b"
       stroke="none"
       r="30"
       cx="0"
       cy="0" />
  </defs>
  <path
     fill="#c0ffff"
     stroke="#000000"
     stroke-width="0.709"
     stroke-miterlimit="0"
     d="m -712.5,-750 a 37.5,37.5 0 1 1 -75,0 37.5,37.5 0 1 1 75,0 z"
     id="nucleus"
     style="display:inline;fill:#db1828;fill-opacity:1;stroke:none;stroke-width:0;stroke-dasharray:none" />
  <path
     id="orbit"
     style="display:inline;fill:none;fill-opacity:1;stroke:#77868b;stroke-width:1.5;stroke-dasharray:none;stroke-opacity:1"
     d="m -689.43235,-750.08602 a 60.593765,60.58741 0 1 1 -121.18753,0 60.612825,60.606472 0 1 1 121.22565,0 z m 28.24212,-4.7e-4 a 88.832507,88.688062 0 1 1 -177.66495,0 88.86059,88.716103 0 1 1 177.72118,0 z m 27.64941,0.63812 a 117.07134,117.0777 0 1 1 -234.14259,0 117.10836,117.11472 0 1 1 234.21671,0 z m 28.63059,-0.15295 a 145.28413,145.30976 0 1 1 -290.56824,0 145.33012,145.35576 0 1 1 290.66024,0 z" />
  <path
     id="27-Co"
     style="display:inline;fill:#36a4ff;fill-opacity:1;stroke:none;stroke-width:0;stroke-dasharray:none;stroke-opacity:1"
     d="m -750.012,-857.90904 a 9.412,9.412 0 1 1 0,-18.824 9.412,9.412 0 1 1 0,18.824 z m -44.55945,9.25905 a 9.412,9.412 0 1 1 -7.65196,-17.19572 9.412,9.412 0 1 1 7.65196,17.19572 z m -36.34679,26.47125 a 9.412,9.412 0 1 1 -13.98623,-12.5956 9.412,9.412 0 1 1 13.98623,12.59325 z m -22.52762,39.03627 a 9.412,9.412 0 1 1 -17.90163,-5.81661 9.412,9.412 0 1 1 17.90163,5.81661 z m -4.706,44.7823 a 9.412,9.412 0 1 1 -18.72047,1.96711 9.412,9.412 0 1 1 18.72047,-1.96711 z m 13.89682,42.79636 a 9.412,9.412 0 1 1 -16.30159,9.412 9.412,9.412 0 1 1 16.30159,-9.412 z m 30.17722,33.53967 a 9.4130589,9.4130589 0 1 1 -11.06851,15.22861 9.4172107,9.4172107 0 1 1 11.08263,-15.22861 z m 41.04809,18.28987 a 9.412,9.412 0 1 1 -3.91304,18.40987 9.412,9.412 0 1 1 3.91539,-18.40046 z m 44.95406,-0.0635 a 9.412,9.412 0 1 1 3.91539,18.40752 9.412285,9.412285 0 1 1 -3.92951,-18.40987 z m 41.14221,-18.38398 a 9.4123671,9.4123671 0 1 1 11.06615,15.22861 9.4206739,9.4206739 0 1 1 -11.06851,-15.24744 z m 30.16075,-33.36554 a 9.412,9.412 0 1 1 16.30158,9.412 9.412,9.412 0 1 1 -16.30158,-9.412 z m 13.91094,-42.80107 a 9.412,9.412 0 1 1 18.72046,1.96946 9.412,9.412 0 1 1 -18.72046,-1.96711 z m -4.67777,-44.75406 a 9.412,9.412 0 1 1 17.90163,-5.81897 9.412,9.412 0 1 1 -17.90163,5.81661 z m -22.44762,-38.97274 a 9.412,9.412 0 1 1 13.98623,-12.59326 9.412,9.412 0 1 1 -13.98623,12.59326 z m -36.41267,-26.40066 a 9.4128532,9.4128532 0 1 1 7.65195,-17.20043 9.4166828,9.4166828 0 1 1 -7.67078,17.20043 z m -43.5705,-37.66918 a 9.412,9.412 0 1 1 0,-18.824 9.412,9.412 0 1 1 0,18.824 z m 0,291.472 a 9.412,9.412 0 1 1 0,-18.824 9.412,9.412 0 1 1 0,18.824 z m -80.002,-155.30389 a 9.412,9.412 0 1 1 -18.824,0 9.412,9.412 0 1 1 18.824,0 z m 178.828,0 a 9.412,9.412 0 1 1 -18.824,0 9.412,9.412 0 1 1 18.824,0 z m -98.826,-80.002 a 9.412,9.412 0 1 1 0,-18.824 9.412,9.412 0 1 1 0,18.824 z m 0,178.828 a 9.412,9.412 0 1 1 0,-18.824 9.412,9.412 0 1 1 0,18.824 z m -56.63201,-42.27165 a 9.412,9.412 0 1 1 -13.30857,13.30857 9.412,9.412 0 1 1 13.30857,-13.30857 z m 126.45022,-126.45022 a 9.412,9.412 0 1 1 -13.30857,13.30857 9.412,9.412 0 1 1 13.30857,-13.30857 z m -126.37257,13.26387 a 9.412,9.412 0 1 1 -13.30857,-13.30857 9.412,9.412 0 1 1 13.29445,13.31798 z m 126.45022,126.45022 a 9.412,9.412 0 1 1 -13.30857,-13.30857 9.412,9.412 0 1 1 13.29445,13.31798 z m -69.89586,-121.58422 a 9.412,9.412 0 1 1 0,-18.824 9.412,9.412 0 1 1 0,18.824 z m 0,122.356 a 9.412,9.412 0 1 1 0,-18.824 9.412,9.412 0 1 1 0,18.824 z" />
</svg>
