<?xml version="1.0" encoding="UTF-8" standalone="no"?>
<svg
   version="1.1"
   preserveAspectRatio="xMidYMid"
   zoomAndPan="magnify"
   id="Electron shell Ununoctium"
   viewBox="-1000 -1000 500 500"
   width="500"
   height="500"
   xmlns="http://www.w3.org/2000/svg"
   xmlns:svg="http://www.w3.org/2000/svg"
   xmlns:rdf="http://www.w3.org/1999/02/22-rdf-syntax-ns#"
   xmlns:cc="http://creativecommons.org/ns#"
   xmlns:dc="http://purl.org/dc/elements/1.1/">
  <metadata
     id="metadata4245">
    <rdf:RDF>
      <cc:Work
         rdf:about="">
        <dc:format>image/svg+xml</dc:format>
        <dc:type
           rdf:resource="http://purl.org/dc/dcmitype/StillImage" />
      </cc:Work>
    </rdf:RDF>
  </metadata>
  <desc
     id="element_description">118 Uuo (Ununoctium) Legend_color:#e8e8e8</desc>
  <desc
     id="element_electron_configuration">2,8,18,32,32,18,8</desc>
  <defs
     id="defs4107">
    <circle
       id="electron"
       fill="#77868b"
       stroke="none"
       r="30"
       cx="0"
       cy="0" />
  </defs>
  <path
     fill="#c0ffff"
     stroke="#000000"
     stroke-width="0.709"
     stroke-miterlimit="0"
     d="m -712.5,-750 a 37.5,37.5 0 1 1 -75,0 37.5,37.5 0 1 1 75,0 z"
     id="nucleus"
     style="display:inline;fill:#db1828;fill-opacity:1;stroke:none;stroke-width:0;stroke-dasharray:none" />
  <path
     id="orbit"
     style="display:inline;fill:none;fill-opacity:1;stroke:#77868b;stroke-width:1.5;stroke-dasharray:none;stroke-opacity:1"
     d="m -689.43235,-750.08602 a 60.593765,60.58741 0 1 1 -121.18753,0 60.612825,60.606472 0 1 1 121.22565,0 z m 28.24212,-4.7e-4 a 88.832507,88.688062 0 1 1 -177.66495,0 88.86059,88.716103 0 1 1 177.72118,0 z m 27.64941,0.63812 a 117.07134,117.0777 0 1 1 -234.14259,0 117.10836,117.11472 0 1 1 234.21671,0 z" />
  <path
     id="17-Cl"
     style="display:inline;fill:#36a4ff;fill-opacity:1;stroke:none;stroke-width:0;stroke-dasharray:none;stroke-opacity:1"
     d="m -750.02708,-857.911 a 9.4119181,9.412 0 1 1 0,-18.824 9.4119181,9.412 0 1 1 0,18.824 z m 85.66117,41.78576 a 9.4126534,9.4127353 0 1 1 14.91787,-11.48264 9.4126534,9.4127353 0 1 1 -14.91787,11.48264 z m 18.86382,93.71999 a 9.4139605,9.4140421 0 1 1 18.20265,4.81189 9.4119181,9.412 0 1 1 -18.18854,-4.80012 z m -62.62926,72.19004 a 9.4119711,9.4120529 0 1 1 7.29425,17.35338 9.4119181,9.412 0 1 1 -7.29425,-17.34161 z m -127.64914,-165.75473 a 9.412656,9.4127379 0 1 1 -14.91789,-11.48264 9.412656,9.4127379 0 1 1 14.91789,11.48264 z m -18.93678,93.69646 a 9.4128202,9.4129022 0 1 1 -18.2003,4.81188 9.4136604,9.4137422 0 1 1 18.20266,-4.80953 z m 62.69279,72.04415 a 9.4119682,9.4120501 0 1 1 -7.29423,17.35338 9.4130513,9.4131333 0 1 1 7.29423,-17.35573 z m -37.96299,-99.74367 a 9.4119196,9.4120015 0 1 1 -18.82381,0 9.4119196,9.4120015 0 1 1 18.82381,0 z m 178.82648,0 a 9.41193,9.4120119 0 1 1 -18.82386,0 9.41193,9.4120119 0 1 1 18.82386,0 z m -98.82515,-80.002 a 9.4119181,9.412 0 1 1 0,-18.824 9.4119181,9.412 0 1 1 0,18.824 z m 0,178.828 a 9.4119181,9.412 0 1 1 0,-18.824 9.4119181,9.412 0 1 1 0,18.824 z m -56.63624,-42.274 a 9.4119181,9.412 0 1 1 -13.30609,13.30857 9.4119181,9.412 0 1 1 13.30846,-13.30857 z m 126.44914,-126.45022 a 9.4119181,9.412 0 1 1 -13.30611,13.30857 9.4119181,9.412 0 1 1 13.30846,-13.30857 z m -126.36913,13.26151 a 9.4119181,9.412 0 1 1 -13.30847,-13.30621 9.4119181,9.412 0 1 1 13.30847,13.30857 z m 126.44911,126.45022 a 9.4119181,9.412 0 1 1 -13.30847,-13.30621 9.4119181,9.412 0 1 1 13.30847,13.30857 z M -749.98614,-801.739 a 9.4119181,9.412 0 1 1 0,-18.824 9.4119181,9.412 0 1 1 0,18.824 z m 0,122.356 a 9.4119181,9.412 0 1 1 0,-18.824 9.4119181,9.412 0 1 1 0,18.824 z" />
</svg>
