<?xml version="1.0" encoding="UTF-8" standalone="no"?>
<svg
   version="1.1"
   preserveAspectRatio="xMidYMid"
   zoomAndPan="magnify"
   id="Electron shell Ununoctium"
   viewBox="-1000 -1000 500 500"
   width="500"
   height="500"
   xmlns="http://www.w3.org/2000/svg"
   xmlns:svg="http://www.w3.org/2000/svg"
   xmlns:rdf="http://www.w3.org/1999/02/22-rdf-syntax-ns#"
   xmlns:cc="http://creativecommons.org/ns#"
   xmlns:dc="http://purl.org/dc/elements/1.1/">
  <metadata
     id="metadata4245">
    <rdf:RDF>
      <cc:Work
         rdf:about="">
        <dc:format>image/svg+xml</dc:format>
        <dc:type
           rdf:resource="http://purl.org/dc/dcmitype/StillImage" />
      </cc:Work>
    </rdf:RDF>
  </metadata>
  <desc
     id="element_description">118 Uuo (Ununoctium) Legend_color:#e8e8e8</desc>
  <desc
     id="element_electron_configuration">2,8,18,32,32,18,8</desc>
  <defs
     id="defs4107">
    <circle
       id="electron"
       fill="#77868b"
       stroke="none"
       r="30"
       cx="0"
       cy="0" />
  </defs>
  <path
     fill="#c0ffff"
     stroke="#000000"
     stroke-width="0.709"
     stroke-miterlimit="0"
     d="m -712.5,-750 a 37.5,37.5 0 1 1 -75,0 37.5,37.5 0 1 1 75,0 z"
     id="nucleus"
     style="display:inline;fill:#db1828;fill-opacity:1;stroke:none;stroke-width:0;stroke-dasharray:none" />
  <path
     id="orbit"
     style="display:inline;fill:none;fill-opacity:1;stroke:#77868b;stroke-width:1.5;stroke-dasharray:none;stroke-opacity:1"
     d="m -689.43235,-750.08602 a 60.593765,60.58741 0 1 1 -121.18753,0 60.612825,60.606472 0 1 1 121.22565,0 z m 28.24212,-4.7e-4 a 88.832507,88.688062 0 1 1 -177.66495,0 88.86059,88.716103 0 1 1 177.72118,0 z m 27.64941,0.63812 a 117.07134,117.0777 0 1 1 -234.14259,0 117.10836,117.11472 0 1 1 234.21671,0 z m 28.63059,-0.15295 a 145.28413,145.30976 0 1 1 -290.56824,0 145.33012,145.35576 0 1 1 290.66024,0 z m 28.21435,-0.37505 a 173.41877,173.54182 0 1 1 -346.83742,0 173.47359,173.59669 0 1 1 346.94707,0 z m 27.82353,0.47153 a 201.70977,201.69515 0 1 1 -403.41953,0 201.77353,201.75892 0 1 1 403.54706,0 z" />
  <path
     id="58-Ce"
     style="display:inline;fill:#36a4ff;fill-opacity:1;stroke:none;stroke-width:0;stroke-dasharray:none;stroke-opacity:1"
     d="m -749.96835,-886.14033 a 9.412,9.412 0 1 1 0,-18.824 9.412,9.412 0 1 1 0,18.824 z m -44.99147,7.36489 a 9.4133994,9.4133994 0 1 1 -6.11074,-17.8075 9.4130177,9.4130177 0 1 1 6.10839,17.8075 z m -39.38922,21.30406 a 9.412,9.412 0 1 1 -11.56029,-14.85213 9.412,9.412 0 1 1 11.55794,14.85213 z m -30.48782,33.11142 a 9.412,9.412 0 1 1 -15.75569,-10.29908 9.412,9.412 0 1 1 15.75569,10.29673 z m -17.96986,41.22456 a 9.4129442,9.4129442 0 1 1 -18.24987,-4.62129 9.4129442,9.4129442 0 1 1 18.24987,4.62129 z m -3.77892,44.71406 a 9.412,9.412 0 1 1 -18.75341,1.55298 9.412,9.412 0 1 1 18.75341,-1.55298 z m 11.05439,43.68815 a 9.4122709,9.4122709 0 1 1 -17.24278,7.55313 9.4122709,9.4122709 0 1 1 17.24278,-7.55313 z m 24.73003,37.53035 a 9.4153043,9.4153043 0 1 1 -13.85446,12.75326 9.4153043,9.4153043 0 1 1 13.85446,-12.75326 z m 35.32324,27.55363 a 9.4125408,9.4125408 0 1 1 -8.96493,16.55336 9.413574,9.413574 0 1 1 8.96493,-16.55571 z m 42.48812,14.50625 a 9.4131412,9.4131412 0 1 1 -3.09655,18.56987 9.4139163,9.4139163 0 1 1 3.10596,-18.56987 z m 44.95877,0.0753 a 9.4131433,9.4131433 0 1 1 3.09655,18.56988 9.4224252,9.4224252 0 1 1 -3.09655,-18.5887 z m 42.40812,-14.61683 a 9.412453,9.412453 0 1 1 8.96022,16.5557 9.412,9.412 0 1 1 -8.96022,-16.54159 z m 35.58442,-27.50657 a 9.412,9.412 0 1 1 13.8427,12.75325 9.412,9.412 0 1 1 -13.84505,-12.75325 z m 24.61238,-37.61271 a 9.412,9.412 0 1 1 17.23337,7.56725 9.412,9.412 0 1 1 -17.23337,-7.56725 z m 10.84733,-43.51403 a 9.4123188,9.4123188 0 1 1 18.76047,1.55298 9.412,9.412 0 1 1 -18.75812,-1.55298 z m -3.71774,-44.84112 a 9.4140841,9.4140841 0 1 1 18.25222,-4.62129 9.4129442,9.4129442 0 1 1 -18.24987,4.62129 z m -17.98398,-41.02691 a 9.412,9.412 0 1 1 15.75569,-10.29673 9.412,9.412 0 1 1 -15.75569,10.29673 z m -30.44076,-33.2573 a 9.4135469,9.4135469 0 1 1 11.56735,-14.85449 9.4126198,9.4126198 0 1 1 -11.56735,14.85214 z m -39.61511,-21.31818 a 9.413433,9.413433 0 1 1 6.1178,-17.80515 9.4145457,9.4145457 0 1 1 -6.1178,17.8075 z m -43.64363,-35.61736 a 9.412,9.412 0 1 1 0,-18.824 9.412,9.412 0 1 1 0,18.824 z m -106.16482,38.60567 a 9.4147671,9.4147671 0 1 1 -12.10383,-14.42389 9.4147671,9.4147671 0 1 1 12.10383,14.42389 z m -56.32376,97.53891 a 9.4135404,9.4135404 0 1 1 -18.54164,-3.26597 9.4135404,9.4135404 0 1 1 18.54164,3.26597 z m 19.48284,110.91336 a 9.412,9.412 0 1 1 -16.30158,9.412 9.412,9.412 0 1 1 16.30158,-9.412 z m 86.24216,72.46299 a 9.412,9.412 0 1 1 -6.43781,17.68515 9.412,9.412 0 1 1 6.43781,-17.68515 z m 112.67575,0.0235 a 9.412,9.412 0 1 1 6.43781,17.68515 9.412,9.412 0 1 1 -6.43781,-17.68515 z m 86.37863,-72.45358 a 9.412,9.412 0 1 1 16.30159,9.412 9.412,9.412 0 1 1 -16.30159,-9.412 z m 19.55814,-111.08513 a 9.4133359,9.4133359 0 1 1 18.54164,-3.26361 9.4135404,9.4135404 0 1 1 -18.54164,3.26597 z m -56.37788,-97.56479 a 9.4128201,9.4128201 0 1 1 12.10618,-14.41683 9.4129647,9.4129647 0 1 1 -12.10383,14.41918 z m -105.359,-66.684 a 9.412,9.412 0 1 1 0,-18.824 9.412,9.412 0 1 1 0,18.824 z m -0.1,404.01574 a 9.412,9.412 0 1 1 0,-18.824 9.412,9.412 0 1 1 0,18.824 z m -0.018,-319.29833 a 9.412,9.412 0 1 1 0,-18.824 9.412,9.412 0 1 1 0,18.824 z m 0,234.90033 a 9.412,9.412 0 1 1 0,-18.824 9.412,9.412 0 1 1 0,18.824 z m -37.61834,-228.42252 a 9.412,9.412 0 1 1 -6.43781,-17.68515 9.4146542,9.4146542 0 1 1 6.43781,17.69456 z m 80.4773,221.11141 a 9.412,9.412 0 1 1 -6.4378,-17.6875 9.412,9.412 0 1 1 6.4378,17.68515 z M -820.16045,-832.5084 a 9.4147671,9.4147671 0 1 1 -12.10383,-14.42389 9.4147671,9.4147671 0 1 1 12.10383,14.42389 z m 151.25084,180.24686 a 9.4137212,9.4137212 0 1 1 -12.10619,-14.41918 9.4129657,9.4129657 0 1 1 12.10384,14.41918 z m -175.48203,-151.5332 a 9.412,9.412 0 1 1 -16.30159,-9.412 9.412,9.412 0 1 1 16.30159,9.412 z m 203.77685,117.65 a 9.412,9.412 0 1 1 -16.30158,-9.412 9.412,9.412 0 1 1 16.30158,9.412 z m -216.53482,-82.2797 a 9.4135404,9.4135404 0 1 1 -18.54164,-3.26597 9.4135404,9.4135404 0 1 1 18.54164,3.26597 z m 231.7305,40.85984 a 9.4135399,9.4135399 0 1 1 -18.54164,-3.26596 9.412,9.412 0 1 1 18.54164,3.24714 z m -231.83639,-3.20008 a 9.4135404,9.4135404 0 1 1 -18.54164,3.26597 9.4135404,9.4135404 0 1 1 18.54164,-3.26597 z m 231.72815,-40.86455 a 9.4139484,9.4139484 0 1 1 -18.54164,3.27067 9.4139484,9.4139484 0 1 1 18.54164,-3.27067 z m -218.869,76.07249 a 9.412,9.412 0 1 1 -16.29923,9.412 9.412,9.412 0 1 1 16.30158,-9.412 z m 203.77921,-117.65 a 9.412,9.412 0 1 1 -16.30158,9.412 9.412,9.412 0 1 1 16.30158,-9.412 z m -179.5739,146.54484 a 9.4147671,9.4147671 0 1 1 -12.10383,14.42389 9.4147671,9.4147671 0 1 1 12.10383,-14.42389 z m 151.25084,-180.25156 a 9.4137212,9.4137212 0 1 1 -12.10618,14.41918 9.4129647,9.4129647 0 1 1 12.10383,-14.41918 z m -118.80297,198.99791 a 9.412,9.412 0 1 1 -6.43781,17.68515 9.412,9.412 0 1 1 6.44722,-17.68515 z m 80.47966,-221.11141 a 9.412,9.412 0 1 1 -6.44016,17.6828 9.412,9.412 0 1 1 6.43781,-17.68515 z M -829.976,-749.96987 a 9.412,9.412 0 1 1 -18.824,0 9.412,9.412 0 1 1 18.824,0 z m 178.828,0 a 9.412,9.412 0 1 1 -18.824,0 9.412,9.412 0 1 1 18.824,0 z m -98.826,-80.002 a 9.412,9.412 0 1 1 0,-18.824 9.412,9.412 0 1 1 0,18.824 z m 0,178.828 a 9.412,9.412 0 1 1 0,-18.824 9.412,9.412 0 1 1 0,18.824 z m -56.69905,-42.27164 a 9.412,9.412 0 1 1 -13.30857,13.30857 9.412,9.412 0 1 1 13.30857,-13.30857 z m 126.45022,-126.45022 a 9.412,9.412 0 1 1 -13.30857,13.30857 9.412,9.412 0 1 1 13.30857,-13.30857 z m -126.37493,13.26151 a 9.412,9.412 0 1 1 -13.30857,-13.30857 9.412,9.412 0 1 1 13.30857,13.30857 z m 126.45022,126.45022 a 9.412,9.412 0 1 1 -13.30857,-13.30857 9.412,9.412 0 1 1 13.30857,13.30857 z M -749.974,-801.73587 a 9.412,9.412 0 1 1 0,-18.824 9.412,9.412 0 1 1 0,18.824 z m 0,122.356 a 9.412,9.412 0 1 1 0,-18.824 9.412,9.412 0 1 1 0,18.824 z" />
</svg>
