<?xml version="1.0" encoding="UTF-8" standalone="no"?>
<svg
   version="1.1"
   preserveAspectRatio="xMidYMid"
   zoomAndPan="magnify"
   id="Electron shell Ununoctium"
   viewBox="-1000 -1000 500 500"
   width="500"
   height="500"
   xmlns="http://www.w3.org/2000/svg"
   xmlns:svg="http://www.w3.org/2000/svg"
   xmlns:rdf="http://www.w3.org/1999/02/22-rdf-syntax-ns#"
   xmlns:cc="http://creativecommons.org/ns#"
   xmlns:dc="http://purl.org/dc/elements/1.1/">
  <metadata
     id="metadata4245">
    <rdf:RDF>
      <cc:Work
         rdf:about="">
        <dc:format>image/svg+xml</dc:format>
        <dc:type
           rdf:resource="http://purl.org/dc/dcmitype/StillImage" />
      </cc:Work>
    </rdf:RDF>
  </metadata>
  <desc
     id="element_description">118 Uuo (Ununoctium) Legend_color:#e8e8e8</desc>
  <desc
     id="element_electron_configuration">2,8,18,32,32,18,8</desc>
  <defs
     id="defs4107">
    <circle
       id="electron"
       fill="#77868b"
       stroke="none"
       r="30"
       cx="0"
       cy="0" />
  </defs>
  <path
     fill="#c0ffff"
     stroke="#000000"
     stroke-width="0.709"
     stroke-miterlimit="0"
     d="m -712.5,-750 a 37.5,37.5 0 1 1 -75,0 37.5,37.5 0 1 1 75,0 z"
     id="nucleus"
     style="display:inline;fill:#db1828;fill-opacity:1;stroke:none;stroke-width:0;stroke-dasharray:none" />
  <path
     id="orbit"
     style="display:inline;fill:none;fill-opacity:1;stroke:#77868b;stroke-width:1.5;stroke-dasharray:none;stroke-opacity:1"
     d="m -689.43235,-750.08602 a 60.593765,60.58741 0 1 1 -121.18753,0 60.612825,60.606472 0 1 1 121.22565,0 z m 28.24212,-4.7e-4 a 88.832507,88.688062 0 1 1 -177.66495,0 88.86059,88.716103 0 1 1 177.72118,0 z m 27.64941,0.63812 a 117.07134,117.0777 0 1 1 -234.14259,0 117.10836,117.11472 0 1 1 234.21671,0 z m 28.63059,-0.15295 a 145.28413,145.30976 0 1 1 -290.56824,0 145.33012,145.35576 0 1 1 290.66024,0 z m 28.21435,-0.37505 a 173.41877,173.54182 0 1 1 -346.83742,0 173.47359,173.59669 0 1 1 346.94707,0 z m 27.82353,0.47153 a 201.70977,201.69515 0 1 1 -403.41953,0 201.77353,201.75892 0 1 1 403.54706,0 z m 28.72235,-0.45789 a 229.92259,229.95351 0 1 1 -459.84518,0 229.99518,230.02612 0 1 1 459.99036,0 z" />
  <path
     id="94-Pu"
     style="display:inline;fill:#36a4ff;fill-opacity:1;stroke:none;stroke-width:0;stroke-dasharray:none;stroke-opacity:1"
     d="m -750,-942.6241 a 9.412,9.412 0 1 1 0,-18.824 9.412,9.412 0 1 1 0,18.824 z m 0,404.0161 a 9.412,9.412 0 1 1 0,-18.824 9.412,9.412 0 1 1 0,18.824 z m 192.73068,-211.39308 a 9.412,9.412 0 1 1 18.824,0 9.412,9.412 0 1 1 -18.824,0 z m -404.1777,0 a 9.412,9.412 0 1 1 18.824,0 9.412,9.412 0 1 1 -18.824,0 z m 347.94455,-136.08984 a 9.412,9.412 0 1 1 13.31092,-13.30857 9.412,9.412 0 1 1 -13.30857,13.30857 z m -286.17186,286.17186 a 9.412,9.412 0 1 1 13.31092,-13.30857 9.412,9.412 0 1 1 -13.30857,13.30857 z m 286.11068,-13.2568 a 9.412,9.412 0 1 1 13.30622,13.30856 9.412,9.412 0 1 1 -13.30857,-13.30856 z m -286.17186,-286.17186 a 9.412,9.412 0 1 1 13.30622,13.30856 9.412,9.412 0 1 1 -13.30857,-13.30856 z M -750.033,-914.342 a 9.412,9.412 0 1 1 0,-18.824 9.412,9.412 0 1 1 0,18.824 z m 0.0776,347.84357 a 9.412,9.412 0 1 1 0,-18.824 9.412,9.412 0 1 1 0,18.824 z m 44.07889,-342.98837 a 9.4131153,9.4131153 0 1 1 4.87541,-18.18398 9.4131153,9.4131153 0 1 1 -4.87541,18.18398 z m -90.14343,336.38488 a 9.4131153,9.4131153 0 1 1 4.87541,-18.18398 9.4131153,9.4131153 0 1 1 -4.87541,18.18398 z m 129.93736,-319.86682 a 9.4138308,9.4138308 0 1 1 9.412,-16.30629 9.4138308,9.4138308 0 1 1 -9.412,16.30629 z m -174.122,301.58401 a 9.4138308,9.4138308 0 1 1 9.412,-16.30629 9.4138308,9.4138308 0 1 1 -9.412,16.30629 z m 208.29462,-275.41159 a 9.412,9.412 0 1 1 13.30857,-13.30857 9.4139076,9.4139076 0 1 1 -13.31798,13.30857 z m -246.24145,246.26498 a 9.412,9.412 0 1 1 13.30857,-13.30857 9.4139076,9.4139076 0 1 1 -13.31798,13.30857 z m 272.35269,-212.1606 a 9.4138308,9.4138308 0 1 1 16.30629,-9.412 9.4138308,9.4138308 0 1 1 -16.30629,9.412 z m -301.58401,174.122 a 9.4138308,9.4138308 0 1 1 16.30629,-9.412 9.4138308,9.4138308 0 1 1 -16.30629,9.412 z m 317.9656,-134.39159 a 9.4131153,9.4131153 0 1 1 18.18398,-4.87542 9.4131153,9.4131153 0 1 1 -18.18398,4.87542 z m -336.38488,90.14342 a 9.4131153,9.4131153 0 1 1 18.18398,-4.87541 9.4131153,9.4131153 0 1 1 -18.18398,4.87541 z m 340.24422,-47.19585 a 9.412,9.412 0 1 1 18.824,0 9.412,9.412 0 1 1 -18.824,0 z m -347.91418,0.0775 a 9.412,9.412 0 1 1 18.824,0 9.412,9.412 0 1 1 -18.824,0 z m 344.18661,42.15822 a 9.4131153,9.4131153 0 1 1 18.18398,4.87542 9.4155571,9.4155571 0 1 1 -18.18398,-4.89424 z m -336.38488,-90.1199 a 9.4131153,9.4131153 0 1 1 18.18398,4.87542 9.4155571,9.4155571 0 1 1 -18.18398,-4.89424 z m 319.87152,129.91619 a 9.412,9.412 0 1 1 16.29923,9.412 9.412,9.412 0 1 1 -16.30158,-9.412 z m -301.58401,-174.09847 a 9.412,9.412 0 1 1 16.29923,9.412 9.412,9.412 0 1 1 -16.30158,-9.412 z m 275.40689,208.26874 a 9.412,9.412 0 1 1 13.30856,13.30856 9.412,9.412 0 1 1 -13.29445,-13.30856 z m -246.26498,-246.24145 a 9.412,9.412 0 1 1 13.30856,13.30856 9.412,9.412 0 1 1 -13.29445,-13.30856 z m 212.15824,272.37857 a 9.412,9.412 0 1 1 9.412,16.30158 9.412,9.412 0 1 1 -9.412,-16.30158 z m -174.122,-301.60754 a 9.412,9.412 0 1 1 9.412,16.30158 9.412,9.412 0 1 1 -9.412,-16.30158 z m 134.39395,317.96089 a 9.4153885,9.4153885 0 1 1 4.87542,18.18869 9.4153885,9.4153885 0 1 1 -4.87542,-18.18869 z m -90.14343,-336.38488 a 9.4153885,9.4153885 0 1 1 4.87542,18.18869 9.4153885,9.4153885 0 1 1 -4.87542,-18.18869 z m 45.94609,-43.13049 a 9.412,9.412 0 1 1 0,-18.824 9.412,9.412 0 1 1 0,18.824 z m 0,460.4881 a 9.412,9.412 0 1 1 0,-18.824 9.412,9.412 0 1 1 0,18.824 z m 0.052,-375.75739 a 9.412,9.412 0 1 1 0,-18.824 9.412,9.412 0 1 1 0,18.824 z m 0,291.39136 a 9.412,9.412 0 1 1 0,-18.824 9.412,9.412 0 1 1 0,18.824 z m -26.69276,-288.87392 a 9.4126668,9.4126668 0 1 1 -3.67068,-18.464 9.4138193,9.4138193 0 1 1 3.67068,18.46635 z m 56.91907,286.16715 a 9.4126624,9.4126624 0 1 1 -3.67068,-18.46399 9.4138163,9.4138163 0 1 1 3.67068,18.46634 z m -82.49148,-278.45402 a 9.4123889,9.4123889 0 1 1 -7.20018,-17.39338 9.4123889,9.4123889 0 1 1 7.20018,17.39338 z m 111.64985,269.55968 a 9.412,9.412 0 1 1 -7.20018,-17.38867 9.412,9.412 0 1 1 7.20018,17.38867 z m -135.18926,-256.92407 a 9.412849,9.412849 0 1 1 -10.45673,-15.65451 9.412,9.412 0 1 1 10.45673,15.65216 z m 162.09817,242.5943 a 9.412,9.412 0 1 1 -10.45673,-15.64745 9.412,9.412 0 1 1 10.45673,15.64745 z m -182.734,-225.66916 a 9.412,9.412 0 1 1 -13.31092,-13.30857 9.412,9.412 0 1 1 13.29445,13.30857 z m 206.31104,206.31574 a 9.412,9.412 0 1 1 -13.31092,-13.30856 9.412,9.412 0 1 1 13.29445,13.29445 z m -223.26676,-185.5764 a 9.412,9.412 0 1 1 -15.65215,-10.45673 9.412,9.412 0 1 1 15.65215,10.45673 z m 242.5943,162.09817 a 9.412,9.412 0 1 1 -15.65215,-10.45438 9.412,9.412 0 1 1 15.65215,10.45673 z m -255.15932,-138.49758 a 9.412,9.412 0 1 1 -17.38867,-7.20018 9.412,9.412 0 1 1 17.38867,7.20018 z m 269.58321,111.65691 a 9.412,9.412 0 1 1 -17.38867,-7.20018 9.412,9.412 0 1 1 17.38867,7.20018 z m -277.35281,-85.99744 a 9.4138193,9.4138193 0 1 1 -18.46635,-3.67068 9.4138193,9.4138193 0 1 1 18.46635,3.67068 z m 286.17186,56.91907 a 9.4138193,9.4138193 0 1 1 -18.46635,-3.67068 9.4138193,9.4138193 0 1 1 18.46635,3.67068 z M -886.488,-749.9494 a 9.412,9.412 0 1 1 -18.824,0 9.412,9.412 0 1 1 18.824,0 z m 291.442,-0.078 a 9.412,9.412 0 1 1 -18.824,0 9.412,9.412 0 1 1 18.824,0 z m -288.7019,27.00299 a 9.4138193,9.4138193 0 1 1 -18.46635,3.67068 9.4138193,9.4138193 0 1 1 18.46635,-3.67068 z m 286.17186,-56.92378 a 9.4138193,9.4138193 0 1 1 -18.46635,3.67068 9.4138193,9.4138193 0 1 1 18.46635,-3.67068 z m -278.47049,82.51266 a 9.4123871,9.4123871 0 1 1 -17.39338,7.20017 9.4123871,9.4123871 0 1 1 17.39338,-7.20017 z m 269.55968,-111.65691 a 9.4123889,9.4123889 0 1 1 -17.39338,7.20018 9.4123889,9.4123889 0 1 1 17.39338,-7.20018 z m -256.92407,135.19161 a 9.412,9.412 0 1 1 -15.64745,10.45673 9.412,9.412 0 1 1 15.64745,-10.44732 z m 242.5943,-162.09817 a 9.412,9.412 0 1 1 -15.64745,10.45438 9.412,9.412 0 1 1 15.64745,-10.45673 z m -225.67153,182.74104 a 9.412,9.412 0 1 1 -13.30856,13.30622 9.4139076,9.4139076 0 1 1 13.31798,-13.30857 z m 206.33457,-206.3181 a 9.412,9.412 0 1 1 -13.30856,13.30857 9.4139076,9.4139076 0 1 1 13.31798,-13.30857 z m -185.58111,223.26911 a 9.412,9.412 0 1 1 -10.45438,15.65216 9.412,9.412 0 1 1 10.45674,-15.65216 z m 162.09817,-242.60371 a 9.4121961,9.4121961 0 1 1 -10.45438,15.65451 9.412,9.412 0 1 1 10.45674,-15.65216 z M -802.1341,-623.7584 a 9.4123889,9.4123889 0 1 1 -7.20018,17.39338 9.4210841,9.4210841 0 1 1 7.20018,-17.4122 z m 111.64985,-269.55968 a 9.412,9.412 0 1 1 -7.20018,17.38867 9.412,9.412 0 1 1 7.20018,-17.38867 z m -85.99509,277.34105 a 9.4138193,9.4138193 0 1 1 -3.67068,18.46635 9.4138193,9.4138193 0 1 1 3.67068,-18.46635 z m 56.91907,-286.16715 a 9.4138163,9.4138163 0 1 1 -3.67068,18.46634 9.4138163,9.4138163 0 1 1 3.67068,-18.46634 z m -30.39849,44.26961 a 9.412,9.412 0 1 1 0,-18.824 9.412,9.412 0 1 1 0,18.824 z m 0,234.84324 a 9.412,9.412 0 1 1 0,-18.824 9.412,9.412 0 1 1 0,18.824 z m -37.5185,-228.481 a 9.412,9.412 0 1 1 -6.43781,-17.68515 9.412,9.412 0 1 1 6.43781,17.68515 z m 80.47731,221.11141 a 9.412,9.412 0 1 1 -6.43781,-17.6875 9.412,9.412 0 1 1 6.43781,17.68515 z m -113.03342,-202.19329 a 9.4147671,9.4147671 0 1 1 -12.10383,-14.42389 9.4147671,9.4147671 0 1 1 12.10383,14.42389 z m 151.25084,180.24686 a 9.4137212,9.4137212 0 1 1 -12.10618,-14.41918 9.412,9.412 0 1 1 12.10383,14.40036 z m -175.48203,-151.5332 a 9.412,9.412 0 1 1 -16.30159,-9.412 9.412,9.412 0 1 1 16.30159,9.412 z m 203.77686,117.65 a 9.412,9.412 0 1 1 -16.30159,-9.412 9.412,9.412 0 1 1 16.30159,9.412 z m -216.53483,-82.27735 a 9.4139484,9.4139484 0 1 1 -18.54164,-3.27067 9.4139484,9.4139484 0 1 1 18.54164,3.27067 z m 231.7305,40.85749 a 9.4135399,9.4135399 0 1 1 -18.54164,-3.26596 9.4135399,9.4135399 0 1 1 18.54164,3.26596 z m -231.83638,-3.20008 a 9.4135404,9.4135404 0 1 1 -18.54164,3.26597 9.4135404,9.4135404 0 1 1 18.54164,-3.26597 z m 231.72814,-40.8622 a 9.4135404,9.4135404 0 1 1 -18.54164,3.26597 9.4135404,9.4135404 0 1 1 18.54164,-3.26597 z m -218.869,76.07249 a 9.412,9.412 0 1 1 -16.29923,9.412 9.412,9.412 0 1 1 16.30159,-9.412 z m 203.77921,-117.65 a 9.412,9.412 0 1 1 -16.30158,9.412 9.412,9.412 0 1 1 16.30158,-9.412 z m -179.5739,146.54484 a 9.4129663,9.4129663 0 1 1 -12.10383,14.41919 9.4129663,9.4129663 0 1 1 12.10383,-14.41919 z m 151.25084,-180.25391 a 9.4137212,9.4137212 0 1 1 -12.10618,14.41918 9.4129647,9.4129647 0 1 1 12.10383,-14.41918 z m -118.80297,198.99791 a 9.412,9.412 0 1 1 -6.4378,17.68515 9.412,9.412 0 1 1 6.44722,-17.68515 z m 80.47966,-221.11141 a 9.412,9.412 0 1 1 -6.44016,17.6828 9.4146542,9.4146542 0 1 1 6.43781,-17.69456 z M -830.016,-750.06 a 9.412,9.412 0 1 1 -18.824,0 9.412,9.412 0 1 1 18.824,0 z m 178.898,0.122 a 9.412,9.412 0 1 1 -18.824,0 9.412,9.412 0 1 1 18.824,0 z m -98.91412,-80.07788 a 9.412,9.412 0 1 1 0,-18.824 9.412,9.412 0 1 1 0,18.824 z m 0.0761,178.75187 a 9.412,9.412 0 1 1 0,-18.824 9.412,9.412 0 1 1 0,18.824 z m -56.58998,-42.23731 a 9.412,9.412 0 1 1 -13.30857,13.30857 9.412,9.412 0 1 1 13.30857,-13.30857 z m 126.45022,-126.45022 a 9.412,9.412 0 1 1 -13.30857,13.30857 9.412,9.412 0 1 1 13.30857,-13.30857 z m -126.37493,13.26151 a 9.412,9.412 0 1 1 -13.30856,-13.30857 9.412,9.412 0 1 1 13.30856,13.30857 z m 126.45022,126.45022 a 9.412,9.412 0 1 1 -13.30856,-13.30857 9.412,9.412 0 1 1 13.30856,13.30857 z m -69.93553,-121.54007 a 9.412,9.412 0 1 1 0,-18.824 9.412,9.412 0 1 1 0,18.824 z m -0.0761,122.27987 a 9.412,9.412 0 1 1 0,-18.824 9.412,9.412 0 1 1 0,18.824 z" />
</svg>
