<?xml version="1.0" encoding="UTF-8" standalone="no"?>
<svg
   version="1.1"
   preserveAspectRatio="xMidYMid"
   zoomAndPan="magnify"
   id="Electron shell Ununoctium"
   viewBox="-1000 -1000 500 500"
   width="500"
   height="500"
   xmlns="http://www.w3.org/2000/svg"
   xmlns:svg="http://www.w3.org/2000/svg"
   xmlns:rdf="http://www.w3.org/1999/02/22-rdf-syntax-ns#"
   xmlns:cc="http://creativecommons.org/ns#"
   xmlns:dc="http://purl.org/dc/elements/1.1/">
  <metadata
     id="metadata4245">
    <rdf:RDF>
      <cc:Work
         rdf:about="">
        <dc:format>image/svg+xml</dc:format>
        <dc:type
           rdf:resource="http://purl.org/dc/dcmitype/StillImage" />
      </cc:Work>
    </rdf:RDF>
  </metadata>
  <desc
     id="element_description">118 Uuo (Ununoctium) Legend_color:#e8e8e8</desc>
  <desc
     id="element_electron_configuration">2,8,18,32,32,18,8</desc>
  <defs
     id="defs4107">
    <circle
       id="electron"
       fill="#77868b"
       stroke="none"
       r="30"
       cx="0"
       cy="0" />
  </defs>
  <path
     fill="#c0ffff"
     stroke="#000000"
     stroke-width="0.709"
     stroke-miterlimit="0"
     d="m -712.5,-750 a 37.5,37.5 0 1 1 -75,0 37.5,37.5 0 1 1 75,0 z"
     id="nucleus"
     style="display:inline;fill:#db1828;fill-opacity:1;stroke:none;stroke-width:0;stroke-dasharray:none" />
  <path
     id="orbit"
     style="display:inline;fill:none;fill-opacity:1;stroke:#77868b;stroke-width:1.5;stroke-dasharray:none;stroke-opacity:1"
     d="m -689.43235,-750.08602 a 60.593765,60.58741 0 1 1 -121.18753,0 60.612825,60.606472 0 1 1 121.22565,0 z m 28.24212,-4.7e-4 a 88.832507,88.688062 0 1 1 -177.66495,0 88.86059,88.716103 0 1 1 177.72118,0 z m 27.64941,0.63812 a 117.07134,117.0777 0 1 1 -234.14259,0 117.10836,117.11472 0 1 1 234.21671,0 z m 28.63059,-0.15295 a 145.28413,145.30976 0 1 1 -290.56824,0 145.33012,145.35576 0 1 1 290.66024,0 z m 28.21435,-0.37505 a 173.41877,173.54182 0 1 1 -346.83742,0 173.47359,173.59669 0 1 1 346.94707,0 z m 27.82353,0.47153 a 201.70977,201.69515 0 1 1 -403.41953,0 201.77353,201.75892 0 1 1 403.54706,0 z" />
  <path
     id="64-Gd"
     style="display:inline;fill:#36a4ff;fill-opacity:1;stroke:none;stroke-width:0;stroke-dasharray:none;stroke-opacity:1"
     d="m -749.9931,-914.37395 a 9.412,9.412 0 1 1 0,-18.824 9.412,9.412 0 1 1 0,18.824 z m -106.09834,38.60097 a 9.4120636,9.4120636 0 1 1 -12.10383,-14.41683 9.4129647,9.4129647 0 1 1 12.10383,14.41918 z m -56.32376,97.54361 a 9.4135399,9.4135399 0 1 1 -18.54164,-3.26596 9.4135399,9.4135399 0 1 1 18.54164,3.26596 z m 19.48284,110.90866 a 9.412,9.412 0 1 1 -16.30158,9.412 9.412,9.412 0 1 1 16.30158,-9.412 z m 86.24216,72.46769 a 9.412,9.412 0 1 1 -6.43781,17.68515 9.412,9.412 0 1 1 6.43781,-17.68515 z m 112.67576,0.0235 a 9.412,9.412 0 1 1 6.4378,17.68515 9.412,9.412 0 1 1 -6.4378,-17.68515 z m 86.37863,-72.44887 a 9.412,9.412 0 1 1 16.30158,9.412 9.412,9.412 0 1 1 -16.30158,-9.412 z m 19.55813,-111.08513 a 9.4139484,9.4139484 0 1 1 18.54164,-3.27067 9.4139484,9.4139484 0 1 1 -18.54164,3.27067 z m -56.37788,-97.55538 a 9.4155249,9.4155249 0 1 1 12.10619,-14.42389 9.4147671,9.4147671 0 1 1 -12.10383,14.42389 z m -105.51401,-10.22143 a 9.412,9.412 0 1 1 0,-18.824 9.412,9.412 0 1 1 0,18.824 z m -34.26125,4.20246 a 9.4130767,9.4130767 0 1 1 -4.67776,-18.23575 9.412,9.412 0 1 1 4.65894,18.23575 z m -31.80079,12.81444 a 9.4147137,9.4147137 0 1 1 -9.07317,-16.49924 9.4147137,9.4147137 0 1 1 9.07317,16.49924 z m -27.69952,19.96285 a 9.4127705,9.4127705 0 1 1 -12.88503,-13.72505 9.412,9.412 0 1 1 12.88503,13.7227 z m -21.80054,26.47125 a 9.414241,9.414241 0 1 1 -15.89687,-10.08966 9.412,9.412 0 1 1 15.88275,10.08966 z m -14.54154,30.8243 a 9.4129559,9.4129559 0 1 1 -17.90633,-5.81191 9.4129559,9.4129559 0 1 1 17.90633,5.81191 z m -6.48722,33.67143 a 9.412,9.412 0 1 1 -18.78636,-1.18827 9.412,9.412 0 1 1 18.78636,1.18592 z m 2.32005,34.15379 a 9.4141763,9.4141763 0 1 1 -18.49458,3.5295 9.4141763,9.4141763 0 1 1 18.49458,-3.5295 z m 10.60262,32.49493 a 9.4143587,9.4143587 0 1 1 -17.03572,8.01903 9.4143587,9.4143587 0 1 1 17.03572,-8.01903 z m 18.23105,28.84778 a 9.4123631,9.4123631 0 1 1 -14.5039,12.0003 9.4123631,9.4123631 0 1 1 14.5039,-12.0003 z m 24.95827,23.52295 a 9.4130589,9.4130588 0 1 1 -11.06851,15.22861 9.4172107,9.4172107 0 1 1 11.08263,-15.22861 z m 29.98898,16.30158 a 9.4135246,9.4135246 0 1 1 -6.92723,17.50632 9.4135246,9.4135246 0 1 1 6.92723,-17.50632 z m 33.07377,8.69198 a 9.412,9.412 0 1 1 -2.36241,18.67341 9.412,9.412 0 1 1 2.36241,-18.67341 z m 34.12791,-0.12235 a 9.412,9.412 0 1 1 2.36477,18.6734 9.412,9.412 0 1 1 -2.36241,-18.6734 z m 33.33731,-8.47551 a 9.4135246,9.4135246 0 1 1 6.92723,17.50632 9.4135246,9.4135246 0 1 1 -6.92723,-17.50632 z m 29.81721,-16.54159 a 9.412369,9.412369 0 1 1 11.06616,15.22862 9.4130599,9.4130598 0 1 1 -11.06851,-15.22862 z m 25.0171,-23.36529 a 9.41236,9.41236 0 1 1 14.50389,12.0003 9.41236,9.41236 0 1 1 -14.50389,-12.0003 z m 18.33928,-28.97484 a 9.4143575,9.4143575 0 1 1 17.03572,8.01902 9.4143575,9.4143575 0 1 1 -17.03572,-8.01902 z m 10.51791,-32.54199 a 9.4141763,9.4141763 0 1 1 18.49458,3.5295 9.4141763,9.4141763 0 1 1 -18.49458,-3.5295 z m 2.08476,-33.97732 a 9.412,9.412 0 1 1 18.78635,-1.18591 9.412,9.412 0 1 1 -18.78635,1.18591 z m -6.30604,-33.6432 a 9.412,9.412 0 1 1 17.90162,-5.81661 9.412,9.412 0 1 1 -17.90162,5.81661 z m -14.71096,-30.99371 a 9.4152355,9.4152355 0 1 1 15.89922,-10.08967 9.414241,9.414241 0 1 1 -15.89686,10.08967 z m -21.70407,-26.30654 a 9.4127705,9.4127705 0 1 1 12.88503,-13.72505 9.412,9.412 0 1 1 -12.88503,13.72269 z m -27.78422,-20.17933 a 9.4157424,9.4157424 0 1 1 9.07316,-16.50159 9.4147114,9.4147114 0 1 1 -9.07316,16.49924 z m -31.60785,-12.49914 a 9.412,9.412 0 1 1 4.67776,-18.23104 9.412,9.412 0 1 1 -4.67776,18.23104 z m -33.72365,-60.82034 a 9.412,9.412 0 1 1 0,-18.824 9.412,9.412 0 1 1 0,18.824 z m 0.19967,404.01574 a 9.412,9.412 0 1 1 0,-18.824 9.412,9.412 0 1 1 0,18.824 z m -0.21767,-319.29833 a 9.412,9.412 0 1 1 0,-18.824 9.412,9.412 0 1 1 0,18.824 z m 0,234.90033 a 9.412,9.412 0 1 1 0,-18.824 9.412,9.412 0 1 1 0,18.824 z m -37.5519,-228.42252 a 9.412,9.412 0 1 1 -6.43781,-17.68515 9.4146542,9.4146542 0 1 1 6.43781,17.69456 z m 80.47731,221.11141 a 9.412,9.412 0 1 1 -6.43781,-17.6875 9.412,9.412 0 1 1 6.43781,17.68515 z M -820.10701,-832.5084 a 9.4147671,9.4147671 0 1 1 -12.10383,-14.42389 9.4147671,9.4147671 0 1 1 12.10383,14.42389 z m 151.25084,180.24686 a 9.4137212,9.4137212 0 1 1 -12.10618,-14.41918 9.4129647,9.4129647 0 1 1 12.10383,14.41918 z M -844.3382,-803.79471 a 9.412,9.412 0 1 1 -16.30159,-9.412 9.412,9.412 0 1 1 16.30159,9.412 z m 203.77686,117.65 a 9.412,9.412 0 1 1 -16.30159,-9.412 9.412,9.412 0 1 1 16.30159,9.412 z m -216.53483,-82.2797 a 9.4135404,9.4135404 0 1 1 -18.54164,-3.26597 9.4135404,9.4135404 0 1 1 18.54164,3.26597 z m 231.7305,40.85984 a 9.4135399,9.4135399 0 1 1 -18.54164,-3.26596 9.412,9.412 0 1 1 18.54164,3.24714 z m -231.83638,-3.20008 a 9.4135399,9.4135399 0 1 1 -18.54164,3.26596 9.4135399,9.4135399 0 1 1 18.54164,-3.26596 z m 231.72814,-40.86455 a 9.4139484,9.4139484 0 1 1 -18.54164,3.27067 9.4139484,9.4139484 0 1 1 18.54164,-3.27067 z m -218.869,76.07249 a 9.412,9.412 0 1 1 -16.29923,9.412 9.412,9.412 0 1 1 16.30159,-9.412 z m 203.77921,-117.65 a 9.412,9.412 0 1 1 -16.30158,9.412 9.412,9.412 0 1 1 16.30158,-9.412 z m -179.5739,146.54484 a 9.4147671,9.4147671 0 1 1 -12.10383,14.42389 9.4147671,9.4147671 0 1 1 12.10383,-14.42389 z m 151.25084,-180.25157 a 9.4137218,9.4137218 0 1 1 -12.10618,14.41919 9.4129663,9.4129663 0 1 1 12.10383,-14.41919 z m -118.80297,198.99792 a 9.412,9.412 0 1 1 -6.4378,17.68515 9.412,9.412 0 1 1 6.44722,-17.68515 z m 80.47966,-221.11141 a 9.412,9.412 0 1 1 -6.44016,17.6828 9.412,9.412 0 1 1 6.43781,-17.68515 z M -829.989,-749.96984 a 9.412,9.412 0 1 1 -18.824,0 9.412,9.412 0 1 1 18.824,0 z m 178.928,0 a 9.412,9.412 0 1 1 -18.824,0 9.412,9.412 0 1 1 18.824,0 z m -98.926,-80.002 a 9.412,9.412 0 1 1 0,-18.824 9.412,9.412 0 1 1 0,18.824 z m 0,178.828 a 9.412,9.412 0 1 1 0,-18.824 9.412,9.412 0 1 1 0,18.824 z m -56.63261,-42.27164 a 9.412,9.412 0 1 1 -13.30857,13.30857 9.412,9.412 0 1 1 13.30857,-13.30857 z m 126.45022,-126.45022 a 9.412,9.412 0 1 1 -13.30857,13.30857 9.412,9.412 0 1 1 13.30857,-13.30857 z m -126.37493,13.26151 a 9.412,9.412 0 1 1 -13.30856,-13.30857 9.412,9.412 0 1 1 13.30856,13.30857 z m 126.45022,126.45022 a 9.412,9.412 0 1 1 -13.30856,-13.30857 9.412,9.412 0 1 1 13.30856,13.30857 z m -69.8929,-121.58187 a 9.412,9.412 0 1 1 0,-18.824 9.412,9.412 0 1 1 0,18.824 z m 0,122.356 a 9.412,9.412 0 1 1 0,-18.824 9.412,9.412 0 1 1 0,18.824 z" />
</svg>
