<?xml version="1.0" encoding="UTF-8" standalone="no"?>
<svg
   version="1.1"
   preserveAspectRatio="xMidYMid"
   zoomAndPan="magnify"
   id="Electron shell Ununoctium"
   viewBox="-1000 -1000 500 500"
   width="500"
   height="500"
   xmlns="http://www.w3.org/2000/svg"
   xmlns:svg="http://www.w3.org/2000/svg"
   xmlns:rdf="http://www.w3.org/1999/02/22-rdf-syntax-ns#"
   xmlns:cc="http://creativecommons.org/ns#"
   xmlns:dc="http://purl.org/dc/elements/1.1/">
  <metadata
     id="metadata4245">
    <rdf:RDF>
      <cc:Work
         rdf:about="">
        <dc:format>image/svg+xml</dc:format>
        <dc:type
           rdf:resource="http://purl.org/dc/dcmitype/StillImage" />
      </cc:Work>
    </rdf:RDF>
  </metadata>
  <desc
     id="element_description">118 Uuo (Ununoctium) Legend_color:#e8e8e8</desc>
  <desc
     id="element_electron_configuration">2,8,18,32,32,18,8</desc>
  <defs
     id="defs4107">
    <circle
       id="electron"
       fill="#77868b"
       stroke="none"
       r="30"
       cx="0"
       cy="0" />
  </defs>
  <path
     fill="#c0ffff"
     stroke="#000000"
     stroke-width="0.709"
     stroke-miterlimit="0"
     d="m -712.5,-750 a 37.5,37.5 0 1 1 -75,0 37.5,37.5 0 1 1 75,0 z"
     id="nucleus"
     style="display:inline;fill:#db1828;fill-opacity:1;stroke:none;stroke-width:0;stroke-dasharray:none" />
  <path
     id="orbit"
     style="display:inline;fill:none;fill-opacity:1;stroke:#77868b;stroke-width:1.5;stroke-dasharray:none;stroke-opacity:1"
     d="m -689.43235,-750.08602 a 60.593765,60.58741 0 1 1 -121.18753,0 60.612825,60.606472 0 1 1 121.22565,0 z m 28.24212,-4.7e-4 a 88.832507,88.688062 0 1 1 -177.66495,0 88.86059,88.716103 0 1 1 177.72118,0 z m 27.64941,0.63812 a 117.07134,117.0777 0 1 1 -234.14259,0 117.10836,117.11472 0 1 1 234.21671,0 z m 28.63059,-0.15295 a 145.28413,145.30976 0 1 1 -290.56824,0 145.33012,145.35576 0 1 1 290.66024,0 z m 28.21435,-0.37505 a 173.41877,173.54182 0 1 1 -346.83742,0 173.47359,173.59669 0 1 1 346.94707,0 z m 27.82353,0.47153 a 201.70977,201.69515 0 1 1 -403.41953,0 201.77353,201.75892 0 1 1 403.54706,0 z m 28.72235,-0.45789 a 229.92259,229.95351 0 1 1 -459.84518,0 229.99518,230.02612 0 1 1 459.99036,0 z" />
  <path
     id="99-Es"
     style="display:inline;fill:#36a4ff;fill-opacity:1;stroke:none;stroke-width:0;stroke-dasharray:none;stroke-opacity:1"
     d="m -750,-942.6241 a 9.412,9.412 0 1 1 0,-18.824 9.412,9.412 0 1 1 0,18.824 z m 0,404.0161 a 9.412,9.412 0 1 1 0,-18.824 9.412,9.412 0 1 1 0,18.824 z m 192.746,-211.37 a 9.412,9.412 0 1 1 18.824,0 9.412,9.412 0 1 1 -18.824,0 z m -404.216,0 a 9.412,9.412 0 1 1 18.824,0 9.412,9.412 0 1 1 -18.824,0 z m 347.96753,-136.11292 a 9.412,9.412 0 1 1 13.31092,-13.30857 9.412,9.412 0 1 1 -13.30857,13.30857 z m -286.17186,286.17186 a 9.412,9.412 0 1 1 13.31092,-13.30857 9.412,9.412 0 1 1 -13.30857,13.30857 z m 286.11068,-13.2568 a 9.412,9.412 0 1 1 13.30622,13.30856 9.412,9.412 0 1 1 -13.30857,-13.30856 z m -286.17186,-286.17186 a 9.412,9.412 0 1 1 13.30622,13.30856 9.412,9.412 0 1 1 -13.30857,-13.30856 z m 149.75051,-71.48885 a 9.412,9.412 0 1 1 0,-18.824 9.412,9.412 0 1 1 0,18.824 z m 0,460.48757 a 9.412,9.412 0 1 1 0,-18.824 9.412,9.412 0 1 1 0,18.824 z m -0.006,-375.79369 a 9.412,9.412 0 1 1 0,-18.824 9.412,9.412 0 1 1 0,18.824 z m 0,291.37169 a 9.412,9.412 0 1 1 0,-18.824 9.412,9.412 0 1 1 0,18.824 z m -26.73008,-288.73633 a 9.4126624,9.4126624 0 1 1 -3.67068,-18.46399 9.4138163,9.4138163 0 1 1 3.67068,18.46634 z m 56.91907,286.17186 a 9.4161242,9.4161242 0 1 1 -3.67068,-18.47105 9.4161242,9.4161242 0 1 1 3.67068,18.47105 z m -82.49618,-278.45872 a 9.4123889,9.4123889 0 1 1 -7.20018,-17.39338 9.4123889,9.4123889 0 1 1 7.20018,17.39338 z m 111.64985,269.55968 a 9.412,9.412 0 1 1 -7.20018,-17.38867 9.4134742,9.4134742 0 1 1 7.20018,17.39572 z m -135.18691,-256.92878 a 9.412,9.412 0 1 1 -10.45673,-15.64745 9.412,9.412 0 1 1 10.45673,15.64745 z m 162.09817,242.60136 a 9.412,9.412 0 1 1 -10.45673,-15.65216 9.4196983,9.4196983 0 1 1 10.45673,15.67098 z m -182.73398,-225.67153 a 9.412,9.412 0 1 1 -13.31092,-13.30856 9.412,9.412 0 1 1 13.30857,13.29445 z m 206.31104,206.31575 a 9.412,9.412 0 1 1 -13.31092,-13.30857 9.4139076,9.4139076 0 1 1 13.30857,13.31798 z m -223.26911,-185.57405 a 9.412,9.412 0 1 1 -15.64745,-10.45909 9.412,9.412 0 1 1 15.64745,10.45674 z m 242.5943,162.09817 a 9.412,9.412 0 1 1 -15.64745,-10.45673 9.412,9.412 0 1 1 15.64745,10.45673 z m -255.15461,-138.49758 a 9.4123889,9.4123889 0 1 1 -17.39338,-7.20018 9.4123889,9.4123889 0 1 1 17.39338,7.20018 z m 269.58321,111.65691 a 9.4123889,9.4123889 0 1 1 -17.39338,-7.20018 9.4123889,9.4123889 0 1 1 17.39338,7.20018 z m -277.35282,-86.00215 a 9.4161242,9.4161242 0 1 1 -18.47105,-3.67068 9.4161242,9.4161242 0 1 1 18.47105,3.67068 z m 286.17186,56.92377 a 9.4161242,9.4161242 0 1 1 -18.47105,-3.67068 9.4161242,9.4161242 0 1 1 18.47105,3.67068 z m -288.8774,-30.65336 a 9.412,9.412 0 1 1 -18.824,0 9.412,9.412 0 1 1 18.824,0 z m 291.47159,0 a 9.412,9.412 0 1 1 -18.824,0 9.412,9.412 0 1 1 18.824,0 z m -288.82917,27.01798 a 9.4138163,9.4138163 0 1 1 -18.46634,3.67068 9.4138163,9.4138163 0 1 1 18.46634,-3.67068 z m 286.17186,-56.91907 a 9.4138163,9.4138163 0 1 1 -18.46634,3.67068 9.4138163,9.4138163 0 1 1 18.46634,-3.67068 z m -278.47049,82.51265 a 9.4123889,9.4123889 0 1 1 -17.39338,7.20018 9.4123889,9.4123889 0 1 1 17.39338,-7.20018 z m 269.55968,-111.65691 a 9.4123889,9.4123889 0 1 1 -17.39338,7.20018 9.4123889,9.4123889 0 1 1 17.39338,-7.20018 z m -256.92407,135.19397 a 9.412,9.412 0 1 1 -15.64745,10.45438 9.412,9.412 0 1 1 15.64745,-10.45673 z m 242.5943,-162.10288 a 9.412,9.412 0 1 1 -15.64745,10.45674 9.412,9.412 0 1 1 15.64745,-10.45674 z m -225.67152,182.73869 a 9.412,9.412 0 1 1 -13.30857,13.31092 9.412,9.412 0 1 1 13.30857,-13.30857 z m 206.33457,-206.31104 a 9.412,9.412 0 1 1 -13.30857,13.30621 9.412,9.412 0 1 1 13.30857,-13.30856 z m -185.57641,223.26676 a 9.4125242,9.4125242 0 1 1 -10.45908,15.65215 9.412,9.412 0 1 1 10.45673,-15.65215 z m 162.09817,-242.60136 a 9.4125242,9.4125242 0 1 1 -10.45908,15.65215 9.412,9.412 0 1 1 10.45673,-15.65215 z m -138.49758,255.15226 a 9.412,9.412 0 1 1 -7.20018,17.38867 9.412,9.412 0 1 1 7.20018,-17.38867 z m 111.64985,-269.56439 a 9.4123889,9.4123889 0 1 1 -7.20018,17.39338 9.4123889,9.4123889 0 1 1 7.20018,-17.39338 z m -86.00215,277.34341 a 9.4138163,9.4138163 0 1 1 -3.67068,18.46634 9.4138163,9.4138163 0 1 1 3.67068,-18.46634 z m 56.91907,-286.16716 a 9.4138193,9.4138193 0 1 1 -3.67068,18.46635 9.4138193,9.4138193 0 1 1 3.67068,-18.46635 z m -30.36511,44.1564 a 9.412,9.412 0 1 1 0,-18.824 9.412,9.412 0 1 1 0,18.824 z m 0,234.89969 a 9.412,9.412 0 1 1 0,-18.824 9.412,9.412 0 1 1 0,18.824 z m -37.55188,-228.42188 a 9.412,9.412 0 1 1 -6.43781,-17.68515 9.4146542,9.4146542 0 1 1 6.43781,17.69456 z m 80.47731,221.11141 a 9.412,9.412 0 1 1 -6.43781,-17.6875 9.412,9.412 0 1 1 6.43781,17.68515 z m -113.03342,-202.19329 a 9.4147671,9.4147671 0 1 1 -12.10383,-14.42389 9.4147671,9.4147671 0 1 1 12.10383,14.42389 z m 151.25084,180.24686 a 9.4137212,9.4137212 0 1 1 -12.10618,-14.41918 9.4129647,9.4129647 0 1 1 12.10383,14.41918 z m -175.48203,-151.5332 a 9.412,9.412 0 1 1 -16.30159,-9.412 9.412,9.412 0 1 1 16.30159,9.412 z m 203.77686,117.65 a 9.412,9.412 0 1 1 -16.30159,-9.412 9.412,9.412 0 1 1 16.30159,9.412 z m -216.53483,-82.2797 a 9.4135404,9.4135404 0 1 1 -18.54164,-3.26597 9.4135404,9.4135404 0 1 1 18.54164,3.26597 z m 231.7305,40.85984 a 9.4135399,9.4135399 0 1 1 -18.54164,-3.26596 9.412,9.412 0 1 1 18.54164,3.24714 z m -231.83638,-3.20008 a 9.4135404,9.4135404 0 1 1 -18.54164,3.26597 9.4135404,9.4135404 0 1 1 18.54164,-3.26597 z m 231.72814,-40.86455 a 9.4139484,9.4139484 0 1 1 -18.54164,3.27067 9.4139484,9.4139484 0 1 1 18.54164,-3.27067 z m -218.869,76.07249 a 9.412,9.412 0 1 1 -16.29923,9.412 9.412,9.412 0 1 1 16.30159,-9.412 z m 203.77921,-117.65 a 9.412,9.412 0 1 1 -16.30158,9.412 9.412,9.412 0 1 1 16.30158,-9.412 z m -179.5739,146.54484 a 9.4147671,9.4147671 0 1 1 -12.10383,14.42389 9.4147671,9.4147671 0 1 1 12.10383,-14.42389 z m 151.25084,-180.25156 a 9.4137212,9.4137212 0 1 1 -12.10618,14.41918 9.4129647,9.4129647 0 1 1 12.10383,-14.41918 z m -118.80297,198.99791 a 9.412,9.412 0 1 1 -6.4378,17.68515 9.412,9.412 0 1 1 6.44722,-17.68515 z m 80.47966,-221.11141 a 9.412,9.412 0 1 1 -6.44016,17.6828 9.412,9.412 0 1 1 6.43781,-17.68515 z m -122.77954,119.05709 a 9.412,9.412 0 1 1 -18.824,0 9.412,9.412 0 1 1 18.824,0 z m 178.828,0 a 9.412,9.412 0 1 1 -18.824,0 9.412,9.412 0 1 1 18.824,0 z m -98.826,-80.00199 a 9.412005,9.412005 0 1 1 0,-18.82401 9.412005,9.412005 0 1 1 0,18.82401 z m 0,178.82799 a 9.412,9.412 0 1 1 0,-18.824 9.412,9.412 0 1 1 0,18.824 z m -56.632,-42.27164 a 9.412,9.412 0 1 1 -13.30857,13.30857 9.412,9.412 0 1 1 13.30857,-13.30857 z m 126.45022,-126.45022 a 9.412,9.412 0 1 1 -13.30857,13.30857 9.412,9.412 0 1 1 13.30857,-13.30857 z m -126.37493,13.26151 a 9.412,9.412 0 1 1 -13.30856,-13.30857 9.412,9.412 0 1 1 13.30856,13.30857 z m 126.45022,126.45022 a 9.412,9.412 0 1 1 -13.30856,-13.30857 9.412,9.412 0 1 1 13.30856,13.30857 z m -69.89351,-121.58187 a 9.412,9.412 0 1 1 0,-18.824 9.412,9.412 0 1 1 0,18.824 z m 0,122.356 a 9.412,9.412 0 1 1 0,-18.824 9.412,9.412 0 1 1 0,18.824 z m -0.0584,-235.00116 a 9.412,9.412 0 1 1 0,-18.824 9.412,9.412 0 1 1 0,18.824 z m -35.54248,3.83068 a 9.412,9.412 0 1 1 -4.04716,-18.37693 9.412,9.412 0 1 1 4.04716,18.37693 z m -33.74202,11.41205 a 9.412,9.412 0 1 1 -7.90608,-17.08278 9.412,9.412 0 1 1 7.90608,17.08278 z m -30.57959,18.25457 a 9.412,9.412 0 1 1 -11.38852,-14.9839 9.412,9.412 0 1 1 11.38852,14.9839 z m -25.93947,24.5465 a 9.412,9.412 0 1 1 -14.34389,-12.18854 9.412,9.412 0 1 1 14.34389,12.18854 z m -33.09494,62.58039 a 9.412,9.412 0 1 1 -18.13693,-5.03542 9.412,9.412 0 1 1 18.13693,5.03542 z m -5.72485,35.1397 a 9.412,9.412 0 1 1 -18.79577,-1.01885 9.412,9.412 0 1 1 18.79577,1.0165 z m 2.00711,35.61736 a 9.4139445,9.4139445 0 1 1 -18.57929,3.04949 9.412,9.412 0 1 1 18.56517,-3.04949 z m 9.36494,34.36086 a 9.4128158,9.4128158 0 1 1 -17.48985,6.96488 9.412,9.412 0 1 1 17.48749,-6.96488 z m 16.62865,31.38902 a 9.412,9.412 0 1 1 -15.57686,10.56026 9.412,9.412 0 1 1 15.57686,-10.56026 z m 23.12999,27.09244 a 9.412,9.412 0 1 1 -12.9415,13.66623 9.412,9.412 0 1 1 12.9415,-13.66623 z m 28.44777,21.60054 a 9.412,9.412 0 1 1 -9.70377,16.12982 9.4169237,9.4169237 0 1 1 9.70377,-16.14158 z m 32.25492,15.10156 a 9.412,9.412 0 1 1 -6.01191,17.83574 9.412,9.412 0 1 1 6.01427,-17.83574 z m 34.73028,7.5343 a 9.412,9.412 0 1 1 -2.03299,18.71106 9.412,9.412 0 1 1 2.03299,-18.71106 z m 35.68089,0.08 a 9.412,9.412 0 1 1 2.033,18.71106 9.412,9.412 0 1 1 -2.033,-18.71106 z m 34.71381,-7.7649 a 9.412,9.412 0 1 1 6.01427,17.83574 9.412,9.412 0 1 1 -6.01427,-17.83574 z m 32.49493,-14.92978 a 9.4122853,9.4122853 0 1 1 9.70142,16.13217 9.4169237,9.4169237 0 1 1 -9.70377,-16.14158 z m 28.34424,-21.48289 a 9.4124485,9.4124485 0 1 1 12.9415,13.67093 9.4124485,9.4124485 0 1 1 -12.9415,-13.67093 z m 22.98881,-27.11833 a 9.412,9.412 0 1 1 15.57686,10.56027 9.412,9.412 0 1 1 -15.57686,-10.56027 z m 16.64277,-31.57255 a 9.412,9.412 0 1 1 17.4875,6.96488 9.412,9.412 0 1 1 -17.4875,-6.96488 z m 9.42847,-34.33733 a 9.4131836,9.4131836 0 1 1 18.57929,3.04008 9.4193503,9.4193503 0 1 1 -18.5887,-3.0589 z m 2.13417,-35.59383 a 9.412,9.412 0 1 1 18.79577,-1.01885 9.412,9.412 0 1 1 -18.79577,1.0165 z m -5.80485,-35.12558 a 9.412,9.412 0 1 1 18.13693,-5.03542 9.412,9.412 0 1 1 -18.1181,5.03542 z m -13.25445,-33.08318 a 9.412,9.412 0 1 1 16.62865,-8.81669 9.4123035,9.4123035 0 1 1 -16.631,8.81904 z m -19.96285,-29.43133 a 9.412,9.412 0 1 1 14.34389,-12.18854 9.412,9.412 0 1 1 -14.34389,12.18854 z m -25.79359,-24.52296 a 9.412,9.412 0 1 1 11.38852,-14.98391 9.412,9.412 0 1 1 -11.38852,14.98391 z m -30.59841,-18.47576 a 9.412,9.412 0 1 1 7.90608,-17.08278 9.412,9.412 0 1 1 -7.90608,17.08278 z m -33.74202,-11.3344 a 9.412,9.412 0 1 1 4.04716,-18.38164 9.4201437,9.4201437 0 1 1 -4.04716,18.40046 z m -180.96923,83.8068 a 9.412,9.412 0 1 1 -16.62865,-8.81669 9.4123052,9.4123052 0 1 1 16.63101,8.81904 z" />
</svg>
