<?xml version="1.0" encoding="UTF-8" standalone="no"?>
<svg
   version="1.1"
   preserveAspectRatio="xMidYMid"
   zoomAndPan="magnify"
   id="Electron shell Ununoctium"
   viewBox="-1000 -1000 500 500"
   width="500"
   height="500"
   xmlns="http://www.w3.org/2000/svg"
   xmlns:svg="http://www.w3.org/2000/svg"
   xmlns:rdf="http://www.w3.org/1999/02/22-rdf-syntax-ns#"
   xmlns:cc="http://creativecommons.org/ns#"
   xmlns:dc="http://purl.org/dc/elements/1.1/">
  <metadata
     id="metadata4245">
    <rdf:RDF>
      <cc:Work
         rdf:about="">
        <dc:format>image/svg+xml</dc:format>
        <dc:type
           rdf:resource="http://purl.org/dc/dcmitype/StillImage" />
      </cc:Work>
    </rdf:RDF>
  </metadata>
  <desc
     id="element_description">118 Uuo (Ununoctium) Legend_color:#e8e8e8</desc>
  <desc
     id="element_electron_configuration">2,8,18,32,32,18,8</desc>
  <defs
     id="defs4107">
    <circle
       id="electron"
       fill="#77868b"
       stroke="none"
       r="30"
       cx="0"
       cy="0" />
  </defs>
  <path
     fill="#c0ffff"
     stroke="#000000"
     stroke-width="0.709"
     stroke-miterlimit="0"
     d="m -712.5,-750 a 37.5,37.5 0 1 1 -75,0 37.5,37.5 0 1 1 75,0 z"
     id="nucleus"
     style="display:inline;fill:#db1828;fill-opacity:1;stroke:none;stroke-width:0;stroke-dasharray:none" />
  <path
     id="orbit"
     style="display:inline;fill:none;fill-opacity:1;stroke:#77868b;stroke-width:1.5;stroke-dasharray:none;stroke-opacity:1"
     d="m -689.43235,-750.08602 a 60.593765,60.58741 0 1 1 -121.18753,0 60.612825,60.606472 0 1 1 121.22565,0 z m 28.24212,-4.7e-4 a 88.832507,88.688062 0 1 1 -177.66495,0 88.86059,88.716103 0 1 1 177.72118,0 z m 27.64941,0.63812 a 117.07134,117.0777 0 1 1 -234.14259,0 117.10836,117.11472 0 1 1 234.21671,0 z m 28.63059,-0.15295 a 145.28413,145.30976 0 1 1 -290.56824,0 145.33012,145.35576 0 1 1 290.66024,0 z m 28.21435,-0.37505 a 173.41877,173.54182 0 1 1 -346.83742,0 173.47359,173.59669 0 1 1 346.94707,0 z m 27.82353,0.47153 a 201.70977,201.69515 0 1 1 -403.41953,0 201.77353,201.75892 0 1 1 403.54706,0 z m 28.72235,-0.45789 a 229.92259,229.95351 0 1 1 -459.84518,0 229.99518,230.02612 0 1 1 459.99036,0 z" />
  <path
     id="117-Ts"
     style="display:inline;fill:#36a4ff;fill-opacity:1;stroke:none;stroke-width:0;stroke-dasharray:none;stroke-opacity:1"
     d="m -750.00183,-970.83657 a 9.412,9.412 0 1 1 0,-18.824 9.412,9.412 0 1 1 0,18.824 z m -172.73538,83.31032 a 9.4133,9.4133 0 1 1 -14.72037,-11.73676 9.412,9.412 0 1 1 14.70625,11.73676 z m -42.74224,187.01173 a 9.4126177,9.4126177 0 1 1 -18.3534,4.18834 9.4126177,9.4126177 0 1 1 18.3534,-4.18834 z m 119.5724,150.01787 a 9.4127424,9.4127424 0 1 1 -8.16962,16.96043 9.4127424,9.4127424 0 1 1 8.16962,-16.96043 z m 191.86362,0.17883 a 9.412,9.412 0 1 1 8.1602,16.96042 9.412,9.412 0 1 1 -8.1602,-16.96042 z m 119.72064,-150.09316 a 9.4136658,9.4136658 0 1 1 18.3534,4.19775 9.4136658,9.4136658 0 1 1 -18.3534,-4.19775 z m -42.51165,-186.99291 a 9.412,9.412 0 1 1 14.71801,-11.72736 9.412,9.412 0 1 1 -14.72037,11.72736 z m -173.18056,1.23767 a 9.412,9.412 0 1 1 0,-18.824 9.412,9.412 0 1 1 0,18.824 z m 0,291.47222 a 9.412,9.412 0 1 1 0,-18.824 9.412,9.412 0 1 1 0,18.824 z m -26.73032,-288.83686 a 9.4126624,9.4126624 0 1 1 -3.67068,-18.46399 9.4138193,9.4138193 0 1 1 3.67068,18.46635 z m 56.91907,286.17186 a 9.4161242,9.4161242 0 1 1 -3.67068,-18.47105 9.4161242,9.4161242 0 1 1 3.67068,18.47105 z m -82.49618,-278.45872 a 9.4123889,9.4123889 0 1 1 -7.20018,-17.39338 9.4123889,9.4123889 0 1 1 7.20018,17.39338 z m 111.64985,269.55968 a 9.412,9.412 0 1 1 -7.20018,-17.38867 9.4134746,9.4134746 0 1 1 7.20018,17.39573 z m -135.18691,-256.92878 a 9.412,9.412 0 1 1 -10.45673,-15.64745 9.412,9.412 0 1 1 10.45673,15.64745 z m 162.09817,242.60136 a 9.412,9.412 0 1 1 -10.45673,-15.65215 9.4196983,9.4196983 0 1 1 10.45673,15.67098 z M -846.4953,-846.25698 a 9.412,9.412 0 1 1 -13.31092,-13.30857 9.412,9.412 0 1 1 13.30857,13.29445 z m 206.31104,206.31574 a 9.412,9.412 0 1 1 -13.31092,-13.30856 9.4139076,9.4139076 0 1 1 13.30857,13.31798 z m -223.26911,-185.57405 a 9.412,9.412 0 1 1 -15.64745,-10.45908 9.412,9.412 0 1 1 15.64745,10.45673 z m 242.5943,162.09817 a 9.412,9.412 0 1 1 -15.64745,-10.45673 9.412,9.412 0 1 1 15.64745,10.45673 z M -876.01369,-801.9147 a 9.4123871,9.4123871 0 1 1 -17.39337,-7.20018 9.4123871,9.4123871 0 1 1 17.39337,7.20018 z m 269.58321,111.65691 a 9.4123871,9.4123871 0 1 1 -17.39337,-7.20018 9.4123871,9.4123871 0 1 1 17.39337,7.20018 z m -277.35281,-86.00215 a 9.4161242,9.4161242 0 1 1 -18.47105,-3.67068 9.4161242,9.4161242 0 1 1 18.47105,3.67068 z m 286.17186,56.92378 a 9.4161242,9.4161242 0 1 1 -18.47105,-3.67068 9.4161242,9.4161242 0 1 1 18.47105,3.67068 z m -288.77807,-30.65407 a 9.412,9.412 0 1 1 -18.824,0 9.412,9.412 0 1 1 18.824,0 z m 291.47203,0 a 9.412,9.412 0 1 1 -18.824,0 9.412,9.412 0 1 1 18.824,0 z m -288.92935,27.01868 a 9.4138193,9.4138193 0 1 1 -18.46635,3.67068 9.4138193,9.4138193 0 1 1 18.46635,-3.67068 z m 286.17186,-56.91907 a 9.4138193,9.4138193 0 1 1 -18.46635,3.67068 9.4138193,9.4138193 0 1 1 18.46635,-3.67068 z m -278.47049,82.51265 a 9.4123889,9.4123889 0 1 1 -17.39338,7.20018 9.4123889,9.4123889 0 1 1 17.39338,-7.20018 z m 269.55968,-111.65691 a 9.4123889,9.4123889 0 1 1 -17.39338,7.20018 9.4123889,9.4123889 0 1 1 17.39338,-7.20018 z m -256.92407,135.19397 a 9.412,9.412 0 1 1 -15.64745,10.45438 9.412,9.412 0 1 1 15.64745,-10.45673 z m 242.5943,-162.10287 a 9.412,9.412 0 1 1 -15.64745,10.45673 9.412,9.412 0 1 1 15.64745,-10.45673 z m -225.66682,182.73868 a 9.412,9.412 0 1 1 -13.30857,13.31092 9.412,9.412 0 1 1 13.30857,-13.30856 z m 206.33457,-206.31104 a 9.412,9.412 0 1 1 -13.30857,13.30622 9.412,9.412 0 1 1 13.30857,-13.30857 z m -185.57641,223.26676 a 9.4125245,9.4125245 0 1 1 -10.45908,15.65216 9.412,9.412 0 1 1 10.45673,-15.65216 z m 162.09817,-242.60136 a 9.4125245,9.4125245 0 1 1 -10.45908,15.65216 9.412,9.412 0 1 1 10.45673,-15.65216 z m -138.49758,255.15226 a 9.412,9.412 0 1 1 -7.20018,17.38867 9.412,9.412 0 1 1 7.20018,-17.38867 z m 111.64985,-269.56438 a 9.4123871,9.4123871 0 1 1 -7.20018,17.39337 9.4123871,9.4123871 0 1 1 7.20018,-17.39337 z m -86.00215,277.3434 a 9.4138163,9.4138163 0 1 1 -3.67068,18.46634 9.4138163,9.4138163 0 1 1 3.67068,-18.46634 z m 56.91907,-286.16715 a 9.4138163,9.4138163 0 1 1 -3.67068,18.46634 9.4138163,9.4138163 0 1 1 3.67068,-18.46634 z m -67.92169,50.6342 a 9.412,9.412 0 1 1 -6.43781,-17.68514 9.4146542,9.4146542 0 1 1 6.43781,17.69456 z m 80.4773,221.11141 a 9.412,9.412 0 1 1 -6.43781,-17.6875 9.412,9.412 0 1 1 6.43781,17.68515 z m -113.03341,-202.19329 a 9.4147671,9.4147671 0 1 1 -12.10383,-14.42389 9.4147671,9.4147671 0 1 1 12.10383,14.42389 z m 151.25084,180.24686 a 9.4137212,9.4137212 0 1 1 -12.10619,-14.41918 9.4129647,9.4129647 0 1 1 12.10383,14.41918 z m -175.48204,-151.5332 a 9.412,9.412 0 1 1 -16.30158,-9.412 9.412,9.412 0 1 1 16.30158,9.412 z m 203.77686,117.65 a 9.412,9.412 0 1 1 -16.30158,-9.412 9.412,9.412 0 1 1 16.30158,9.412 z m -216.53482,-82.2797 a 9.4135404,9.4135404 0 1 1 -18.54164,-3.26597 9.4135404,9.4135404 0 1 1 18.54164,3.26597 z m 231.7305,40.85984 a 9.4135399,9.4135399 0 1 1 -18.54164,-3.26596 9.412,9.412 0 1 1 18.54164,3.24714 z m -231.83639,-3.20008 a 9.4135404,9.4135404 0 1 1 -18.54164,3.26597 9.4135404,9.4135404 0 1 1 18.54164,-3.26597 z m 231.72815,-40.86455 a 9.4139484,9.4139484 0 1 1 -18.54164,3.27067 9.4139484,9.4139484 0 1 1 18.54164,-3.27067 z m -218.869,76.07249 a 9.412,9.412 0 1 1 -16.29923,9.412 9.412,9.412 0 1 1 16.30158,-9.412 z m 203.77921,-117.65 a 9.412,9.412 0 1 1 -16.30158,9.412 9.412,9.412 0 1 1 16.30158,-9.412 z m -179.5739,146.54484 a 9.4147671,9.4147671 0 1 1 -12.10383,14.42389 9.4147671,9.4147671 0 1 1 12.10383,-14.42389 z m 151.25084,-180.25156 a 9.4137212,9.4137212 0 1 1 -12.10619,14.41918 9.4129657,9.4129657 0 1 1 12.10384,-14.41918 z m -118.80297,198.99791 a 9.412,9.412 0 1 1 -6.43781,17.68515 9.412,9.412 0 1 1 6.44722,-17.68515 z m 80.47966,-221.11141 a 9.412,9.412 0 1 1 -6.44016,17.6828 9.412,9.412 0 1 1 6.4378,-17.68515 z m -122.77954,119.0571 a 9.412,9.412 0 1 1 -18.824,0 9.412,9.412 0 1 1 18.824,0 z m 178.92777,0 a 9.412,9.412 0 1 1 -18.824,0 9.412,9.412 0 1 1 18.824,0 z m -98.92553,-80.002 a 9.412,9.412 0 1 1 0,-18.824 9.412,9.412 0 1 1 0,18.824 z m 0,178.828 a 9.412,9.412 0 1 1 0,-18.824 9.412,9.412 0 1 1 0,18.824 z m -56.63225,-42.27165 a 9.412,9.412 0 1 1 -13.30856,13.30857 9.412,9.412 0 1 1 13.30856,-13.30857 z m 126.45022,-126.45022 a 9.412,9.412 0 1 1 -13.30856,13.30857 9.412,9.412 0 1 1 13.30856,-13.30857 z m -126.37492,13.26151 a 9.412,9.412 0 1 1 -13.30857,-13.30857 9.412,9.412 0 1 1 13.30857,13.30857 z m 126.45022,126.45022 a 9.412,9.412 0 1 1 -13.30857,-13.30857 9.412,9.412 0 1 1 13.30857,13.30857 z M -750.015,-801.76411 a 9.412,9.412 0 1 1 0,-18.824 9.412,9.412 0 1 1 0,18.824 z m 0,122.356 a 9.412,9.412 0 1 1 0,-18.824 9.412,9.412 0 1 1 0,18.824 z m -0.023,-234.99881 a 9.412,9.412 0 1 1 0,-18.824 9.412,9.412 0 1 1 0,18.824 z m 0,347.83892 a 9.412,9.412 0 1 1 0,-18.824 9.412,9.412 0 1 1 0,18.824 z m 164.53256,-183.434 a 9.412,9.412 0 1 1 18.824,0 9.412,9.412 0 1 1 -18.824,0 z m -347.94403,0 a 9.412,9.412 0 1 1 18.824,0 9.412,9.412 0 1 1 -18.824,0 z m 151.19816,-161.22602 a 9.4138163,9.4138163 0 1 1 -3.67068,-18.46634 9.4138163,9.4138163 0 1 1 3.67068,18.46634 z m 67.93111,341.56148 a 9.4138163,9.4138163 0 1 1 -3.67068,-18.46634 9.4138163,9.4138163 0 1 1 3.67068,18.46634 z m 125.83138,-212.27119 a 9.4138163,9.4138163 0 1 1 18.46634,-3.67068 9.4138163,9.4138163 0 1 1 -18.46634,3.67068 z m -341.56148,67.95464 a 9.4138163,9.4138163 0 1 1 18.46634,-3.67068 9.4138163,9.4138163 0 1 1 -18.46634,3.67068 z m 116.9041,-187.9294 a 9.4123889,9.4123889 0 1 1 -7.20018,-17.39338 9.4123889,9.4123889 0 1 1 7.20018,17.39338 z m 133.27392,321.7351 a 9.4123889,9.4123889 0 1 1 -7.20018,-17.39338 9.4123889,9.4123889 0 1 1 7.20018,17.39338 z m 82.05852,-232.6317 a 9.4123889,9.4123889 0 1 1 17.39338,-7.20018 9.4123889,9.4123889 0 1 1 -17.39338,7.20018 z m -321.72569,133.25039 a 9.4123889,9.4123889 0 1 1 17.39338,-7.20018 9.4123889,9.4123889 0 1 1 -17.39338,7.20018 z m 77.98548,-207.11106 a 9.412,9.412 0 1 1 -10.45673,-15.65215 9.412,9.412 0 1 1 10.45673,15.65215 z m 193.46366,289.55312 a 9.412,9.412 0 1 1 -10.45673,-15.65215 9.412,9.412 0 1 1 10.45673,15.65215 z m 35.02676,-244.12375 a 9.412,9.412 0 1 1 15.65215,-10.45673 9.412,9.412 0 1 1 -15.65215,10.45673 z M -902.6002,-647.7532 a 9.412,9.412 0 1 1 15.65215,-10.45673 9.412,9.412 0 1 1 -15.65215,10.45673 z m 36.22523,-218.57632 a 9.412,9.412 0 1 1 -13.30857,-13.30856 9.4139076,9.4139076 0 1 1 13.30857,13.31798 z m 246.14183,246.34172 a 9.412,9.412 0 1 1 -13.30857,-13.30621 9.412,9.412 0 1 1 13.30857,13.30857 z m -13.25681,-246.17086 a 9.412,9.412 0 1 1 13.30857,-13.31092 9.412,9.412 0 1 1 -13.30857,13.30857 z m -246.24145,246.26498 a 9.412,9.412 0 1 1 13.30857,-13.31092 9.412,9.412 0 1 1 -13.30857,13.30857 z m -7.20488,-221.31612 a 9.412,9.412 0 1 1 -15.64745,-10.45908 9.412,9.412 0 1 1 15.64745,10.45673 z m 289.53662,193.46366 a 9.412,9.412 0 1 1 -15.64745,-10.45908 9.412,9.412 0 1 1 15.64745,10.45673 z m -61.10741,-238.87656 a 9.412,9.412 0 1 1 10.45908,-15.64745 9.412,9.412 0 1 1 -10.45673,15.64745 z m -193.48719,289.56018 a 9.412,9.412 0 1 1 10.45908,-15.64745 9.412,9.412 0 1 1 -10.45673,15.64745 z m -50.1142,-215.66421 a 9.4123871,9.4123871 0 1 1 -17.39337,-7.20018 9.4123871,9.4123871 0 1 1 17.39337,7.20018 z m 321.74922,133.26215 a 9.4123871,9.4123871 0 1 1 -17.39337,-7.20018 9.4123871,9.4123871 0 1 1 17.39337,7.20018 z M -687.0019,-901.77131 a 9.4123889,9.4123889 0 1 1 7.20018,-17.39338 9.4123889,9.4123889 0 1 1 -7.20018,17.39338 z m -133.27392,321.72569 a 9.4123889,9.4123889 0 1 1 7.20018,-17.39338 9.4123889,9.4123889 0 1 1 -7.20018,17.39338 z m -91.20228,-201.7274 a 9.4161242,9.4161242 0 1 1 -18.47105,-3.67068 9.4161242,9.4161242 0 1 1 18.47105,3.67068 z m 341.53795,67.93111 a 9.4161242,9.4161242 0 1 1 -18.47105,-3.67068 9.4161242,9.4161242 0 1 1 18.47105,3.67068 z m -148.0037,-197.32258 a 9.4161242,9.4161242 0 1 1 3.67068,-18.47105 9.4161242,9.4161242 0 1 1 -3.67068,18.47105 z m -67.95464,341.56148 a 9.4161242,9.4161242 0 1 1 3.67068,-18.47105 9.4161242,9.4161242 0 1 1 -3.67068,18.47105 z m 35.93649,-373.04462 a 9.412,9.412 0 1 1 0,-18.824 9.412,9.412 0 1 1 0,18.824 z m -0.1,404.11563 a 9.412,9.412 0 1 1 0,-18.824 9.412,9.412 0 1 1 0,18.824 z m -66.32667,-392.51534 a 9.412,9.412 0 1 1 -6.4378,-17.6875 9.412,9.412 0 1 1 6.4378,17.68515 z m 138.42699,380.29186 a 9.412,9.412 0 1 1 -6.4378,-17.6875 9.412,9.412 0 1 1 6.4378,17.68515 z m -196.46373,-346.6769 a 9.4129647,9.4129647 0 1 1 -12.10383,-14.41918 9.4129647,9.4129647 0 1 1 12.10383,14.41918 z m 260.14768,310.03128 a 9.4129647,9.4129647 0 1 1 -12.10383,-14.41918 9.4129647,9.4129647 0 1 1 12.10383,14.41918 z m -303.28994,-258.77353 a 9.412,9.412 0 1 1 -16.30158,-9.412 9.412,9.412 0 1 1 16.30158,9.412 z m 350.50288,202.358 a 9.412,9.412 0 1 1 -16.30158,-9.412 9.412,9.412 0 1 1 16.30158,9.412 z m -373.30815,-139.33995 a 9.4135404,9.4135404 0 1 1 -18.54164,-3.26597 9.4135404,9.4135404 0 1 1 18.54164,3.26597 z m 398.55114,70.26058 a 9.4135404,9.4135404 0 1 1 -18.54164,-3.26597 9.4135404,9.4135404 0 1 1 18.54164,3.26597 z m -398.66879,-3.18126 a 9.4135404,9.4135404 0 1 1 -18.54164,3.26597 9.4135404,9.4135404 0 1 1 18.54164,-3.26597 z m 398.57467,-70.28411 a 9.4135404,9.4135404 0 1 1 -18.54164,3.26597 9.4135404,9.4135404 0 1 1 18.54164,-3.26597 z m -375.65645,133.13274 a 9.412,9.412 0 1 1 -16.30159,9.412 9.412,9.412 0 1 1 16.30159,-9.412 z m 350.50288,-202.358 a 9.412,9.412 0 1 1 -16.30159,9.412 9.412,9.412 0 1 1 16.30159,-9.412 z m -307.37239,253.78046 a 9.413725,9.413725 0 1 1 -12.10619,14.41919 9.4129663,9.4129663 0 1 1 12.10383,-14.41919 z m 260.12415,-310.03128 a 9.413725,9.413725 0 1 1 -12.10619,14.41919 9.4129663,9.4129663 0 1 1 12.10383,-14.41919 z m -202.21212,343.49094 a 9.412,9.412 0 1 1 -6.4378,17.68751 9.412,9.412 0 1 1 6.4378,-17.67103 z m 138.42699,-380.31539 a 9.412,9.412 0 1 1 -6.4378,17.68751 9.412,9.412 0 1 1 6.4378,-17.67103 z m -71.82461,90.73168 a 9.412,9.412 0 1 1 0,-18.824 9.412,9.412 0 1 1 0,18.824 z M -750.027,-623.03 a 9.412,9.412 0 1 1 0,-18.824 9.412,9.412 0 1 1 0,18.824 z" />
</svg>
